solid OpenSCAD_Model
  facet normal 0.980785 0.19509 0
    outer loop
      vertex 0 15 20
      vertex -0.380602 16.9134 0
      vertex -0.380602 16.9134 20
    endloop
  endfacet
  facet normal 0.980785 0.19509 0
    outer loop
      vertex -0.380602 16.9134 0
      vertex 0 15 20
      vertex 0 15 0
    endloop
  endfacet
  facet normal -1 0 0
    outer loop
      vertex -10 -5 0
      vertex -10 15 20
      vertex -10 15 0
    endloop
  endfacet
  facet normal -1 -0 0
    outer loop
      vertex -10 15 20
      vertex -10 -5 0
      vertex -10 -5 20
    endloop
  endfacet
  facet normal -0.195091 0.980785 0
    outer loop
      vertex -5 20 0
      vertex -6.91342 19.6194 20
      vertex -5 20 20
    endloop
  endfacet
  facet normal -0.195091 0.980785 0
    outer loop
      vertex -6.91342 19.6194 20
      vertex -5 20 0
      vertex -6.91342 19.6194 0
    endloop
  endfacet
  facet normal -0 0 1
    outer loop
      vertex -3.54605 1.81629 20
      vertex 0 0 20
      vertex -2.05561 3.10776 20
    endloop
  endfacet
  facet normal 0 0 1
    outer loop
      vertex 0 0 20
      vertex -2.05561 -3.10776 20
      vertex -1.5 -5 20
    endloop
  endfacet
  facet normal 0 0 1
    outer loop
      vertex -3.54605 -1.81629 20
      vertex 0 0 20
      vertex -3.54605 1.81629 20
    endloop
  endfacet
  facet normal 0 0 1
    outer loop
      vertex 0 0 20
      vertex -3.54605 -1.81629 20
      vertex -2.05561 -3.10776 20
    endloop
  endfacet
  facet normal -0 0 1
    outer loop
      vertex -5.4981 1.53563 20
      vertex -3.54605 -1.81629 20
      vertex -3.54605 1.81629 20
    endloop
  endfacet
  facet normal 0 0 1
    outer loop
      vertex -5.4981 1.53563 20
      vertex -5.4981 -1.53563 20
      vertex -3.54605 -1.81629 20
    endloop
  endfacet
  facet normal 0 0 1
    outer loop
      vertex -7.29201 2.35488 20
      vertex -5.4981 -1.53563 20
      vertex -5.4981 1.53563 20
    endloop
  endfacet
  facet normal 0 0 1
    outer loop
      vertex -7.29201 2.35488 20
      vertex -7.29201 -2.35488 20
      vertex -5.4981 -1.53563 20
    endloop
  endfacet
  facet normal 0 0 1
    outer loop
      vertex -10 -5 20
      vertex -7.29201 2.35488 20
      vertex -8.35822 4.01394 20
    endloop
  endfacet
  facet normal 0 0 1
    outer loop
      vertex -7.29201 2.35488 20
      vertex -10 -5 20
      vertex -7.29201 -2.35488 20
    endloop
  endfacet
  facet normal -0 0 1
    outer loop
      vertex -3.54605 11.8163 20
      vertex 0 10 20
      vertex -2.05561 13.1078 20
    endloop
  endfacet
  facet normal 0 0 1
    outer loop
      vertex 0 10 20
      vertex -2.05561 6.89224 20
      vertex -1.5 5 20
    endloop
  endfacet
  facet normal 0 0 1
    outer loop
      vertex -3.54605 8.18371 20
      vertex 0 10 20
      vertex -3.54605 11.8163 20
    endloop
  endfacet
  facet normal 0 0 1
    outer loop
      vertex 0 10 20
      vertex -3.54605 8.18371 20
      vertex -2.05561 6.89224 20
    endloop
  endfacet
  facet normal -0 0 1
    outer loop
      vertex -5.4981 11.5356 20
      vertex -3.54605 8.18371 20
      vertex -3.54605 11.8163 20
    endloop
  endfacet
  facet normal 0 0 1
    outer loop
      vertex -5.4981 11.5356 20
      vertex -5.4981 8.46437 20
      vertex -3.54605 8.18371 20
    endloop
  endfacet
  facet normal 0 0 1
    outer loop
      vertex -7.29201 12.3549 20
      vertex -5.4981 8.46437 20
      vertex -5.4981 11.5356 20
    endloop
  endfacet
  facet normal 0 0 1
    outer loop
      vertex -7.29201 12.3549 20
      vertex -7.29201 7.64512 20
      vertex -5.4981 8.46437 20
    endloop
  endfacet
  facet normal 0 0 1
    outer loop
      vertex -10 15 20
      vertex -7.29201 12.3549 20
      vertex -8.35822 14.0139 20
    endloop
  endfacet
  facet normal 0 0 1
    outer loop
      vertex -7.29201 12.3549 20
      vertex -10 15 20
      vertex -7.29201 7.64512 20
    endloop
  endfacet
  facet normal 0 0 1
    outer loop
      vertex -2.05561 13.1078 20
      vertex 0 15 20
      vertex -1.5 15 20
    endloop
  endfacet
  facet normal 0 0 1
    outer loop
      vertex 0 10 20
      vertex -1.5 5 20
      vertex 0 0 20
    endloop
  endfacet
  facet normal 0 0 1
    outer loop
      vertex -1.5 15 20
      vertex 0 15 20
      vertex -0.380602 16.9134 20
    endloop
  endfacet
  facet normal -0 0 1
    outer loop
      vertex -2.05561 3.10776 20
      vertex 0 0 20
      vertex -1.5 5 20
    endloop
  endfacet
  facet normal 0 0 1
    outer loop
      vertex -2.05561 16.8922 20
      vertex -0.380602 16.9134 20
      vertex -1.46447 18.5355 20
    endloop
  endfacet
  facet normal 0 0 1
    outer loop
      vertex 0 15 20
      vertex -2.05561 13.1078 20
      vertex 0 10 20
    endloop
  endfacet
  facet normal 0 0 1
    outer loop
      vertex 0 0 20
      vertex -1.5 -5 20
      vertex 0 -5 20
    endloop
  endfacet
  facet normal 0 0 1
    outer loop
      vertex -0.380602 16.9134 20
      vertex -2.05561 16.8922 20
      vertex -1.5 15 20
    endloop
  endfacet
  facet normal 0 0 1
    outer loop
      vertex -3.54605 18.1837 20
      vertex -1.46447 18.5355 20
      vertex -3.08658 19.6194 20
    endloop
  endfacet
  facet normal 0 0 1
    outer loop
      vertex -1.46447 18.5355 20
      vertex -3.54605 18.1837 20
      vertex -2.05561 16.8922 20
    endloop
  endfacet
  facet normal 0 0 1
    outer loop
      vertex -5 20 20
      vertex -3.54605 18.1837 20
      vertex -3.08658 19.6194 20
    endloop
  endfacet
  facet normal 0 0 1
    outer loop
      vertex -5 20 20
      vertex -5.4981 18.4644 20
      vertex -3.54605 18.1837 20
    endloop
  endfacet
  facet normal -0 0 1
    outer loop
      vertex -6.91342 19.6194 20
      vertex -5.4981 18.4644 20
      vertex -5 20 20
    endloop
  endfacet
  facet normal 0 0 1
    outer loop
      vertex -6.91342 19.6194 20
      vertex -7.29201 17.6451 20
      vertex -5.4981 18.4644 20
    endloop
  endfacet
  facet normal -0 0 1
    outer loop
      vertex -8.53553 18.5355 20
      vertex -7.29201 17.6451 20
      vertex -6.91342 19.6194 20
    endloop
  endfacet
  facet normal -0 0 1
    outer loop
      vertex -10 15 20
      vertex -8.35822 14.0139 20
      vertex -8.35822 15.9861 20
    endloop
  endfacet
  facet normal 0 0 1
    outer loop
      vertex -7.29201 7.64512 20
      vertex -10 15 20
      vertex -8.35822 5.98606 20
    endloop
  endfacet
  facet normal 0 0 1
    outer loop
      vertex -8.35822 5.98606 20
      vertex -10 15 20
      vertex -8.35822 4.01394 20
    endloop
  endfacet
  facet normal 0 0 1
    outer loop
      vertex -10 -5 20
      vertex -8.35822 4.01394 20
      vertex -10 15 20
    endloop
  endfacet
  facet normal 0 0 1
    outer loop
      vertex -7.29201 17.6451 20
      vertex -9.6194 16.9134 20
      vertex -8.35822 15.9861 20
    endloop
  endfacet
  facet normal 0 0 1
    outer loop
      vertex -9.6194 16.9134 20
      vertex -7.29201 17.6451 20
      vertex -8.53553 18.5355 20
    endloop
  endfacet
  facet normal -0 0 1
    outer loop
      vertex 0 10 20
      vertex 10 0 20
      vertex 10 10 20
    endloop
  endfacet
  facet normal 0 0 1
    outer loop
      vertex 10 0 20
      vertex 0 10 20
      vertex 0 0 20
    endloop
  endfacet
  facet normal 0 0 1
    outer loop
      vertex 0 -5 20
      vertex -1.5 -5 20
      vertex -0.380602 -6.91342 20
    endloop
  endfacet
  facet normal -0 0 1
    outer loop
      vertex -2.05561 -6.89224 20
      vertex -0.380602 -6.91342 20
      vertex -1.5 -5 20
    endloop
  endfacet
  facet normal 0 0 1
    outer loop
      vertex -0.380602 -6.91342 20
      vertex -2.05561 -6.89224 20
      vertex -1.46447 -8.53553 20
    endloop
  endfacet
  facet normal -0 0 1
    outer loop
      vertex -3.54605 -8.18371 20
      vertex -1.46447 -8.53553 20
      vertex -2.05561 -6.89224 20
    endloop
  endfacet
  facet normal 0 0 1
    outer loop
      vertex -1.46447 -8.53553 20
      vertex -3.54605 -8.18371 20
      vertex -3.08658 -9.6194 20
    endloop
  endfacet
  facet normal 0 0 1
    outer loop
      vertex -3.54605 -8.18371 20
      vertex -5 -10 20
      vertex -3.08658 -9.6194 20
    endloop
  endfacet
  facet normal -0 0 1
    outer loop
      vertex -5.4981 -8.46437 20
      vertex -5 -10 20
      vertex -3.54605 -8.18371 20
    endloop
  endfacet
  facet normal 0 0 1
    outer loop
      vertex -5.4981 -8.46437 20
      vertex -6.91342 -9.6194 20
      vertex -5 -10 20
    endloop
  endfacet
  facet normal 0 0 1
    outer loop
      vertex -7.29201 -7.64512 20
      vertex -6.91342 -9.6194 20
      vertex -5.4981 -8.46437 20
    endloop
  endfacet
  facet normal -0 0 1
    outer loop
      vertex -9.6194 -6.91342 20
      vertex -7.29201 -7.64512 20
      vertex -8.35822 -5.98606 20
    endloop
  endfacet
  facet normal 0 0 1
    outer loop
      vertex -7.29201 -7.64512 20
      vertex -8.53553 -8.53553 20
      vertex -6.91342 -9.6194 20
    endloop
  endfacet
  facet normal 0 0 1
    outer loop
      vertex -7.29201 -2.35488 20
      vertex -10 -5 20
      vertex -8.35822 -4.01394 20
    endloop
  endfacet
  facet normal 0 0 1
    outer loop
      vertex -8.35822 15.9861 20
      vertex -9.6194 16.9134 20
      vertex -10 15 20
    endloop
  endfacet
  facet normal 0 0 1
    outer loop
      vertex -8.35822 -4.01394 20
      vertex -10 -5 20
      vertex -8.35822 -5.98606 20
    endloop
  endfacet
  facet normal 0 -0 1
    outer loop
      vertex -9.6194 -6.91342 20
      vertex -8.35822 -5.98606 20
      vertex -10 -5 20
    endloop
  endfacet
  facet normal 0 0 1
    outer loop
      vertex -7.29201 -7.64512 20
      vertex -9.6194 -6.91342 20
      vertex -8.53553 -8.53553 20
    endloop
  endfacet
  facet normal -0.980785 0.195091 0
    outer loop
      vertex -10 15 0
      vertex -9.6194 16.9134 20
      vertex -9.6194 16.9134 0
    endloop
  endfacet
  facet normal -0.980785 0.195091 0
    outer loop
      vertex -9.6194 16.9134 20
      vertex -10 15 0
      vertex -10 15 20
    endloop
  endfacet
  facet normal 1 -0 0
    outer loop
      vertex 0 10 20
      vertex 0 15 0
      vertex 0 15 20
    endloop
  endfacet
  facet normal 1 0 0
    outer loop
      vertex 0 15 0
      vertex 0 10 20
      vertex 0 10 0
    endloop
  endfacet
  facet normal 1 -0 0
    outer loop
      vertex 0 -5 20
      vertex 0 0 0
      vertex 0 0 20
    endloop
  endfacet
  facet normal 1 0 0
    outer loop
      vertex 0 0 0
      vertex 0 -5 20
      vertex 0 -5 0
    endloop
  endfacet
  facet normal 0.980785 -0.19509 0
    outer loop
      vertex -0.380602 -6.91342 20
      vertex 0 -5 0
      vertex 0 -5 20
    endloop
  endfacet
  facet normal 0.980785 -0.19509 0
    outer loop
      vertex 0 -5 0
      vertex -0.380602 -6.91342 20
      vertex -0.380602 -6.91342 0
    endloop
  endfacet
  facet normal 0.83147 -0.55557 0
    outer loop
      vertex -1.46447 -8.53553 20
      vertex -0.380602 -6.91342 0
      vertex -0.380602 -6.91342 20
    endloop
  endfacet
  facet normal 0.83147 -0.55557 0
    outer loop
      vertex -0.380602 -6.91342 0
      vertex -1.46447 -8.53553 20
      vertex -1.46447 -8.53553 0
    endloop
  endfacet
  facet normal 0.83147 0.55557 0
    outer loop
      vertex -0.380602 16.9134 20
      vertex -1.46447 18.5355 0
      vertex -1.46447 18.5355 20
    endloop
  endfacet
  facet normal 0.83147 0.55557 0
    outer loop
      vertex -1.46447 18.5355 0
      vertex -0.380602 16.9134 20
      vertex -0.380602 16.9134 0
    endloop
  endfacet
  facet normal -0.83147 0.55557 0
    outer loop
      vertex -9.6194 16.9134 0
      vertex -8.53553 18.5355 20
      vertex -8.53553 18.5355 0
    endloop
  endfacet
  facet normal -0.83147 0.55557 0
    outer loop
      vertex -8.53553 18.5355 20
      vertex -9.6194 16.9134 0
      vertex -9.6194 16.9134 20
    endloop
  endfacet
  facet normal 0.55557 0.83147 -0
    outer loop
      vertex -1.46447 18.5355 0
      vertex -3.08658 19.6194 20
      vertex -1.46447 18.5355 20
    endloop
  endfacet
  facet normal 0.55557 0.83147 0
    outer loop
      vertex -3.08658 19.6194 20
      vertex -1.46447 18.5355 0
      vertex -3.08658 19.6194 0
    endloop
  endfacet
  facet normal 0.195091 0.980785 -0
    outer loop
      vertex -3.08658 19.6194 0
      vertex -5 20 20
      vertex -3.08658 19.6194 20
    endloop
  endfacet
  facet normal 0.195091 0.980785 0
    outer loop
      vertex -5 20 20
      vertex -3.08658 19.6194 0
      vertex -5 20 0
    endloop
  endfacet
  facet normal -0.55557 0.83147 0
    outer loop
      vertex -6.91342 19.6194 0
      vertex -8.53553 18.5355 20
      vertex -6.91342 19.6194 20
    endloop
  endfacet
  facet normal -0.55557 0.83147 0
    outer loop
      vertex -8.53553 18.5355 20
      vertex -6.91342 19.6194 0
      vertex -8.53553 18.5355 0
    endloop
  endfacet
  facet normal 0.195091 -0.980785 0
    outer loop
      vertex -5 -10 0
      vertex -3.08658 -9.6194 20
      vertex -5 -10 20
    endloop
  endfacet
  facet normal 0.195091 -0.980785 0
    outer loop
      vertex -3.08658 -9.6194 20
      vertex -5 -10 0
      vertex -3.08658 -9.6194 0
    endloop
  endfacet
  facet normal -0.55557 -0.83147 0
    outer loop
      vertex -8.53553 -8.53553 0
      vertex -6.91342 -9.6194 20
      vertex -8.53553 -8.53553 20
    endloop
  endfacet
  facet normal -0.55557 -0.83147 -0
    outer loop
      vertex -6.91342 -9.6194 20
      vertex -8.53553 -8.53553 0
      vertex -6.91342 -9.6194 0
    endloop
  endfacet
  facet normal -0.980785 -0.195091 0
    outer loop
      vertex -9.6194 -6.91342 0
      vertex -10 -5 20
      vertex -10 -5 0
    endloop
  endfacet
  facet normal -0.980785 -0.195091 0
    outer loop
      vertex -10 -5 20
      vertex -9.6194 -6.91342 0
      vertex -9.6194 -6.91342 20
    endloop
  endfacet
  facet normal 0 0 -1
    outer loop
      vertex -4.125 13.4845 0
      vertex 0 10 0
      vertex -4.125 6.51554 0
    endloop
  endfacet
  facet normal 0 0 -1
    outer loop
      vertex 0 10 0
      vertex -4.125 13.4845 0
      vertex -3.25 15 0
    endloop
  endfacet
  facet normal 0 0 -1
    outer loop
      vertex -5.875 6.51554 0
      vertex -4.125 13.4845 0
      vertex -4.125 6.51554 0
    endloop
  endfacet
  facet normal 0 0 -1
    outer loop
      vertex -5.875 6.51554 0
      vertex -5.875 13.4845 0
      vertex -4.125 13.4845 0
    endloop
  endfacet
  facet normal 0 0 -1
    outer loop
      vertex -10 15 0
      vertex -5.875 6.51554 0
      vertex -6.75 5 0
    endloop
  endfacet
  facet normal 0 0 -1
    outer loop
      vertex -5.875 6.51554 0
      vertex -10 15 0
      vertex -5.875 13.4845 0
    endloop
  endfacet
  facet normal 0 0 -1
    outer loop
      vertex -4.125 3.48446 0
      vertex 0 0 0
      vertex -4.125 -3.48446 0
    endloop
  endfacet
  facet normal 0 0 -1
    outer loop
      vertex 0 0 0
      vertex -4.125 3.48446 0
      vertex -3.25 5 0
    endloop
  endfacet
  facet normal 0 0 -1
    outer loop
      vertex -5.875 -3.48446 0
      vertex -4.125 3.48446 0
      vertex -4.125 -3.48446 0
    endloop
  endfacet
  facet normal 0 0 -1
    outer loop
      vertex -5.875 -3.48446 0
      vertex -5.875 3.48446 0
      vertex -4.125 3.48446 0
    endloop
  endfacet
  facet normal 0 0 -1
    outer loop
      vertex -10 -5 0
      vertex -5.875 -3.48446 0
      vertex -6.75 -5 0
    endloop
  endfacet
  facet normal -0 0 -1
    outer loop
      vertex -5.875 -3.48446 0
      vertex -10 -5 0
      vertex -5.875 3.48446 0
    endloop
  endfacet
  facet normal 0 0 -1
    outer loop
      vertex -4.125 -3.48446 0
      vertex 0 -5 0
      vertex -3.25 -5 0
    endloop
  endfacet
  facet normal 0 0 -1
    outer loop
      vertex 0 0 0
      vertex -3.25 5 0
      vertex 0 10 0
    endloop
  endfacet
  facet normal 0 0 -1
    outer loop
      vertex -3.25 -5 0
      vertex 0 -5 0
      vertex -0.380602 -6.91342 0
    endloop
  endfacet
  facet normal 0 0 -1
    outer loop
      vertex -4.125 6.51554 0
      vertex 0 10 0
      vertex -3.25 5 0
    endloop
  endfacet
  facet normal 0 0 -1
    outer loop
      vertex -4.125 -6.51554 0
      vertex -0.380602 -6.91342 0
      vertex -1.46447 -8.53553 0
    endloop
  endfacet
  facet normal 0 0 -1
    outer loop
      vertex 0 10 0
      vertex -3.25 15 0
      vertex 0 15 0
    endloop
  endfacet
  facet normal 0 0 -1
    outer loop
      vertex -4.125 -6.51554 0
      vertex -1.46447 -8.53553 0
      vertex -3.08658 -9.6194 0
    endloop
  endfacet
  facet normal 0 0 -1
    outer loop
      vertex 0 -5 0
      vertex -4.125 -3.48446 0
      vertex 0 0 0
    endloop
  endfacet
  facet normal 0 0 -1
    outer loop
      vertex 0 15 0
      vertex -3.25 15 0
      vertex -0.380602 16.9134 0
    endloop
  endfacet
  facet normal 0 0 -1
    outer loop
      vertex -0.380602 -6.91342 0
      vertex -4.125 -6.51554 0
      vertex -3.25 -5 0
    endloop
  endfacet
  facet normal 0 0 -1
    outer loop
      vertex -5 -10 0
      vertex -4.125 -6.51554 0
      vertex -3.08658 -9.6194 0
    endloop
  endfacet
  facet normal 0 0 -1
    outer loop
      vertex -5 -10 0
      vertex -5.875 -6.51554 0
      vertex -4.125 -6.51554 0
    endloop
  endfacet
  facet normal 0 0 -1
    outer loop
      vertex -6.91342 -9.6194 0
      vertex -5.875 -6.51554 0
      vertex -5 -10 0
    endloop
  endfacet
  facet normal -0 0 -1
    outer loop
      vertex -5.875 3.48446 0
      vertex -10 -5 0
      vertex -6.75 5 0
    endloop
  endfacet
  facet normal 0 0 -1
    outer loop
      vertex -9.6194 -6.91342 0
      vertex -5.875 -6.51554 0
      vertex -8.53553 -8.53553 0
    endloop
  endfacet
  facet normal 0 0 -1
    outer loop
      vertex -8.53553 -8.53553 0
      vertex -5.875 -6.51554 0
      vertex -6.91342 -9.6194 0
    endloop
  endfacet
  facet normal 0 0 -1
    outer loop
      vertex 0 0 0
      vertex 10 10 0
      vertex 10 0 0
    endloop
  endfacet
  facet normal -0 0 -1
    outer loop
      vertex 10 10 0
      vertex 0 0 0
      vertex 0 10 0
    endloop
  endfacet
  facet normal 0 0 -1
    outer loop
      vertex -4.125 16.5155 0
      vertex -0.380602 16.9134 0
      vertex -3.25 15 0
    endloop
  endfacet
  facet normal -0 0 -1
    outer loop
      vertex -0.380602 16.9134 0
      vertex -4.125 16.5155 0
      vertex -1.46447 18.5355 0
    endloop
  endfacet
  facet normal -0 0 -1
    outer loop
      vertex -1.46447 18.5355 0
      vertex -4.125 16.5155 0
      vertex -3.08658 19.6194 0
    endloop
  endfacet
  facet normal 0 0 -1
    outer loop
      vertex -4.125 16.5155 0
      vertex -5 20 0
      vertex -3.08658 19.6194 0
    endloop
  endfacet
  facet normal 0 0 -1
    outer loop
      vertex -5.875 16.5155 0
      vertex -5 20 0
      vertex -4.125 16.5155 0
    endloop
  endfacet
  facet normal 0 0 -1
    outer loop
      vertex -9.6194 16.9134 0
      vertex -5.875 16.5155 0
      vertex -6.75 15 0
    endloop
  endfacet
  facet normal 0 0 -1
    outer loop
      vertex -5.875 16.5155 0
      vertex -6.91342 19.6194 0
      vertex -5 20 0
    endloop
  endfacet
  facet normal 0 0 -1
    outer loop
      vertex -10 15 0
      vertex -6.75 5 0
      vertex -10 -5 0
    endloop
  endfacet
  facet normal -0 0 -1
    outer loop
      vertex -5.875 -6.51554 0
      vertex -9.6194 -6.91342 0
      vertex -6.75 -5 0
    endloop
  endfacet
  facet normal 0 0 -1
    outer loop
      vertex -5.875 13.4845 0
      vertex -10 15 0
      vertex -6.75 15 0
    endloop
  endfacet
  facet normal -0 0 -1
    outer loop
      vertex -6.75 -5 0
      vertex -9.6194 -6.91342 0
      vertex -10 -5 0
    endloop
  endfacet
  facet normal 0 -0 -1
    outer loop
      vertex -9.6194 16.9134 0
      vertex -6.75 15 0
      vertex -10 15 0
    endloop
  endfacet
  facet normal 0 0 -1
    outer loop
      vertex -5.875 16.5155 0
      vertex -8.53553 18.5355 0
      vertex -6.91342 19.6194 0
    endloop
  endfacet
  facet normal 0 0 -1
    outer loop
      vertex -5.875 16.5155 0
      vertex -9.6194 16.9134 0
      vertex -8.53553 18.5355 0
    endloop
  endfacet
  facet normal -0.195091 -0.980785 0
    outer loop
      vertex -6.91342 -9.6194 0
      vertex -5 -10 20
      vertex -6.91342 -9.6194 20
    endloop
  endfacet
  facet normal -0.195091 -0.980785 -0
    outer loop
      vertex -5 -10 20
      vertex -6.91342 -9.6194 0
      vertex -5 -10 0
    endloop
  endfacet
  facet normal 0.55557 -0.83147 0
    outer loop
      vertex -3.08658 -9.6194 0
      vertex -1.46447 -8.53553 20
      vertex -3.08658 -9.6194 20
    endloop
  endfacet
  facet normal 0.55557 -0.83147 0
    outer loop
      vertex -1.46447 -8.53553 20
      vertex -3.08658 -9.6194 0
      vertex -1.46447 -8.53553 0
    endloop
  endfacet
  facet normal -0.83147 -0.55557 0
    outer loop
      vertex -8.53553 -8.53553 0
      vertex -9.6194 -6.91342 20
      vertex -9.6194 -6.91342 0
    endloop
  endfacet
  facet normal -0.83147 -0.55557 0
    outer loop
      vertex -9.6194 -6.91342 20
      vertex -8.53553 -8.53553 0
      vertex -8.53553 -8.53553 20
    endloop
  endfacet
  facet normal 1 -0 0
    outer loop
      vertex 10 0 20
      vertex 10 10 0
      vertex 10 10 20
    endloop
  endfacet
  facet normal 1 0 0
    outer loop
      vertex 10 10 0
      vertex 10 0 20
      vertex 10 0 0
    endloop
  endfacet
  facet normal 0 1 0
    outer loop
      vertex 10 10 20
      vertex 6.46352 10 16.4266
      vertex 0 10 20
    endloop
  endfacet
  facet normal 0 1 0
    outer loop
      vertex 10 10 20
      vertex 7.5 10 15
      vertex 6.46352 10 16.4266
    endloop
  endfacet
  facet normal 0 1 0
    outer loop
      vertex 7.5 10 15
      vertex 6.46352 10 6.42658
      vertex 6.46352 10 13.5734
    endloop
  endfacet
  facet normal 0 1 0
    outer loop
      vertex 7.5 10 5
      vertex 7.5 10 15
      vertex 10 10 20
    endloop
  endfacet
  facet normal 0 1 0
    outer loop
      vertex 7.5 10 15
      vertex 7.5 10 5
      vertex 6.46352 10 6.42658
    endloop
  endfacet
  facet normal 0 1 0
    outer loop
      vertex 7.5 10 5
      vertex 10 10 0
      vertex 6.46352 10 3.57341
    endloop
  endfacet
  facet normal 0 1 -0
    outer loop
      vertex 10 10 0
      vertex 7.5 10 5
      vertex 10 10 20
    endloop
  endfacet
  facet normal 0 1 -0
    outer loop
      vertex 4.78647 10 15.8817
      vertex 0 10 20
      vertex 6.46352 10 16.4266
    endloop
  endfacet
  facet normal 0 1 -0
    outer loop
      vertex 4.78647 10 14.1183
      vertex 0 10 20
      vertex 4.78647 10 15.8817
    endloop
  endfacet
  facet normal 0 1 -0
    outer loop
      vertex 6.46352 10 6.42658
      vertex 4.78647 10 14.1183
      vertex 6.46352 10 13.5734
    endloop
  endfacet
  facet normal 0 1 0
    outer loop
      vertex 4.78647 10 5.88168
      vertex 4.78647 10 14.1183
      vertex 6.46352 10 6.42658
    endloop
  endfacet
  facet normal 0 1 0
    outer loop
      vertex 4.78647 10 14.1183
      vertex 4.78647 10 5.88168
      vertex 0 10 20
    endloop
  endfacet
  facet normal 0 1 0
    outer loop
      vertex 0 10 0
      vertex 4.78647 10 5.88168
      vertex 4.78647 10 4.11832
    endloop
  endfacet
  facet normal 0 1 0
    outer loop
      vertex 0 10 0
      vertex 6.46352 10 3.57341
      vertex 10 10 0
    endloop
  endfacet
  facet normal 0 1 0
    outer loop
      vertex 4.78647 10 5.88168
      vertex 0 10 0
      vertex 0 10 20
    endloop
  endfacet
  facet normal 0 1 0
    outer loop
      vertex 6.46352 10 3.57341
      vertex 0 10 0
      vertex 4.78647 10 4.11832
    endloop
  endfacet
  facet normal 0 -1 0
    outer loop
      vertex 0 0 20
      vertex 6.46352 0 16.4266
      vertex 10 0 20
    endloop
  endfacet
  facet normal 0 -1 0
    outer loop
      vertex 0 0 20
      vertex 4.78647 0 15.8817
      vertex 6.46352 0 16.4266
    endloop
  endfacet
  facet normal 0 -1 0
    outer loop
      vertex 0 0 20
      vertex 4.78647 0 14.1183
      vertex 4.78647 0 15.8817
    endloop
  endfacet
  facet normal 0 -1 0
    outer loop
      vertex 4.78647 0 14.1183
      vertex 6.46352 0 6.42658
      vertex 6.46352 0 13.5734
    endloop
  endfacet
  facet normal 0 -1 0
    outer loop
      vertex 4.78647 0 5.88168
      vertex 4.78647 0 14.1183
      vertex 0 0 20
    endloop
  endfacet
  facet normal 0 -1 0
    outer loop
      vertex 4.78647 0 14.1183
      vertex 4.78647 0 5.88168
      vertex 6.46352 0 6.42658
    endloop
  endfacet
  facet normal 0 -1 0
    outer loop
      vertex 0 0 0
      vertex 4.78647 0 5.88168
      vertex 0 0 20
    endloop
  endfacet
  facet normal 0 -1 -0
    outer loop
      vertex 4.78647 0 4.11832
      vertex 0 0 0
      vertex 6.46352 0 3.57341
    endloop
  endfacet
  facet normal 0 -1 -0
    outer loop
      vertex 4.78647 0 5.88168
      vertex 0 0 0
      vertex 4.78647 0 4.11832
    endloop
  endfacet
  facet normal 0 -1 0
    outer loop
      vertex 7.5 0 15
      vertex 10 0 20
      vertex 6.46352 0 16.4266
    endloop
  endfacet
  facet normal 0 -1 0
    outer loop
      vertex 6.46352 0 6.42658
      vertex 7.5 0 15
      vertex 6.46352 0 13.5734
    endloop
  endfacet
  facet normal 0 -1 0
    outer loop
      vertex 7.5 0 5
      vertex 7.5 0 15
      vertex 6.46352 0 6.42658
    endloop
  endfacet
  facet normal 0 -1 0
    outer loop
      vertex 7.5 0 15
      vertex 7.5 0 5
      vertex 10 0 20
    endloop
  endfacet
  facet normal 0 -1 0
    outer loop
      vertex 7.5 0 5
      vertex 10 0 0
      vertex 10 0 20
    endloop
  endfacet
  facet normal 0 -1 0
    outer loop
      vertex 6.46352 0 3.57341
      vertex 10 0 0
      vertex 7.5 0 5
    endloop
  endfacet
  facet normal 0 -1 0
    outer loop
      vertex 10 0 0
      vertex 6.46352 0 3.57341
      vertex 0 0 0
    endloop
  endfacet
  facet normal -0.866025 -0.5 0
    outer loop
      vertex -3.25 -5 0
      vertex -4.125 -3.48446 15
      vertex -4.125 -3.48446 0
    endloop
  endfacet
  facet normal -0.866025 -0.5 0
    outer loop
      vertex -4.125 -3.48446 15
      vertex -3.25 -5 0
      vertex -3.25 -5 15
    endloop
  endfacet
  facet normal 0.866025 -0.500001 0
    outer loop
      vertex -6.75 -5 15
      vertex -5.875 -3.48446 0
      vertex -5.875 -3.48446 15
    endloop
  endfacet
  facet normal 0.866025 -0.500001 0
    outer loop
      vertex -5.875 -3.48446 0
      vertex -6.75 -5 15
      vertex -6.75 -5 0
    endloop
  endfacet
  facet normal 0 -1 0
    outer loop
      vertex -5.875 -3.48446 0
      vertex -4.125 -3.48446 15
      vertex -5.875 -3.48446 15
    endloop
  endfacet
  facet normal 0 -1 -0
    outer loop
      vertex -4.125 -3.48446 15
      vertex -5.875 -3.48446 0
      vertex -4.125 -3.48446 0
    endloop
  endfacet
  facet normal 0 1 -0
    outer loop
      vertex -4.125 -6.51554 0
      vertex -5.875 -6.51554 15
      vertex -4.125 -6.51554 15
    endloop
  endfacet
  facet normal 0 1 0
    outer loop
      vertex -5.875 -6.51554 15
      vertex -4.125 -6.51554 0
      vertex -5.875 -6.51554 0
    endloop
  endfacet
  facet normal 0.866025 0.5 0
    outer loop
      vertex -5.875 -6.51554 15
      vertex -6.75 -5 0
      vertex -6.75 -5 15
    endloop
  endfacet
  facet normal 0.866025 0.5 0
    outer loop
      vertex -6.75 -5 0
      vertex -5.875 -6.51554 15
      vertex -5.875 -6.51554 0
    endloop
  endfacet
  facet normal -0.866025 0.5 0
    outer loop
      vertex -4.125 -6.51554 0
      vertex -3.25 -5 15
      vertex -3.25 -5 0
    endloop
  endfacet
  facet normal -0.866025 0.5 0
    outer loop
      vertex -3.25 -5 15
      vertex -4.125 -6.51554 0
      vertex -4.125 -6.51554 15
    endloop
  endfacet
  facet normal -0.959493 -0.281733 0
    outer loop
      vertex -1.5 -5 15
      vertex -2.05561 -3.10776 20
      vertex -2.05561 -3.10776 15
    endloop
  endfacet
  facet normal -0.959493 -0.281733 0
    outer loop
      vertex -2.05561 -3.10776 20
      vertex -1.5 -5 15
      vertex -1.5 -5 20
    endloop
  endfacet
  facet normal 1 -0 0
    outer loop
      vertex -8.35822 -5.98606 20
      vertex -8.35822 -4.01394 15
      vertex -8.35822 -4.01394 20
    endloop
  endfacet
  facet normal 1 0 0
    outer loop
      vertex -8.35822 -4.01394 15
      vertex -8.35822 -5.98606 20
      vertex -8.35822 -5.98606 15
    endloop
  endfacet
  facet normal 0 0 1
    outer loop
      vertex -3.25 -5 15
      vertex -1.5 -5 15
      vertex -2.05561 -3.10776 15
    endloop
  endfacet
  facet normal 0 0 1
    outer loop
      vertex -1.5 -5 15
      vertex -3.25 -5 15
      vertex -2.05561 -6.89224 15
    endloop
  endfacet
  facet normal 0 0 1
    outer loop
      vertex -4.125 -3.48446 15
      vertex -2.05561 -3.10776 15
      vertex -3.54605 -1.81629 15
    endloop
  endfacet
  facet normal 0 0 1
    outer loop
      vertex -2.05561 -3.10776 15
      vertex -4.125 -3.48446 15
      vertex -3.25 -5 15
    endloop
  endfacet
  facet normal 0 0 1
    outer loop
      vertex -5.4981 -1.53563 15
      vertex -4.125 -3.48446 15
      vertex -3.54605 -1.81629 15
    endloop
  endfacet
  facet normal 0 0 1
    outer loop
      vertex -5.4981 -1.53563 15
      vertex -5.875 -3.48446 15
      vertex -4.125 -3.48446 15
    endloop
  endfacet
  facet normal -0 0 1
    outer loop
      vertex -7.29201 -2.35488 15
      vertex -5.875 -3.48446 15
      vertex -5.4981 -1.53563 15
    endloop
  endfacet
  facet normal 0 0 1
    outer loop
      vertex -8.35822 -4.01394 15
      vertex -5.875 -3.48446 15
      vertex -7.29201 -2.35488 15
    endloop
  endfacet
  facet normal -0 0 1
    outer loop
      vertex -4.125 -6.51554 15
      vertex -2.05561 -6.89224 15
      vertex -3.25 -5 15
    endloop
  endfacet
  facet normal 0 0 1
    outer loop
      vertex -2.05561 -6.89224 15
      vertex -4.125 -6.51554 15
      vertex -3.54605 -8.18371 15
    endloop
  endfacet
  facet normal 0 0 1
    outer loop
      vertex -4.125 -6.51554 15
      vertex -5.4981 -8.46437 15
      vertex -3.54605 -8.18371 15
    endloop
  endfacet
  facet normal -0 0 1
    outer loop
      vertex -5.875 -6.51554 15
      vertex -5.4981 -8.46437 15
      vertex -4.125 -6.51554 15
    endloop
  endfacet
  facet normal -0 0 1
    outer loop
      vertex -8.35822 -5.98606 15
      vertex -5.875 -6.51554 15
      vertex -6.75 -5 15
    endloop
  endfacet
  facet normal 0 0 1
    outer loop
      vertex -5.875 -6.51554 15
      vertex -7.29201 -7.64512 15
      vertex -5.4981 -8.46437 15
    endloop
  endfacet
  facet normal 0 0 1
    outer loop
      vertex -5.875 -3.48446 15
      vertex -8.35822 -4.01394 15
      vertex -6.75 -5 15
    endloop
  endfacet
  facet normal 0 0 1
    outer loop
      vertex -8.35822 -5.98606 15
      vertex -6.75 -5 15
      vertex -8.35822 -4.01394 15
    endloop
  endfacet
  facet normal 0 0 1
    outer loop
      vertex -5.875 -6.51554 15
      vertex -8.35822 -5.98606 15
      vertex -7.29201 -7.64512 15
    endloop
  endfacet
  facet normal 0.415415 -0.909632 0
    outer loop
      vertex -7.29201 -2.35488 15
      vertex -5.4981 -1.53563 20
      vertex -7.29201 -2.35488 20
    endloop
  endfacet
  facet normal 0.415415 -0.909632 0
    outer loop
      vertex -5.4981 -1.53563 20
      vertex -7.29201 -2.35488 15
      vertex -5.4981 -1.53563 15
    endloop
  endfacet
  facet normal 0.841254 -0.540641 0
    outer loop
      vertex -8.35822 -4.01394 20
      vertex -7.29201 -2.35488 15
      vertex -7.29201 -2.35488 20
    endloop
  endfacet
  facet normal 0.841254 -0.540641 0
    outer loop
      vertex -7.29201 -2.35488 15
      vertex -8.35822 -4.01394 20
      vertex -8.35822 -4.01394 15
    endloop
  endfacet
  facet normal -0.142315 0.989821 0
    outer loop
      vertex -3.54605 -8.18371 15
      vertex -5.4981 -8.46437 20
      vertex -3.54605 -8.18371 20
    endloop
  endfacet
  facet normal -0.142315 0.989821 0
    outer loop
      vertex -5.4981 -8.46437 20
      vertex -3.54605 -8.18371 15
      vertex -5.4981 -8.46437 15
    endloop
  endfacet
  facet normal -0.654861 0.75575 0
    outer loop
      vertex -2.05561 -6.89224 15
      vertex -3.54605 -8.18371 20
      vertex -2.05561 -6.89224 20
    endloop
  endfacet
  facet normal -0.654861 0.75575 0
    outer loop
      vertex -3.54605 -8.18371 20
      vertex -2.05561 -6.89224 15
      vertex -3.54605 -8.18371 15
    endloop
  endfacet
  facet normal -0.142315 -0.989821 0
    outer loop
      vertex -5.4981 -1.53563 15
      vertex -3.54605 -1.81629 20
      vertex -5.4981 -1.53563 20
    endloop
  endfacet
  facet normal -0.142315 -0.989821 -0
    outer loop
      vertex -3.54605 -1.81629 20
      vertex -5.4981 -1.53563 15
      vertex -3.54605 -1.81629 15
    endloop
  endfacet
  facet normal -0.654861 -0.75575 0
    outer loop
      vertex -3.54605 -1.81629 15
      vertex -2.05561 -3.10776 20
      vertex -3.54605 -1.81629 20
    endloop
  endfacet
  facet normal -0.654861 -0.75575 -0
    outer loop
      vertex -2.05561 -3.10776 20
      vertex -3.54605 -1.81629 15
      vertex -2.05561 -3.10776 15
    endloop
  endfacet
  facet normal -0.959493 0.281733 0
    outer loop
      vertex -2.05561 -6.89224 15
      vertex -1.5 -5 20
      vertex -1.5 -5 15
    endloop
  endfacet
  facet normal -0.959493 0.281733 0
    outer loop
      vertex -1.5 -5 20
      vertex -2.05561 -6.89224 15
      vertex -2.05561 -6.89224 20
    endloop
  endfacet
  facet normal 0.415415 0.909632 -0
    outer loop
      vertex -5.4981 -8.46437 15
      vertex -7.29201 -7.64512 20
      vertex -5.4981 -8.46437 20
    endloop
  endfacet
  facet normal 0.415415 0.909632 0
    outer loop
      vertex -7.29201 -7.64512 20
      vertex -5.4981 -8.46437 15
      vertex -7.29201 -7.64512 15
    endloop
  endfacet
  facet normal 0.841254 0.540641 0
    outer loop
      vertex -7.29201 -7.64512 20
      vertex -8.35822 -5.98606 15
      vertex -8.35822 -5.98606 20
    endloop
  endfacet
  facet normal 0.841254 0.540641 0
    outer loop
      vertex -8.35822 -5.98606 15
      vertex -7.29201 -7.64512 20
      vertex -7.29201 -7.64512 15
    endloop
  endfacet
  facet normal -0.866025 -0.5 0
    outer loop
      vertex -3.25 5 0
      vertex -4.125 6.51554 15
      vertex -4.125 6.51554 0
    endloop
  endfacet
  facet normal -0.866025 -0.5 0
    outer loop
      vertex -4.125 6.51554 15
      vertex -3.25 5 0
      vertex -3.25 5 15
    endloop
  endfacet
  facet normal 0.866025 -0.500001 0
    outer loop
      vertex -6.75 5 15
      vertex -5.875 6.51554 0
      vertex -5.875 6.51554 15
    endloop
  endfacet
  facet normal 0.866025 -0.500001 0
    outer loop
      vertex -5.875 6.51554 0
      vertex -6.75 5 15
      vertex -6.75 5 0
    endloop
  endfacet
  facet normal 0 -1 0
    outer loop
      vertex -5.875 6.51554 0
      vertex -4.125 6.51554 15
      vertex -5.875 6.51554 15
    endloop
  endfacet
  facet normal 0 -1 -0
    outer loop
      vertex -4.125 6.51554 15
      vertex -5.875 6.51554 0
      vertex -4.125 6.51554 0
    endloop
  endfacet
  facet normal 0.866025 0.5 0
    outer loop
      vertex -5.875 3.48446 15
      vertex -6.75 5 0
      vertex -6.75 5 15
    endloop
  endfacet
  facet normal 0.866025 0.5 0
    outer loop
      vertex -6.75 5 0
      vertex -5.875 3.48446 15
      vertex -5.875 3.48446 0
    endloop
  endfacet
  facet normal -0.866025 0.5 0
    outer loop
      vertex -4.125 3.48446 0
      vertex -3.25 5 15
      vertex -3.25 5 0
    endloop
  endfacet
  facet normal -0.866025 0.5 0
    outer loop
      vertex -3.25 5 15
      vertex -4.125 3.48446 0
      vertex -4.125 3.48446 15
    endloop
  endfacet
  facet normal 0 1 -0
    outer loop
      vertex -4.125 3.48446 0
      vertex -5.875 3.48446 15
      vertex -4.125 3.48446 15
    endloop
  endfacet
  facet normal 0 1 0
    outer loop
      vertex -5.875 3.48446 15
      vertex -4.125 3.48446 0
      vertex -5.875 3.48446 0
    endloop
  endfacet
  facet normal -0.959493 -0.281733 0
    outer loop
      vertex -1.5 5 15
      vertex -2.05561 6.89224 20
      vertex -2.05561 6.89224 15
    endloop
  endfacet
  facet normal -0.959493 -0.281733 0
    outer loop
      vertex -2.05561 6.89224 20
      vertex -1.5 5 15
      vertex -1.5 5 20
    endloop
  endfacet
  facet normal 1 -0 0
    outer loop
      vertex -8.35822 4.01394 20
      vertex -8.35822 5.98606 15
      vertex -8.35822 5.98606 20
    endloop
  endfacet
  facet normal 1 0 0
    outer loop
      vertex -8.35822 5.98606 15
      vertex -8.35822 4.01394 20
      vertex -8.35822 4.01394 15
    endloop
  endfacet
  facet normal 0.415415 -0.909632 0
    outer loop
      vertex -7.29201 7.64512 15
      vertex -5.4981 8.46437 20
      vertex -7.29201 7.64512 20
    endloop
  endfacet
  facet normal 0.415415 -0.909632 0
    outer loop
      vertex -5.4981 8.46437 20
      vertex -7.29201 7.64512 15
      vertex -5.4981 8.46437 15
    endloop
  endfacet
  facet normal 0.841254 -0.540641 0
    outer loop
      vertex -8.35822 5.98606 20
      vertex -7.29201 7.64512 15
      vertex -7.29201 7.64512 20
    endloop
  endfacet
  facet normal 0.841254 -0.540641 0
    outer loop
      vertex -7.29201 7.64512 15
      vertex -8.35822 5.98606 20
      vertex -8.35822 5.98606 15
    endloop
  endfacet
  facet normal -0.959493 0.281733 0
    outer loop
      vertex -2.05561 3.10776 15
      vertex -1.5 5 20
      vertex -1.5 5 15
    endloop
  endfacet
  facet normal -0.959493 0.281733 0
    outer loop
      vertex -1.5 5 20
      vertex -2.05561 3.10776 15
      vertex -2.05561 3.10776 20
    endloop
  endfacet
  facet normal 0 0 1
    outer loop
      vertex -3.25 5 15
      vertex -1.5 5 15
      vertex -2.05561 6.89224 15
    endloop
  endfacet
  facet normal 0 0 1
    outer loop
      vertex -1.5 5 15
      vertex -3.25 5 15
      vertex -2.05561 3.10776 15
    endloop
  endfacet
  facet normal 0 0 1
    outer loop
      vertex -4.125 6.51554 15
      vertex -2.05561 6.89224 15
      vertex -3.54605 8.18371 15
    endloop
  endfacet
  facet normal 0 0 1
    outer loop
      vertex -2.05561 6.89224 15
      vertex -4.125 6.51554 15
      vertex -3.25 5 15
    endloop
  endfacet
  facet normal 0 0 1
    outer loop
      vertex -5.4981 8.46437 15
      vertex -4.125 6.51554 15
      vertex -3.54605 8.18371 15
    endloop
  endfacet
  facet normal 0 0 1
    outer loop
      vertex -5.4981 8.46437 15
      vertex -5.875 6.51554 15
      vertex -4.125 6.51554 15
    endloop
  endfacet
  facet normal -0 0 1
    outer loop
      vertex -7.29201 7.64512 15
      vertex -5.875 6.51554 15
      vertex -5.4981 8.46437 15
    endloop
  endfacet
  facet normal 0 0 1
    outer loop
      vertex -8.35822 5.98606 15
      vertex -5.875 6.51554 15
      vertex -7.29201 7.64512 15
    endloop
  endfacet
  facet normal -0 0 1
    outer loop
      vertex -4.125 3.48446 15
      vertex -2.05561 3.10776 15
      vertex -3.25 5 15
    endloop
  endfacet
  facet normal 0 0 1
    outer loop
      vertex -2.05561 3.10776 15
      vertex -4.125 3.48446 15
      vertex -3.54605 1.81629 15
    endloop
  endfacet
  facet normal 0 0 1
    outer loop
      vertex -4.125 3.48446 15
      vertex -5.4981 1.53563 15
      vertex -3.54605 1.81629 15
    endloop
  endfacet
  facet normal -0 0 1
    outer loop
      vertex -5.875 3.48446 15
      vertex -5.4981 1.53563 15
      vertex -4.125 3.48446 15
    endloop
  endfacet
  facet normal -0 0 1
    outer loop
      vertex -8.35822 4.01394 15
      vertex -5.875 3.48446 15
      vertex -6.75 5 15
    endloop
  endfacet
  facet normal 0 0 1
    outer loop
      vertex -5.875 3.48446 15
      vertex -7.29201 2.35488 15
      vertex -5.4981 1.53563 15
    endloop
  endfacet
  facet normal 0 0 1
    outer loop
      vertex -5.875 6.51554 15
      vertex -8.35822 5.98606 15
      vertex -6.75 5 15
    endloop
  endfacet
  facet normal 0 0 1
    outer loop
      vertex -8.35822 4.01394 15
      vertex -6.75 5 15
      vertex -8.35822 5.98606 15
    endloop
  endfacet
  facet normal 0 0 1
    outer loop
      vertex -5.875 3.48446 15
      vertex -8.35822 4.01394 15
      vertex -7.29201 2.35488 15
    endloop
  endfacet
  facet normal -0.142315 -0.989821 0
    outer loop
      vertex -5.4981 8.46437 15
      vertex -3.54605 8.18371 20
      vertex -5.4981 8.46437 20
    endloop
  endfacet
  facet normal -0.142315 -0.989821 -0
    outer loop
      vertex -3.54605 8.18371 20
      vertex -5.4981 8.46437 15
      vertex -3.54605 8.18371 15
    endloop
  endfacet
  facet normal -0.654861 -0.75575 0
    outer loop
      vertex -3.54605 8.18371 15
      vertex -2.05561 6.89224 20
      vertex -3.54605 8.18371 20
    endloop
  endfacet
  facet normal -0.654861 -0.75575 -0
    outer loop
      vertex -2.05561 6.89224 20
      vertex -3.54605 8.18371 15
      vertex -2.05561 6.89224 15
    endloop
  endfacet
  facet normal 0.841254 0.540641 0
    outer loop
      vertex -7.29201 2.35488 20
      vertex -8.35822 4.01394 15
      vertex -8.35822 4.01394 20
    endloop
  endfacet
  facet normal 0.841254 0.540641 0
    outer loop
      vertex -8.35822 4.01394 15
      vertex -7.29201 2.35488 20
      vertex -7.29201 2.35488 15
    endloop
  endfacet
  facet normal -0.654861 0.75575 0
    outer loop
      vertex -2.05561 3.10776 15
      vertex -3.54605 1.81629 20
      vertex -2.05561 3.10776 20
    endloop
  endfacet
  facet normal -0.654861 0.75575 0
    outer loop
      vertex -3.54605 1.81629 20
      vertex -2.05561 3.10776 15
      vertex -3.54605 1.81629 15
    endloop
  endfacet
  facet normal 0.415415 0.909632 -0
    outer loop
      vertex -5.4981 1.53563 15
      vertex -7.29201 2.35488 20
      vertex -5.4981 1.53563 20
    endloop
  endfacet
  facet normal 0.415415 0.909632 0
    outer loop
      vertex -7.29201 2.35488 20
      vertex -5.4981 1.53563 15
      vertex -7.29201 2.35488 15
    endloop
  endfacet
  facet normal -0.142315 0.989821 0
    outer loop
      vertex -3.54605 1.81629 15
      vertex -5.4981 1.53563 20
      vertex -3.54605 1.81629 20
    endloop
  endfacet
  facet normal -0.142315 0.989821 0
    outer loop
      vertex -5.4981 1.53563 20
      vertex -3.54605 1.81629 15
      vertex -5.4981 1.53563 15
    endloop
  endfacet
  facet normal -0.866025 -0.5 0
    outer loop
      vertex -3.25 15 0
      vertex -4.125 16.5155 15
      vertex -4.125 16.5155 0
    endloop
  endfacet
  facet normal -0.866025 -0.5 0
    outer loop
      vertex -4.125 16.5155 15
      vertex -3.25 15 0
      vertex -3.25 15 15
    endloop
  endfacet
  facet normal 0.866025 -0.5 0
    outer loop
      vertex -6.75 15 15
      vertex -5.875 16.5155 0
      vertex -5.875 16.5155 15
    endloop
  endfacet
  facet normal 0.866025 -0.5 0
    outer loop
      vertex -5.875 16.5155 0
      vertex -6.75 15 15
      vertex -6.75 15 0
    endloop
  endfacet
  facet normal 0 -1 0
    outer loop
      vertex -5.875 16.5155 0
      vertex -4.125 16.5155 15
      vertex -5.875 16.5155 15
    endloop
  endfacet
  facet normal 0 -1 -0
    outer loop
      vertex -4.125 16.5155 15
      vertex -5.875 16.5155 0
      vertex -4.125 16.5155 0
    endloop
  endfacet
  facet normal 0 1 -0
    outer loop
      vertex -4.125 13.4845 0
      vertex -5.875 13.4845 15
      vertex -4.125 13.4845 15
    endloop
  endfacet
  facet normal 0 1 0
    outer loop
      vertex -5.875 13.4845 15
      vertex -4.125 13.4845 0
      vertex -5.875 13.4845 0
    endloop
  endfacet
  facet normal 0.866025 0.5 0
    outer loop
      vertex -5.875 13.4845 15
      vertex -6.75 15 0
      vertex -6.75 15 15
    endloop
  endfacet
  facet normal 0.866025 0.5 0
    outer loop
      vertex -6.75 15 0
      vertex -5.875 13.4845 15
      vertex -5.875 13.4845 0
    endloop
  endfacet
  facet normal -0.866025 0.5 0
    outer loop
      vertex -4.125 13.4845 0
      vertex -3.25 15 15
      vertex -3.25 15 0
    endloop
  endfacet
  facet normal -0.866025 0.5 0
    outer loop
      vertex -3.25 15 15
      vertex -4.125 13.4845 0
      vertex -4.125 13.4845 15
    endloop
  endfacet
  facet normal -0.959493 -0.281733 0
    outer loop
      vertex -1.5 15 15
      vertex -2.05561 16.8922 20
      vertex -2.05561 16.8922 15
    endloop
  endfacet
  facet normal -0.959493 -0.281733 0
    outer loop
      vertex -2.05561 16.8922 20
      vertex -1.5 15 15
      vertex -1.5 15 20
    endloop
  endfacet
  facet normal 1 -0 0
    outer loop
      vertex -8.35822 14.0139 20
      vertex -8.35822 15.9861 15
      vertex -8.35822 15.9861 20
    endloop
  endfacet
  facet normal 1 0 0
    outer loop
      vertex -8.35822 15.9861 15
      vertex -8.35822 14.0139 20
      vertex -8.35822 14.0139 15
    endloop
  endfacet
  facet normal 0 0 1
    outer loop
      vertex -3.25 15 15
      vertex -1.5 15 15
      vertex -2.05561 16.8922 15
    endloop
  endfacet
  facet normal 0 0 1
    outer loop
      vertex -1.5 15 15
      vertex -3.25 15 15
      vertex -2.05561 13.1078 15
    endloop
  endfacet
  facet normal 0 0 1
    outer loop
      vertex -4.125 16.5155 15
      vertex -2.05561 16.8922 15
      vertex -3.54605 18.1837 15
    endloop
  endfacet
  facet normal 0 0 1
    outer loop
      vertex -2.05561 16.8922 15
      vertex -4.125 16.5155 15
      vertex -3.25 15 15
    endloop
  endfacet
  facet normal 0 0 1
    outer loop
      vertex -5.4981 18.4644 15
      vertex -4.125 16.5155 15
      vertex -3.54605 18.1837 15
    endloop
  endfacet
  facet normal 0 0 1
    outer loop
      vertex -5.4981 18.4644 15
      vertex -5.875 16.5155 15
      vertex -4.125 16.5155 15
    endloop
  endfacet
  facet normal -0 0 1
    outer loop
      vertex -7.29201 17.6451 15
      vertex -5.875 16.5155 15
      vertex -5.4981 18.4644 15
    endloop
  endfacet
  facet normal 0 0 1
    outer loop
      vertex -8.35822 15.9861 15
      vertex -5.875 16.5155 15
      vertex -7.29201 17.6451 15
    endloop
  endfacet
  facet normal -0 0 1
    outer loop
      vertex -4.125 13.4845 15
      vertex -2.05561 13.1078 15
      vertex -3.25 15 15
    endloop
  endfacet
  facet normal 0 0 1
    outer loop
      vertex -2.05561 13.1078 15
      vertex -4.125 13.4845 15
      vertex -3.54605 11.8163 15
    endloop
  endfacet
  facet normal 0 0 1
    outer loop
      vertex -4.125 13.4845 15
      vertex -5.4981 11.5356 15
      vertex -3.54605 11.8163 15
    endloop
  endfacet
  facet normal -0 0 1
    outer loop
      vertex -5.875 13.4845 15
      vertex -5.4981 11.5356 15
      vertex -4.125 13.4845 15
    endloop
  endfacet
  facet normal -0 0 1
    outer loop
      vertex -8.35822 14.0139 15
      vertex -5.875 13.4845 15
      vertex -6.75 15 15
    endloop
  endfacet
  facet normal 0 0 1
    outer loop
      vertex -5.875 13.4845 15
      vertex -7.29201 12.3549 15
      vertex -5.4981 11.5356 15
    endloop
  endfacet
  facet normal 0 0 1
    outer loop
      vertex -5.875 16.5155 15
      vertex -8.35822 15.9861 15
      vertex -6.75 15 15
    endloop
  endfacet
  facet normal 0 0 1
    outer loop
      vertex -8.35822 14.0139 15
      vertex -6.75 15 15
      vertex -8.35822 15.9861 15
    endloop
  endfacet
  facet normal 0 0 1
    outer loop
      vertex -5.875 13.4845 15
      vertex -8.35822 14.0139 15
      vertex -7.29201 12.3549 15
    endloop
  endfacet
  facet normal 0.415415 -0.909632 0
    outer loop
      vertex -7.29201 17.6451 15
      vertex -5.4981 18.4644 20
      vertex -7.29201 17.6451 20
    endloop
  endfacet
  facet normal 0.415415 -0.909632 0
    outer loop
      vertex -5.4981 18.4644 20
      vertex -7.29201 17.6451 15
      vertex -5.4981 18.4644 15
    endloop
  endfacet
  facet normal 0.841254 -0.540641 0
    outer loop
      vertex -8.35822 15.9861 20
      vertex -7.29201 17.6451 15
      vertex -7.29201 17.6451 20
    endloop
  endfacet
  facet normal 0.841254 -0.540641 0
    outer loop
      vertex -7.29201 17.6451 15
      vertex -8.35822 15.9861 20
      vertex -8.35822 15.9861 15
    endloop
  endfacet
  facet normal -0.142315 0.989821 0
    outer loop
      vertex -3.54605 11.8163 15
      vertex -5.4981 11.5356 20
      vertex -3.54605 11.8163 20
    endloop
  endfacet
  facet normal -0.142315 0.989821 0
    outer loop
      vertex -5.4981 11.5356 20
      vertex -3.54605 11.8163 15
      vertex -5.4981 11.5356 15
    endloop
  endfacet
  facet normal -0.654861 0.75575 0
    outer loop
      vertex -2.05561 13.1078 15
      vertex -3.54605 11.8163 20
      vertex -2.05561 13.1078 20
    endloop
  endfacet
  facet normal -0.654861 0.75575 0
    outer loop
      vertex -3.54605 11.8163 20
      vertex -2.05561 13.1078 15
      vertex -3.54605 11.8163 15
    endloop
  endfacet
  facet normal -0.142315 -0.989821 0
    outer loop
      vertex -5.4981 18.4644 15
      vertex -3.54605 18.1837 20
      vertex -5.4981 18.4644 20
    endloop
  endfacet
  facet normal -0.142315 -0.989821 -0
    outer loop
      vertex -3.54605 18.1837 20
      vertex -5.4981 18.4644 15
      vertex -3.54605 18.1837 15
    endloop
  endfacet
  facet normal -0.654861 -0.755749 0
    outer loop
      vertex -3.54605 18.1837 15
      vertex -2.05561 16.8922 20
      vertex -3.54605 18.1837 20
    endloop
  endfacet
  facet normal -0.654861 -0.755749 -0
    outer loop
      vertex -2.05561 16.8922 20
      vertex -3.54605 18.1837 15
      vertex -2.05561 16.8922 15
    endloop
  endfacet
  facet normal 0.841254 0.540641 0
    outer loop
      vertex -7.29201 12.3549 20
      vertex -8.35822 14.0139 15
      vertex -8.35822 14.0139 20
    endloop
  endfacet
  facet normal 0.841254 0.540641 0
    outer loop
      vertex -8.35822 14.0139 15
      vertex -7.29201 12.3549 20
      vertex -7.29201 12.3549 15
    endloop
  endfacet
  facet normal -0.959493 0.281733 0
    outer loop
      vertex -2.05561 13.1078 15
      vertex -1.5 15 20
      vertex -1.5 15 15
    endloop
  endfacet
  facet normal -0.959493 0.281733 0
    outer loop
      vertex -1.5 15 20
      vertex -2.05561 13.1078 15
      vertex -2.05561 13.1078 20
    endloop
  endfacet
  facet normal 0.415415 0.909632 -0
    outer loop
      vertex -5.4981 11.5356 15
      vertex -7.29201 12.3549 20
      vertex -5.4981 11.5356 20
    endloop
  endfacet
  facet normal 0.415415 0.909632 0
    outer loop
      vertex -7.29201 12.3549 20
      vertex -5.4981 11.5356 15
      vertex -7.29201 12.3549 15
    endloop
  endfacet
  facet normal -0.809017 0 0.587785
    outer loop
      vertex 6.46352 0 3.57341
      vertex 7.5 10 5
      vertex 6.46352 10 3.57341
    endloop
  endfacet
  facet normal -0.809017 0 0.587785
    outer loop
      vertex 7.5 10 5
      vertex 6.46352 0 3.57341
      vertex 7.5 0 5
    endloop
  endfacet
  facet normal 0.309017 0 0.951057
    outer loop
      vertex 4.78647 10 4.11832
      vertex 6.46352 0 3.57341
      vertex 6.46352 10 3.57341
    endloop
  endfacet
  facet normal 0.309017 0 0.951057
    outer loop
      vertex 6.46352 0 3.57341
      vertex 4.78647 10 4.11832
      vertex 4.78647 0 4.11832
    endloop
  endfacet
  facet normal 1 -0 0
    outer loop
      vertex 4.78647 0 5.88168
      vertex 4.78647 10 4.11832
      vertex 4.78647 10 5.88168
    endloop
  endfacet
  facet normal 1 0 0
    outer loop
      vertex 4.78647 10 4.11832
      vertex 4.78647 0 5.88168
      vertex 4.78647 0 4.11832
    endloop
  endfacet
  facet normal -0.809017 0 -0.587786
    outer loop
      vertex 7.5 0 5
      vertex 6.46352 10 6.42658
      vertex 7.5 10 5
    endloop
  endfacet
  facet normal -0.809017 -0 -0.587786
    outer loop
      vertex 6.46352 10 6.42658
      vertex 7.5 0 5
      vertex 6.46352 0 6.42658
    endloop
  endfacet
  facet normal 0.309017 0 -0.951057
    outer loop
      vertex 4.78647 0 5.88168
      vertex 6.46352 10 6.42658
      vertex 6.46352 0 6.42658
    endloop
  endfacet
  facet normal 0.309017 0 -0.951057
    outer loop
      vertex 6.46352 10 6.42658
      vertex 4.78647 0 5.88168
      vertex 4.78647 10 5.88168
    endloop
  endfacet
  facet normal -0.809017 0 0.587785
    outer loop
      vertex 6.46352 0 13.5734
      vertex 7.5 10 15
      vertex 6.46352 10 13.5734
    endloop
  endfacet
  facet normal -0.809017 0 0.587785
    outer loop
      vertex 7.5 10 15
      vertex 6.46352 0 13.5734
      vertex 7.5 0 15
    endloop
  endfacet
  facet normal 0.309017 0 0.951057
    outer loop
      vertex 4.78647 10 14.1183
      vertex 6.46352 0 13.5734
      vertex 6.46352 10 13.5734
    endloop
  endfacet
  facet normal 0.309017 0 0.951057
    outer loop
      vertex 6.46352 0 13.5734
      vertex 4.78647 10 14.1183
      vertex 4.78647 0 14.1183
    endloop
  endfacet
  facet normal 1 -0 0
    outer loop
      vertex 4.78647 0 15.8817
      vertex 4.78647 10 14.1183
      vertex 4.78647 10 15.8817
    endloop
  endfacet
  facet normal 1 0 0
    outer loop
      vertex 4.78647 10 14.1183
      vertex 4.78647 0 15.8817
      vertex 4.78647 0 14.1183
    endloop
  endfacet
  facet normal -0.809017 0 -0.587786
    outer loop
      vertex 7.5 0 15
      vertex 6.46352 10 16.4266
      vertex 7.5 10 15
    endloop
  endfacet
  facet normal -0.809017 -0 -0.587786
    outer loop
      vertex 6.46352 10 16.4266
      vertex 7.5 0 15
      vertex 6.46352 0 16.4266
    endloop
  endfacet
  facet normal 0.309017 0 -0.951057
    outer loop
      vertex 4.78647 0 15.8817
      vertex 6.46352 10 16.4266
      vertex 6.46352 0 16.4266
    endloop
  endfacet
  facet normal 0.309017 0 -0.951057
    outer loop
      vertex 6.46352 10 16.4266
      vertex 4.78647 0 15.8817
      vertex 4.78647 10 15.8817
    endloop
  endfacet
endsolid OpenSCAD_Model
