999
dxfrw 0.6.3
  0
SECTION
  2
HEADER
  9
$ACADVER
  1
AC1021
  9
$DWGCODEPAGE
  3
ANSI_1252
  9
$INSBASE
 10
0
 20
0
 30
0
  9
$EXTMIN
 10
-366.6667
 20
-366.6667
 30
0
  9
$EXTMAX
 10
366.6667
 20
366.6667
 30
0
  9
$LIMMIN
 10
0
 20
0
  9
$LIMMAX
 10
420
 20
297
  9
$ORTHOMODE
 70
    0
  9
$REGENMODE
 70
    1
  9
$FILLMODE
 70
    1
  9
$QTEXTMODE
 70
    0
  9
$MIRRTEXT
 70
    0
  9
$LTSCALE
 40
1
  9
$ATTMODE
 70
    0
  9
$TEXTSIZE
 40
2.5
  9
$TRACEWID
 40
15.68
  9
$TEXTSTYLE
  7
STANDARD
  9
$CLAYER
  8
0
  9
$CELTYPE
  6
BYLAYER
  9
$CECOLOR
 62
  256
  9
$CELTSCALE
 40
1
  9
$DISPSILH
 70
    0
  9
$DIMSCALE
 40
2.5
  9
$DIMASZ
 40
2.5
  9
$DIMEXO
 40
0.625
  9
$DIMDLI
 40
3.75
  9
$DIMRND
 40
0
  9
$DIMDLE
 40
0
  9
$DIMEXE
 40
1.25
  9
$DIMTP
 40
0
  9
$DIMTM
 40
0
  9
$DIMTXT
 40
2.5
  9
$DIMCEN
 40
2.5
  9
$DIMTSZ
 40
0
  9
$DIMTOL
 70
    0
  9
$DIMLIM
 70
    0
  9
$DIMTIH
 70
    0
  9
$DIMTOH
 70
    0
  9
$DIMSE1
 70
    0
  9
$DIMSE2
 70
    0
  9
$DIMTAD
 70
    1
  9
$DIMZIN
 70
    8
  9
$DIMBLK
  1

  9
$DIMASO
 70
    1
  9
$DIMSHO
 70
    1
  9
$DIMPOST
  1

  9
$DIMAPOST
  1

  9
$DIMALT
 70
    0
  9
$DIMALTD
 70
    3
  9
$DIMALTF
 40
0.03937
  9
$DIMLFAC
 40
1
  9
$DIMTOFL
 70
    1
  9
$DIMTVP
 40
0
  9
$DIMTIX
 70
    0
  9
$DIMSOXD
 70
    0
  9
$DIMSAH
 70
    0
  9
$DIMBLK1
  1

  9
$DIMBLK2
  1

  9
$DIMSTYLE
  2
Standard
  9
$DIMCLRD
 70
    0
  9
$DIMCLRE
 70
    0
  9
$DIMCLRT
 70
    0
  9
$DIMTFAC
 40
1
  9
$DIMGAP
 40
0.625
  9
$DIMJUST
 70
    0
  9
$DIMSD1
 70
    0
  9
$DIMSD2
 70
    0
  9
$DIMTOLJ
 70
    0
  9
$DIMTZIN
 70
    8
  9
$DIMALTZ
 70
    0
  9
$DIMALTTZ
 70
    0
  9
$DIMUPT
 70
    0
  9
$DIMDEC
 70
    2
  9
$DIMTDEC
 70
    2
  9
$DIMALTU
 70
    2
  9
$DIMALTTD
 70
    3
  9
$DIMTXSTY
  7
STANDARD
  9
$DIMAUNIT
 70
    0
  9
$DIMADEC
 70
    0
  9
$DIMALTRND
 40
0
  9
$DIMAZIN
 70
    0
  9
$DIMDSEP
 70
   44
  9
$DIMATFIT
 70
    3
  9
$DIMFRAC
 70
    0
  9
$DIMLDRBLK
  1
STANDARD
  9
$DIMLUNIT
 70
    2
  9
$DIMLWD
 70
   -2
  9
$DIMLWE
 70
   -2
  9
$DIMTMOVE
 70
    0
  9
$DIMFXL
 40
1
  9
$DIMFXLON
 70
    0
  9
$DIMJOGANG
 40
0.7854
  9
$DIMTFILL
 70
    0
  9
$DIMTFILLCLR
 70
    0
  9
$DIMARCSYM
 70
    0
  9
$DIMLTYPE
  6

  9
$DIMLTEX1
  6

  9
$DIMLTEX2
  6

  9
$LUNITS
 70
    2
  9
$LUPREC
 70
    4
  9
$SKETCHINC
 40
1
  9
$FILLETRAD
 40
0
  9
$AUNITS
 70
    0
  9
$AUPREC
 70
    2
  9
$MENU
  1
.
  9
$ELEVATION
 40
0
  9
$PELEVATION
 40
0
  9
$THICKNESS
 40
0
  9
$LIMCHECK
 70
    0
  9
$CHAMFERA
 40
0
  9
$CHAMFERB
 40
0
  9
$CHAMFERC
 40
0
  9
$CHAMFERD
 40
0
  9
$SKPOLY
 70
    0
  9
$USRTIMER
 70
    1
  9
$ANGBASE
 50
0
  9
$ANGDIR
 70
    0
  9
$PDMODE
 70
   34
  9
$PDSIZE
 40
0
  9
$PLINEWID
 40
0
  9
$SPLFRAME
 70
    0
  9
$SPLINETYPE
 70
    2
  9
$SPLINESEGS
 70
    8
  9
$HANDSEED
  5
20000
  9
$SURFTAB1
 70
    6
  9
$SURFTAB2
 70
    6
  9
$SURFTYPE
 70
    6
  9
$SURFU
 70
    6
  9
$SURFV
 70
    6
  9
$UCSBASE
  2

  9
$UCSNAME
  2

  9
$UCSORG
 10
0
 20
0
 30
0
  9
$UCSXDIR
 10
1
 20
0
 30
0
  9
$UCSYDIR
 10
0
 20
1
 30
0
  9
$UCSORTHOREF
  2

  9
$UCSORTHOVIEW
 70
    0
  9
$UCSORGTOP
 10
0
 20
0
 30
0
  9
$UCSORGBOTTOM
 10
0
 20
0
 30
0
  9
$UCSORGLEFT
 10
0
 20
0
 30
0
  9
$UCSORGRIGHT
 10
0
 20
0
 30
0
  9
$UCSORGFRONT
 10
0
 20
0
 30
0
  9
$UCSORGBACK
 10
0
 20
0
 30
0
  9
$PUCSBASE
  2

  9
$PUCSNAME
  2

  9
$PUCSORG
 10
0
 20
0
 30
0
  9
$PUCSXDIR
 10
1
 20
0
 30
0
  9
$PUCSYDIR
 10
0
 20
1
 30
0
  9
$PUCSORTHOREF
  2

  9
$PUCSORTHOVIEW
 70
    0
  9
$PUCSORGTOP
 10
0
 20
0
 30
0
  9
$PUCSORGBOTTOM
 10
0
 20
0
 30
0
  9
$PUCSORGLEFT
 10
0
 20
0
 30
0
  9
$PUCSORGRIGHT
 10
0
 20
0
 30
0
  9
$PUCSORGFRONT
 10
0
 20
0
 30
0
  9
$PUCSORGBACK
 10
0
 20
0
 30
0
  9
$USERI1
 70
    0
  9
$USERI2
 70
    0
  9
$USERI3
 70
    0
  9
$USERI4
 70
    0
  9
$USERI5
 70
    0
  9
$USERR1
 40
0
  9
$USERR2
 40
0
  9
$USERR3
 40
0
  9
$USERR4
 40
0
  9
$USERR5
 40
0
  9
$WORLDVIEW
 70
    1
  9
$SHADEDGE
 70
    3
  9
$SHADEDIF
 70
   70
  9
$TILEMODE
 70
    1
  9
$MAXACTVP
 70
   64
  9
$PINSBASE
 10
0
 20
0
 30
0
  9
$PLIMCHECK
 70
    0
  9
$PEXTMIN
 10
0
 20
0
 30
0
  9
$PEXTMAX
 10
0
 20
0
 30
0
  9
$SNAPSTYLE
 70
    0
  9
$PLIMMIN
 10
0
 20
0
  9
$PLIMMAX
 10
0.0186
 20
0.01395
  9
$UNITMODE
 70
    0
  9
$VISRETAIN
 70
    1
  9
$PLINEGEN
 70
    0
  9
$PSLTSCALE
 70
    1
  9
$TREEDEPTH
 70
 3020
  9
$CMLSTYLE
  2
Standard
  9
$CMLJUST
 70
    0
  9
$CMLSCALE
 40
20
  9
$PROXYGRAPHICS
 70
    1
  9
$MEASUREMENT
 70
    1
  9
$CELWEIGHT
370
   -1
  9
$ENDCAPS
280
    0
  9
$JOINSTYLE
280
    0
  9
$LWDISPLAY
290
    0
  9
$INSUNITS
 70
    4
  9
$HYPERLINKBASE
  1

  9
$STYLESHEET
  1

  9
$XEDIT
290
    1
  9
$CEPSNTYPE
380
    0
  9
$PSTYLEMODE
290
    1
  9
$EXTNAMES
290
    1
  9
$PSVPSCALE
 40
1
  9
$OLESTARTUP
290
    0
  9
$SORTENTS
280
  127
  9
$INDEXCTL
280
    0
  9
$HIDETEXT
280
    1
  9
$XCLIPFRAME
290
    0
  9
$HALOGAP
280
    0
  9
$OBSCOLOR
 70
  257
  9
$OBSLTYPE
280
    0
  9
$INTERSECTIONDISPLAY
280
    0
  9
$INTERSECTIONCOLOR
 70
  257
  9
$DIMASSOC
280
    1
  9
$PROJECTNAME
  1

  9
$CAMERADISPLAY
290
    0
  9
$LENSLENGTH
 40
50
  9
$CAMERAHEIGHT
 40
0
  9
$STEPSPERSEC
 40
2
  9
$STEPSIZE
 40
50
  9
$3DDWFPREC
 40
2
  9
$PSOLWIDTH
 40
5
  9
$PSOLHEIGHT
 40
80
  9
$LOFTANG1
 40
1.570796326794897
  9
$LOFTANG2
 40
1.570796326794897
  9
$LOFTMAG1
 40
0
  9
$LOFTMAG2
 40
0
  9
$LOFTPARAM
 70
    7
  9
$LOFTNORMALS
280
    1
  9
$LATITUDE
 40
1
  9
$LONGITUDE
 40
1
  9
$NORTHDIRECTION
 40
0
  9
$TIMEZONE
 70
-8000
  9
$LIGHTGLYPHDISPLAY
280
    1
  9
$TILEMODELIGHTSYNCH
280
    1
  9
$SOLIDHIST
280
    1
  9
$SHOWHIST
280
    1
  9
$DWFFRAME
280
    2
  9
$DGNFRAME
280
    0
  9
$REALWORLDSCALE
290
    1
  9
$INTERFERECOLOR
 62
    1
  9
$CSHADOW
280
    0
  9
$SHADOWPLANELOCATION
 40
0
  0
ENDSEC
  0
SECTION
  2
CLASSES
  0
ENDSEC
  0
SECTION
  2
TABLES
  0
TABLE
  2
VPORT
  5
8
330
0
100
AcDbSymbolTable
 70
    1
  0
VPORT
  5
31
330
2
100
AcDbSymbolTableRecord
100
AcDbViewportTableRecord
  2
*ACTIVE
 70
    0
 10
0
 20
0
 11
1
 21
1
 12
282.7644348144531
 22
201.7021179199219
 13
0
 23
0
 14
10
 24
10
 15
10
 25
10
 16
0
 26
0
 36
1
 17
0
 27
0
 37
0
 40
777.2445678710938
 41
0.7325153374233129
 42
50
 43
0
 44
0
 50
0
 51
0
 71
    0
 72
  100
 73
    1
 74
    3
 75
    0
 76
    1
 77
    0
 78
    0
281
    0
 65
    1
110
0
120
0
130
0
111
1
121
0
131
0
112
0
122
1
132
0
 79
    0
146
0
348
10020
 60
    7
 61
    5
292
1
282
    1
141
0
142
0
 63
  250
421
3358443
  0
ENDTAB
  0
TABLE
  2
LTYPE
  5
5
330
0
100
AcDbSymbolTable
 70
    4
  0
LTYPE
  5
14
330
5
100
AcDbSymbolTableRecord
100
AcDbLinetypeTableRecord
  2
ByBlock
 70
    0
  3

 72
   65
 73
    0
 40
0
  0
LTYPE
  5
15
330
5
100
AcDbSymbolTableRecord
100
AcDbLinetypeTableRecord
  2
ByLayer
 70
    0
  3

 72
   65
 73
    0
 40
0
  0
LTYPE
  5
16
330
5
100
AcDbSymbolTableRecord
100
AcDbLinetypeTableRecord
  2
Continuous
 70
    0
  3
Solid line
 72
   65
 73
    0
 40
0
  0
LTYPE
  5
32
330
5
100
AcDbSymbolTableRecord
100
AcDbLinetypeTableRecord
  2
DOT
 70
    0
  3
Dot . . . . . . . . . . . . . . . . . . . . . .
 72
   65
 73
    2
 40
6.35
 49
0
 74
    0
 49
-6.35
 74
    0
  0
LTYPE
  5
33
330
5
100
AcDbSymbolTableRecord
100
AcDbLinetypeTableRecord
  2
DOTTINY
 70
    0
  3
Dot (.15x) .....................................
 72
   65
 73
    2
 40
0.9525
 49
0
 74
    0
 49
-0.9525
 74
    0
  0
LTYPE
  5
34
330
5
100
AcDbSymbolTableRecord
100
AcDbLinetypeTableRecord
  2
DOT2
 70
    0
  3
Dot (.5x) .....................................
 72
   65
 73
    2
 40
3.175
 49
0
 74
    0
 49
-3.175
 74
    0
  0
LTYPE
  5
35
330
5
100
AcDbSymbolTableRecord
100
AcDbLinetypeTableRecord
  2
DOTX2
 70
    0
  3
Dot (2x) .  .  .  .  .  .  .  .  .  .  .  .  .
 72
   65
 73
    2
 40
12.7
 49
0
 74
    0
 49
-12.7
 74
    0
  0
LTYPE
  5
36
330
5
100
AcDbSymbolTableRecord
100
AcDbLinetypeTableRecord
  2
DASHED
 70
    0
  3
Dashed _ _ _ _ _ _ _ _ _ _ _ _ _ _ _ _ _
 72
   65
 73
    2
 40
19.05
 49
12.7
 74
    0
 49
-6.35
 74
    0
  0
LTYPE
  5
37
330
5
100
AcDbSymbolTableRecord
100
AcDbLinetypeTableRecord
  2
DASHEDTINY
 70
    0
  3
Dashed (.15x) _ _ _ _ _ _ _ _ _ _ _ _ _ _ _ _ _
 72
   65
 73
    2
 40
2.8575
 49
1.905
 74
    0
 49
-0.9525
 74
    0
  0
LTYPE
  5
38
330
5
100
AcDbSymbolTableRecord
100
AcDbLinetypeTableRecord
  2
DASHED2
 70
    0
  3
Dashed (.5x) _ _ _ _ _ _ _ _ _ _ _ _ _ _ _ _ _
 72
   65
 73
    2
 40
9.524999999999999
 49
6.35
 74
    0
 49
-3.175
 74
    0
  0
LTYPE
  5
39
330
5
100
AcDbSymbolTableRecord
100
AcDbLinetypeTableRecord
  2
DASHEDX2
 70
    0
  3
Dashed (2x) ____  ____  ____  ____  ____  ___
 72
   65
 73
    2
 40
38.09999999999999
 49
25.4
 74
    0
 49
-12.7
 74
    0
  0
LTYPE
  5
3A
330
5
100
AcDbSymbolTableRecord
100
AcDbLinetypeTableRecord
  2
DASHDOT
 70
    0
  3
Dash dot __ . __ . __ . __ . __ . __ . __ . __
 72
   65
 73
    4
 40
25.4
 49
12.7
 74
    0
 49
-6.35
 74
    0
 49
0
 74
    0
 49
-6.35
 74
    0
  0
LTYPE
  5
3B
330
5
100
AcDbSymbolTableRecord
100
AcDbLinetypeTableRecord
  2
DASHDOTTINY
 70
    0
  3
Dash dot (.15x) _._._._._._._._._._._._._._._.
 72
   65
 73
    4
 40
3.81
 49
1.905
 74
    0
 49
-0.9525
 74
    0
 49
0
 74
    0
 49
-0.9525
 74
    0
  0
LTYPE
  5
3C
330
5
100
AcDbSymbolTableRecord
100
AcDbLinetypeTableRecord
  2
DASHDOT2
 70
    0
  3
Dash dot (.5x) _._._._._._._._._._._._._._._.
 72
   65
 73
    4
 40
12.7
 49
6.35
 74
    0
 49
-3.175
 74
    0
 49
0
 74
    0
 49
-3.175
 74
    0
  0
LTYPE
  5
3D
330
5
100
AcDbSymbolTableRecord
100
AcDbLinetypeTableRecord
  2
DASHDOTX2
 70
    0
  3
Dash dot (2x) ____  .  ____  .  ____  .  ___
 72
   65
 73
    4
 40
50.8
 49
25.4
 74
    0
 49
-12.7
 74
    0
 49
0
 74
    0
 49
-12.7
 74
    0
  0
LTYPE
  5
3E
330
5
100
AcDbSymbolTableRecord
100
AcDbLinetypeTableRecord
  2
DIVIDE
 70
    0
  3
Divide ____ . . ____ . . ____ . . ____ . . ____
 72
   65
 73
    6
 40
31.75
 49
12.7
 74
    0
 49
-6.35
 74
    0
 49
0
 74
    0
 49
-6.35
 74
    0
 49
0
 74
    0
 49
-6.35
 74
    0
  0
LTYPE
  5
3F
330
5
100
AcDbSymbolTableRecord
100
AcDbLinetypeTableRecord
  2
DIVIDETINY
 70
    0
  3
Divide (.15x) __..__..__..__..__..__..__..__.._
 72
   65
 73
    6
 40
4.7625
 49
1.905
 74
    0
 49
-0.9525
 74
    0
 49
0
 74
    0
 49
-0.9525
 74
    0
 49
0
 74
    0
 49
-0.9525
 74
    0
  0
LTYPE
  5
40
330
5
100
AcDbSymbolTableRecord
100
AcDbLinetypeTableRecord
  2
DIVIDE2
 70
    0
  3
Divide (.5x) __..__..__..__..__..__..__..__.._
 72
   65
 73
    6
 40
15.875
 49
6.35
 74
    0
 49
-3.175
 74
    0
 49
0
 74
    0
 49
-3.175
 74
    0
 49
0
 74
    0
 49
-3.175
 74
    0
  0
LTYPE
  5
41
330
5
100
AcDbSymbolTableRecord
100
AcDbLinetypeTableRecord
  2
DIVIDEX2
 70
    0
  3
Divide (2x) ________  .  .  ________  .  .  _
 72
   65
 73
    6
 40
63.5
 49
25.4
 74
    0
 49
-12.7
 74
    0
 49
0
 74
    0
 49
-12.7
 74
    0
 49
0
 74
    0
 49
-12.7
 74
    0
  0
LTYPE
  5
42
330
5
100
AcDbSymbolTableRecord
100
AcDbLinetypeTableRecord
  2
BORDER
 70
    0
  3
Border __ __ . __ __ . __ __ . __ __ . __ __ .
 72
   65
 73
    6
 40
44.45
 49
12.7
 74
    0
 49
-6.35
 74
    0
 49
12.7
 74
    0
 49
-6.35
 74
    0
 49
0
 74
    0
 49
-6.35
 74
    0
  0
LTYPE
  5
43
330
5
100
AcDbSymbolTableRecord
100
AcDbLinetypeTableRecord
  2
BORDERTINY
 70
    0
  3
Border (.15x) __.__.__.__.__.__.__.__.__.__.__.
 72
   65
 73
    6
 40
6.6675
 49
1.905
 74
    0
 49
-0.9525
 74
    0
 49
1.905
 74
    0
 49
-0.9525
 74
    0
 49
0
 74
    0
 49
-0.9525
 74
    0
  0
LTYPE
  5
44
330
5
100
AcDbSymbolTableRecord
100
AcDbLinetypeTableRecord
  2
BORDER2
 70
    0
  3
Border (.5x) __.__.__.__.__.__.__.__.__.__.__.
 72
   65
 73
    6
 40
22.225
 49
6.35
 74
    0
 49
-3.175
 74
    0
 49
6.35
 74
    0
 49
-3.175
 74
    0
 49
0
 74
    0
 49
-3.175
 74
    0
  0
LTYPE
  5
45
330
5
100
AcDbSymbolTableRecord
100
AcDbLinetypeTableRecord
  2
BORDERX2
 70
    0
  3
Border (2x) ____  ____  .  ____  ____  .  ___
 72
   65
 73
    6
 40
88.89999999999999
 49
25.4
 74
    0
 49
-12.7
 74
    0
 49
25.4
 74
    0
 49
-12.7
 74
    0
 49
0
 74
    0
 49
-12.7
 74
    0
  0
LTYPE
  5
46
330
5
100
AcDbSymbolTableRecord
100
AcDbLinetypeTableRecord
  2
CENTER
 70
    0
  3
Center ____ _ ____ _ ____ _ ____ _ ____ _ ____
 72
   65
 73
    4
 40
50.8
 49
31.75
 74
    0
 49
-6.35
 74
    0
 49
6.35
 74
    0
 49
-6.35
 74
    0
  0
LTYPE
  5
47
330
5
100
AcDbSymbolTableRecord
100
AcDbLinetypeTableRecord
  2
CENTERTINY
 70
    0
  3
Center (.15x) ___ _ ___ _ ___ _ ___ _ ___ _ ___
 72
   65
 73
    4
 40
7.619999999999999
 49
4.7625
 74
    0
 49
-0.9525
 74
    0
 49
0.9525
 74
    0
 49
-0.9525
 74
    0
  0
LTYPE
  5
48
330
5
100
AcDbSymbolTableRecord
100
AcDbLinetypeTableRecord
  2
CENTER2
 70
    0
  3
Center (.5x) ___ _ ___ _ ___ _ ___ _ ___ _ ___
 72
   65
 73
    4
 40
28.575
 49
19.05
 74
    0
 49
-3.175
 74
    0
 49
3.175
 74
    0
 49
-3.175
 74
    0
  0
LTYPE
  5
49
330
5
100
AcDbSymbolTableRecord
100
AcDbLinetypeTableRecord
  2
CENTERX2
 70
    0
  3
Center (2x) ________  __  ________  __  _____
 72
   65
 73
    4
 40
101.6
 49
63.5
 74
    0
 49
-12.7
 74
    0
 49
12.7
 74
    0
 49
-12.7
 74
    0
  0
ENDTAB
  0
TABLE
  2
LAYER
  5
2
330
0
100
AcDbSymbolTable
 70
    1
  0
LAYER
  5
10
330
2
100
AcDbSymbolTableRecord
100
AcDbLayerTableRecord
  2
0
 70
    0
 62
    7
  6
CONTINUOUS
370
    0
390
F
  0
LAYER
  5
4A
330
2
100
AcDbSymbolTableRecord
100
AcDbLayerTableRecord
  2
gear
 70
    0
 62
    7
  6
CONTINUOUS
370
   -3
390
F
  0
LAYER
  5
4B
330
2
100
AcDbSymbolTableRecord
100
AcDbLayerTableRecord
  2
gear_guides
 70
    0
 62
    5
  6
CONTINUOUS
370
   -3
390
F
  0
LAYER
  5
4C
330
2
100
AcDbSymbolTableRecord
100
AcDbLayerTableRecord
  2
gear_texts
 70
    0
 62
    7
  6
CONTINUOUS
370
   -3
390
F
  0
ENDTAB
  0
TABLE
  2
STYLE
  5
3
330
0
100
AcDbSymbolTable
 70
    3
  0
STYLE
  5
4D
330
2
100
AcDbSymbolTableRecord
100
AcDbTextStyleTableRecord
  2
Standard
 70
    0
 40
0
 41
1
 50
0
 71
    0
 42
1
  3
txt
  4

  0
ENDTAB
  0
TABLE
  2
VIEW
  5
6
330
0
100
AcDbSymbolTable
 70
    0
  0
ENDTAB
  0
TABLE
  2
UCS
  5
7
330
0
100
AcDbSymbolTable
 70
    0
  0
ENDTAB
  0
TABLE
  2
APPID
  5
9
330
0
100
AcDbSymbolTable
 70
    1
  0
APPID
  5
12
330
9
100
AcDbSymbolTableRecord
100
AcDbRegAppTableRecord
  2
ACAD
 70
    0
  0
APPID
  5
4E
330
9
100
AcDbSymbolTableRecord
100
AcDbRegAppTableRecord
  2
LibreCad
 70
    0
  0
ENDTAB
  0
TABLE
  2
DIMSTYLE
  5
A
330
0
100
AcDbSymbolTable
 70
    1
100
AcDbDimStyleTable
 71
    1
  0
DIMSTYLE
105
4F
330
A
100
AcDbSymbolTableRecord
100
AcDbDimStyleTableRecord
  2
Standard
 70
    0
 40
1
 41
2.5
 42
0.625
 43
0.38
 44
1.25
 45
0
 46
0
 47
0
 48
0
 49
1
140
2.5
141
0.09
142
2.5
143
25.4
144
1
145
0
146
1
147
0.625
148
0
 71
    0
 72
    0
 73
    0
 74
    1
 75
    0
 76
    0
 77
    0
 78
    1
 79
    0
170
    0
171
    2
172
    0
173
    0
174
    0
175
    0
176
    0
177
    0
178
    0
179
    0
271
    2
272
    4
273
    2
274
    2
275
    0
276
    0
277
    2
278
    0
279
    0
280
    0
281
    0
282
    0
283
    1
284
    0
285
    0
286
    0
288
    0
289
    3
340
standard
341

371
   -2
372
   -2
  0
ENDTAB
  0
TABLE
  2
BLOCK_RECORD
  5
1
330
0
100
AcDbSymbolTable
 70
    2
  0
BLOCK_RECORD
  5
1F
330
1
100
AcDbSymbolTableRecord
100
AcDbBlockTableRecord
  2
*Model_Space
 70
    0
280
    1
281
    0
  0
BLOCK_RECORD
  5
1E
330
1
100
AcDbSymbolTableRecord
100
AcDbBlockTableRecord
  2
*Paper_Space
 70
    0
280
    1
281
    0
  0
ENDTAB
  0
ENDSEC
  0
SECTION
  2
BLOCKS
  0
BLOCK
  5
20
330
1F
100
AcDbEntity
  8
0
100
AcDbBlockBegin
  2
*Model_Space
 70
    0
 10
0
 20
0
 30
0
  3
*Model_Space
  1

  0
ENDBLK
  5
21
330
1F
100
AcDbEntity
  8
0
100
AcDbBlockEnd
  0
BLOCK
  5
1C
330
1B
100
AcDbEntity
  8
0
100
AcDbBlockBegin
  2
*Paper_Space
 70
    0
 10
0
 20
0
 30
0
  3
*Paper_Space
  1

  0
ENDBLK
  5
1D
330
1F
100
AcDbEntity
  8
0
100
AcDbBlockEnd
  0
ENDSEC
  0
SECTION
  2
ENTITIES
  0
LWPOLYLINE
  5
50
100
AcDbEntity
  8
gear
  6
ByLayer
 62
  256
370
   -1
100
AcDbPolyline
 90
 1440
 70
    1
 43
0
 10
295
 20
0
 10
313.2786
 20
0.0005999999999999999
 10
313.4216
 20
0.0044
 10
313.6599
 20
0.015
 10
313.9933
 20
0.0355
 10
314.4213
 20
0.0693
 10
314.9436
 20
0.1198
 10
315.5598
 20
0.1901
 10
316.2693
 20
0.2837
 10
317.0714
 20
0.4037
 10
317.9654
 20
0.5534
 10
318.9504
 20
0.7361
 10
320.0256
 20
0.955
 10
321.19
 20
1.2133
 10
322.4425
 20
1.5141
 10
323.7819
 20
1.8607
 10
325.207
 20
2.256
 10
326.7165
 20
2.7033
 10
328.3089
 20
3.2055
 10
329.9828
 20
3.7658
 10
331.7366
 20
4.387
 10
333.5687
 20
5.0721
 10
335.4773
 20
5.8241
 10
337.4607
 20
6.6458
 10
339.5169
 20
7.54
 10
341.644
 20
8.509499999999999
 10
343.84
 20
9.5571
 10
346.1027
 20
10.6854
 10
348.4301
 20
11.8971
 10
350.8198
 20
13.1948
 10
353.2695
 20
14.5809
 10
355.7769
 20
16.0581
 10
358.3395
 20
17.6286
 10
360.9548
 20
19.2949
 10
363.6201
 20
21.0592
 10
365.9509
 20
22.8999
 10
363.9844
 20
44.27
 10
361.3568
 20
45.6545
 10
358.4142
 20
46.9027
 10
355.5388
 20
48.0637
 10
352.7327
 20
49.1402
 10
349.9978
 20
50.1349
 10
347.3362
 20
51.0507
 10
344.7498
 20
51.8905
 10
342.2404
 20
52.6571
 10
339.8097
 20
53.3535
 10
337.4595
 20
53.9828
 10
335.1911
 20
54.5478
 10
333.0062
 20
55.0518
 10
330.9062
 20
55.4977
 10
328.8925
 20
55.8887
 10
326.9661
 20
56.228
 10
325.1284
 20
56.5187
 10
323.3803
 20
56.764
 10
321.723
 20
56.9672
 10
320.1573
 20
57.1315
 10
318.6839
 20
57.2601
 10
317.3038
 20
57.3564
 10
316.0174
 20
57.4236
 10
314.8255
 20
57.4651
 10
313.7284
 20
57.4841
 10
312.7265
 20
57.4839
 10
311.8202
 20
57.468
 10
311.0097
 20
57.4396
 10
310.2951
 20
57.4021
 10
309.6764
 20
57.3588
 10
309.1536
 20
57.3131
 10
308.7266
 20
57.2683
 10
308.3951
 20
57.2276
 10
308.1589
 20
57.1945
 10
308.0175
 20
57.1722
 10
290.0458
 20
53.8369
 10
280.5617
 20
91.16
 10
297.9455
 20
96.80889999999999
 10
298.0803
 20
96.85680000000001
 10
298.3037
 20
96.9405
 10
298.6144
 20
97.063
 10
299.011
 20
97.22750000000001
 10
299.4922
 20
97.43680000000001
 10
300.0565
 20
97.6942
 10
300.7023
 20
98.00239999999999
 10
301.4281
 20
98.3644
 10
302.232
 20
98.783
 10
303.1124
 20
99.2612
 10
304.0674
 20
99.80159999999999
 10
305.0949
 20
100.4071
 10
306.1931
 20
101.0802
 10
307.3599
 20
101.8237
 10
308.5931
 20
102.6401
 10
309.8905
 20
103.5319
 10
311.2497
 20
104.5017
 10
312.6686
 20
105.5517
 10
314.1446
 20
106.6845
 10
315.6753
 20
107.9022
 10
317.2581
 20
109.2072
 10
318.8905
 20
110.6016
 10
320.5697
 20
112.0874
 10
322.2932
 20
113.6668
 10
324.0579
 20
115.3417
 10
325.8613
 20
117.1141
 10
327.7003
 20
118.9857
 10
329.572
 20
120.9583
 10
331.4735
 20
123.0336
 10
333.4018
 20
125.2133
 10
335.3536
 20
127.4988
 10
337.3259
 20
129.8917
 10
339.3156
 20
132.3933
 10
340.9635
 20
134.8641
 10
332.4895
 20
154.5806
 10
329.5627
 20
155.0854
 10
326.3785
 20
155.3632
 10
323.285
 20
155.5789
 10
320.2835
 20
155.7355
 10
317.3751
 20
155.8364
 10
314.5608
 20
155.8849
 10
311.8415
 20
155.8843
 10
309.218
 20
155.838
 10
306.6911
 20
155.7492
 10
304.2614
 20
155.6214
 10
301.9295
 20
155.4578
 10
299.6958
 20
155.2619
 10
297.5608
 20
155.0371
 10
295.5247
 20
154.7867
 10
293.5878
 20
154.5141
 10
291.7502
 20
154.2227
 10
290.0119
 20
153.9158
 10
288.3729
 20
153.5969
 10
286.833
 20
153.2693
 10
285.3921
 20
152.9364
 10
284.0497
 20
152.6015
 10
282.8056
 20
152.2679
 10
281.6591
 20
151.939
 10
280.6099
 20
151.618
 10
279.6571
 20
151.3083
 10
278.8001
 20
151.0131
 10
278.038
 20
150.7356
 10
277.3699
 20
150.4791
 10
276.7949
 20
150.2468
 10
276.3118
 20
150.0417
 10
275.9196
 20
149.8671
 10
275.6169
 20
149.726
 10
275.4025
 20
149.6215
 10
275.2749
 20
149.5566
 10
259.2135
 20
140.8311
 10
238.66
 20
173.3966
 10
253.4474
 20
184.141
 10
253.5608
 20
184.2282
 10
253.7474
 20
184.3768
 10
254.005
 20
184.5893
 10
254.3314
 20
184.8683
 10
254.7244
 20
185.2161
 10
255.1815
 20
185.6352
 10
255.7005
 20
186.1279
 10
256.2789
 20
186.6965
 10
256.9141
 20
187.3431
 10
257.6036
 20
188.0699
 10
258.3448
 20
188.879
 10
259.135
 20
189.7723
 10
259.9715
 20
190.7519
 10
260.8514
 20
191.8195
 10
261.7719
 20
192.977
 10
262.7302
 20
194.2261
 10
263.7233
 20
195.5685
 10
264.7482
 20
197.0056
 10
265.802
 20
198.539
 10
266.8814
 20
200.1702
 10
267.9835
 20
201.9004
 10
269.1051
 20
203.7309
 10
270.243
 20
205.663
 10
271.394
 20
207.6976
 10
272.5549
 20
209.8359
 10
273.7223
 20
212.0788
 10
274.8929
 20
214.427
 10
276.0635
 20
216.8815
 10
277.2306
 20
219.4429
 10
278.3909
 20
222.1117
 10
279.5409
 20
224.8885
 10
280.6773
 20
227.7738
 10
281.7966
 20
230.7678
 10
282.6003
 20
233.6269
 10
268.4483
 20
249.7598
 10
265.5088
 20
249.3354
 10
262.3945
 20
248.6157
 10
259.3858
 20
247.8649
 10
256.4828
 20
247.0863
 10
253.6856
 20
246.2836
 10
250.994
 20
245.46
 10
248.408
 20
244.6192
 10
245.9273
 20
243.7644
 10
243.5514
 20
242.8991
 10
241.2802
 20
242.0267
 10
239.1129
 20
241.1505
 10
237.0491
 20
240.274
 10
235.0881
 20
239.4004
 10
233.229
 20
238.5331
 10
231.4712
 20
237.6753
 10
229.8135
 20
236.8303
 10
228.2551
 20
236.0013
 10
226.7949
 20
235.1915
 10
225.4316
 20
234.4041
 10
224.1641
 20
233.6422
 10
222.9909
 20
232.9088
 10
221.9107
 20
232.2071
 10
220.922
 20
231.54
 10
220.0233
 20
230.9105
 10
219.2129
 20
230.3215
 10
218.489
 20
229.7759
 10
217.85
 20
229.2766
 10
217.2939
 20
228.8262
 10
216.8188
 20
228.4275
 10
216.4227
 20
228.0832
 10
216.1036
 20
227.7959
 10
215.8594
 20
227.5682
 10
215.6877
 20
227.4026
 10
215.5865
 20
227.3014
 10
203.0075
 20
214.0397
 10
173.3966
 20
238.66
 10
184.1401
 20
253.448
 10
184.221
 20
253.566
 10
184.3526
 20
253.765
 10
184.5319
 20
254.0468
 10
184.7561
 20
254.4129
 10
185.0223
 20
254.8652
 10
185.3276
 20
255.405
 10
185.6689
 20
256.034
 10
186.0433
 20
256.7534
 10
186.4476
 20
257.5647
 10
186.8788
 20
258.469
 10
187.3337
 20
259.4675
 10
187.8092
 20
260.5613
 10
188.302
 20
261.7514
 10
188.8089
 20
263.0387
 10
189.3267
 20
264.424
 10
189.8521
 20
265.9081
 10
190.3818
 20
267.4916
 10
190.9125
 20
269.1751
 10
191.4408
 20
270.9591
 10
191.9633
 20
272.844
 10
192.4768
 20
274.8301
 10
192.9779
 20
276.9177
 10
193.463
 20
279.1068
 10
193.929
 20
281.3975
 10
194.3722
 20
283.7899
 10
194.7894
 20
286.2837
 10
195.1771
 20
288.8788
 10
195.5319
 20
291.5749
 10
195.8504
 20
294.3715
 10
196.1292
 20
297.2683
 10
196.3649
 20
300.2646
 10
196.554
 20
303.3598
 10
196.6933
 20
306.5531
 10
196.5741
 20
309.5207
 10
178.1294
 20
320.4908
 10
175.465
 20
319.1788
 10
172.7255
 20
317.5319
 10
170.0961
 20
315.8881
 10
167.5758
 20
314.2506
 10
165.1635
 20
312.6227
 10
162.8582
 20
311.0078
 10
160.6586
 20
309.4089
 10
158.5634
 20
307.8294
 10
156.5712
 20
306.2723
 10
154.6807
 20
304.7407
 10
152.8903
 20
303.2377
 10
151.1983
 20
301.7663
 10
149.6032
 20
300.3295
 10
148.1032
 20
298.9301
 10
146.6965
 20
297.5711
 10
145.3811
 20
296.2552
 10
144.1551
 20
294.9853
 10
143.0166
 20
293.7639
 10
141.9634
 20
292.5937
 10
140.9933
 20
291.4774
 10
140.1042
 20
290.4174
 10
139.2937
 20
289.4163
 10
138.5596
 20
288.4763
 10
137.8993
 20
287.5999
 10
137.3106
 20
286.7893
 10
136.7907
 20
286.0467
 10
136.3373
 20
285.3743
 10
135.9476
 20
284.7741
 10
135.6189
 20
284.2482
 10
135.3487
 20
283.7983
 10
135.134
 20
283.4265
 10
134.972
 20
283.1345
 10
134.86
 20
282.9239
 10
134.7949
 20
282.7964
 10
126.9297
 20
266.2966
 10
91.16
 20
280.5617
 10
96.8079
 20
297.9458
 10
96.8484
 20
298.0831
 10
96.91200000000001
 20
298.313
 10
96.99550000000001
 20
298.6363
 10
97.0956
 20
299.0539
 10
97.209
 20
299.5662
 10
97.3325
 20
300.174
 10
97.4628
 20
300.8776
 10
97.59650000000001
 20
301.6776
 10
97.7304
 20
302.5741
 10
97.861
 20
303.5674
 10
97.9851
 20
304.6576
 10
98.0993
 20
305.8448
 10
98.2002
 20
307.1289
 10
98.28449999999999
 20
308.5099
 10
98.3489
 20
309.9874
 10
98.3899
 20
311.5612
 10
98.4044
 20
313.2309
 10
98.3888
 20
314.996
 10
98.34
 20
316.8559
 10
98.25449999999999
 20
318.81
 10
98.1292
 20
320.8576
 10
97.9606
 20
322.9978
 10
97.74550000000001
 20
325.2297
 10
97.4808
 20
327.5523
 10
97.1631
 20
329.9645
 10
96.78919999999999
 20
332.4652
 10
96.35599999999999
 20
335.0531
 10
95.8603
 20
337.7269
 10
95.29900000000001
 20
340.4851
 10
94.669
 20
343.3262
 10
93.96720000000001
 20
346.2487
 10
93.19070000000001
 20
349.2508
 10
92.33629999999999
 20
352.3309
 10
91.306
 20
355.1164
 10
70.3741
 20
359.8499
 10
68.2454
 20
357.7788
 10
66.1489
 20
355.3659
 10
64.1562
 20
352.99
 10
62.2653
 20
350.6539
 10
60.4741
 20
348.3602
 10
58.7807
 20
346.1119
 10
57.1828
 20
343.9116
 10
55.6782
 20
341.7619
 10
54.2648
 20
339.6654
 10
52.94
 20
337.6246
 10
51.7017
 20
335.6419
 10
50.5472
 20
333.7197
 10
49.4742
 20
331.8603
 10
48.48
 20
330.0659
 10
47.5621
 20
328.3387
 10
46.7177
 20
326.6807
 10
45.9442
 20
325.094
 10
45.2388
 20
323.5806
 10
44.5987
 20
322.1423
 10
44.0211
 20
320.7808
 10
43.5031
 20
319.4979
 10
43.0416
 20
318.2953
 10
42.6339
 20
317.1745
 10
42.2768
 20
316.137
 10
41.9673
 20
315.1841
 10
41.7024
 20
314.3173
 10
41.4789
 20
313.5376
 10
41.2938
 20
312.8464
 10
41.1438
 20
312.2446
 10
41.0257
 20
311.7333
 10
40.9364
 20
311.3133
 10
40.8727
 20
310.9855
 10
40.8312
 20
310.7506
 10
40.8087
 20
310.6093
 10
38.4271
 20
292.4865
 10
0
 20
295
 10
-0.0005999999999999999
 20
313.2786
 10
-0.0044
 20
313.4216
 10
-0.015
 20
313.6599
 10
-0.0355
 20
313.9933
 10
-0.0693
 20
314.4213
 10
-0.1198
 20
314.9436
 10
-0.1901
 20
315.5598
 10
-0.2837
 20
316.2693
 10
-0.4037
 20
317.0714
 10
-0.5534
 20
317.9654
 10
-0.7361
 20
318.9504
 10
-0.955
 20
320.0256
 10
-1.2133
 20
321.19
 10
-1.5141
 20
322.4425
 10
-1.8607
 20
323.7819
 10
-2.256
 20
325.207
 10
-2.7033
 20
326.7165
 10
-3.2055
 20
328.3089
 10
-3.7658
 20
329.9828
 10
-4.387
 20
331.7366
 10
-5.0721
 20
333.5687
 10
-5.8241
 20
335.4773
 10
-6.6458
 20
337.4607
 10
-7.54
 20
339.5169
 10
-8.509499999999999
 20
341.644
 10
-9.5571
 20
343.84
 10
-10.6854
 20
346.1027
 10
-11.8971
 20
348.4301
 10
-13.1948
 20
350.8198
 10
-14.5809
 20
353.2695
 10
-16.0581
 20
355.7769
 10
-17.6286
 20
358.3395
 10
-19.2949
 20
360.9548
 10
-21.0592
 20
363.6201
 10
-22.8999
 20
365.9509
 10
-44.27
 20
363.9844
 10
-45.6545
 20
361.3568
 10
-46.9027
 20
358.4142
 10
-48.0637
 20
355.5388
 10
-49.1402
 20
352.7327
 10
-50.1349
 20
349.9978
 10
-51.0507
 20
347.3362
 10
-51.8905
 20
344.7498
 10
-52.6571
 20
342.2404
 10
-53.3535
 20
339.8097
 10
-53.9828
 20
337.4595
 10
-54.5478
 20
335.1911
 10
-55.0518
 20
333.0062
 10
-55.4977
 20
330.9062
 10
-55.8887
 20
328.8925
 10
-56.228
 20
326.9661
 10
-56.5187
 20
325.1284
 10
-56.764
 20
323.3803
 10
-56.9672
 20
321.723
 10
-57.1315
 20
320.1573
 10
-57.2601
 20
318.6839
 10
-57.3564
 20
317.3038
 10
-57.4236
 20
316.0174
 10
-57.4651
 20
314.8255
 10
-57.4841
 20
313.7284
 10
-57.4839
 20
312.7265
 10
-57.468
 20
311.8202
 10
-57.4396
 20
311.0097
 10
-57.4021
 20
310.2951
 10
-57.3588
 20
309.6764
 10
-57.3131
 20
309.1536
 10
-57.2683
 20
308.7266
 10
-57.2276
 20
308.3951
 10
-57.1945
 20
308.1589
 10
-57.1722
 20
308.0175
 10
-53.8369
 20
290.0458
 10
-91.16
 20
280.5617
 10
-96.80889999999999
 20
297.9455
 10
-96.85680000000001
 20
298.0803
 10
-96.9405
 20
298.3037
 10
-97.063
 20
298.6144
 10
-97.22750000000001
 20
299.011
 10
-97.43680000000001
 20
299.4922
 10
-97.6942
 20
300.0565
 10
-98.00239999999999
 20
300.7023
 10
-98.3644
 20
301.4281
 10
-98.783
 20
302.232
 10
-99.2612
 20
303.1124
 10
-99.80159999999999
 20
304.0674
 10
-100.4071
 20
305.0949
 10
-101.0802
 20
306.1931
 10
-101.8237
 20
307.3599
 10
-102.6401
 20
308.5931
 10
-103.5319
 20
309.8905
 10
-104.5017
 20
311.2497
 10
-105.5517
 20
312.6686
 10
-106.6845
 20
314.1446
 10
-107.9022
 20
315.6753
 10
-109.2072
 20
317.2581
 10
-110.6016
 20
318.8905
 10
-112.0874
 20
320.5697
 10
-113.6668
 20
322.2932
 10
-115.3417
 20
324.0579
 10
-117.1141
 20
325.8613
 10
-118.9857
 20
327.7003
 10
-120.9583
 20
329.572
 10
-123.0336
 20
331.4735
 10
-125.2133
 20
333.4018
 10
-127.4988
 20
335.3536
 10
-129.8917
 20
337.3259
 10
-132.3933
 20
339.3156
 10
-134.8641
 20
340.9635
 10
-154.5806
 20
332.4895
 10
-155.0854
 20
329.5627
 10
-155.3632
 20
326.3785
 10
-155.5789
 20
323.285
 10
-155.7355
 20
320.2835
 10
-155.8364
 20
317.3751
 10
-155.8849
 20
314.5608
 10
-155.8843
 20
311.8415
 10
-155.838
 20
309.218
 10
-155.7492
 20
306.6911
 10
-155.6214
 20
304.2614
 10
-155.4578
 20
301.9295
 10
-155.2619
 20
299.6958
 10
-155.0371
 20
297.5608
 10
-154.7867
 20
295.5247
 10
-154.5141
 20
293.5878
 10
-154.2227
 20
291.7502
 10
-153.9158
 20
290.0119
 10
-153.5969
 20
288.3729
 10
-153.2693
 20
286.833
 10
-152.9364
 20
285.3921
 10
-152.6015
 20
284.0497
 10
-152.2679
 20
282.8056
 10
-151.939
 20
281.6591
 10
-151.618
 20
280.6099
 10
-151.3083
 20
279.6571
 10
-151.0131
 20
278.8001
 10
-150.7356
 20
278.038
 10
-150.4791
 20
277.3699
 10
-150.2468
 20
276.7949
 10
-150.0417
 20
276.3118
 10
-149.8671
 20
275.9196
 10
-149.726
 20
275.6169
 10
-149.6215
 20
275.4025
 10
-149.5566
 20
275.2749
 10
-140.8311
 20
259.2135
 10
-173.3966
 20
238.66
 10
-184.141
 20
253.4474
 10
-184.2282
 20
253.5608
 10
-184.3768
 20
253.7474
 10
-184.5893
 20
254.005
 10
-184.8683
 20
254.3314
 10
-185.2161
 20
254.7244
 10
-185.6352
 20
255.1815
 10
-186.1279
 20
255.7005
 10
-186.6965
 20
256.2789
 10
-187.3431
 20
256.9141
 10
-188.0699
 20
257.6036
 10
-188.879
 20
258.3448
 10
-189.7723
 20
259.135
 10
-190.7519
 20
259.9715
 10
-191.8195
 20
260.8514
 10
-192.977
 20
261.7719
 10
-194.2261
 20
262.7302
 10
-195.5685
 20
263.7233
 10
-197.0056
 20
264.7482
 10
-198.539
 20
265.802
 10
-200.1702
 20
266.8814
 10
-201.9004
 20
267.9835
 10
-203.7309
 20
269.1051
 10
-205.663
 20
270.243
 10
-207.6976
 20
271.394
 10
-209.8359
 20
272.5549
 10
-212.0788
 20
273.7223
 10
-214.427
 20
274.8929
 10
-216.8815
 20
276.0635
 10
-219.4429
 20
277.2306
 10
-222.1117
 20
278.3909
 10
-224.8885
 20
279.5409
 10
-227.7738
 20
280.6773
 10
-230.7678
 20
281.7966
 10
-233.6269
 20
282.6003
 10
-249.7598
 20
268.4483
 10
-249.3354
 20
265.5088
 10
-248.6157
 20
262.3945
 10
-247.8649
 20
259.3858
 10
-247.0863
 20
256.4828
 10
-246.2836
 20
253.6856
 10
-245.46
 20
250.994
 10
-244.6192
 20
248.408
 10
-243.7644
 20
245.9273
 10
-242.8991
 20
243.5514
 10
-242.0267
 20
241.2802
 10
-241.1505
 20
239.1129
 10
-240.274
 20
237.0491
 10
-239.4004
 20
235.0881
 10
-238.5331
 20
233.229
 10
-237.6753
 20
231.4712
 10
-236.8303
 20
229.8135
 10
-236.0013
 20
228.2551
 10
-235.1915
 20
226.7949
 10
-234.4041
 20
225.4316
 10
-233.6422
 20
224.1641
 10
-232.9088
 20
222.9909
 10
-232.2071
 20
221.9107
 10
-231.54
 20
220.922
 10
-230.9105
 20
220.0233
 10
-230.3215
 20
219.2129
 10
-229.7759
 20
218.489
 10
-229.2766
 20
217.85
 10
-228.8262
 20
217.2939
 10
-228.4275
 20
216.8188
 10
-228.0832
 20
216.4227
 10
-227.7959
 20
216.1036
 10
-227.5682
 20
215.8594
 10
-227.4026
 20
215.6877
 10
-227.3014
 20
215.5865
 10
-214.0397
 20
203.0075
 10
-238.66
 20
173.3966
 10
-253.448
 20
184.1401
 10
-253.566
 20
184.221
 10
-253.765
 20
184.3526
 10
-254.0468
 20
184.5319
 10
-254.4129
 20
184.7561
 10
-254.8652
 20
185.0223
 10
-255.405
 20
185.3276
 10
-256.034
 20
185.6689
 10
-256.7534
 20
186.0433
 10
-257.5647
 20
186.4476
 10
-258.469
 20
186.8788
 10
-259.4675
 20
187.3337
 10
-260.5613
 20
187.8092
 10
-261.7514
 20
188.302
 10
-263.0387
 20
188.8089
 10
-264.424
 20
189.3267
 10
-265.9081
 20
189.8521
 10
-267.4916
 20
190.3818
 10
-269.1751
 20
190.9125
 10
-270.9591
 20
191.4408
 10
-272.844
 20
191.9633
 10
-274.8301
 20
192.4768
 10
-276.9177
 20
192.9779
 10
-279.1068
 20
193.463
 10
-281.3975
 20
193.929
 10
-283.7899
 20
194.3722
 10
-286.2837
 20
194.7894
 10
-288.8788
 20
195.1771
 10
-291.5749
 20
195.5319
 10
-294.3715
 20
195.8504
 10
-297.2683
 20
196.1292
 10
-300.2646
 20
196.3649
 10
-303.3598
 20
196.554
 10
-306.5531
 20
196.6933
 10
-309.5207
 20
196.5741
 10
-320.4908
 20
178.1294
 10
-319.1788
 20
175.465
 10
-317.5319
 20
172.7255
 10
-315.8881
 20
170.0961
 10
-314.2506
 20
167.5758
 10
-312.6227
 20
165.1635
 10
-311.0078
 20
162.8582
 10
-309.4089
 20
160.6586
 10
-307.8294
 20
158.5634
 10
-306.2723
 20
156.5712
 10
-304.7407
 20
154.6807
 10
-303.2377
 20
152.8903
 10
-301.7663
 20
151.1983
 10
-300.3295
 20
149.6032
 10
-298.9301
 20
148.1032
 10
-297.5711
 20
146.6965
 10
-296.2552
 20
145.3811
 10
-294.9853
 20
144.1551
 10
-293.7639
 20
143.0166
 10
-292.5937
 20
141.9634
 10
-291.4774
 20
140.9933
 10
-290.4174
 20
140.1042
 10
-289.4163
 20
139.2937
 10
-288.4763
 20
138.5596
 10
-287.5999
 20
137.8993
 10
-286.7893
 20
137.3106
 10
-286.0467
 20
136.7907
 10
-285.3743
 20
136.3373
 10
-284.7741
 20
135.9476
 10
-284.2482
 20
135.6189
 10
-283.7983
 20
135.3487
 10
-283.4265
 20
135.134
 10
-283.1345
 20
134.972
 10
-282.9239
 20
134.86
 10
-282.7964
 20
134.7949
 10
-266.2966
 20
126.9297
 10
-280.5617
 20
91.16
 10
-297.9458
 20
96.8079
 10
-298.0831
 20
96.8484
 10
-298.313
 20
96.91200000000001
 10
-298.6363
 20
96.99550000000001
 10
-299.0539
 20
97.0956
 10
-299.5662
 20
97.209
 10
-300.174
 20
97.3325
 10
-300.8776
 20
97.4628
 10
-301.6776
 20
97.59650000000001
 10
-302.5741
 20
97.7304
 10
-303.5674
 20
97.861
 10
-304.6576
 20
97.9851
 10
-305.8448
 20
98.0993
 10
-307.1289
 20
98.2002
 10
-308.5099
 20
98.28449999999999
 10
-309.9874
 20
98.3489
 10
-311.5612
 20
98.3899
 10
-313.2309
 20
98.4044
 10
-314.996
 20
98.3888
 10
-316.8559
 20
98.34
 10
-318.81
 20
98.25449999999999
 10
-320.8576
 20
98.1292
 10
-322.9978
 20
97.9606
 10
-325.2297
 20
97.74550000000001
 10
-327.5523
 20
97.4808
 10
-329.9645
 20
97.1631
 10
-332.4652
 20
96.78919999999999
 10
-335.0531
 20
96.35599999999999
 10
-337.7269
 20
95.8603
 10
-340.4851
 20
95.29900000000001
 10
-343.3262
 20
94.669
 10
-346.2487
 20
93.96720000000001
 10
-349.2508
 20
93.19070000000001
 10
-352.3309
 20
92.33629999999999
 10
-355.1164
 20
91.306
 10
-359.8499
 20
70.3741
 10
-357.7788
 20
68.2454
 10
-355.3659
 20
66.1489
 10
-352.99
 20
64.1562
 10
-350.6539
 20
62.2653
 10
-348.3602
 20
60.4741
 10
-346.1119
 20
58.7807
 10
-343.9116
 20
57.1828
 10
-341.7619
 20
55.6782
 10
-339.6654
 20
54.2648
 10
-337.6246
 20
52.94
 10
-335.6419
 20
51.7017
 10
-333.7197
 20
50.5472
 10
-331.8603
 20
49.4742
 10
-330.0659
 20
48.48
 10
-328.3387
 20
47.5621
 10
-326.6807
 20
46.7177
 10
-325.094
 20
45.9442
 10
-323.5806
 20
45.2388
 10
-322.1423
 20
44.5987
 10
-320.7808
 20
44.0211
 10
-319.4979
 20
43.5031
 10
-318.2953
 20
43.0416
 10
-317.1745
 20
42.6339
 10
-316.137
 20
42.2768
 10
-315.1841
 20
41.9673
 10
-314.3173
 20
41.7024
 10
-313.5376
 20
41.4789
 10
-312.8464
 20
41.2938
 10
-312.2446
 20
41.1438
 10
-311.7333
 20
41.0257
 10
-311.3133
 20
40.9364
 10
-310.9855
 20
40.8727
 10
-310.7506
 20
40.8312
 10
-310.6093
 20
40.8087
 10
-292.4865
 20
38.4271
 10
-295
 20
0
 10
-313.2786
 20
-0.0005999999999999999
 10
-313.4216
 20
-0.0044
 10
-313.6599
 20
-0.015
 10
-313.9933
 20
-0.0355
 10
-314.4213
 20
-0.0693
 10
-314.9436
 20
-0.1198
 10
-315.5598
 20
-0.1901
 10
-316.2693
 20
-0.2837
 10
-317.0714
 20
-0.4037
 10
-317.9654
 20
-0.5534
 10
-318.9504
 20
-0.7361
 10
-320.0256
 20
-0.955
 10
-321.19
 20
-1.2133
 10
-322.4425
 20
-1.5141
 10
-323.7819
 20
-1.8607
 10
-325.207
 20
-2.256
 10
-326.7165
 20
-2.7033
 10
-328.3089
 20
-3.2055
 10
-329.9828
 20
-3.7658
 10
-331.7366
 20
-4.387
 10
-333.5687
 20
-5.0721
 10
-335.4773
 20
-5.8241
 10
-337.4607
 20
-6.6458
 10
-339.5169
 20
-7.54
 10
-341.644
 20
-8.509499999999999
 10
-343.84
 20
-9.5571
 10
-346.1027
 20
-10.6854
 10
-348.4301
 20
-11.8971
 10
-350.8198
 20
-13.1948
 10
-353.2695
 20
-14.5809
 10
-355.7769
 20
-16.0581
 10
-358.3395
 20
-17.6286
 10
-360.9548
 20
-19.2949
 10
-363.6201
 20
-21.0592
 10
-365.9509
 20
-22.8999
 10
-363.9844
 20
-44.27
 10
-361.3568
 20
-45.6545
 10
-358.4142
 20
-46.9027
 10
-355.5388
 20
-48.0637
 10
-352.7327
 20
-49.1402
 10
-349.9978
 20
-50.1349
 10
-347.3362
 20
-51.0507
 10
-344.7498
 20
-51.8905
 10
-342.2404
 20
-52.6571
 10
-339.8097
 20
-53.3535
 10
-337.4595
 20
-53.9828
 10
-335.1911
 20
-54.5478
 10
-333.0062
 20
-55.0518
 10
-330.9062
 20
-55.4977
 10
-328.8925
 20
-55.8887
 10
-326.9661
 20
-56.228
 10
-325.1284
 20
-56.5187
 10
-323.3803
 20
-56.764
 10
-321.723
 20
-56.9672
 10
-320.1573
 20
-57.1315
 10
-318.6839
 20
-57.2601
 10
-317.3038
 20
-57.3564
 10
-316.0174
 20
-57.4236
 10
-314.8255
 20
-57.4651
 10
-313.7284
 20
-57.4841
 10
-312.7265
 20
-57.4839
 10
-311.8202
 20
-57.468
 10
-311.0097
 20
-57.4396
 10
-310.2951
 20
-57.4021
 10
-309.6764
 20
-57.3588
 10
-309.1536
 20
-57.3131
 10
-308.7266
 20
-57.2683
 10
-308.3951
 20
-57.2276
 10
-308.1589
 20
-57.1945
 10
-308.0175
 20
-57.1722
 10
-290.0458
 20
-53.8369
 10
-280.5617
 20
-91.16
 10
-297.9455
 20
-96.80889999999999
 10
-298.0803
 20
-96.85680000000001
 10
-298.3037
 20
-96.9405
 10
-298.6144
 20
-97.063
 10
-299.011
 20
-97.22750000000001
 10
-299.4922
 20
-97.43680000000001
 10
-300.0565
 20
-97.6942
 10
-300.7023
 20
-98.00239999999999
 10
-301.4281
 20
-98.3644
 10
-302.232
 20
-98.783
 10
-303.1124
 20
-99.2612
 10
-304.0674
 20
-99.80159999999999
 10
-305.0949
 20
-100.4071
 10
-306.1931
 20
-101.0802
 10
-307.3599
 20
-101.8237
 10
-308.5931
 20
-102.6401
 10
-309.8905
 20
-103.5319
 10
-311.2497
 20
-104.5017
 10
-312.6686
 20
-105.5517
 10
-314.1446
 20
-106.6845
 10
-315.6753
 20
-107.9022
 10
-317.2581
 20
-109.2072
 10
-318.8905
 20
-110.6016
 10
-320.5697
 20
-112.0874
 10
-322.2932
 20
-113.6668
 10
-324.0579
 20
-115.3417
 10
-325.8613
 20
-117.1141
 10
-327.7003
 20
-118.9857
 10
-329.572
 20
-120.9583
 10
-331.4735
 20
-123.0336
 10
-333.4018
 20
-125.2133
 10
-335.3536
 20
-127.4988
 10
-337.3259
 20
-129.8917
 10
-339.3156
 20
-132.3933
 10
-340.9635
 20
-134.8641
 10
-332.4895
 20
-154.5806
 10
-329.5627
 20
-155.0854
 10
-326.3785
 20
-155.3632
 10
-323.285
 20
-155.5789
 10
-320.2835
 20
-155.7355
 10
-317.3751
 20
-155.8364
 10
-314.5608
 20
-155.8849
 10
-311.8415
 20
-155.8843
 10
-309.218
 20
-155.838
 10
-306.6911
 20
-155.7492
 10
-304.2614
 20
-155.6214
 10
-301.9295
 20
-155.4578
 10
-299.6958
 20
-155.2619
 10
-297.5608
 20
-155.0371
 10
-295.5247
 20
-154.7867
 10
-293.5878
 20
-154.5141
 10
-291.7502
 20
-154.2227
 10
-290.0119
 20
-153.9158
 10
-288.3729
 20
-153.5969
 10
-286.833
 20
-153.2693
 10
-285.3921
 20
-152.9364
 10
-284.0497
 20
-152.6015
 10
-282.8056
 20
-152.2679
 10
-281.6591
 20
-151.939
 10
-280.6099
 20
-151.618
 10
-279.6571
 20
-151.3083
 10
-278.8001
 20
-151.0131
 10
-278.038
 20
-150.7356
 10
-277.3699
 20
-150.4791
 10
-276.7949
 20
-150.2468
 10
-276.3118
 20
-150.0417
 10
-275.9196
 20
-149.8671
 10
-275.6169
 20
-149.726
 10
-275.4025
 20
-149.6215
 10
-275.2749
 20
-149.5566
 10
-259.2135
 20
-140.8311
 10
-238.66
 20
-173.3966
 10
-253.4474
 20
-184.141
 10
-253.5608
 20
-184.2282
 10
-253.7474
 20
-184.3768
 10
-254.005
 20
-184.5893
 10
-254.3314
 20
-184.8683
 10
-254.7244
 20
-185.2161
 10
-255.1815
 20
-185.6352
 10
-255.7005
 20
-186.1279
 10
-256.2789
 20
-186.6965
 10
-256.9141
 20
-187.3431
 10
-257.6036
 20
-188.0699
 10
-258.3448
 20
-188.879
 10
-259.135
 20
-189.7723
 10
-259.9715
 20
-190.7519
 10
-260.8514
 20
-191.8195
 10
-261.7719
 20
-192.977
 10
-262.7302
 20
-194.2261
 10
-263.7233
 20
-195.5685
 10
-264.7482
 20
-197.0056
 10
-265.802
 20
-198.539
 10
-266.8814
 20
-200.1702
 10
-267.9835
 20
-201.9004
 10
-269.1051
 20
-203.7309
 10
-270.243
 20
-205.663
 10
-271.394
 20
-207.6976
 10
-272.5549
 20
-209.8359
 10
-273.7223
 20
-212.0788
 10
-274.8929
 20
-214.427
 10
-276.0635
 20
-216.8815
 10
-277.2306
 20
-219.4429
 10
-278.3909
 20
-222.1117
 10
-279.5409
 20
-224.8885
 10
-280.6773
 20
-227.7738
 10
-281.7966
 20
-230.7678
 10
-282.6003
 20
-233.6269
 10
-268.4483
 20
-249.7598
 10
-265.5088
 20
-249.3354
 10
-262.3945
 20
-248.6157
 10
-259.3858
 20
-247.8649
 10
-256.4828
 20
-247.0863
 10
-253.6856
 20
-246.2836
 10
-250.994
 20
-245.46
 10
-248.408
 20
-244.6192
 10
-245.9273
 20
-243.7644
 10
-243.5514
 20
-242.8991
 10
-241.2802
 20
-242.0267
 10
-239.1129
 20
-241.1505
 10
-237.0491
 20
-240.274
 10
-235.0881
 20
-239.4004
 10
-233.229
 20
-238.5331
 10
-231.4712
 20
-237.6753
 10
-229.8135
 20
-236.8303
 10
-228.2551
 20
-236.0013
 10
-226.7949
 20
-235.1915
 10
-225.4316
 20
-234.4041
 10
-224.1641
 20
-233.6422
 10
-222.9909
 20
-232.9088
 10
-221.9107
 20
-232.2071
 10
-220.922
 20
-231.54
 10
-220.0233
 20
-230.9105
 10
-219.2129
 20
-230.3215
 10
-218.489
 20
-229.7759
 10
-217.85
 20
-229.2766
 10
-217.2939
 20
-228.8262
 10
-216.8188
 20
-228.4275
 10
-216.4227
 20
-228.0832
 10
-216.1036
 20
-227.7959
 10
-215.8594
 20
-227.5682
 10
-215.6877
 20
-227.4026
 10
-215.5865
 20
-227.3014
 10
-203.0075
 20
-214.0397
 10
-173.3966
 20
-238.66
 10
-184.1401
 20
-253.448
 10
-184.221
 20
-253.566
 10
-184.3526
 20
-253.765
 10
-184.5319
 20
-254.0468
 10
-184.7561
 20
-254.4129
 10
-185.0223
 20
-254.8652
 10
-185.3276
 20
-255.405
 10
-185.6689
 20
-256.034
 10
-186.0433
 20
-256.7534
 10
-186.4476
 20
-257.5647
 10
-186.8788
 20
-258.469
 10
-187.3337
 20
-259.4675
 10
-187.8092
 20
-260.5613
 10
-188.302
 20
-261.7514
 10
-188.8089
 20
-263.0387
 10
-189.3267
 20
-264.424
 10
-189.8521
 20
-265.9081
 10
-190.3818
 20
-267.4916
 10
-190.9125
 20
-269.1751
 10
-191.4408
 20
-270.9591
 10
-191.9633
 20
-272.844
 10
-192.4768
 20
-274.8301
 10
-192.9779
 20
-276.9177
 10
-193.463
 20
-279.1068
 10
-193.929
 20
-281.3975
 10
-194.3722
 20
-283.7899
 10
-194.7894
 20
-286.2837
 10
-195.1771
 20
-288.8788
 10
-195.5319
 20
-291.5749
 10
-195.8504
 20
-294.3715
 10
-196.1292
 20
-297.2683
 10
-196.3649
 20
-300.2646
 10
-196.554
 20
-303.3598
 10
-196.6933
 20
-306.5531
 10
-196.5741
 20
-309.5207
 10
-178.1294
 20
-320.4908
 10
-175.465
 20
-319.1788
 10
-172.7255
 20
-317.5319
 10
-170.0961
 20
-315.8881
 10
-167.5758
 20
-314.2506
 10
-165.1635
 20
-312.6227
 10
-162.8582
 20
-311.0078
 10
-160.6586
 20
-309.4089
 10
-158.5634
 20
-307.8294
 10
-156.5712
 20
-306.2723
 10
-154.6807
 20
-304.7407
 10
-152.8903
 20
-303.2377
 10
-151.1983
 20
-301.7663
 10
-149.6032
 20
-300.3295
 10
-148.1032
 20
-298.9301
 10
-146.6965
 20
-297.5711
 10
-145.3811
 20
-296.2552
 10
-144.1551
 20
-294.9853
 10
-143.0166
 20
-293.7639
 10
-141.9634
 20
-292.5937
 10
-140.9933
 20
-291.4774
 10
-140.1042
 20
-290.4174
 10
-139.2937
 20
-289.4163
 10
-138.5596
 20
-288.4763
 10
-137.8993
 20
-287.5999
 10
-137.3106
 20
-286.7893
 10
-136.7907
 20
-286.0467
 10
-136.3373
 20
-285.3743
 10
-135.9476
 20
-284.7741
 10
-135.6189
 20
-284.2482
 10
-135.3487
 20
-283.7983
 10
-135.134
 20
-283.4265
 10
-134.972
 20
-283.1345
 10
-134.86
 20
-282.9239
 10
-134.7949
 20
-282.7964
 10
-126.9297
 20
-266.2966
 10
-91.16
 20
-280.5617
 10
-96.8079
 20
-297.9458
 10
-96.8484
 20
-298.0831
 10
-96.91200000000001
 20
-298.313
 10
-96.99550000000001
 20
-298.6363
 10
-97.0956
 20
-299.0539
 10
-97.209
 20
-299.5662
 10
-97.3325
 20
-300.174
 10
-97.4628
 20
-300.8776
 10
-97.59650000000001
 20
-301.6776
 10
-97.7304
 20
-302.5741
 10
-97.861
 20
-303.5674
 10
-97.9851
 20
-304.6576
 10
-98.0993
 20
-305.8448
 10
-98.2002
 20
-307.1289
 10
-98.28449999999999
 20
-308.5099
 10
-98.3489
 20
-309.9874
 10
-98.3899
 20
-311.5612
 10
-98.4044
 20
-313.2309
 10
-98.3888
 20
-314.996
 10
-98.34
 20
-316.8559
 10
-98.25449999999999
 20
-318.81
 10
-98.1292
 20
-320.8576
 10
-97.9606
 20
-322.9978
 10
-97.74550000000001
 20
-325.2297
 10
-97.4808
 20
-327.5523
 10
-97.1631
 20
-329.9645
 10
-96.78919999999999
 20
-332.4652
 10
-96.35599999999999
 20
-335.0531
 10
-95.8603
 20
-337.7269
 10
-95.29900000000001
 20
-340.4851
 10
-94.669
 20
-343.3262
 10
-93.96720000000001
 20
-346.2487
 10
-93.19070000000001
 20
-349.2508
 10
-92.33629999999999
 20
-352.3309
 10
-91.306
 20
-355.1164
 10
-70.3741
 20
-359.8499
 10
-68.2454
 20
-357.7788
 10
-66.1489
 20
-355.3659
 10
-64.1562
 20
-352.99
 10
-62.2653
 20
-350.6539
 10
-60.4741
 20
-348.3602
 10
-58.7807
 20
-346.1119
 10
-57.1828
 20
-343.9116
 10
-55.6782
 20
-341.7619
 10
-54.2648
 20
-339.6654
 10
-52.94
 20
-337.6246
 10
-51.7017
 20
-335.6419
 10
-50.5472
 20
-333.7197
 10
-49.4742
 20
-331.8603
 10
-48.48
 20
-330.0659
 10
-47.5621
 20
-328.3387
 10
-46.7177
 20
-326.6807
 10
-45.9442
 20
-325.094
 10
-45.2388
 20
-323.5806
 10
-44.5987
 20
-322.1423
 10
-44.0211
 20
-320.7808
 10
-43.5031
 20
-319.4979
 10
-43.0416
 20
-318.2953
 10
-42.6339
 20
-317.1745
 10
-42.2768
 20
-316.137
 10
-41.9673
 20
-315.1841
 10
-41.7024
 20
-314.3173
 10
-41.4789
 20
-313.5376
 10
-41.2938
 20
-312.8464
 10
-41.1438
 20
-312.2446
 10
-41.0257
 20
-311.7333
 10
-40.9364
 20
-311.3133
 10
-40.8727
 20
-310.9855
 10
-40.8312
 20
-310.7506
 10
-40.8087
 20
-310.6093
 10
-38.4271
 20
-292.4865
 10
0
 20
-295
 10
0.0005999999999999999
 20
-313.2786
 10
0.0044
 20
-313.4216
 10
0.015
 20
-313.6599
 10
0.0355
 20
-313.9933
 10
0.0693
 20
-314.4213
 10
0.1198
 20
-314.9436
 10
0.1901
 20
-315.5598
 10
0.2837
 20
-316.2693
 10
0.4037
 20
-317.0714
 10
0.5534
 20
-317.9654
 10
0.7361
 20
-318.9504
 10
0.955
 20
-320.0256
 10
1.2133
 20
-321.19
 10
1.5141
 20
-322.4425
 10
1.8607
 20
-323.7819
 10
2.256
 20
-325.207
 10
2.7033
 20
-326.7165
 10
3.2055
 20
-328.3089
 10
3.7658
 20
-329.9828
 10
4.387
 20
-331.7366
 10
5.0721
 20
-333.5687
 10
5.8241
 20
-335.4773
 10
6.6458
 20
-337.4607
 10
7.54
 20
-339.5169
 10
8.509499999999999
 20
-341.644
 10
9.5571
 20
-343.84
 10
10.6854
 20
-346.1027
 10
11.8971
 20
-348.4301
 10
13.1948
 20
-350.8198
 10
14.5809
 20
-353.2695
 10
16.0581
 20
-355.7769
 10
17.6286
 20
-358.3395
 10
19.2949
 20
-360.9548
 10
21.0592
 20
-363.6201
 10
22.8999
 20
-365.9509
 10
44.27
 20
-363.9844
 10
45.6545
 20
-361.3568
 10
46.9027
 20
-358.4142
 10
48.0637
 20
-355.5388
 10
49.1402
 20
-352.7327
 10
50.1349
 20
-349.9978
 10
51.0507
 20
-347.3362
 10
51.8905
 20
-344.7498
 10
52.6571
 20
-342.2404
 10
53.3535
 20
-339.8097
 10
53.9828
 20
-337.4595
 10
54.5478
 20
-335.1911
 10
55.0518
 20
-333.0062
 10
55.4977
 20
-330.9062
 10
55.8887
 20
-328.8925
 10
56.228
 20
-326.9661
 10
56.5187
 20
-325.1284
 10
56.764
 20
-323.3803
 10
56.9672
 20
-321.723
 10
57.1315
 20
-320.1573
 10
57.2601
 20
-318.6839
 10
57.3564
 20
-317.3038
 10
57.4236
 20
-316.0174
 10
57.4651
 20
-314.8255
 10
57.4841
 20
-313.7284
 10
57.4839
 20
-312.7265
 10
57.468
 20
-311.8202
 10
57.4396
 20
-311.0097
 10
57.4021
 20
-310.2951
 10
57.3588
 20
-309.6764
 10
57.3131
 20
-309.1536
 10
57.2683
 20
-308.7266
 10
57.2276
 20
-308.3951
 10
57.1945
 20
-308.1589
 10
57.1722
 20
-308.0175
 10
53.8369
 20
-290.0458
 10
91.16
 20
-280.5617
 10
96.80889999999999
 20
-297.9455
 10
96.85680000000001
 20
-298.0803
 10
96.9405
 20
-298.3037
 10
97.063
 20
-298.6144
 10
97.22750000000001
 20
-299.011
 10
97.43680000000001
 20
-299.4922
 10
97.6942
 20
-300.0565
 10
98.00239999999999
 20
-300.7023
 10
98.3644
 20
-301.4281
 10
98.783
 20
-302.232
 10
99.2612
 20
-303.1124
 10
99.80159999999999
 20
-304.0674
 10
100.4071
 20
-305.0949
 10
101.0802
 20
-306.1931
 10
101.8237
 20
-307.3599
 10
102.6401
 20
-308.5931
 10
103.5319
 20
-309.8905
 10
104.5017
 20
-311.2497
 10
105.5517
 20
-312.6686
 10
106.6845
 20
-314.1446
 10
107.9022
 20
-315.6753
 10
109.2072
 20
-317.2581
 10
110.6016
 20
-318.8905
 10
112.0874
 20
-320.5697
 10
113.6668
 20
-322.2932
 10
115.3417
 20
-324.0579
 10
117.1141
 20
-325.8613
 10
118.9857
 20
-327.7003
 10
120.9583
 20
-329.572
 10
123.0336
 20
-331.4735
 10
125.2133
 20
-333.4018
 10
127.4988
 20
-335.3536
 10
129.8917
 20
-337.3259
 10
132.3933
 20
-339.3156
 10
134.8641
 20
-340.9635
 10
154.5806
 20
-332.4895
 10
155.0854
 20
-329.5627
 10
155.3632
 20
-326.3785
 10
155.5789
 20
-323.285
 10
155.7355
 20
-320.2835
 10
155.8364
 20
-317.3751
 10
155.8849
 20
-314.5608
 10
155.8843
 20
-311.8415
 10
155.838
 20
-309.218
 10
155.7492
 20
-306.6911
 10
155.6214
 20
-304.2614
 10
155.4578
 20
-301.9295
 10
155.2619
 20
-299.6958
 10
155.0371
 20
-297.5608
 10
154.7867
 20
-295.5247
 10
154.5141
 20
-293.5878
 10
154.2227
 20
-291.7502
 10
153.9158
 20
-290.0119
 10
153.5969
 20
-288.3729
 10
153.2693
 20
-286.833
 10
152.9364
 20
-285.3921
 10
152.6015
 20
-284.0497
 10
152.2679
 20
-282.8056
 10
151.939
 20
-281.6591
 10
151.618
 20
-280.6099
 10
151.3083
 20
-279.6571
 10
151.0131
 20
-278.8001
 10
150.7356
 20
-278.038
 10
150.4791
 20
-277.3699
 10
150.2468
 20
-276.7949
 10
150.0417
 20
-276.3118
 10
149.8671
 20
-275.9196
 10
149.726
 20
-275.6169
 10
149.6215
 20
-275.4025
 10
149.5566
 20
-275.2749
 10
140.8311
 20
-259.2135
 10
173.3966
 20
-238.66
 10
184.141
 20
-253.4474
 10
184.2282
 20
-253.5608
 10
184.3768
 20
-253.7474
 10
184.5893
 20
-254.005
 10
184.8683
 20
-254.3314
 10
185.2161
 20
-254.7244
 10
185.6352
 20
-255.1815
 10
186.1279
 20
-255.7005
 10
186.6965
 20
-256.2789
 10
187.3431
 20
-256.9141
 10
188.0699
 20
-257.6036
 10
188.879
 20
-258.3448
 10
189.7723
 20
-259.135
 10
190.7519
 20
-259.9715
 10
191.8195
 20
-260.8514
 10
192.977
 20
-261.7719
 10
194.2261
 20
-262.7302
 10
195.5685
 20
-263.7233
 10
197.0056
 20
-264.7482
 10
198.539
 20
-265.802
 10
200.1702
 20
-266.8814
 10
201.9004
 20
-267.9835
 10
203.7309
 20
-269.1051
 10
205.663
 20
-270.243
 10
207.6976
 20
-271.394
 10
209.8359
 20
-272.5549
 10
212.0788
 20
-273.7223
 10
214.427
 20
-274.8929
 10
216.8815
 20
-276.0635
 10
219.4429
 20
-277.2306
 10
222.1117
 20
-278.3909
 10
224.8885
 20
-279.5409
 10
227.7738
 20
-280.6773
 10
230.7678
 20
-281.7966
 10
233.6269
 20
-282.6003
 10
249.7598
 20
-268.4483
 10
249.3354
 20
-265.5088
 10
248.6157
 20
-262.3945
 10
247.8649
 20
-259.3858
 10
247.0863
 20
-256.4828
 10
246.2836
 20
-253.6856
 10
245.46
 20
-250.994
 10
244.6192
 20
-248.408
 10
243.7644
 20
-245.9273
 10
242.8991
 20
-243.5514
 10
242.0267
 20
-241.2802
 10
241.1505
 20
-239.1129
 10
240.274
 20
-237.0491
 10
239.4004
 20
-235.0881
 10
238.5331
 20
-233.229
 10
237.6753
 20
-231.4712
 10
236.8303
 20
-229.8135
 10
236.0013
 20
-228.2551
 10
235.1915
 20
-226.7949
 10
234.4041
 20
-225.4316
 10
233.6422
 20
-224.1641
 10
232.9088
 20
-222.9909
 10
232.2071
 20
-221.9107
 10
231.54
 20
-220.922
 10
230.9105
 20
-220.0233
 10
230.3215
 20
-219.2129
 10
229.7759
 20
-218.489
 10
229.2766
 20
-217.85
 10
228.8262
 20
-217.2939
 10
228.4275
 20
-216.8188
 10
228.0832
 20
-216.4227
 10
227.7959
 20
-216.1036
 10
227.5682
 20
-215.8594
 10
227.4026
 20
-215.6877
 10
227.3014
 20
-215.5865
 10
214.0397
 20
-203.0075
 10
238.66
 20
-173.3966
 10
253.448
 20
-184.1401
 10
253.566
 20
-184.221
 10
253.765
 20
-184.3526
 10
254.0468
 20
-184.5319
 10
254.4129
 20
-184.7561
 10
254.8652
 20
-185.0223
 10
255.405
 20
-185.3276
 10
256.034
 20
-185.6689
 10
256.7534
 20
-186.0433
 10
257.5647
 20
-186.4476
 10
258.469
 20
-186.8788
 10
259.4675
 20
-187.3337
 10
260.5613
 20
-187.8092
 10
261.7514
 20
-188.302
 10
263.0387
 20
-188.8089
 10
264.424
 20
-189.3267
 10
265.9081
 20
-189.8521
 10
267.4916
 20
-190.3818
 10
269.1751
 20
-190.9125
 10
270.9591
 20
-191.4408
 10
272.844
 20
-191.9633
 10
274.8301
 20
-192.4768
 10
276.9177
 20
-192.9779
 10
279.1068
 20
-193.463
 10
281.3975
 20
-193.929
 10
283.7899
 20
-194.3722
 10
286.2837
 20
-194.7894
 10
288.8788
 20
-195.1771
 10
291.5749
 20
-195.5319
 10
294.3715
 20
-195.8504
 10
297.2683
 20
-196.1292
 10
300.2646
 20
-196.3649
 10
303.3598
 20
-196.554
 10
306.5531
 20
-196.6933
 10
309.5207
 20
-196.5741
 10
320.4908
 20
-178.1294
 10
319.1788
 20
-175.465
 10
317.5319
 20
-172.7255
 10
315.8881
 20
-170.0961
 10
314.2506
 20
-167.5758
 10
312.6227
 20
-165.1635
 10
311.0078
 20
-162.8582
 10
309.4089
 20
-160.6586
 10
307.8294
 20
-158.5634
 10
306.2723
 20
-156.5712
 10
304.7407
 20
-154.6807
 10
303.2377
 20
-152.8903
 10
301.7663
 20
-151.1983
 10
300.3295
 20
-149.6032
 10
298.9301
 20
-148.1032
 10
297.5711
 20
-146.6965
 10
296.2552
 20
-145.3811
 10
294.9853
 20
-144.1551
 10
293.7639
 20
-143.0166
 10
292.5937
 20
-141.9634
 10
291.4774
 20
-140.9933
 10
290.4174
 20
-140.1042
 10
289.4163
 20
-139.2937
 10
288.4763
 20
-138.5596
 10
287.5999
 20
-137.8993
 10
286.7893
 20
-137.3106
 10
286.0467
 20
-136.7907
 10
285.3743
 20
-136.3373
 10
284.7741
 20
-135.9476
 10
284.2482
 20
-135.6189
 10
283.7983
 20
-135.3487
 10
283.4265
 20
-135.134
 10
283.1345
 20
-134.972
 10
282.9239
 20
-134.86
 10
282.7964
 20
-134.7949
 10
266.2966
 20
-126.9297
 10
280.5617
 20
-91.16
 10
297.9458
 20
-96.8079
 10
298.0831
 20
-96.8484
 10
298.313
 20
-96.91200000000001
 10
298.6363
 20
-96.99550000000001
 10
299.0539
 20
-97.0956
 10
299.5662
 20
-97.209
 10
300.174
 20
-97.3325
 10
300.8776
 20
-97.4628
 10
301.6776
 20
-97.59650000000001
 10
302.5741
 20
-97.7304
 10
303.5674
 20
-97.861
 10
304.6576
 20
-97.9851
 10
305.8448
 20
-98.0993
 10
307.1289
 20
-98.2002
 10
308.5099
 20
-98.28449999999999
 10
309.9874
 20
-98.3489
 10
311.5612
 20
-98.3899
 10
313.2309
 20
-98.4044
 10
314.996
 20
-98.3888
 10
316.8559
 20
-98.34
 10
318.81
 20
-98.25449999999999
 10
320.8576
 20
-98.1292
 10
322.9978
 20
-97.9606
 10
325.2297
 20
-97.74550000000001
 10
327.5523
 20
-97.4808
 10
329.9645
 20
-97.1631
 10
332.4652
 20
-96.78919999999999
 10
335.0531
 20
-96.35599999999999
 10
337.7269
 20
-95.8603
 10
340.4851
 20
-95.29900000000001
 10
343.3262
 20
-94.669
 10
346.2487
 20
-93.96720000000001
 10
349.2508
 20
-93.19070000000001
 10
352.3309
 20
-92.33629999999999
 10
355.1164
 20
-91.306
 10
359.8499
 20
-70.3741
 10
357.7788
 20
-68.2454
 10
355.3659
 20
-66.1489
 10
352.99
 20
-64.1562
 10
350.6539
 20
-62.2653
 10
348.3602
 20
-60.4741
 10
346.1119
 20
-58.7807
 10
343.9116
 20
-57.1828
 10
341.7619
 20
-55.6782
 10
339.6654
 20
-54.2648
 10
337.6246
 20
-52.94
 10
335.6419
 20
-51.7017
 10
333.7197
 20
-50.5472
 10
331.8603
 20
-49.4742
 10
330.0659
 20
-48.48
 10
328.3387
 20
-47.5621
 10
326.6807
 20
-46.7177
 10
325.094
 20
-45.9442
 10
323.5806
 20
-45.2388
 10
322.1423
 20
-44.5987
 10
320.7808
 20
-44.0211
 10
319.4979
 20
-43.5031
 10
318.2953
 20
-43.0416
 10
317.1745
 20
-42.6339
 10
316.137
 20
-42.2768
 10
315.1841
 20
-41.9673
 10
314.3173
 20
-41.7024
 10
313.5376
 20
-41.4789
 10
312.8464
 20
-41.2938
 10
312.2446
 20
-41.1438
 10
311.7333
 20
-41.0257
 10
311.3133
 20
-40.9364
 10
310.9855
 20
-40.8727
 10
310.7506
 20
-40.8312
 10
310.6093
 20
-40.8087
 10
292.4865
 20
-38.4271
  0
ENDSEC
  0
SECTION
  2
OBJECTS
  0
DICTIONARY
  5
C
330
0
100
AcDbDictionary
281
    1
  3
ACAD_GROUP
350
D
  0
DICTIONARY
  5
D
330
C
100
AcDbDictionary
281
    1
  0
ENDSEC
  0
EOF
