999
dxfrw 0.6.3
  0
SECTION
  2
HEADER
  9
$ACADVER
  1
AC1021
  9
$DWGCODEPAGE
  3
ANSI_1252
  9
$INSBASE
 10
0
 20
0
 30
0
  9
$EXTMIN
 10
-200
 20
-200
 30
0
  9
$EXTMAX
 10
200
 20
200
 30
0
  9
$LIMMIN
 10
0
 20
0
  9
$LIMMAX
 10
420
 20
297
  9
$ORTHOMODE
 70
    0
  9
$REGENMODE
 70
    1
  9
$FILLMODE
 70
    1
  9
$QTEXTMODE
 70
    0
  9
$MIRRTEXT
 70
    0
  9
$LTSCALE
 40
1
  9
$ATTMODE
 70
    0
  9
$TEXTSIZE
 40
2.5
  9
$TRACEWID
 40
15.68
  9
$TEXTSTYLE
  7
STANDARD
  9
$CLAYER
  8
0
  9
$CELTYPE
  6
BYLAYER
  9
$CECOLOR
 62
  256
  9
$CELTSCALE
 40
1
  9
$DISPSILH
 70
    0
  9
$DIMSCALE
 40
2.5
  9
$DIMASZ
 40
2.5
  9
$DIMEXO
 40
0.625
  9
$DIMDLI
 40
3.75
  9
$DIMRND
 40
0
  9
$DIMDLE
 40
0
  9
$DIMEXE
 40
1.25
  9
$DIMTP
 40
0
  9
$DIMTM
 40
0
  9
$DIMTXT
 40
2.5
  9
$DIMCEN
 40
2.5
  9
$DIMTSZ
 40
0
  9
$DIMTOL
 70
    0
  9
$DIMLIM
 70
    0
  9
$DIMTIH
 70
    0
  9
$DIMTOH
 70
    0
  9
$DIMSE1
 70
    0
  9
$DIMSE2
 70
    0
  9
$DIMTAD
 70
    1
  9
$DIMZIN
 70
    8
  9
$DIMBLK
  1

  9
$DIMASO
 70
    1
  9
$DIMSHO
 70
    1
  9
$DIMPOST
  1

  9
$DIMAPOST
  1

  9
$DIMALT
 70
    0
  9
$DIMALTD
 70
    3
  9
$DIMALTF
 40
0.03937
  9
$DIMLFAC
 40
1
  9
$DIMTOFL
 70
    1
  9
$DIMTVP
 40
0
  9
$DIMTIX
 70
    0
  9
$DIMSOXD
 70
    0
  9
$DIMSAH
 70
    0
  9
$DIMBLK1
  1

  9
$DIMBLK2
  1

  9
$DIMSTYLE
  2
Standard
  9
$DIMCLRD
 70
    0
  9
$DIMCLRE
 70
    0
  9
$DIMCLRT
 70
    0
  9
$DIMTFAC
 40
1
  9
$DIMGAP
 40
0.625
  9
$DIMJUST
 70
    0
  9
$DIMSD1
 70
    0
  9
$DIMSD2
 70
    0
  9
$DIMTOLJ
 70
    0
  9
$DIMTZIN
 70
    8
  9
$DIMALTZ
 70
    0
  9
$DIMALTTZ
 70
    0
  9
$DIMUPT
 70
    0
  9
$DIMDEC
 70
    2
  9
$DIMTDEC
 70
    2
  9
$DIMALTU
 70
    2
  9
$DIMALTTD
 70
    3
  9
$DIMTXSTY
  7
STANDARD
  9
$DIMAUNIT
 70
    0
  9
$DIMADEC
 70
    0
  9
$DIMALTRND
 40
0
  9
$DIMAZIN
 70
    0
  9
$DIMDSEP
 70
   44
  9
$DIMATFIT
 70
    3
  9
$DIMFRAC
 70
    0
  9
$DIMLDRBLK
  1
STANDARD
  9
$DIMLUNIT
 70
    2
  9
$DIMLWD
 70
   -2
  9
$DIMLWE
 70
   -2
  9
$DIMTMOVE
 70
    0
  9
$DIMFXL
 40
1
  9
$DIMFXLON
 70
    0
  9
$DIMJOGANG
 40
0.7854
  9
$DIMTFILL
 70
    0
  9
$DIMTFILLCLR
 70
    0
  9
$DIMARCSYM
 70
    0
  9
$DIMLTYPE
  6

  9
$DIMLTEX1
  6

  9
$DIMLTEX2
  6

  9
$LUNITS
 70
    2
  9
$LUPREC
 70
    4
  9
$SKETCHINC
 40
1
  9
$FILLETRAD
 40
0
  9
$AUNITS
 70
    0
  9
$AUPREC
 70
    2
  9
$MENU
  1
.
  9
$ELEVATION
 40
0
  9
$PELEVATION
 40
0
  9
$THICKNESS
 40
0
  9
$LIMCHECK
 70
    0
  9
$CHAMFERA
 40
0
  9
$CHAMFERB
 40
0
  9
$CHAMFERC
 40
0
  9
$CHAMFERD
 40
0
  9
$SKPOLY
 70
    0
  9
$USRTIMER
 70
    1
  9
$ANGBASE
 50
0
  9
$ANGDIR
 70
    0
  9
$PDMODE
 70
   34
  9
$PDSIZE
 40
0
  9
$PLINEWID
 40
0
  9
$SPLFRAME
 70
    0
  9
$SPLINETYPE
 70
    2
  9
$SPLINESEGS
 70
    8
  9
$HANDSEED
  5
20000
  9
$SURFTAB1
 70
    6
  9
$SURFTAB2
 70
    6
  9
$SURFTYPE
 70
    6
  9
$SURFU
 70
    6
  9
$SURFV
 70
    6
  9
$UCSBASE
  2

  9
$UCSNAME
  2

  9
$UCSORG
 10
0
 20
0
 30
0
  9
$UCSXDIR
 10
1
 20
0
 30
0
  9
$UCSYDIR
 10
0
 20
1
 30
0
  9
$UCSORTHOREF
  2

  9
$UCSORTHOVIEW
 70
    0
  9
$UCSORGTOP
 10
0
 20
0
 30
0
  9
$UCSORGBOTTOM
 10
0
 20
0
 30
0
  9
$UCSORGLEFT
 10
0
 20
0
 30
0
  9
$UCSORGRIGHT
 10
0
 20
0
 30
0
  9
$UCSORGFRONT
 10
0
 20
0
 30
0
  9
$UCSORGBACK
 10
0
 20
0
 30
0
  9
$PUCSBASE
  2

  9
$PUCSNAME
  2

  9
$PUCSORG
 10
0
 20
0
 30
0
  9
$PUCSXDIR
 10
1
 20
0
 30
0
  9
$PUCSYDIR
 10
0
 20
1
 30
0
  9
$PUCSORTHOREF
  2

  9
$PUCSORTHOVIEW
 70
    0
  9
$PUCSORGTOP
 10
0
 20
0
 30
0
  9
$PUCSORGBOTTOM
 10
0
 20
0
 30
0
  9
$PUCSORGLEFT
 10
0
 20
0
 30
0
  9
$PUCSORGRIGHT
 10
0
 20
0
 30
0
  9
$PUCSORGFRONT
 10
0
 20
0
 30
0
  9
$PUCSORGBACK
 10
0
 20
0
 30
0
  9
$USERI1
 70
    0
  9
$USERI2
 70
    0
  9
$USERI3
 70
    0
  9
$USERI4
 70
    0
  9
$USERI5
 70
    0
  9
$USERR1
 40
0
  9
$USERR2
 40
0
  9
$USERR3
 40
0
  9
$USERR4
 40
0
  9
$USERR5
 40
0
  9
$WORLDVIEW
 70
    1
  9
$SHADEDGE
 70
    3
  9
$SHADEDIF
 70
   70
  9
$TILEMODE
 70
    1
  9
$MAXACTVP
 70
   64
  9
$PINSBASE
 10
0
 20
0
 30
0
  9
$PLIMCHECK
 70
    0
  9
$PEXTMIN
 10
0
 20
0
 30
0
  9
$PEXTMAX
 10
0
 20
0
 30
0
  9
$SNAPSTYLE
 70
    0
  9
$PLIMMIN
 10
0
 20
0
  9
$PLIMMAX
 10
0.0186
 20
0.01395
  9
$UNITMODE
 70
    0
  9
$VISRETAIN
 70
    1
  9
$PLINEGEN
 70
    0
  9
$PSLTSCALE
 70
    1
  9
$TREEDEPTH
 70
 3020
  9
$CMLSTYLE
  2
Standard
  9
$CMLJUST
 70
    0
  9
$CMLSCALE
 40
20
  9
$PROXYGRAPHICS
 70
    1
  9
$MEASUREMENT
 70
    1
  9
$CELWEIGHT
370
   -1
  9
$ENDCAPS
280
    0
  9
$JOINSTYLE
280
    0
  9
$LWDISPLAY
290
    0
  9
$INSUNITS
 70
    4
  9
$HYPERLINKBASE
  1

  9
$STYLESHEET
  1

  9
$XEDIT
290
    1
  9
$CEPSNTYPE
380
    0
  9
$PSTYLEMODE
290
    1
  9
$EXTNAMES
290
    1
  9
$PSVPSCALE
 40
1
  9
$OLESTARTUP
290
    0
  9
$SORTENTS
280
  127
  9
$INDEXCTL
280
    0
  9
$HIDETEXT
280
    1
  9
$XCLIPFRAME
290
    0
  9
$HALOGAP
280
    0
  9
$OBSCOLOR
 70
  257
  9
$OBSLTYPE
280
    0
  9
$INTERSECTIONDISPLAY
280
    0
  9
$INTERSECTIONCOLOR
 70
  257
  9
$DIMASSOC
280
    1
  9
$PROJECTNAME
  1

  9
$CAMERADISPLAY
290
    0
  9
$LENSLENGTH
 40
50
  9
$CAMERAHEIGHT
 40
0
  9
$STEPSPERSEC
 40
2
  9
$STEPSIZE
 40
50
  9
$3DDWFPREC
 40
2
  9
$PSOLWIDTH
 40
5
  9
$PSOLHEIGHT
 40
80
  9
$LOFTANG1
 40
1.570796326794897
  9
$LOFTANG2
 40
1.570796326794897
  9
$LOFTMAG1
 40
0
  9
$LOFTMAG2
 40
0
  9
$LOFTPARAM
 70
    7
  9
$LOFTNORMALS
280
    1
  9
$LATITUDE
 40
1
  9
$LONGITUDE
 40
1
  9
$NORTHDIRECTION
 40
0
  9
$TIMEZONE
 70
-8000
  9
$LIGHTGLYPHDISPLAY
280
    1
  9
$TILEMODELIGHTSYNCH
280
    1
  9
$SOLIDHIST
280
    1
  9
$SHOWHIST
280
    1
  9
$DWFFRAME
280
    2
  9
$DGNFRAME
280
    0
  9
$REALWORLDSCALE
290
    1
  9
$INTERFERECOLOR
 62
    1
  9
$CSHADOW
280
    0
  9
$SHADOWPLANELOCATION
 40
0
  0
ENDSEC
  0
SECTION
  2
CLASSES
  0
ENDSEC
  0
SECTION
  2
TABLES
  0
TABLE
  2
VPORT
  5
8
330
0
100
AcDbSymbolTable
 70
    1
  0
VPORT
  5
31
330
2
100
AcDbSymbolTableRecord
100
AcDbViewportTableRecord
  2
*ACTIVE
 70
    0
 10
0
 20
0
 11
1
 21
1
 12
110.1493835449219
 22
206.9473266601562
 13
0
 23
0
 14
10
 24
10
 15
10
 25
10
 16
0
 26
0
 36
1
 17
0
 27
0
 37
0
 40
777.2445678710938
 41
0.7325153374233129
 42
50
 43
0
 44
0
 50
0
 51
0
 71
    0
 72
  100
 73
    1
 74
    3
 75
    0
 76
    1
 77
    0
 78
    0
281
    0
 65
    1
110
0
120
0
130
0
111
1
121
0
131
0
112
0
122
1
132
0
 79
    0
146
0
348
10020
 60
    7
 61
    5
292
1
282
    1
141
0
142
0
 63
  250
421
3358443
  0
ENDTAB
  0
TABLE
  2
LTYPE
  5
5
330
0
100
AcDbSymbolTable
 70
    4
  0
LTYPE
  5
14
330
5
100
AcDbSymbolTableRecord
100
AcDbLinetypeTableRecord
  2
ByBlock
 70
    0
  3

 72
   65
 73
    0
 40
0
  0
LTYPE
  5
15
330
5
100
AcDbSymbolTableRecord
100
AcDbLinetypeTableRecord
  2
ByLayer
 70
    0
  3

 72
   65
 73
    0
 40
0
  0
LTYPE
  5
16
330
5
100
AcDbSymbolTableRecord
100
AcDbLinetypeTableRecord
  2
Continuous
 70
    0
  3
Solid line
 72
   65
 73
    0
 40
0
  0
LTYPE
  5
32
330
5
100
AcDbSymbolTableRecord
100
AcDbLinetypeTableRecord
  2
DOT
 70
    0
  3
Dot . . . . . . . . . . . . . . . . . . . . . .
 72
   65
 73
    2
 40
6.35
 49
0
 74
    0
 49
-6.35
 74
    0
  0
LTYPE
  5
33
330
5
100
AcDbSymbolTableRecord
100
AcDbLinetypeTableRecord
  2
DOTTINY
 70
    0
  3
Dot (.15x) .....................................
 72
   65
 73
    2
 40
0.9525
 49
0
 74
    0
 49
-0.9525
 74
    0
  0
LTYPE
  5
34
330
5
100
AcDbSymbolTableRecord
100
AcDbLinetypeTableRecord
  2
DOT2
 70
    0
  3
Dot (.5x) .....................................
 72
   65
 73
    2
 40
3.175
 49
0
 74
    0
 49
-3.175
 74
    0
  0
LTYPE
  5
35
330
5
100
AcDbSymbolTableRecord
100
AcDbLinetypeTableRecord
  2
DOTX2
 70
    0
  3
Dot (2x) .  .  .  .  .  .  .  .  .  .  .  .  .
 72
   65
 73
    2
 40
12.7
 49
0
 74
    0
 49
-12.7
 74
    0
  0
LTYPE
  5
36
330
5
100
AcDbSymbolTableRecord
100
AcDbLinetypeTableRecord
  2
DASHED
 70
    0
  3
Dashed _ _ _ _ _ _ _ _ _ _ _ _ _ _ _ _ _
 72
   65
 73
    2
 40
19.05
 49
12.7
 74
    0
 49
-6.35
 74
    0
  0
LTYPE
  5
37
330
5
100
AcDbSymbolTableRecord
100
AcDbLinetypeTableRecord
  2
DASHEDTINY
 70
    0
  3
Dashed (.15x) _ _ _ _ _ _ _ _ _ _ _ _ _ _ _ _ _
 72
   65
 73
    2
 40
2.8575
 49
1.905
 74
    0
 49
-0.9525
 74
    0
  0
LTYPE
  5
38
330
5
100
AcDbSymbolTableRecord
100
AcDbLinetypeTableRecord
  2
DASHED2
 70
    0
  3
Dashed (.5x) _ _ _ _ _ _ _ _ _ _ _ _ _ _ _ _ _
 72
   65
 73
    2
 40
9.524999999999999
 49
6.35
 74
    0
 49
-3.175
 74
    0
  0
LTYPE
  5
39
330
5
100
AcDbSymbolTableRecord
100
AcDbLinetypeTableRecord
  2
DASHEDX2
 70
    0
  3
Dashed (2x) ____  ____  ____  ____  ____  ___
 72
   65
 73
    2
 40
38.09999999999999
 49
25.4
 74
    0
 49
-12.7
 74
    0
  0
LTYPE
  5
3A
330
5
100
AcDbSymbolTableRecord
100
AcDbLinetypeTableRecord
  2
DASHDOT
 70
    0
  3
Dash dot __ . __ . __ . __ . __ . __ . __ . __
 72
   65
 73
    4
 40
25.4
 49
12.7
 74
    0
 49
-6.35
 74
    0
 49
0
 74
    0
 49
-6.35
 74
    0
  0
LTYPE
  5
3B
330
5
100
AcDbSymbolTableRecord
100
AcDbLinetypeTableRecord
  2
DASHDOTTINY
 70
    0
  3
Dash dot (.15x) _._._._._._._._._._._._._._._.
 72
   65
 73
    4
 40
3.81
 49
1.905
 74
    0
 49
-0.9525
 74
    0
 49
0
 74
    0
 49
-0.9525
 74
    0
  0
LTYPE
  5
3C
330
5
100
AcDbSymbolTableRecord
100
AcDbLinetypeTableRecord
  2
DASHDOT2
 70
    0
  3
Dash dot (.5x) _._._._._._._._._._._._._._._.
 72
   65
 73
    4
 40
12.7
 49
6.35
 74
    0
 49
-3.175
 74
    0
 49
0
 74
    0
 49
-3.175
 74
    0
  0
LTYPE
  5
3D
330
5
100
AcDbSymbolTableRecord
100
AcDbLinetypeTableRecord
  2
DASHDOTX2
 70
    0
  3
Dash dot (2x) ____  .  ____  .  ____  .  ___
 72
   65
 73
    4
 40
50.8
 49
25.4
 74
    0
 49
-12.7
 74
    0
 49
0
 74
    0
 49
-12.7
 74
    0
  0
LTYPE
  5
3E
330
5
100
AcDbSymbolTableRecord
100
AcDbLinetypeTableRecord
  2
DIVIDE
 70
    0
  3
Divide ____ . . ____ . . ____ . . ____ . . ____
 72
   65
 73
    6
 40
31.75
 49
12.7
 74
    0
 49
-6.35
 74
    0
 49
0
 74
    0
 49
-6.35
 74
    0
 49
0
 74
    0
 49
-6.35
 74
    0
  0
LTYPE
  5
3F
330
5
100
AcDbSymbolTableRecord
100
AcDbLinetypeTableRecord
  2
DIVIDETINY
 70
    0
  3
Divide (.15x) __..__..__..__..__..__..__..__.._
 72
   65
 73
    6
 40
4.7625
 49
1.905
 74
    0
 49
-0.9525
 74
    0
 49
0
 74
    0
 49
-0.9525
 74
    0
 49
0
 74
    0
 49
-0.9525
 74
    0
  0
LTYPE
  5
40
330
5
100
AcDbSymbolTableRecord
100
AcDbLinetypeTableRecord
  2
DIVIDE2
 70
    0
  3
Divide (.5x) __..__..__..__..__..__..__..__.._
 72
   65
 73
    6
 40
15.875
 49
6.35
 74
    0
 49
-3.175
 74
    0
 49
0
 74
    0
 49
-3.175
 74
    0
 49
0
 74
    0
 49
-3.175
 74
    0
  0
LTYPE
  5
41
330
5
100
AcDbSymbolTableRecord
100
AcDbLinetypeTableRecord
  2
DIVIDEX2
 70
    0
  3
Divide (2x) ________  .  .  ________  .  .  _
 72
   65
 73
    6
 40
63.5
 49
25.4
 74
    0
 49
-12.7
 74
    0
 49
0
 74
    0
 49
-12.7
 74
    0
 49
0
 74
    0
 49
-12.7
 74
    0
  0
LTYPE
  5
42
330
5
100
AcDbSymbolTableRecord
100
AcDbLinetypeTableRecord
  2
BORDER
 70
    0
  3
Border __ __ . __ __ . __ __ . __ __ . __ __ .
 72
   65
 73
    6
 40
44.45
 49
12.7
 74
    0
 49
-6.35
 74
    0
 49
12.7
 74
    0
 49
-6.35
 74
    0
 49
0
 74
    0
 49
-6.35
 74
    0
  0
LTYPE
  5
43
330
5
100
AcDbSymbolTableRecord
100
AcDbLinetypeTableRecord
  2
BORDERTINY
 70
    0
  3
Border (.15x) __.__.__.__.__.__.__.__.__.__.__.
 72
   65
 73
    6
 40
6.6675
 49
1.905
 74
    0
 49
-0.9525
 74
    0
 49
1.905
 74
    0
 49
-0.9525
 74
    0
 49
0
 74
    0
 49
-0.9525
 74
    0
  0
LTYPE
  5
44
330
5
100
AcDbSymbolTableRecord
100
AcDbLinetypeTableRecord
  2
BORDER2
 70
    0
  3
Border (.5x) __.__.__.__.__.__.__.__.__.__.__.
 72
   65
 73
    6
 40
22.225
 49
6.35
 74
    0
 49
-3.175
 74
    0
 49
6.35
 74
    0
 49
-3.175
 74
    0
 49
0
 74
    0
 49
-3.175
 74
    0
  0
LTYPE
  5
45
330
5
100
AcDbSymbolTableRecord
100
AcDbLinetypeTableRecord
  2
BORDERX2
 70
    0
  3
Border (2x) ____  ____  .  ____  ____  .  ___
 72
   65
 73
    6
 40
88.89999999999999
 49
25.4
 74
    0
 49
-12.7
 74
    0
 49
25.4
 74
    0
 49
-12.7
 74
    0
 49
0
 74
    0
 49
-12.7
 74
    0
  0
LTYPE
  5
46
330
5
100
AcDbSymbolTableRecord
100
AcDbLinetypeTableRecord
  2
CENTER
 70
    0
  3
Center ____ _ ____ _ ____ _ ____ _ ____ _ ____
 72
   65
 73
    4
 40
50.8
 49
31.75
 74
    0
 49
-6.35
 74
    0
 49
6.35
 74
    0
 49
-6.35
 74
    0
  0
LTYPE
  5
47
330
5
100
AcDbSymbolTableRecord
100
AcDbLinetypeTableRecord
  2
CENTERTINY
 70
    0
  3
Center (.15x) ___ _ ___ _ ___ _ ___ _ ___ _ ___
 72
   65
 73
    4
 40
7.619999999999999
 49
4.7625
 74
    0
 49
-0.9525
 74
    0
 49
0.9525
 74
    0
 49
-0.9525
 74
    0
  0
LTYPE
  5
48
330
5
100
AcDbSymbolTableRecord
100
AcDbLinetypeTableRecord
  2
CENTER2
 70
    0
  3
Center (.5x) ___ _ ___ _ ___ _ ___ _ ___ _ ___
 72
   65
 73
    4
 40
28.575
 49
19.05
 74
    0
 49
-3.175
 74
    0
 49
3.175
 74
    0
 49
-3.175
 74
    0
  0
LTYPE
  5
49
330
5
100
AcDbSymbolTableRecord
100
AcDbLinetypeTableRecord
  2
CENTERX2
 70
    0
  3
Center (2x) ________  __  ________  __  _____
 72
   65
 73
    4
 40
101.6
 49
63.5
 74
    0
 49
-12.7
 74
    0
 49
12.7
 74
    0
 49
-12.7
 74
    0
  0
ENDTAB
  0
TABLE
  2
LAYER
  5
2
330
0
100
AcDbSymbolTable
 70
    1
  0
LAYER
  5
10
330
2
100
AcDbSymbolTableRecord
100
AcDbLayerTableRecord
  2
0
 70
    0
 62
    7
  6
CONTINUOUS
370
    0
390
F
  0
LAYER
  5
4A
330
2
100
AcDbSymbolTableRecord
100
AcDbLayerTableRecord
  2
gear
 70
    0
 62
    7
  6
CONTINUOUS
370
   -3
390
F
  0
LAYER
  5
4B
330
2
100
AcDbSymbolTableRecord
100
AcDbLayerTableRecord
  2
gear_guides
 70
    0
 62
    5
  6
CONTINUOUS
370
   -3
390
F
  0
LAYER
  5
4C
330
2
100
AcDbSymbolTableRecord
100
AcDbLayerTableRecord
  2
gear_texts
 70
    0
 62
    7
  6
CONTINUOUS
370
   -3
390
F
  0
ENDTAB
  0
TABLE
  2
STYLE
  5
3
330
0
100
AcDbSymbolTable
 70
    3
  0
STYLE
  5
4D
330
2
100
AcDbSymbolTableRecord
100
AcDbTextStyleTableRecord
  2
Standard
 70
    0
 40
0
 41
1
 50
0
 71
    0
 42
1
  3
txt
  4

  0
ENDTAB
  0
TABLE
  2
VIEW
  5
6
330
0
100
AcDbSymbolTable
 70
    0
  0
ENDTAB
  0
TABLE
  2
UCS
  5
7
330
0
100
AcDbSymbolTable
 70
    0
  0
ENDTAB
  0
TABLE
  2
APPID
  5
9
330
0
100
AcDbSymbolTable
 70
    1
  0
APPID
  5
12
330
9
100
AcDbSymbolTableRecord
100
AcDbRegAppTableRecord
  2
ACAD
 70
    0
  0
APPID
  5
4E
330
9
100
AcDbSymbolTableRecord
100
AcDbRegAppTableRecord
  2
LibreCad
 70
    0
  0
ENDTAB
  0
TABLE
  2
DIMSTYLE
  5
A
330
0
100
AcDbSymbolTable
 70
    1
100
AcDbDimStyleTable
 71
    1
  0
DIMSTYLE
105
4F
330
A
100
AcDbSymbolTableRecord
100
AcDbDimStyleTableRecord
  2
Standard
 70
    0
 40
1
 41
2.5
 42
0.625
 43
0.38
 44
1.25
 45
0
 46
0
 47
0
 48
0
 49
1
140
2.5
141
0.09
142
2.5
143
25.4
144
1
145
0
146
1
147
0.625
148
0
 71
    0
 72
    0
 73
    0
 74
    1
 75
    0
 76
    0
 77
    0
 78
    1
 79
    0
170
    0
171
    2
172
    0
173
    0
174
    0
175
    0
176
    0
177
    0
178
    0
179
    0
271
    2
272
    4
273
    2
274
    2
275
    0
276
    0
277
    2
278
    0
279
    0
280
    0
281
    0
282
    0
283
    1
284
    0
285
    0
286
    0
288
    0
289
    3
340
standard
341

371
   -2
372
   -2
  0
ENDTAB
  0
TABLE
  2
BLOCK_RECORD
  5
1
330
0
100
AcDbSymbolTable
 70
    2
  0
BLOCK_RECORD
  5
1F
330
1
100
AcDbSymbolTableRecord
100
AcDbBlockTableRecord
  2
*Model_Space
 70
    0
280
    1
281
    0
  0
BLOCK_RECORD
  5
1E
330
1
100
AcDbSymbolTableRecord
100
AcDbBlockTableRecord
  2
*Paper_Space
 70
    0
280
    1
281
    0
  0
ENDTAB
  0
ENDSEC
  0
SECTION
  2
BLOCKS
  0
BLOCK
  5
20
330
1F
100
AcDbEntity
  8
0
100
AcDbBlockBegin
  2
*Model_Space
 70
    0
 10
0
 20
0
 30
0
  3
*Model_Space
  1

  0
ENDBLK
  5
21
330
1F
100
AcDbEntity
  8
0
100
AcDbBlockEnd
  0
BLOCK
  5
1C
330
1B
100
AcDbEntity
  8
0
100
AcDbBlockBegin
  2
*Paper_Space
 70
    0
 10
0
 20
0
 30
0
  3
*Paper_Space
  1

  0
ENDBLK
  5
1D
330
1F
100
AcDbEntity
  8
0
100
AcDbBlockEnd
  0
ENDSEC
  0
SECTION
  2
ENTITIES
  0
LWPOLYLINE
  5
50
100
AcDbEntity
  8
gear
  6
ByLayer
 62
  256
370
   -1
100
AcDbPolyline
 90
  500
 70
    1
 43
0
 10
128.3333
 20
0
 10
156.6393
 20
0.0003
 10
156.83
 20
0.0075
 10
157.2106
 20
0.0347
 10
157.7799
 20
0.0951
 10
158.5357
 20
0.2018
 10
159.4752
 20
0.3681
 10
160.595
 20
0.6066
 10
161.8909
 20
0.9303
 10
163.3582
 20
1.3516
 10
164.9914
 20
1.8829
 10
166.7843
 20
2.5361
 10
168.7303
 20
3.3229
 10
170.822
 20
4.2548
 10
173.0514
 20
5.3427
 10
175.4099
 20
6.5974
 10
177.8885
 20
8.029
 10
180.4774
 20
9.647399999999999
 10
183.1664
 20
11.4619
 10
185.9449
 20
13.4813
 10
188.8016
 20
15.7138
 10
191.7248
 20
18.1674
 10
194.7024
 20
20.8492
 10
197.7218
 20
23.7658
 10
198.2256
 20
26.5821
 10
195.8659
 20
40.4544
 10
194.4593
 20
42.9457
 10
190.6453
 20
44.6999
 10
186.9485
 20
46.2464
 10
183.3784
 20
47.5954
 10
179.9442
 20
48.7579
 10
176.6543
 20
49.745
 10
173.5166
 20
50.5683
 10
170.5382
 20
51.2397
 10
167.7256
 20
51.7713
 10
165.0849
 20
52.1756
 10
162.6212
 20
52.4652
 10
160.3391
 20
52.6531
 10
158.2424
 20
52.7523
 10
156.3343
 20
52.7759
 10
154.6173
 20
52.7372
 10
153.0933
 20
52.6497
 10
151.7632
 20
52.5267
 10
150.6275
 20
52.3816
 10
149.6859
 20
52.2279
 10
148.9373
 20
52.0787
 10
148.3801
 20
51.9475
 10
148.0118
 20
51.8473
 10
147.8295
 20
51.791
 10
121.1154
 20
42.4322
 10
103.8238
 20
75.4324
 10
126.7237
 20
92.0705
 10
126.8737
 20
92.1884
 10
127.1657
 20
92.4341
 10
127.5908
 20
92.8176
 10
128.1394
 20
93.34820000000001
 10
128.8018
 20
94.03489999999999
 10
129.5675
 20
94.8862
 10
130.4257
 20
95.9098
 10
131.3651
 20
97.1131
 10
132.3741
 20
98.50279999999999
 10
133.4407
 20
100.0851
 10
134.5526
 20
101.8655
 10
135.697
 20
103.8488
 10
136.8611
 20
106.0394
 10
138.0317
 20
108.4408
 10
139.1954
 20
111.0558
 10
140.3387
 20
113.8869
 10
141.4476
 20
116.9354
 10
142.5085
 20
120.2022
 10
143.5073
 20
123.6876
 10
144.4301
 20
127.3908
 10
145.2627
 20
131.3106
 10
145.9911
 20
135.4449
 10
144.7433
 20
138.0195
 10
134.6803
 20
147.8554
 10
132.078
 20
149.0441
 10
127.9613
 20
148.2215
 10
124.0615
 20
147.2996
 10
120.3804
 20
146.2926
 10
116.9188
 20
145.2145
 10
113.677
 20
144.0794
 10
110.6545
 20
142.9011
 10
107.8503
 20
141.6936
 10
105.2625
 20
140.4705
 10
102.8885
 20
139.2454
 10
100.725
 20
138.0316
 10
98.7683
 20
136.8422
 10
97.0138
 20
135.69
 10
95.4562
 20
134.5876
 10
94.0899
 20
133.5471
 10
92.9083
 20
132.5805
 10
91.9046
 20
131.6992
 10
91.0711
 20
130.9142
 10
90.3997
 20
130.2364
 10
89.8817
 20
129.6757
 10
89.508
 20
129.242
 10
89.26900000000001
 20
128.9445
 10
89.1545
 20
128.7918
 10
73.04340000000001
 20
105.5183
 10
39.6572
 20
122.0523
 10
48.4039
 20
148.9729
 10
48.456
 20
149.1565
 10
48.5478
 20
149.5269
 10
48.6663
 20
150.087
 10
48.7983
 20
150.8388
 10
48.9305
 20
151.7837
 10
49.0496
 20
152.9224
 10
49.1423
 20
154.2549
 10
49.195
 20
155.7806
 10
49.1944
 20
157.498
 10
49.1273
 20
159.405
 10
48.9803
 20
161.4989
 10
48.7404
 20
163.7762
 10
48.3946
 20
166.2326
 10
47.9301
 20
168.8634
 10
47.3345
 20
171.6631
 10
46.5953
 20
174.6254
 10
45.7006
 20
177.7436
 10
44.6387
 20
181.0101
 10
43.3982
 20
184.4168
 10
41.968
 20
187.9552
 10
40.3376
 20
191.6157
 10
38.4968
 20
195.3887
 10
35.974
 20
196.7381
 10
22.0515
 20
198.7806
 10
19.2474
 20
198.2127
 10
16.4005
 20
195.1275
 10
13.7873
 20
192.0895
 10
11.4011
 20
189.111
 10
9.234299999999999
 20
186.2041
 10
7.2789
 20
183.3803
 10
5.5262
 20
180.6505
 10
3.9673
 20
178.0254
 10
2.5926
 20
175.5148
 10
1.3921
 20
173.1282
 10
0.3553
 20
170.8746
 10
-0.5286
 20
168.7622
 10
-1.2708
 20
166.7988
 10
-1.8829
 20
164.9914
 10
-2.3767
 20
163.3465
 10
-2.7644
 20
161.87
 10
-3.0584
 20
160.567
 10
-3.2714
 20
159.4421
 10
-3.4162
 20
158.499
 10
-3.5057
 20
157.741
 10
-3.553
 20
157.1705
 10
-3.5715
 20
156.7893
 10
-3.5744
 20
156.5985
 10
-2.9287
 20
128.2999
 10
-39.6572
 20
122.0523
 10
-48.4045
 20
148.9727
 10
-48.4703
 20
149.1519
 10
-48.6137
 20
149.5055
 10
-48.8471
 20
150.0282
 10
-49.1822
 20
150.714
 10
-49.6306
 20
151.5562
 10
-50.2035
 20
152.5475
 10
-50.9119
 20
153.68
 10
-51.766
 20
154.9452
 10
-52.7759
 20
156.3343
 10
-53.9511
 20
157.8377
 10
-55.3008
 20
159.4453
 10
-56.8334
 20
161.1466
 10
-58.557
 20
162.9306
 10
-60.4791
 20
164.786
 10
-62.6066
 20
166.7009
 10
-64.94580000000001
 20
168.663
 10
-67.50239999999999
 20
170.6597
 10
-70.2816
 20
172.6782
 10
-73.2877
 20
174.7051
 10
-76.5245
 20
176.7271
 10
-79.99509999999999
 20
178.7302
 10
-83.7021
 20
180.7006
 10
-86.53619999999999
 20
180.3094
 10
-99.0003
 20
173.7784
 10
-100.935
 20
171.6708
 10
-101.4248
 20
167.5014
 10
-101.7532
 20
163.5076
 10
-101.933
 20
159.6954
 10
-101.9774
 20
156.0701
 10
-101.8995
 20
152.6362
 10
-101.7129
 20
149.3976
 10
-101.431
 20
146.3575
 10
-101.0675
 20
143.5184
 10
-100.636
 20
140.8819
 10
-100.1501
 20
138.4493
 10
-99.6236
 20
136.2208
 10
-99.06999999999999
 20
134.1961
 10
-98.50279999999999
 20
132.3741
 10
-97.9355
 20
130.7531
 10
-97.3813
 20
129.3307
 10
-96.8533
 20
128.1037
 10
-96.3643
 20
127.0685
 10
-95.9271
 20
126.2204
 10
-95.554
 20
125.5546
 10
-95.25700000000001
 20
125.0652
 10
-95.0479
 20
124.7459
 10
-94.938
 20
124.5899
 10
-77.7822
 20
102.0754
 10
-103.8238
 20
75.4324
 10
-126.724
 20
92.06999999999999
 10
-126.8825
 20
92.1763
 10
-127.2065
 20
92.3781
 10
-127.7025
 20
92.66379999999999
 10
-128.3767
 20
93.0217
 10
-129.2345
 20
93.43940000000001
 10
-130.2807
 20
93.9046
 10
-131.5194
 20
94.4045
 10
-132.9541
 20
94.92610000000001
 10
-134.5876
 20
95.4562
 10
-136.422
 20
95.9817
 10
-138.4588
 20
96.4889
 10
-140.6988
 20
96.9645
 10
-143.1419
 20
97.3947
 10
-145.7874
 20
97.7659
 10
-148.6341
 20
98.0646
 10
-151.6799
 20
98.277
 10
-154.9219
 20
98.3897
 10
-158.3567
 20
98.3891
 10
-161.9801
 20
98.262
 10
-165.7872
 20
97.9953
 10
-169.7724
 20
97.5758
 10
-173.9295
 20
96.991
 10
-175.9924
 20
95.0087
 10
-182.2373
 20
82.39879999999999
 10
-182.5637
 20
79.5565
 10
-180.5092
 20
75.8955
 10
-178.4274
 20
72.4714
 10
-176.3321
 20
69.2816
 10
-174.2371
 20
66.32259999999999
 10
-172.1558
 20
63.5902
 10
-170.1012
 20
61.0799
 10
-168.0862
 20
58.786
 10
-166.1233
 20
56.7028
 10
-164.2245
 20
54.8235
 10
-162.4016
 20
53.1411
 10
-160.6657
 20
51.6477
 10
-159.0278
 20
50.3351
 10
-157.498
 20
49.1944
 10
-156.0862
 20
48.2165
 10
-154.8018
 20
47.3915
 10
-153.6534
 20
46.7092
 10
-152.6494
 20
46.159
 10
-151.7972
 20
45.7299
 10
-151.1039
 20
45.4106
 10
-150.576
 20
45.1892
 10
-150.2192
 20
45.0538
 10
-150.0386
 20
44.9922
 10
-122.9255
 20
36.8615
 10
-128.3333
 20
0
 10
-156.6393
 20
-0.0003
 10
-156.83
 20
-0.0075
 10
-157.2106
 20
-0.0347
 10
-157.7799
 20
-0.0951
 10
-158.5357
 20
-0.2018
 10
-159.4752
 20
-0.3681
 10
-160.595
 20
-0.6066
 10
-161.8909
 20
-0.9303
 10
-163.3582
 20
-1.3516
 10
-164.9914
 20
-1.8829
 10
-166.7843
 20
-2.5361
 10
-168.7303
 20
-3.3229
 10
-170.822
 20
-4.2548
 10
-173.0514
 20
-5.3427
 10
-175.4099
 20
-6.5974
 10
-177.8885
 20
-8.029
 10
-180.4774
 20
-9.647399999999999
 10
-183.1664
 20
-11.4619
 10
-185.9449
 20
-13.4813
 10
-188.8016
 20
-15.7138
 10
-191.7248
 20
-18.1674
 10
-194.7024
 20
-20.8492
 10
-197.7218
 20
-23.7658
 10
-198.2256
 20
-26.5821
 10
-195.8659
 20
-40.4544
 10
-194.4593
 20
-42.9457
 10
-190.6453
 20
-44.6999
 10
-186.9485
 20
-46.2464
 10
-183.3784
 20
-47.5954
 10
-179.9442
 20
-48.7579
 10
-176.6543
 20
-49.745
 10
-173.5166
 20
-50.5683
 10
-170.5382
 20
-51.2397
 10
-167.7256
 20
-51.7713
 10
-165.0849
 20
-52.1756
 10
-162.6212
 20
-52.4652
 10
-160.3391
 20
-52.6531
 10
-158.2424
 20
-52.7523
 10
-156.3343
 20
-52.7759
 10
-154.6173
 20
-52.7372
 10
-153.0933
 20
-52.6497
 10
-151.7632
 20
-52.5267
 10
-150.6275
 20
-52.3816
 10
-149.6859
 20
-52.2279
 10
-148.9373
 20
-52.0787
 10
-148.3801
 20
-51.9475
 10
-148.0118
 20
-51.8473
 10
-147.8295
 20
-51.791
 10
-121.1154
 20
-42.4322
 10
-103.8238
 20
-75.4324
 10
-126.7237
 20
-92.0705
 10
-126.8737
 20
-92.1884
 10
-127.1657
 20
-92.4341
 10
-127.5908
 20
-92.8176
 10
-128.1394
 20
-93.34820000000001
 10
-128.8018
 20
-94.03489999999999
 10
-129.5675
 20
-94.8862
 10
-130.4257
 20
-95.9098
 10
-131.3651
 20
-97.1131
 10
-132.3741
 20
-98.50279999999999
 10
-133.4407
 20
-100.0851
 10
-134.5526
 20
-101.8655
 10
-135.697
 20
-103.8488
 10
-136.8611
 20
-106.0394
 10
-138.0317
 20
-108.4408
 10
-139.1954
 20
-111.0558
 10
-140.3387
 20
-113.8869
 10
-141.4476
 20
-116.9354
 10
-142.5085
 20
-120.2022
 10
-143.5073
 20
-123.6876
 10
-144.4301
 20
-127.3908
 10
-145.2627
 20
-131.3106
 10
-145.9911
 20
-135.4449
 10
-144.7433
 20
-138.0195
 10
-134.6803
 20
-147.8554
 10
-132.078
 20
-149.0441
 10
-127.9613
 20
-148.2215
 10
-124.0615
 20
-147.2996
 10
-120.3804
 20
-146.2926
 10
-116.9188
 20
-145.2145
 10
-113.677
 20
-144.0794
 10
-110.6545
 20
-142.9011
 10
-107.8503
 20
-141.6936
 10
-105.2625
 20
-140.4705
 10
-102.8885
 20
-139.2454
 10
-100.725
 20
-138.0316
 10
-98.7683
 20
-136.8422
 10
-97.0138
 20
-135.69
 10
-95.4562
 20
-134.5876
 10
-94.0899
 20
-133.5471
 10
-92.9083
 20
-132.5805
 10
-91.9046
 20
-131.6992
 10
-91.0711
 20
-130.9142
 10
-90.3997
 20
-130.2364
 10
-89.8817
 20
-129.6757
 10
-89.508
 20
-129.242
 10
-89.26900000000001
 20
-128.9445
 10
-89.1545
 20
-128.7918
 10
-73.04340000000001
 20
-105.5183
 10
-39.6572
 20
-122.0523
 10
-48.4039
 20
-148.9729
 10
-48.456
 20
-149.1565
 10
-48.5478
 20
-149.5269
 10
-48.6663
 20
-150.087
 10
-48.7983
 20
-150.8388
 10
-48.9305
 20
-151.7837
 10
-49.0496
 20
-152.9224
 10
-49.1423
 20
-154.2549
 10
-49.195
 20
-155.7806
 10
-49.1944
 20
-157.498
 10
-49.1273
 20
-159.405
 10
-48.9803
 20
-161.4989
 10
-48.7404
 20
-163.7762
 10
-48.3946
 20
-166.2326
 10
-47.9301
 20
-168.8634
 10
-47.3345
 20
-171.6631
 10
-46.5953
 20
-174.6254
 10
-45.7006
 20
-177.7436
 10
-44.6387
 20
-181.0101
 10
-43.3982
 20
-184.4168
 10
-41.968
 20
-187.9552
 10
-40.3376
 20
-191.6157
 10
-38.4968
 20
-195.3887
 10
-35.974
 20
-196.7381
 10
-22.0515
 20
-198.7806
 10
-19.2474
 20
-198.2127
 10
-16.4005
 20
-195.1275
 10
-13.7873
 20
-192.0895
 10
-11.4011
 20
-189.111
 10
-9.234299999999999
 20
-186.2041
 10
-7.2789
 20
-183.3803
 10
-5.5262
 20
-180.6505
 10
-3.9673
 20
-178.0254
 10
-2.5926
 20
-175.5148
 10
-1.3921
 20
-173.1282
 10
-0.3553
 20
-170.8746
 10
0.5286
 20
-168.7622
 10
1.2708
 20
-166.7988
 10
1.8829
 20
-164.9914
 10
2.3767
 20
-163.3465
 10
2.7644
 20
-161.87
 10
3.0584
 20
-160.567
 10
3.2714
 20
-159.4421
 10
3.4162
 20
-158.499
 10
3.5057
 20
-157.741
 10
3.553
 20
-157.1705
 10
3.5715
 20
-156.7893
 10
3.5744
 20
-156.5985
 10
2.9287
 20
-128.2999
 10
39.6572
 20
-122.0523
 10
48.4045
 20
-148.9727
 10
48.4703
 20
-149.1519
 10
48.6137
 20
-149.5055
 10
48.8471
 20
-150.0282
 10
49.1822
 20
-150.714
 10
49.6306
 20
-151.5562
 10
50.2035
 20
-152.5475
 10
50.9119
 20
-153.68
 10
51.766
 20
-154.9452
 10
52.7759
 20
-156.3343
 10
53.9511
 20
-157.8377
 10
55.3008
 20
-159.4453
 10
56.8334
 20
-161.1466
 10
58.557
 20
-162.9306
 10
60.4791
 20
-164.786
 10
62.6066
 20
-166.7009
 10
64.94580000000001
 20
-168.663
 10
67.50239999999999
 20
-170.6597
 10
70.2816
 20
-172.6782
 10
73.2877
 20
-174.7051
 10
76.5245
 20
-176.7271
 10
79.99509999999999
 20
-178.7302
 10
83.7021
 20
-180.7006
 10
86.53619999999999
 20
-180.3094
 10
99.0003
 20
-173.7784
 10
100.935
 20
-171.6708
 10
101.4248
 20
-167.5014
 10
101.7532
 20
-163.5076
 10
101.933
 20
-159.6954
 10
101.9774
 20
-156.0701
 10
101.8995
 20
-152.6362
 10
101.7129
 20
-149.3976
 10
101.431
 20
-146.3575
 10
101.0675
 20
-143.5184
 10
100.636
 20
-140.8819
 10
100.1501
 20
-138.4493
 10
99.6236
 20
-136.2208
 10
99.06999999999999
 20
-134.1961
 10
98.50279999999999
 20
-132.3741
 10
97.9355
 20
-130.7531
 10
97.3813
 20
-129.3307
 10
96.8533
 20
-128.1037
 10
96.3643
 20
-127.0685
 10
95.9271
 20
-126.2204
 10
95.554
 20
-125.5546
 10
95.25700000000001
 20
-125.0652
 10
95.0479
 20
-124.7459
 10
94.938
 20
-124.5899
 10
77.7822
 20
-102.0754
 10
103.8238
 20
-75.4324
 10
126.724
 20
-92.06999999999999
 10
126.8825
 20
-92.1763
 10
127.2065
 20
-92.3781
 10
127.7025
 20
-92.66379999999999
 10
128.3767
 20
-93.0217
 10
129.2345
 20
-93.43940000000001
 10
130.2807
 20
-93.9046
 10
131.5194
 20
-94.4045
 10
132.9541
 20
-94.92610000000001
 10
134.5876
 20
-95.4562
 10
136.422
 20
-95.9817
 10
138.4588
 20
-96.4889
 10
140.6988
 20
-96.9645
 10
143.1419
 20
-97.3947
 10
145.7874
 20
-97.7659
 10
148.6341
 20
-98.0646
 10
151.6799
 20
-98.277
 10
154.9219
 20
-98.3897
 10
158.3567
 20
-98.3891
 10
161.9801
 20
-98.262
 10
165.7872
 20
-97.9953
 10
169.7724
 20
-97.5758
 10
173.9295
 20
-96.991
 10
175.9924
 20
-95.0087
 10
182.2373
 20
-82.39879999999999
 10
182.5637
 20
-79.5565
 10
180.5092
 20
-75.8955
 10
178.4274
 20
-72.4714
 10
176.3321
 20
-69.2816
 10
174.2371
 20
-66.32259999999999
 10
172.1558
 20
-63.5902
 10
170.1012
 20
-61.0799
 10
168.0862
 20
-58.786
 10
166.1233
 20
-56.7028
 10
164.2245
 20
-54.8235
 10
162.4016
 20
-53.1411
 10
160.6657
 20
-51.6477
 10
159.0278
 20
-50.3351
 10
157.498
 20
-49.1944
 10
156.0862
 20
-48.2165
 10
154.8018
 20
-47.3915
 10
153.6534
 20
-46.7092
 10
152.6494
 20
-46.159
 10
151.7972
 20
-45.7299
 10
151.1039
 20
-45.4106
 10
150.576
 20
-45.1892
 10
150.2192
 20
-45.0538
 10
150.0386
 20
-44.9922
 10
122.9255
 20
-36.8615
  0
ENDSEC
  0
SECTION
  2
OBJECTS
  0
DICTIONARY
  5
C
330
0
100
AcDbDictionary
281
    1
  3
ACAD_GROUP
350
D
  0
DICTIONARY
  5
D
330
C
100
AcDbDictionary
281
    1
  0
ENDSEC
  0
EOF
