solid OpenSCAD_Model
  facet normal -0.809017 -0.587786 0
    outer loop
      vertex 6.5 5 6
      vertex 5.46352 6.42658 15
      vertex 5.46352 6.42658 6
    endloop
  endfacet
  facet normal -0.809017 -0.587786 0
    outer loop
      vertex 5.46352 6.42658 15
      vertex 6.5 5 6
      vertex 6.5 5 15
    endloop
  endfacet
  facet normal 1 -0 0
    outer loop
      vertex 3.78647 4.11832 15
      vertex 3.78647 5.88168 6
      vertex 3.78647 5.88168 15
    endloop
  endfacet
  facet normal 1 0 0
    outer loop
      vertex 3.78647 5.88168 6
      vertex 3.78647 4.11832 15
      vertex 3.78647 4.11832 6
    endloop
  endfacet
  facet normal 0.309017 -0.951057 0
    outer loop
      vertex 3.78647 5.88168 6
      vertex 5.46352 6.42658 15
      vertex 3.78647 5.88168 15
    endloop
  endfacet
  facet normal 0.309017 -0.951057 0
    outer loop
      vertex 5.46352 6.42658 15
      vertex 3.78647 5.88168 6
      vertex 5.46352 6.42658 6
    endloop
  endfacet
  facet normal 0 0 1
    outer loop
      vertex 40 10 15
      vertex 36.5 5 15
      vertex 40 0 15
    endloop
  endfacet
  facet normal 0 0 1
    outer loop
      vertex 40 10 15
      vertex 35.4635 6.42658 15
      vertex 36.5 5 15
    endloop
  endfacet
  facet normal 0 0 1
    outer loop
      vertex 40 10 15
      vertex 33.7865 5.88168 15
      vertex 35.4635 6.42658 15
    endloop
  endfacet
  facet normal 0 0 1
    outer loop
      vertex 33.7865 5.88168 15
      vertex 26.5 5 15
      vertex 33.7865 4.11832 15
    endloop
  endfacet
  facet normal -0 0 1
    outer loop
      vertex 25.4635 6.42658 15
      vertex 33.7865 5.88168 15
      vertex 40 10 15
    endloop
  endfacet
  facet normal 0 0 1
    outer loop
      vertex 33.7865 5.88168 15
      vertex 25.4635 6.42658 15
      vertex 26.5 5 15
    endloop
  endfacet
  facet normal 0 0 1
    outer loop
      vertex 23.7865 5.88168 15
      vertex 16.5 5 15
      vertex 23.7865 4.11832 15
    endloop
  endfacet
  facet normal -0 0 1
    outer loop
      vertex 15.4635 6.42658 15
      vertex 23.7865 5.88168 15
      vertex 25.4635 6.42658 15
    endloop
  endfacet
  facet normal 0 0 1
    outer loop
      vertex 15.4635 6.42658 15
      vertex 25.4635 6.42658 15
      vertex 40 10 15
    endloop
  endfacet
  facet normal 0 0 1
    outer loop
      vertex 23.7865 5.88168 15
      vertex 15.4635 6.42658 15
      vertex 16.5 5 15
    endloop
  endfacet
  facet normal 0 0 1
    outer loop
      vertex 13.7865 5.88168 15
      vertex 6.5 5 15
      vertex 13.7865 4.11832 15
    endloop
  endfacet
  facet normal -0 0 1
    outer loop
      vertex 5.46352 6.42658 15
      vertex 13.7865 5.88168 15
      vertex 15.4635 6.42658 15
    endloop
  endfacet
  facet normal 0 0 1
    outer loop
      vertex 13.7865 5.88168 15
      vertex 5.46352 6.42658 15
      vertex 6.5 5 15
    endloop
  endfacet
  facet normal -0 0 1
    outer loop
      vertex 0 10 15
      vertex 15.4635 6.42658 15
      vertex 40 10 15
    endloop
  endfacet
  facet normal 0 0 1
    outer loop
      vertex 3.78647 5.88168 15
      vertex 0 10 15
      vertex 3.78647 4.11832 15
    endloop
  endfacet
  facet normal 0 0 1
    outer loop
      vertex 5.46352 6.42658 15
      vertex 0 10 15
      vertex 3.78647 5.88168 15
    endloop
  endfacet
  facet normal 0 0 1
    outer loop
      vertex 15.4635 6.42658 15
      vertex 0 10 15
      vertex 5.46352 6.42658 15
    endloop
  endfacet
  facet normal -0 0 1
    outer loop
      vertex 35.4635 3.57341 15
      vertex 40 0 15
      vertex 36.5 5 15
    endloop
  endfacet
  facet normal 0 0 1
    outer loop
      vertex 33.7865 4.11832 15
      vertex 40 0 15
      vertex 35.4635 3.57341 15
    endloop
  endfacet
  facet normal 0 0 1
    outer loop
      vertex 25.4635 3.57341 15
      vertex 33.7865 4.11832 15
      vertex 26.5 5 15
    endloop
  endfacet
  facet normal 0 0 1
    outer loop
      vertex 33.7865 4.11832 15
      vertex 25.4635 3.57341 15
      vertex 40 0 15
    endloop
  endfacet
  facet normal 0 0 1
    outer loop
      vertex 15.4635 3.57341 15
      vertex 23.7865 4.11832 15
      vertex 16.5 5 15
    endloop
  endfacet
  facet normal 0 0 1
    outer loop
      vertex 23.7865 4.11832 15
      vertex 15.4635 3.57341 15
      vertex 25.4635 3.57341 15
    endloop
  endfacet
  facet normal 0 0 1
    outer loop
      vertex 25.4635 3.57341 15
      vertex 15.4635 3.57341 15
      vertex 40 0 15
    endloop
  endfacet
  facet normal 0 0 1
    outer loop
      vertex 5.46352 3.57341 15
      vertex 13.7865 4.11832 15
      vertex 6.5 5 15
    endloop
  endfacet
  facet normal 0 0 1
    outer loop
      vertex 13.7865 4.11832 15
      vertex 5.46352 3.57341 15
      vertex 15.4635 3.57341 15
    endloop
  endfacet
  facet normal 0 0 1
    outer loop
      vertex 0 0 15
      vertex 15.4635 3.57341 15
      vertex 5.46352 3.57341 15
    endloop
  endfacet
  facet normal 0 0 1
    outer loop
      vertex 15.4635 3.57341 15
      vertex 0 0 15
      vertex 40 0 15
    endloop
  endfacet
  facet normal 0 0 1
    outer loop
      vertex 3.78647 4.11832 15
      vertex 0 0 15
      vertex 5.46352 3.57341 15
    endloop
  endfacet
  facet normal 0 0 1
    outer loop
      vertex 0 0 15
      vertex 3.78647 4.11832 15
      vertex 0 10 15
    endloop
  endfacet
  facet normal 0 0 1
    outer loop
      vertex 40 70 15
      vertex 36.5 65 15
      vertex 40 60 15
    endloop
  endfacet
  facet normal 0 0 1
    outer loop
      vertex 40 70 15
      vertex 35.4635 66.4266 15
      vertex 36.5 65 15
    endloop
  endfacet
  facet normal 0 0 1
    outer loop
      vertex 40 70 15
      vertex 33.7865 65.8817 15
      vertex 35.4635 66.4266 15
    endloop
  endfacet
  facet normal 0 0 1
    outer loop
      vertex 33.7865 65.8817 15
      vertex 26.5 65 15
      vertex 33.7865 64.1183 15
    endloop
  endfacet
  facet normal -0 0 1
    outer loop
      vertex 25.4635 66.4266 15
      vertex 33.7865 65.8817 15
      vertex 40 70 15
    endloop
  endfacet
  facet normal 0 0 1
    outer loop
      vertex 33.7865 65.8817 15
      vertex 25.4635 66.4266 15
      vertex 26.5 65 15
    endloop
  endfacet
  facet normal 0 0 1
    outer loop
      vertex 23.7865 65.8817 15
      vertex 16.5 65 15
      vertex 23.7865 64.1183 15
    endloop
  endfacet
  facet normal -0 0 1
    outer loop
      vertex 15.4635 66.4266 15
      vertex 23.7865 65.8817 15
      vertex 25.4635 66.4266 15
    endloop
  endfacet
  facet normal 0 0 1
    outer loop
      vertex 15.4635 66.4266 15
      vertex 25.4635 66.4266 15
      vertex 40 70 15
    endloop
  endfacet
  facet normal 0 0 1
    outer loop
      vertex 23.7865 65.8817 15
      vertex 15.4635 66.4266 15
      vertex 16.5 65 15
    endloop
  endfacet
  facet normal 0 0 1
    outer loop
      vertex 13.7865 65.8817 15
      vertex 6.5 65 15
      vertex 13.7865 64.1183 15
    endloop
  endfacet
  facet normal -0 0 1
    outer loop
      vertex 5.46352 66.4266 15
      vertex 13.7865 65.8817 15
      vertex 15.4635 66.4266 15
    endloop
  endfacet
  facet normal 0 0 1
    outer loop
      vertex 13.7865 65.8817 15
      vertex 5.46352 66.4266 15
      vertex 6.5 65 15
    endloop
  endfacet
  facet normal -0 0 1
    outer loop
      vertex 0 70 15
      vertex 15.4635 66.4266 15
      vertex 40 70 15
    endloop
  endfacet
  facet normal 0 0 1
    outer loop
      vertex 3.78647 65.8817 15
      vertex 0 70 15
      vertex 3.78647 64.1183 15
    endloop
  endfacet
  facet normal 0 0 1
    outer loop
      vertex 5.46352 66.4266 15
      vertex 0 70 15
      vertex 3.78647 65.8817 15
    endloop
  endfacet
  facet normal 0 0 1
    outer loop
      vertex 15.4635 66.4266 15
      vertex 0 70 15
      vertex 5.46352 66.4266 15
    endloop
  endfacet
  facet normal -0 0 1
    outer loop
      vertex 35.4635 63.5734 15
      vertex 40 60 15
      vertex 36.5 65 15
    endloop
  endfacet
  facet normal 0 0 1
    outer loop
      vertex 33.7865 64.1183 15
      vertex 40 60 15
      vertex 35.4635 63.5734 15
    endloop
  endfacet
  facet normal 0 0 1
    outer loop
      vertex 25.4635 63.5734 15
      vertex 33.7865 64.1183 15
      vertex 26.5 65 15
    endloop
  endfacet
  facet normal 0 0 1
    outer loop
      vertex 33.7865 64.1183 15
      vertex 25.4635 63.5734 15
      vertex 40 60 15
    endloop
  endfacet
  facet normal 0 0 1
    outer loop
      vertex 15.4635 63.5734 15
      vertex 23.7865 64.1183 15
      vertex 16.5 65 15
    endloop
  endfacet
  facet normal 0 0 1
    outer loop
      vertex 23.7865 64.1183 15
      vertex 15.4635 63.5734 15
      vertex 25.4635 63.5734 15
    endloop
  endfacet
  facet normal 0 0 1
    outer loop
      vertex 25.4635 63.5734 15
      vertex 15.4635 63.5734 15
      vertex 40 60 15
    endloop
  endfacet
  facet normal 0 0 1
    outer loop
      vertex 5.46352 63.5734 15
      vertex 13.7865 64.1183 15
      vertex 6.5 65 15
    endloop
  endfacet
  facet normal 0 0 1
    outer loop
      vertex 13.7865 64.1183 15
      vertex 5.46352 63.5734 15
      vertex 15.4635 63.5734 15
    endloop
  endfacet
  facet normal 0 0 1
    outer loop
      vertex 0 60 15
      vertex 15.4635 63.5734 15
      vertex 5.46352 63.5734 15
    endloop
  endfacet
  facet normal 0 0 1
    outer loop
      vertex 15.4635 63.5734 15
      vertex 0 60 15
      vertex 40 60 15
    endloop
  endfacet
  facet normal 0 0 1
    outer loop
      vertex 3.78647 64.1183 15
      vertex 0 60 15
      vertex 5.46352 63.5734 15
    endloop
  endfacet
  facet normal 0 0 1
    outer loop
      vertex 0 60 15
      vertex 3.78647 64.1183 15
      vertex 0 70 15
    endloop
  endfacet
  facet normal 0 0 -1
    outer loop
      vertex 5.46352 53.5734 0
      vertex 15.4635 53.5734 0
      vertex 5.92705 7.85317 0
    endloop
  endfacet
  facet normal 0 -0 -1
    outer loop
      vertex 7.42705 63.2366 0
      vertex 13.7865 54.1183 0
      vertex 6.5 55 0
    endloop
  endfacet
  facet normal 0 0 -1
    outer loop
      vertex 13.7865 54.1183 0
      vertex 7.42705 63.2366 0
      vertex 8 65 0
    endloop
  endfacet
  facet normal 0 0 -1
    outer loop
      vertex 15.4635 53.5734 0
      vertex 5.46352 53.5734 0
      vertex 13.7865 54.1183 0
    endloop
  endfacet
  facet normal -0 0 -1
    outer loop
      vertex 13.7865 54.1183 0
      vertex 5.46352 53.5734 0
      vertex 6.5 55 0
    endloop
  endfacet
  facet normal 0 0 -1
    outer loop
      vertex 4.07295 7.85317 0
      vertex 5.46352 53.5734 0
      vertex 5.92705 7.85317 0
    endloop
  endfacet
  facet normal 0 0 -1
    outer loop
      vertex 4.07295 7.85317 0
      vertex 3.78647 54.1183 0
      vertex 5.46352 53.5734 0
    endloop
  endfacet
  facet normal 0 0 -1
    outer loop
      vertex 0 0 0
      vertex 3.78647 54.1183 0
      vertex 2.57295 6.76336 0
    endloop
  endfacet
  facet normal 0 0 -1
    outer loop
      vertex 2.57295 6.76336 0
      vertex 3.78647 54.1183 0
      vertex 4.07295 7.85317 0
    endloop
  endfacet
  facet normal 0 0 -1
    outer loop
      vertex 15.4635 63.5734 0
      vertex 23.7865 64.1183 0
      vertex 15.4635 56.4266 0
    endloop
  endfacet
  facet normal -0 0 -1
    outer loop
      vertex 23.7865 64.1183 0
      vertex 15.4635 63.5734 0
      vertex 16.5 65 0
    endloop
  endfacet
  facet normal 0 0 -1
    outer loop
      vertex 13.7865 55.8817 0
      vertex 15.4635 63.5734 0
      vertex 15.4635 56.4266 0
    endloop
  endfacet
  facet normal -0 0 -1
    outer loop
      vertex 15.4635 63.5734 0
      vertex 13.7865 55.8817 0
      vertex 13.7865 64.1183 0
    endloop
  endfacet
  facet normal 0 0 -1
    outer loop
      vertex 15.4635 53.5734 0
      vertex 25.4635 53.5734 0
      vertex 15.4635 6.42658 0
    endloop
  endfacet
  facet normal 0 0 -1
    outer loop
      vertex 25.4635 53.5734 0
      vertex 15.4635 53.5734 0
      vertex 16.5 55 0
    endloop
  endfacet
  facet normal 0 0 -1
    outer loop
      vertex 7.42705 6.76336 0
      vertex 13.7865 5.88168 0
      vertex 8 5 0
    endloop
  endfacet
  facet normal 0 0 -1
    outer loop
      vertex 5.92705 7.85317 0
      vertex 13.7865 5.88168 0
      vertex 7.42705 6.76336 0
    endloop
  endfacet
  facet normal 0 0 -1
    outer loop
      vertex 32.5729 63.2366 0
      vertex 26.5 65 0
      vertex 32 65 0
    endloop
  endfacet
  facet normal 0 0 -1
    outer loop
      vertex 32.5729 63.2366 0
      vertex 25.4635 63.5734 0
      vertex 26.5 65 0
    endloop
  endfacet
  facet normal 0 0 -1
    outer loop
      vertex 23.7865 55.8817 0
      vertex 25.4635 63.5734 0
      vertex 25.4635 56.4266 0
    endloop
  endfacet
  facet normal -0 0 -1
    outer loop
      vertex 25.4635 63.5734 0
      vertex 23.7865 55.8817 0
      vertex 23.7865 64.1183 0
    endloop
  endfacet
  facet normal 0 0 -1
    outer loop
      vertex 25.4635 53.5734 0
      vertex 34.0729 7.85317 0
      vertex 25.4635 6.42658 0
    endloop
  endfacet
  facet normal 0 0 -1
    outer loop
      vertex 34.0729 7.85317 0
      vertex 25.4635 53.5734 0
      vertex 26.5 55 0
    endloop
  endfacet
  facet normal 0 0 -1
    outer loop
      vertex 15.4635 6.42658 0
      vertex 23.7865 5.88168 0
      vertex 16.5 5 0
    endloop
  endfacet
  facet normal 0 0 -1
    outer loop
      vertex 23.7865 5.88168 0
      vertex 15.4635 6.42658 0
      vertex 25.4635 6.42658 0
    endloop
  endfacet
  facet normal 0 0 -1
    outer loop
      vertex 5.46352 56.4266 0
      vertex 7.42705 63.2366 0
      vertex 6.5 55 0
    endloop
  endfacet
  facet normal 0 0 -1
    outer loop
      vertex 7.42705 63.2366 0
      vertex 5.46352 56.4266 0
      vertex 5.92705 62.1468 0
    endloop
  endfacet
  facet normal 0 0 -1
    outer loop
      vertex 5.46352 56.4266 0
      vertex 4.07295 62.1468 0
      vertex 5.92705 62.1468 0
    endloop
  endfacet
  facet normal 0 0 -1
    outer loop
      vertex 3.78647 55.8817 0
      vertex 4.07295 62.1468 0
      vertex 5.46352 56.4266 0
    endloop
  endfacet
  facet normal 0 0 -1
    outer loop
      vertex 3.78647 55.8817 0
      vertex 2.57295 63.2366 0
      vertex 4.07295 62.1468 0
    endloop
  endfacet
  facet normal 0 0 -1
    outer loop
      vertex 0 70 0
      vertex 3.78647 54.1183 0
      vertex 0 0 0
    endloop
  endfacet
  facet normal 0 0 -1
    outer loop
      vertex 0 0 0
      vertex 2.57295 6.76336 0
      vertex 2 5 0
    endloop
  endfacet
  facet normal -0 -0 -1
    outer loop
      vertex 2 65 0
      vertex 3.78647 54.1183 0
      vertex 0 70 0
    endloop
  endfacet
  facet normal 0 0 -1
    outer loop
      vertex 40 0 0
      vertex 36.5 55 0
      vertex 40 70 0
    endloop
  endfacet
  facet normal 0 0 -1
    outer loop
      vertex 40 70 0
      vertex 36.5 55 0
      vertex 38 65 0
    endloop
  endfacet
  facet normal 0 0 -1
    outer loop
      vertex 38 65 0
      vertex 36.5 55 0
      vertex 37.4271 63.2366 0
    endloop
  endfacet
  facet normal 0 0 -1
    outer loop
      vertex 35.4635 53.5734 0
      vertex 37.4271 6.76336 0
      vertex 35.9271 7.85317 0
    endloop
  endfacet
  facet normal 0 0 -1
    outer loop
      vertex 37.4271 6.76336 0
      vertex 35.4635 53.5734 0
      vertex 36.5 55 0
    endloop
  endfacet
  facet normal 0 0 -1
    outer loop
      vertex 34.0729 7.85317 0
      vertex 35.4635 53.5734 0
      vertex 35.9271 7.85317 0
    endloop
  endfacet
  facet normal 0 0 -1
    outer loop
      vertex 34.0729 7.85317 0
      vertex 33.7865 54.1183 0
      vertex 35.4635 53.5734 0
    endloop
  endfacet
  facet normal 0 0 -1
    outer loop
      vertex 34.0729 7.85317 0
      vertex 26.5 55 0
      vertex 33.7865 54.1183 0
    endloop
  endfacet
  facet normal 0 0 -1
    outer loop
      vertex 25.4635 6.42658 0
      vertex 34.0729 7.85317 0
      vertex 32.5729 6.76336 0
    endloop
  endfacet
  facet normal 0 0 -1
    outer loop
      vertex 37.4271 6.76336 0
      vertex 40 0 0
      vertex 38 5 0
    endloop
  endfacet
  facet normal 0 0 -1
    outer loop
      vertex 40 0 0
      vertex 37.4271 3.23664 0
      vertex 38 5 0
    endloop
  endfacet
  facet normal 0 0 -1
    outer loop
      vertex 40 0 0
      vertex 35.9271 2.14683 0
      vertex 37.4271 3.23664 0
    endloop
  endfacet
  facet normal 0 0 -1
    outer loop
      vertex 40 0 0
      vertex 34.0729 2.14683 0
      vertex 35.9271 2.14683 0
    endloop
  endfacet
  facet normal 0 0 -1
    outer loop
      vertex 33.7865 54.1183 0
      vertex 26.5 55 0
      vertex 33.7865 55.8817 0
    endloop
  endfacet
  facet normal 0 0 -1
    outer loop
      vertex 32.5729 3.23664 0
      vertex 26.5 5 0
      vertex 32 5 0
    endloop
  endfacet
  facet normal 0 0 -1
    outer loop
      vertex 25.4635 3.57341 0
      vertex 32.5729 3.23664 0
      vertex 34.0729 2.14683 0
    endloop
  endfacet
  facet normal 0 0 -1
    outer loop
      vertex 32.5729 3.23664 0
      vertex 25.4635 3.57341 0
      vertex 26.5 5 0
    endloop
  endfacet
  facet normal 0 0 -1
    outer loop
      vertex 40 0 0
      vertex 25.4635 3.57341 0
      vertex 34.0729 2.14683 0
    endloop
  endfacet
  facet normal 0 0 -1
    outer loop
      vertex 16.5 5 0
      vertex 23.7865 5.88168 0
      vertex 23.7865 4.11832 0
    endloop
  endfacet
  facet normal 0 0 -1
    outer loop
      vertex 25.4635 6.42658 0
      vertex 15.4635 6.42658 0
      vertex 25.4635 53.5734 0
    endloop
  endfacet
  facet normal 0 0 -1
    outer loop
      vertex 23.7865 54.1183 0
      vertex 16.5 55 0
      vertex 23.7865 55.8817 0
    endloop
  endfacet
  facet normal 0 0 -1
    outer loop
      vertex 15.4635 56.4266 0
      vertex 23.7865 55.8817 0
      vertex 16.5 55 0
    endloop
  endfacet
  facet normal 0 0 -1
    outer loop
      vertex 25.4635 53.5734 0
      vertex 16.5 55 0
      vertex 23.7865 54.1183 0
    endloop
  endfacet
  facet normal 0 0 -1
    outer loop
      vertex 15.4635 3.57341 0
      vertex 23.7865 4.11832 0
      vertex 25.4635 3.57341 0
    endloop
  endfacet
  facet normal 0 0 -1
    outer loop
      vertex 15.4635 3.57341 0
      vertex 25.4635 3.57341 0
      vertex 40 0 0
    endloop
  endfacet
  facet normal -0 0 -1
    outer loop
      vertex 23.7865 4.11832 0
      vertex 15.4635 3.57341 0
      vertex 16.5 5 0
    endloop
  endfacet
  facet normal 0 0 -1
    outer loop
      vertex 8 5 0
      vertex 13.7865 5.88168 0
      vertex 13.7865 4.11832 0
    endloop
  endfacet
  facet normal 0 0 -1
    outer loop
      vertex 13.7865 5.88168 0
      vertex 5.92705 7.85317 0
      vertex 15.4635 6.42658 0
    endloop
  endfacet
  facet normal 0 0 -1
    outer loop
      vertex 15.4635 6.42658 0
      vertex 5.92705 7.85317 0
      vertex 15.4635 53.5734 0
    endloop
  endfacet
  facet normal 0 0 -1
    outer loop
      vertex 13.7865 54.1183 0
      vertex 8 65 0
      vertex 13.7865 55.8817 0
    endloop
  endfacet
  facet normal 0 0 -1
    outer loop
      vertex 13.7865 55.8817 0
      vertex 8 65 0
      vertex 13.7865 64.1183 0
    endloop
  endfacet
  facet normal 0 0 -1
    outer loop
      vertex 5.92705 2.14683 0
      vertex 13.7865 4.11832 0
      vertex 15.4635 3.57341 0
    endloop
  endfacet
  facet normal -0 0 -1
    outer loop
      vertex 13.7865 4.11832 0
      vertex 7.42705 3.23664 0
      vertex 8 5 0
    endloop
  endfacet
  facet normal 0 0 -1
    outer loop
      vertex 0 0 0
      vertex 15.4635 3.57341 0
      vertex 40 0 0
    endloop
  endfacet
  facet normal 0 0 -1
    outer loop
      vertex 13.7865 4.11832 0
      vertex 5.92705 2.14683 0
      vertex 7.42705 3.23664 0
    endloop
  endfacet
  facet normal 0 0 -1
    outer loop
      vertex 15.4635 3.57341 0
      vertex 0 0 0
      vertex 5.92705 2.14683 0
    endloop
  endfacet
  facet normal -0 -0 -1
    outer loop
      vertex 2.57295 63.2366 0
      vertex 3.78647 54.1183 0
      vertex 2 65 0
    endloop
  endfacet
  facet normal -0 0 -1
    outer loop
      vertex 2.57295 3.23664 0
      vertex 0 0 0
      vertex 2 5 0
    endloop
  endfacet
  facet normal -0 0 -1
    outer loop
      vertex 4.07295 2.14683 0
      vertex 0 0 0
      vertex 2.57295 3.23664 0
    endloop
  endfacet
  facet normal -0 0 -1
    outer loop
      vertex 5.92705 2.14683 0
      vertex 0 0 0
      vertex 4.07295 2.14683 0
    endloop
  endfacet
  facet normal 0 0 -1
    outer loop
      vertex 36.5 55 0
      vertex 40 0 0
      vertex 37.4271 6.76336 0
    endloop
  endfacet
  facet normal 0 0 -1
    outer loop
      vertex 37.4271 66.7634 0
      vertex 40 70 0
      vertex 38 65 0
    endloop
  endfacet
  facet normal 0 0 -1
    outer loop
      vertex 35.9271 67.8532 0
      vertex 40 70 0
      vertex 37.4271 66.7634 0
    endloop
  endfacet
  facet normal 0 0 -1
    outer loop
      vertex 34.0729 67.8532 0
      vertex 40 70 0
      vertex 35.9271 67.8532 0
    endloop
  endfacet
  facet normal 0 0 -1
    outer loop
      vertex 25.4635 56.4266 0
      vertex 33.7865 55.8817 0
      vertex 26.5 55 0
    endloop
  endfacet
  facet normal 0 0 -1
    outer loop
      vertex 25.4635 63.5734 0
      vertex 32.5729 63.2366 0
      vertex 25.4635 56.4266 0
    endloop
  endfacet
  facet normal 0 0 -1
    outer loop
      vertex 32 65 0
      vertex 26.5 65 0
      vertex 32.5729 66.7634 0
    endloop
  endfacet
  facet normal 0 0 -1
    outer loop
      vertex 25.4635 66.4266 0
      vertex 32.5729 66.7634 0
      vertex 26.5 65 0
    endloop
  endfacet
  facet normal -0 0 -1
    outer loop
      vertex 32.5729 66.7634 0
      vertex 25.4635 66.4266 0
      vertex 34.0729 67.8532 0
    endloop
  endfacet
  facet normal 0 0 -1
    outer loop
      vertex 25.4635 66.4266 0
      vertex 40 70 0
      vertex 34.0729 67.8532 0
    endloop
  endfacet
  facet normal 0 0 -1
    outer loop
      vertex 23.7865 55.8817 0
      vertex 15.4635 56.4266 0
      vertex 23.7865 64.1183 0
    endloop
  endfacet
  facet normal 0 0 -1
    outer loop
      vertex 23.7865 64.1183 0
      vertex 16.5 65 0
      vertex 23.7865 65.8817 0
    endloop
  endfacet
  facet normal 0 0 -1
    outer loop
      vertex 15.4635 66.4266 0
      vertex 23.7865 65.8817 0
      vertex 16.5 65 0
    endloop
  endfacet
  facet normal 0 0 -1
    outer loop
      vertex 23.7865 65.8817 0
      vertex 15.4635 66.4266 0
      vertex 25.4635 66.4266 0
    endloop
  endfacet
  facet normal 0 0 -1
    outer loop
      vertex 25.4635 66.4266 0
      vertex 15.4635 66.4266 0
      vertex 40 70 0
    endloop
  endfacet
  facet normal 0 0 -1
    outer loop
      vertex 13.7865 64.1183 0
      vertex 8 65 0
      vertex 13.7865 65.8817 0
    endloop
  endfacet
  facet normal 0 0 -1
    outer loop
      vertex 7.42705 66.7634 0
      vertex 13.7865 65.8817 0
      vertex 8 65 0
    endloop
  endfacet
  facet normal 0 0 -1
    outer loop
      vertex 5.92705 67.8532 0
      vertex 13.7865 65.8817 0
      vertex 7.42705 66.7634 0
    endloop
  endfacet
  facet normal 0 0 -1
    outer loop
      vertex 13.7865 65.8817 0
      vertex 5.92705 67.8532 0
      vertex 15.4635 66.4266 0
    endloop
  endfacet
  facet normal 0 0 -1
    outer loop
      vertex 0 70 0
      vertex 15.4635 66.4266 0
      vertex 5.92705 67.8532 0
    endloop
  endfacet
  facet normal 0 0 -1
    outer loop
      vertex 0 70 0
      vertex 5.92705 67.8532 0
      vertex 4.07295 67.8532 0
    endloop
  endfacet
  facet normal 0 0 -1
    outer loop
      vertex 15.4635 66.4266 0
      vertex 0 70 0
      vertex 40 70 0
    endloop
  endfacet
  facet normal 0 0 -1
    outer loop
      vertex 2.57295 66.7634 0
      vertex 0 70 0
      vertex 4.07295 67.8532 0
    endloop
  endfacet
  facet normal 0 0 -1
    outer loop
      vertex 2 65 0
      vertex 0 70 0
      vertex 2.57295 66.7634 0
    endloop
  endfacet
  facet normal 0 0 -1
    outer loop
      vertex 3.78647 54.1183 0
      vertex 2.57295 63.2366 0
      vertex 3.78647 55.8817 0
    endloop
  endfacet
  facet normal 0 0 -1
    outer loop
      vertex 35.4635 56.4266 0
      vertex 37.4271 63.2366 0
      vertex 36.5 55 0
    endloop
  endfacet
  facet normal 0 0 -1
    outer loop
      vertex 37.4271 63.2366 0
      vertex 35.4635 56.4266 0
      vertex 35.9271 62.1468 0
    endloop
  endfacet
  facet normal 0 0 -1
    outer loop
      vertex 35.4635 56.4266 0
      vertex 34.0729 62.1468 0
      vertex 35.9271 62.1468 0
    endloop
  endfacet
  facet normal 0 0 -1
    outer loop
      vertex 33.7865 55.8817 0
      vertex 34.0729 62.1468 0
      vertex 35.4635 56.4266 0
    endloop
  endfacet
  facet normal 0 0 -1
    outer loop
      vertex 33.7865 55.8817 0
      vertex 32.5729 63.2366 0
      vertex 34.0729 62.1468 0
    endloop
  endfacet
  facet normal 0 0 -1
    outer loop
      vertex 26.5 5 0
      vertex 32.5729 6.76336 0
      vertex 32 5 0
    endloop
  endfacet
  facet normal 0 0 -1
    outer loop
      vertex 25.4635 6.42658 0
      vertex 32.5729 6.76336 0
      vertex 26.5 5 0
    endloop
  endfacet
  facet normal 0 0 -1
    outer loop
      vertex 25.4635 56.4266 0
      vertex 32.5729 63.2366 0
      vertex 33.7865 55.8817 0
    endloop
  endfacet
  facet normal -0.809017 0.587785 0
    outer loop
      vertex 5.46352 3.57341 6
      vertex 6.5 5 15
      vertex 6.5 5 6
    endloop
  endfacet
  facet normal -0.809017 0.587785 0
    outer loop
      vertex 6.5 5 15
      vertex 5.46352 3.57341 6
      vertex 5.46352 3.57341 15
    endloop
  endfacet
  facet normal 0.309017 0.951057 -0
    outer loop
      vertex 5.46352 3.57341 6
      vertex 3.78647 4.11832 15
      vertex 5.46352 3.57341 15
    endloop
  endfacet
  facet normal 0.309017 0.951057 0
    outer loop
      vertex 3.78647 4.11832 15
      vertex 5.46352 3.57341 6
      vertex 3.78647 4.11832 6
    endloop
  endfacet
  facet normal -0.809017 -0.587786 0
    outer loop
      vertex 16.5 5 0
      vertex 15.4635 6.42658 15
      vertex 15.4635 6.42658 0
    endloop
  endfacet
  facet normal -0.809017 -0.587786 0
    outer loop
      vertex 15.4635 6.42658 15
      vertex 16.5 5 0
      vertex 16.5 5 15
    endloop
  endfacet
  facet normal 1 -0 0
    outer loop
      vertex 13.7865 4.11832 15
      vertex 13.7865 5.88168 0
      vertex 13.7865 5.88168 15
    endloop
  endfacet
  facet normal 1 0 0
    outer loop
      vertex 13.7865 5.88168 0
      vertex 13.7865 4.11832 15
      vertex 13.7865 4.11832 0
    endloop
  endfacet
  facet normal 0.309017 -0.951057 0
    outer loop
      vertex 13.7865 5.88168 0
      vertex 15.4635 6.42658 15
      vertex 13.7865 5.88168 15
    endloop
  endfacet
  facet normal 0.309017 -0.951057 0
    outer loop
      vertex 15.4635 6.42658 15
      vertex 13.7865 5.88168 0
      vertex 15.4635 6.42658 0
    endloop
  endfacet
  facet normal 0.309017 0.951057 -0
    outer loop
      vertex 15.4635 3.57341 0
      vertex 13.7865 4.11832 15
      vertex 15.4635 3.57341 15
    endloop
  endfacet
  facet normal 0.309017 0.951057 0
    outer loop
      vertex 13.7865 4.11832 15
      vertex 15.4635 3.57341 0
      vertex 13.7865 4.11832 0
    endloop
  endfacet
  facet normal -0.809017 0.587785 0
    outer loop
      vertex 15.4635 3.57341 0
      vertex 16.5 5 15
      vertex 16.5 5 0
    endloop
  endfacet
  facet normal -0.809017 0.587785 0
    outer loop
      vertex 16.5 5 15
      vertex 15.4635 3.57341 0
      vertex 15.4635 3.57341 15
    endloop
  endfacet
  facet normal -0.809016 -0.587786 0
    outer loop
      vertex 26.5 5 0
      vertex 25.4635 6.42658 15
      vertex 25.4635 6.42658 0
    endloop
  endfacet
  facet normal -0.809016 -0.587786 0
    outer loop
      vertex 25.4635 6.42658 15
      vertex 26.5 5 0
      vertex 26.5 5 15
    endloop
  endfacet
  facet normal 1 -0 0
    outer loop
      vertex 23.7865 4.11832 15
      vertex 23.7865 5.88168 0
      vertex 23.7865 5.88168 15
    endloop
  endfacet
  facet normal 1 0 0
    outer loop
      vertex 23.7865 5.88168 0
      vertex 23.7865 4.11832 15
      vertex 23.7865 4.11832 0
    endloop
  endfacet
  facet normal 0.309017 -0.951056 0
    outer loop
      vertex 23.7865 5.88168 0
      vertex 25.4635 6.42658 15
      vertex 23.7865 5.88168 15
    endloop
  endfacet
  facet normal 0.309017 -0.951056 0
    outer loop
      vertex 25.4635 6.42658 15
      vertex 23.7865 5.88168 0
      vertex 25.4635 6.42658 0
    endloop
  endfacet
  facet normal -0.809017 0.587786 0
    outer loop
      vertex 25.4635 3.57341 0
      vertex 26.5 5 15
      vertex 26.5 5 0
    endloop
  endfacet
  facet normal -0.809017 0.587786 0
    outer loop
      vertex 26.5 5 15
      vertex 25.4635 3.57341 0
      vertex 25.4635 3.57341 15
    endloop
  endfacet
  facet normal 0.309017 0.951056 -0
    outer loop
      vertex 25.4635 3.57341 0
      vertex 23.7865 4.11832 15
      vertex 25.4635 3.57341 15
    endloop
  endfacet
  facet normal 0.309017 0.951056 0
    outer loop
      vertex 23.7865 4.11832 15
      vertex 25.4635 3.57341 0
      vertex 23.7865 4.11832 0
    endloop
  endfacet
  facet normal -0.809016 -0.587786 0
    outer loop
      vertex 36.5 5 6
      vertex 35.4635 6.42658 15
      vertex 35.4635 6.42658 6
    endloop
  endfacet
  facet normal -0.809016 -0.587786 0
    outer loop
      vertex 35.4635 6.42658 15
      vertex 36.5 5 6
      vertex 36.5 5 15
    endloop
  endfacet
  facet normal 1 -0 0
    outer loop
      vertex 33.7865 4.11832 15
      vertex 33.7865 5.88168 6
      vertex 33.7865 5.88168 15
    endloop
  endfacet
  facet normal 1 0 0
    outer loop
      vertex 33.7865 5.88168 6
      vertex 33.7865 4.11832 15
      vertex 33.7865 4.11832 6
    endloop
  endfacet
  facet normal 0.309017 -0.951056 0
    outer loop
      vertex 33.7865 5.88168 6
      vertex 35.4635 6.42658 15
      vertex 33.7865 5.88168 15
    endloop
  endfacet
  facet normal 0.309017 -0.951056 0
    outer loop
      vertex 35.4635 6.42658 15
      vertex 33.7865 5.88168 6
      vertex 35.4635 6.42658 6
    endloop
  endfacet
  facet normal -0.809017 0.587786 0
    outer loop
      vertex 35.4635 3.57341 6
      vertex 36.5 5 15
      vertex 36.5 5 6
    endloop
  endfacet
  facet normal -0.809017 0.587786 0
    outer loop
      vertex 36.5 5 15
      vertex 35.4635 3.57341 6
      vertex 35.4635 3.57341 15
    endloop
  endfacet
  facet normal 0.309017 0.951056 -0
    outer loop
      vertex 35.4635 3.57341 6
      vertex 33.7865 4.11832 15
      vertex 35.4635 3.57341 15
    endloop
  endfacet
  facet normal 0.309017 0.951056 0
    outer loop
      vertex 33.7865 4.11832 15
      vertex 35.4635 3.57341 6
      vertex 33.7865 4.11832 6
    endloop
  endfacet
  facet normal -0.951056 -0.309017 0
    outer loop
      vertex 8 5 0
      vertex 7.42705 6.76336 6
      vertex 7.42705 6.76336 0
    endloop
  endfacet
  facet normal -0.951056 -0.309017 0
    outer loop
      vertex 7.42705 6.76336 6
      vertex 8 5 0
      vertex 8 5 6
    endloop
  endfacet
  facet normal 0 -1 0
    outer loop
      vertex 4.07295 7.85317 0
      vertex 5.92705 7.85317 6
      vertex 4.07295 7.85317 6
    endloop
  endfacet
  facet normal 0 -1 -0
    outer loop
      vertex 5.92705 7.85317 6
      vertex 4.07295 7.85317 0
      vertex 5.92705 7.85317 0
    endloop
  endfacet
  facet normal -0.587785 -0.809017 0
    outer loop
      vertex 5.92705 7.85317 0
      vertex 7.42705 6.76336 6
      vertex 5.92705 7.85317 6
    endloop
  endfacet
  facet normal -0.587785 -0.809017 -0
    outer loop
      vertex 7.42705 6.76336 6
      vertex 5.92705 7.85317 0
      vertex 7.42705 6.76336 0
    endloop
  endfacet
  facet normal 0.951057 0.309017 0
    outer loop
      vertex 2.57295 3.23664 6
      vertex 2 5 0
      vertex 2 5 6
    endloop
  endfacet
  facet normal 0.951057 0.309017 0
    outer loop
      vertex 2 5 0
      vertex 2.57295 3.23664 6
      vertex 2.57295 3.23664 0
    endloop
  endfacet
  facet normal 0.587785 -0.809017 0
    outer loop
      vertex 2.57295 6.76336 0
      vertex 4.07295 7.85317 6
      vertex 2.57295 6.76336 6
    endloop
  endfacet
  facet normal 0.587785 -0.809017 0
    outer loop
      vertex 4.07295 7.85317 6
      vertex 2.57295 6.76336 0
      vertex 4.07295 7.85317 0
    endloop
  endfacet
  facet normal -0.951056 0.309017 0
    outer loop
      vertex 7.42705 3.23664 0
      vertex 8 5 6
      vertex 8 5 0
    endloop
  endfacet
  facet normal -0.951056 0.309017 0
    outer loop
      vertex 8 5 6
      vertex 7.42705 3.23664 0
      vertex 7.42705 3.23664 6
    endloop
  endfacet
  facet normal -0.587785 0.809017 0
    outer loop
      vertex 7.42705 3.23664 0
      vertex 5.92705 2.14683 6
      vertex 7.42705 3.23664 6
    endloop
  endfacet
  facet normal -0.587785 0.809017 0
    outer loop
      vertex 5.92705 2.14683 6
      vertex 7.42705 3.23664 0
      vertex 5.92705 2.14683 0
    endloop
  endfacet
  facet normal 0.587785 0.809017 -0
    outer loop
      vertex 4.07295 2.14683 0
      vertex 2.57295 3.23664 6
      vertex 4.07295 2.14683 6
    endloop
  endfacet
  facet normal 0.587785 0.809017 0
    outer loop
      vertex 2.57295 3.23664 6
      vertex 4.07295 2.14683 0
      vertex 2.57295 3.23664 0
    endloop
  endfacet
  facet normal 0 1 -0
    outer loop
      vertex 5.92705 2.14683 0
      vertex 4.07295 2.14683 6
      vertex 5.92705 2.14683 6
    endloop
  endfacet
  facet normal 0 1 0
    outer loop
      vertex 4.07295 2.14683 6
      vertex 5.92705 2.14683 0
      vertex 4.07295 2.14683 0
    endloop
  endfacet
  facet normal 0 0 -1
    outer loop
      vertex 6.5 5 6
      vertex 8 5 6
      vertex 7.42705 3.23664 6
    endloop
  endfacet
  facet normal 0 0 -1
    outer loop
      vertex 8 5 6
      vertex 6.5 5 6
      vertex 7.42705 6.76336 6
    endloop
  endfacet
  facet normal 0 0 -1
    outer loop
      vertex 5.46352 3.57341 6
      vertex 7.42705 3.23664 6
      vertex 5.92705 2.14683 6
    endloop
  endfacet
  facet normal 0 0 -1
    outer loop
      vertex 7.42705 3.23664 6
      vertex 5.46352 3.57341 6
      vertex 6.5 5 6
    endloop
  endfacet
  facet normal 0 0 -1
    outer loop
      vertex 4.07295 2.14683 6
      vertex 5.46352 3.57341 6
      vertex 5.92705 2.14683 6
    endloop
  endfacet
  facet normal 0 0 -1
    outer loop
      vertex 4.07295 2.14683 6
      vertex 3.78647 4.11832 6
      vertex 5.46352 3.57341 6
    endloop
  endfacet
  facet normal 0 0 -1
    outer loop
      vertex 2 5 6
      vertex 3.78647 4.11832 6
      vertex 2.57295 3.23664 6
    endloop
  endfacet
  facet normal 0 0 -1
    outer loop
      vertex 2.57295 3.23664 6
      vertex 3.78647 4.11832 6
      vertex 4.07295 2.14683 6
    endloop
  endfacet
  facet normal 0 0 -1
    outer loop
      vertex 5.46352 6.42658 6
      vertex 7.42705 6.76336 6
      vertex 6.5 5 6
    endloop
  endfacet
  facet normal -0 0 -1
    outer loop
      vertex 7.42705 6.76336 6
      vertex 5.46352 6.42658 6
      vertex 5.92705 7.85317 6
    endloop
  endfacet
  facet normal 0 0 -1
    outer loop
      vertex 5.46352 6.42658 6
      vertex 4.07295 7.85317 6
      vertex 5.92705 7.85317 6
    endloop
  endfacet
  facet normal 0 0 -1
    outer loop
      vertex 3.78647 5.88168 6
      vertex 4.07295 7.85317 6
      vertex 5.46352 6.42658 6
    endloop
  endfacet
  facet normal 0 0 -1
    outer loop
      vertex 3.78647 4.11832 6
      vertex 2 5 6
      vertex 3.78647 5.88168 6
    endloop
  endfacet
  facet normal 0 0 -1
    outer loop
      vertex 3.78647 5.88168 6
      vertex 2.57295 6.76336 6
      vertex 4.07295 7.85317 6
    endloop
  endfacet
  facet normal -0 0 -1
    outer loop
      vertex 3.78647 5.88168 6
      vertex 2 5 6
      vertex 2.57295 6.76336 6
    endloop
  endfacet
  facet normal 0.951057 -0.309017 0
    outer loop
      vertex 2 5 6
      vertex 2.57295 6.76336 0
      vertex 2.57295 6.76336 6
    endloop
  endfacet
  facet normal 0.951057 -0.309017 0
    outer loop
      vertex 2.57295 6.76336 0
      vertex 2 5 6
      vertex 2 5 0
    endloop
  endfacet
  facet normal -0.951057 -0.309017 0
    outer loop
      vertex 38 5 0
      vertex 37.4271 6.76336 6
      vertex 37.4271 6.76336 0
    endloop
  endfacet
  facet normal -0.951057 -0.309017 0
    outer loop
      vertex 37.4271 6.76336 6
      vertex 38 5 0
      vertex 38 5 6
    endloop
  endfacet
  facet normal 0 -1 0
    outer loop
      vertex 34.0729 7.85317 0
      vertex 35.9271 7.85317 6
      vertex 34.0729 7.85317 6
    endloop
  endfacet
  facet normal 0 -1 -0
    outer loop
      vertex 35.9271 7.85317 6
      vertex 34.0729 7.85317 0
      vertex 35.9271 7.85317 0
    endloop
  endfacet
  facet normal -0.587785 -0.809017 0
    outer loop
      vertex 35.9271 7.85317 0
      vertex 37.4271 6.76336 6
      vertex 35.9271 7.85317 6
    endloop
  endfacet
  facet normal -0.587785 -0.809017 -0
    outer loop
      vertex 37.4271 6.76336 6
      vertex 35.9271 7.85317 0
      vertex 37.4271 6.76336 0
    endloop
  endfacet
  facet normal 0.951057 0.309017 0
    outer loop
      vertex 32.5729 3.23664 6
      vertex 32 5 0
      vertex 32 5 6
    endloop
  endfacet
  facet normal 0.951057 0.309017 0
    outer loop
      vertex 32 5 0
      vertex 32.5729 3.23664 6
      vertex 32.5729 3.23664 0
    endloop
  endfacet
  facet normal 0.587785 -0.809017 0
    outer loop
      vertex 32.5729 6.76336 0
      vertex 34.0729 7.85317 6
      vertex 32.5729 6.76336 6
    endloop
  endfacet
  facet normal 0.587785 -0.809017 0
    outer loop
      vertex 34.0729 7.85317 6
      vertex 32.5729 6.76336 0
      vertex 34.0729 7.85317 0
    endloop
  endfacet
  facet normal -0.951057 0.309017 0
    outer loop
      vertex 37.4271 3.23664 0
      vertex 38 5 6
      vertex 38 5 0
    endloop
  endfacet
  facet normal -0.951057 0.309017 0
    outer loop
      vertex 38 5 6
      vertex 37.4271 3.23664 0
      vertex 37.4271 3.23664 6
    endloop
  endfacet
  facet normal -0.587785 0.809017 0
    outer loop
      vertex 37.4271 3.23664 0
      vertex 35.9271 2.14683 6
      vertex 37.4271 3.23664 6
    endloop
  endfacet
  facet normal -0.587785 0.809017 0
    outer loop
      vertex 35.9271 2.14683 6
      vertex 37.4271 3.23664 0
      vertex 35.9271 2.14683 0
    endloop
  endfacet
  facet normal 0.587785 0.809017 -0
    outer loop
      vertex 34.0729 2.14683 0
      vertex 32.5729 3.23664 6
      vertex 34.0729 2.14683 6
    endloop
  endfacet
  facet normal 0.587785 0.809017 0
    outer loop
      vertex 32.5729 3.23664 6
      vertex 34.0729 2.14683 0
      vertex 32.5729 3.23664 0
    endloop
  endfacet
  facet normal 0 1 -0
    outer loop
      vertex 35.9271 2.14683 0
      vertex 34.0729 2.14683 6
      vertex 35.9271 2.14683 6
    endloop
  endfacet
  facet normal 0 1 0
    outer loop
      vertex 34.0729 2.14683 6
      vertex 35.9271 2.14683 0
      vertex 34.0729 2.14683 0
    endloop
  endfacet
  facet normal 0 0 -1
    outer loop
      vertex 36.5 5 6
      vertex 38 5 6
      vertex 37.4271 3.23664 6
    endloop
  endfacet
  facet normal 0 0 -1
    outer loop
      vertex 38 5 6
      vertex 36.5 5 6
      vertex 37.4271 6.76336 6
    endloop
  endfacet
  facet normal 0 0 -1
    outer loop
      vertex 35.4635 3.57341 6
      vertex 37.4271 3.23664 6
      vertex 35.9271 2.14683 6
    endloop
  endfacet
  facet normal 0 0 -1
    outer loop
      vertex 37.4271 3.23664 6
      vertex 35.4635 3.57341 6
      vertex 36.5 5 6
    endloop
  endfacet
  facet normal 0 0 -1
    outer loop
      vertex 34.0729 2.14683 6
      vertex 35.4635 3.57341 6
      vertex 35.9271 2.14683 6
    endloop
  endfacet
  facet normal 0 0 -1
    outer loop
      vertex 34.0729 2.14683 6
      vertex 33.7865 4.11832 6
      vertex 35.4635 3.57341 6
    endloop
  endfacet
  facet normal 0 0 -1
    outer loop
      vertex 32 5 6
      vertex 33.7865 4.11832 6
      vertex 32.5729 3.23664 6
    endloop
  endfacet
  facet normal 0 0 -1
    outer loop
      vertex 32.5729 3.23664 6
      vertex 33.7865 4.11832 6
      vertex 34.0729 2.14683 6
    endloop
  endfacet
  facet normal 0 0 -1
    outer loop
      vertex 35.4635 6.42658 6
      vertex 37.4271 6.76336 6
      vertex 36.5 5 6
    endloop
  endfacet
  facet normal -0 0 -1
    outer loop
      vertex 37.4271 6.76336 6
      vertex 35.4635 6.42658 6
      vertex 35.9271 7.85317 6
    endloop
  endfacet
  facet normal 0 0 -1
    outer loop
      vertex 35.4635 6.42658 6
      vertex 34.0729 7.85317 6
      vertex 35.9271 7.85317 6
    endloop
  endfacet
  facet normal 0 0 -1
    outer loop
      vertex 33.7865 5.88168 6
      vertex 34.0729 7.85317 6
      vertex 35.4635 6.42658 6
    endloop
  endfacet
  facet normal 0 0 -1
    outer loop
      vertex 33.7865 4.11832 6
      vertex 32 5 6
      vertex 33.7865 5.88168 6
    endloop
  endfacet
  facet normal 0 0 -1
    outer loop
      vertex 33.7865 5.88168 6
      vertex 32.5729 6.76336 6
      vertex 34.0729 7.85317 6
    endloop
  endfacet
  facet normal -0 0 -1
    outer loop
      vertex 33.7865 5.88168 6
      vertex 32 5 6
      vertex 32.5729 6.76336 6
    endloop
  endfacet
  facet normal 0.951057 -0.309017 0
    outer loop
      vertex 32 5 6
      vertex 32.5729 6.76336 0
      vertex 32.5729 6.76336 6
    endloop
  endfacet
  facet normal 0.951057 -0.309017 0
    outer loop
      vertex 32.5729 6.76336 0
      vertex 32 5 6
      vertex 32 5 0
    endloop
  endfacet
  facet normal -0.809016 -0.587786 0
    outer loop
      vertex 6.5 65 6
      vertex 5.46352 66.4266 15
      vertex 5.46352 66.4266 6
    endloop
  endfacet
  facet normal -0.809016 -0.587786 0
    outer loop
      vertex 5.46352 66.4266 15
      vertex 6.5 65 6
      vertex 6.5 65 15
    endloop
  endfacet
  facet normal 1 -0 0
    outer loop
      vertex 3.78647 64.1183 15
      vertex 3.78647 65.8817 6
      vertex 3.78647 65.8817 15
    endloop
  endfacet
  facet normal 1 0 0
    outer loop
      vertex 3.78647 65.8817 6
      vertex 3.78647 64.1183 15
      vertex 3.78647 64.1183 6
    endloop
  endfacet
  facet normal 0.309017 -0.951057 0
    outer loop
      vertex 3.78647 65.8817 6
      vertex 5.46352 66.4266 15
      vertex 3.78647 65.8817 15
    endloop
  endfacet
  facet normal 0.309017 -0.951057 0
    outer loop
      vertex 5.46352 66.4266 15
      vertex 3.78647 65.8817 6
      vertex 5.46352 66.4266 6
    endloop
  endfacet
  facet normal 0.309019 0.951056 -0
    outer loop
      vertex 5.46352 63.5734 6
      vertex 3.78647 64.1183 15
      vertex 5.46352 63.5734 15
    endloop
  endfacet
  facet normal 0.309019 0.951056 0
    outer loop
      vertex 3.78647 64.1183 15
      vertex 5.46352 63.5734 6
      vertex 3.78647 64.1183 6
    endloop
  endfacet
  facet normal -0.809017 0.587785 0
    outer loop
      vertex 5.46352 63.5734 6
      vertex 6.5 65 15
      vertex 6.5 65 6
    endloop
  endfacet
  facet normal -0.809017 0.587785 0
    outer loop
      vertex 6.5 65 15
      vertex 5.46352 63.5734 6
      vertex 5.46352 63.5734 15
    endloop
  endfacet
  facet normal -0.809016 -0.587786 0
    outer loop
      vertex 16.5 65 0
      vertex 15.4635 66.4266 15
      vertex 15.4635 66.4266 0
    endloop
  endfacet
  facet normal -0.809016 -0.587786 0
    outer loop
      vertex 15.4635 66.4266 15
      vertex 16.5 65 0
      vertex 16.5 65 15
    endloop
  endfacet
  facet normal 1 -0 0
    outer loop
      vertex 13.7865 64.1183 15
      vertex 13.7865 65.8817 0
      vertex 13.7865 65.8817 15
    endloop
  endfacet
  facet normal 1 0 0
    outer loop
      vertex 13.7865 65.8817 0
      vertex 13.7865 64.1183 15
      vertex 13.7865 64.1183 0
    endloop
  endfacet
  facet normal 0.309017 -0.951057 0
    outer loop
      vertex 13.7865 65.8817 0
      vertex 15.4635 66.4266 15
      vertex 13.7865 65.8817 15
    endloop
  endfacet
  facet normal 0.309017 -0.951057 0
    outer loop
      vertex 15.4635 66.4266 15
      vertex 13.7865 65.8817 0
      vertex 15.4635 66.4266 0
    endloop
  endfacet
  facet normal 0.309019 0.951056 -0
    outer loop
      vertex 15.4635 63.5734 0
      vertex 13.7865 64.1183 15
      vertex 15.4635 63.5734 15
    endloop
  endfacet
  facet normal 0.309019 0.951056 0
    outer loop
      vertex 13.7865 64.1183 15
      vertex 15.4635 63.5734 0
      vertex 13.7865 64.1183 0
    endloop
  endfacet
  facet normal -0.809017 0.587785 0
    outer loop
      vertex 15.4635 63.5734 0
      vertex 16.5 65 15
      vertex 16.5 65 0
    endloop
  endfacet
  facet normal -0.809017 0.587785 0
    outer loop
      vertex 16.5 65 15
      vertex 15.4635 63.5734 0
      vertex 15.4635 63.5734 15
    endloop
  endfacet
  facet normal -0.809016 -0.587787 0
    outer loop
      vertex 26.5 65 0
      vertex 25.4635 66.4266 15
      vertex 25.4635 66.4266 0
    endloop
  endfacet
  facet normal -0.809016 -0.587787 0
    outer loop
      vertex 25.4635 66.4266 15
      vertex 26.5 65 0
      vertex 26.5 65 15
    endloop
  endfacet
  facet normal 1 -0 0
    outer loop
      vertex 23.7865 64.1183 15
      vertex 23.7865 65.8817 0
      vertex 23.7865 65.8817 15
    endloop
  endfacet
  facet normal 1 0 0
    outer loop
      vertex 23.7865 65.8817 0
      vertex 23.7865 64.1183 15
      vertex 23.7865 64.1183 0
    endloop
  endfacet
  facet normal 0.309017 -0.951056 0
    outer loop
      vertex 23.7865 65.8817 0
      vertex 25.4635 66.4266 15
      vertex 23.7865 65.8817 15
    endloop
  endfacet
  facet normal 0.309017 -0.951056 0
    outer loop
      vertex 25.4635 66.4266 15
      vertex 23.7865 65.8817 0
      vertex 25.4635 66.4266 0
    endloop
  endfacet
  facet normal -0.809017 0.587785 0
    outer loop
      vertex 25.4635 63.5734 0
      vertex 26.5 65 15
      vertex 26.5 65 0
    endloop
  endfacet
  facet normal -0.809017 0.587785 0
    outer loop
      vertex 26.5 65 15
      vertex 25.4635 63.5734 0
      vertex 25.4635 63.5734 15
    endloop
  endfacet
  facet normal 0.309019 0.951056 -0
    outer loop
      vertex 25.4635 63.5734 0
      vertex 23.7865 64.1183 15
      vertex 25.4635 63.5734 15
    endloop
  endfacet
  facet normal 0.309019 0.951056 0
    outer loop
      vertex 23.7865 64.1183 15
      vertex 25.4635 63.5734 0
      vertex 23.7865 64.1183 0
    endloop
  endfacet
  facet normal -0.809016 -0.587787 0
    outer loop
      vertex 36.5 65 6
      vertex 35.4635 66.4266 15
      vertex 35.4635 66.4266 6
    endloop
  endfacet
  facet normal -0.809016 -0.587787 0
    outer loop
      vertex 35.4635 66.4266 15
      vertex 36.5 65 6
      vertex 36.5 65 15
    endloop
  endfacet
  facet normal 1 -0 0
    outer loop
      vertex 33.7865 64.1183 15
      vertex 33.7865 65.8817 6
      vertex 33.7865 65.8817 15
    endloop
  endfacet
  facet normal 1 0 0
    outer loop
      vertex 33.7865 65.8817 6
      vertex 33.7865 64.1183 15
      vertex 33.7865 64.1183 6
    endloop
  endfacet
  facet normal 0.309017 -0.951056 0
    outer loop
      vertex 33.7865 65.8817 6
      vertex 35.4635 66.4266 15
      vertex 33.7865 65.8817 15
    endloop
  endfacet
  facet normal 0.309017 -0.951056 0
    outer loop
      vertex 35.4635 66.4266 15
      vertex 33.7865 65.8817 6
      vertex 35.4635 66.4266 6
    endloop
  endfacet
  facet normal 0.309019 0.951056 -0
    outer loop
      vertex 35.4635 63.5734 6
      vertex 33.7865 64.1183 15
      vertex 35.4635 63.5734 15
    endloop
  endfacet
  facet normal 0.309019 0.951056 0
    outer loop
      vertex 33.7865 64.1183 15
      vertex 35.4635 63.5734 6
      vertex 33.7865 64.1183 6
    endloop
  endfacet
  facet normal -0.809017 0.587785 0
    outer loop
      vertex 35.4635 63.5734 6
      vertex 36.5 65 15
      vertex 36.5 65 6
    endloop
  endfacet
  facet normal -0.809017 0.587785 0
    outer loop
      vertex 36.5 65 15
      vertex 35.4635 63.5734 6
      vertex 35.4635 63.5734 15
    endloop
  endfacet
  facet normal -0.951056 -0.309018 0
    outer loop
      vertex 8 65 0
      vertex 7.42705 66.7634 6
      vertex 7.42705 66.7634 0
    endloop
  endfacet
  facet normal -0.951056 -0.309018 0
    outer loop
      vertex 7.42705 66.7634 6
      vertex 8 65 0
      vertex 8 65 6
    endloop
  endfacet
  facet normal 0 -1 0
    outer loop
      vertex 4.07295 67.8532 0
      vertex 5.92705 67.8532 6
      vertex 4.07295 67.8532 6
    endloop
  endfacet
  facet normal 0 -1 -0
    outer loop
      vertex 5.92705 67.8532 6
      vertex 4.07295 67.8532 0
      vertex 5.92705 67.8532 0
    endloop
  endfacet
  facet normal -0.587788 -0.809015 0
    outer loop
      vertex 5.92705 67.8532 0
      vertex 7.42705 66.7634 6
      vertex 5.92705 67.8532 6
    endloop
  endfacet
  facet normal -0.587788 -0.809015 -0
    outer loop
      vertex 7.42705 66.7634 6
      vertex 5.92705 67.8532 0
      vertex 7.42705 66.7634 0
    endloop
  endfacet
  facet normal 0.951057 0.309017 0
    outer loop
      vertex 2.57295 63.2366 6
      vertex 2 65 0
      vertex 2 65 6
    endloop
  endfacet
  facet normal 0.951057 0.309017 0
    outer loop
      vertex 2 65 0
      vertex 2.57295 63.2366 6
      vertex 2.57295 63.2366 0
    endloop
  endfacet
  facet normal 0.587788 -0.809015 0
    outer loop
      vertex 2.57295 66.7634 0
      vertex 4.07295 67.8532 6
      vertex 2.57295 66.7634 6
    endloop
  endfacet
  facet normal 0.587788 -0.809015 0
    outer loop
      vertex 4.07295 67.8532 6
      vertex 2.57295 66.7634 0
      vertex 4.07295 67.8532 0
    endloop
  endfacet
  facet normal -0.951056 0.309017 0
    outer loop
      vertex 7.42705 63.2366 0
      vertex 8 65 6
      vertex 8 65 0
    endloop
  endfacet
  facet normal -0.951056 0.309017 0
    outer loop
      vertex 8 65 6
      vertex 7.42705 63.2366 0
      vertex 7.42705 63.2366 6
    endloop
  endfacet
  facet normal -0.587786 0.809016 0
    outer loop
      vertex 7.42705 63.2366 0
      vertex 5.92705 62.1468 6
      vertex 7.42705 63.2366 6
    endloop
  endfacet
  facet normal -0.587786 0.809016 0
    outer loop
      vertex 5.92705 62.1468 6
      vertex 7.42705 63.2366 0
      vertex 5.92705 62.1468 0
    endloop
  endfacet
  facet normal 0.587786 0.809016 -0
    outer loop
      vertex 4.07295 62.1468 0
      vertex 2.57295 63.2366 6
      vertex 4.07295 62.1468 6
    endloop
  endfacet
  facet normal 0.587786 0.809016 0
    outer loop
      vertex 2.57295 63.2366 6
      vertex 4.07295 62.1468 0
      vertex 2.57295 63.2366 0
    endloop
  endfacet
  facet normal 0.951056 -0.309017 0
    outer loop
      vertex 2 65 6
      vertex 2.57295 66.7634 0
      vertex 2.57295 66.7634 6
    endloop
  endfacet
  facet normal 0.951056 -0.309017 0
    outer loop
      vertex 2.57295 66.7634 0
      vertex 2 65 6
      vertex 2 65 0
    endloop
  endfacet
  facet normal 0 1 -0
    outer loop
      vertex 5.92705 62.1468 0
      vertex 4.07295 62.1468 6
      vertex 5.92705 62.1468 6
    endloop
  endfacet
  facet normal 0 1 0
    outer loop
      vertex 4.07295 62.1468 6
      vertex 5.92705 62.1468 0
      vertex 4.07295 62.1468 0
    endloop
  endfacet
  facet normal 0 0 -1
    outer loop
      vertex 6.5 65 6
      vertex 8 65 6
      vertex 7.42705 63.2366 6
    endloop
  endfacet
  facet normal 0 0 -1
    outer loop
      vertex 8 65 6
      vertex 6.5 65 6
      vertex 7.42705 66.7634 6
    endloop
  endfacet
  facet normal 0 0 -1
    outer loop
      vertex 5.46352 63.5734 6
      vertex 7.42705 63.2366 6
      vertex 5.92705 62.1468 6
    endloop
  endfacet
  facet normal 0 0 -1
    outer loop
      vertex 7.42705 63.2366 6
      vertex 5.46352 63.5734 6
      vertex 6.5 65 6
    endloop
  endfacet
  facet normal 0 0 -1
    outer loop
      vertex 4.07295 62.1468 6
      vertex 5.46352 63.5734 6
      vertex 5.92705 62.1468 6
    endloop
  endfacet
  facet normal 0 0 -1
    outer loop
      vertex 4.07295 62.1468 6
      vertex 3.78647 64.1183 6
      vertex 5.46352 63.5734 6
    endloop
  endfacet
  facet normal 0 0 -1
    outer loop
      vertex 2 65 6
      vertex 3.78647 64.1183 6
      vertex 2.57295 63.2366 6
    endloop
  endfacet
  facet normal 0 0 -1
    outer loop
      vertex 2.57295 63.2366 6
      vertex 3.78647 64.1183 6
      vertex 4.07295 62.1468 6
    endloop
  endfacet
  facet normal 0 0 -1
    outer loop
      vertex 5.46352 66.4266 6
      vertex 7.42705 66.7634 6
      vertex 6.5 65 6
    endloop
  endfacet
  facet normal -0 0 -1
    outer loop
      vertex 7.42705 66.7634 6
      vertex 5.46352 66.4266 6
      vertex 5.92705 67.8532 6
    endloop
  endfacet
  facet normal 0 0 -1
    outer loop
      vertex 5.46352 66.4266 6
      vertex 4.07295 67.8532 6
      vertex 5.92705 67.8532 6
    endloop
  endfacet
  facet normal 0 0 -1
    outer loop
      vertex 3.78647 65.8817 6
      vertex 4.07295 67.8532 6
      vertex 5.46352 66.4266 6
    endloop
  endfacet
  facet normal 0 0 -1
    outer loop
      vertex 3.78647 64.1183 6
      vertex 2 65 6
      vertex 3.78647 65.8817 6
    endloop
  endfacet
  facet normal 0 0 -1
    outer loop
      vertex 3.78647 65.8817 6
      vertex 2.57295 66.7634 6
      vertex 4.07295 67.8532 6
    endloop
  endfacet
  facet normal -0 0 -1
    outer loop
      vertex 3.78647 65.8817 6
      vertex 2 65 6
      vertex 2.57295 66.7634 6
    endloop
  endfacet
  facet normal -0.951056 -0.309017 0
    outer loop
      vertex 38 65 0
      vertex 37.4271 66.7634 6
      vertex 37.4271 66.7634 0
    endloop
  endfacet
  facet normal -0.951056 -0.309017 0
    outer loop
      vertex 37.4271 66.7634 6
      vertex 38 65 0
      vertex 38 65 6
    endloop
  endfacet
  facet normal 0 -1 0
    outer loop
      vertex 34.0729 67.8532 0
      vertex 35.9271 67.8532 6
      vertex 34.0729 67.8532 6
    endloop
  endfacet
  facet normal 0 -1 -0
    outer loop
      vertex 35.9271 67.8532 6
      vertex 34.0729 67.8532 0
      vertex 35.9271 67.8532 0
    endloop
  endfacet
  facet normal -0.587788 -0.809015 0
    outer loop
      vertex 35.9271 67.8532 0
      vertex 37.4271 66.7634 6
      vertex 35.9271 67.8532 6
    endloop
  endfacet
  facet normal -0.587788 -0.809015 -0
    outer loop
      vertex 37.4271 66.7634 6
      vertex 35.9271 67.8532 0
      vertex 37.4271 66.7634 0
    endloop
  endfacet
  facet normal 0.951057 0.309017 0
    outer loop
      vertex 32.5729 63.2366 6
      vertex 32 65 0
      vertex 32 65 6
    endloop
  endfacet
  facet normal 0.951057 0.309017 0
    outer loop
      vertex 32 65 0
      vertex 32.5729 63.2366 6
      vertex 32.5729 63.2366 0
    endloop
  endfacet
  facet normal 0.587788 -0.809015 0
    outer loop
      vertex 32.5729 66.7634 0
      vertex 34.0729 67.8532 6
      vertex 32.5729 66.7634 6
    endloop
  endfacet
  facet normal 0.587788 -0.809015 0
    outer loop
      vertex 34.0729 67.8532 6
      vertex 32.5729 66.7634 0
      vertex 34.0729 67.8532 0
    endloop
  endfacet
  facet normal -0.951057 0.309017 0
    outer loop
      vertex 37.4271 63.2366 0
      vertex 38 65 6
      vertex 38 65 0
    endloop
  endfacet
  facet normal -0.951057 0.309017 0
    outer loop
      vertex 38 65 6
      vertex 37.4271 63.2366 0
      vertex 37.4271 63.2366 6
    endloop
  endfacet
  facet normal -0.587786 0.809016 0
    outer loop
      vertex 37.4271 63.2366 0
      vertex 35.9271 62.1468 6
      vertex 37.4271 63.2366 6
    endloop
  endfacet
  facet normal -0.587786 0.809016 0
    outer loop
      vertex 35.9271 62.1468 6
      vertex 37.4271 63.2366 0
      vertex 35.9271 62.1468 0
    endloop
  endfacet
  facet normal 0.587786 0.809016 -0
    outer loop
      vertex 34.0729 62.1468 0
      vertex 32.5729 63.2366 6
      vertex 34.0729 62.1468 6
    endloop
  endfacet
  facet normal 0.587786 0.809016 0
    outer loop
      vertex 32.5729 63.2366 6
      vertex 34.0729 62.1468 0
      vertex 32.5729 63.2366 0
    endloop
  endfacet
  facet normal 0 1 -0
    outer loop
      vertex 35.9271 62.1468 0
      vertex 34.0729 62.1468 6
      vertex 35.9271 62.1468 6
    endloop
  endfacet
  facet normal 0 1 0
    outer loop
      vertex 34.0729 62.1468 6
      vertex 35.9271 62.1468 0
      vertex 34.0729 62.1468 0
    endloop
  endfacet
  facet normal 0 0 -1
    outer loop
      vertex 36.5 65 6
      vertex 38 65 6
      vertex 37.4271 63.2366 6
    endloop
  endfacet
  facet normal 0 0 -1
    outer loop
      vertex 38 65 6
      vertex 36.5 65 6
      vertex 37.4271 66.7634 6
    endloop
  endfacet
  facet normal 0 0 -1
    outer loop
      vertex 35.4635 63.5734 6
      vertex 37.4271 63.2366 6
      vertex 35.9271 62.1468 6
    endloop
  endfacet
  facet normal 0 0 -1
    outer loop
      vertex 37.4271 63.2366 6
      vertex 35.4635 63.5734 6
      vertex 36.5 65 6
    endloop
  endfacet
  facet normal 0 0 -1
    outer loop
      vertex 34.0729 62.1468 6
      vertex 35.4635 63.5734 6
      vertex 35.9271 62.1468 6
    endloop
  endfacet
  facet normal 0 0 -1
    outer loop
      vertex 34.0729 62.1468 6
      vertex 33.7865 64.1183 6
      vertex 35.4635 63.5734 6
    endloop
  endfacet
  facet normal 0 0 -1
    outer loop
      vertex 32 65 6
      vertex 33.7865 64.1183 6
      vertex 32.5729 63.2366 6
    endloop
  endfacet
  facet normal 0 0 -1
    outer loop
      vertex 32.5729 63.2366 6
      vertex 33.7865 64.1183 6
      vertex 34.0729 62.1468 6
    endloop
  endfacet
  facet normal 0 0 -1
    outer loop
      vertex 35.4635 66.4266 6
      vertex 37.4271 66.7634 6
      vertex 36.5 65 6
    endloop
  endfacet
  facet normal -0 0 -1
    outer loop
      vertex 37.4271 66.7634 6
      vertex 35.4635 66.4266 6
      vertex 35.9271 67.8532 6
    endloop
  endfacet
  facet normal 0 0 -1
    outer loop
      vertex 35.4635 66.4266 6
      vertex 34.0729 67.8532 6
      vertex 35.9271 67.8532 6
    endloop
  endfacet
  facet normal 0 0 -1
    outer loop
      vertex 33.7865 65.8817 6
      vertex 34.0729 67.8532 6
      vertex 35.4635 66.4266 6
    endloop
  endfacet
  facet normal 0 0 -1
    outer loop
      vertex 33.7865 64.1183 6
      vertex 32 65 6
      vertex 33.7865 65.8817 6
    endloop
  endfacet
  facet normal 0 0 -1
    outer loop
      vertex 33.7865 65.8817 6
      vertex 32.5729 66.7634 6
      vertex 34.0729 67.8532 6
    endloop
  endfacet
  facet normal -0 0 -1
    outer loop
      vertex 33.7865 65.8817 6
      vertex 32 65 6
      vertex 32.5729 66.7634 6
    endloop
  endfacet
  facet normal 0.951056 -0.309017 0
    outer loop
      vertex 32 65 6
      vertex 32.5729 66.7634 0
      vertex 32.5729 66.7634 6
    endloop
  endfacet
  facet normal 0.951056 -0.309017 0
    outer loop
      vertex 32.5729 66.7634 0
      vertex 32 65 6
      vertex 32 65 0
    endloop
  endfacet
  facet normal -0.809016 -0.587786 0
    outer loop
      vertex 6.5 55 0
      vertex 5.46352 56.4266 5
      vertex 5.46352 56.4266 0
    endloop
  endfacet
  facet normal -0.809016 -0.587786 0
    outer loop
      vertex 5.46352 56.4266 5
      vertex 6.5 55 0
      vertex 6.5 55 5
    endloop
  endfacet
  facet normal 1 -0 0
    outer loop
      vertex 3.78647 54.1183 5
      vertex 3.78647 55.8817 0
      vertex 3.78647 55.8817 5
    endloop
  endfacet
  facet normal 1 0 0
    outer loop
      vertex 3.78647 55.8817 0
      vertex 3.78647 54.1183 5
      vertex 3.78647 54.1183 0
    endloop
  endfacet
  facet normal 0.309017 -0.951057 0
    outer loop
      vertex 3.78647 55.8817 0
      vertex 5.46352 56.4266 5
      vertex 3.78647 55.8817 5
    endloop
  endfacet
  facet normal 0.309017 -0.951057 0
    outer loop
      vertex 5.46352 56.4266 5
      vertex 3.78647 55.8817 0
      vertex 5.46352 56.4266 0
    endloop
  endfacet
  facet normal 0.309017 0.951057 -0
    outer loop
      vertex 5.46352 53.5734 0
      vertex 3.78647 54.1183 5
      vertex 5.46352 53.5734 5
    endloop
  endfacet
  facet normal 0.309017 0.951057 0
    outer loop
      vertex 3.78647 54.1183 5
      vertex 5.46352 53.5734 0
      vertex 3.78647 54.1183 0
    endloop
  endfacet
  facet normal -0.809017 0.587785 0
    outer loop
      vertex 5.46352 53.5734 0
      vertex 6.5 55 5
      vertex 6.5 55 0
    endloop
  endfacet
  facet normal -0.809017 0.587785 0
    outer loop
      vertex 6.5 55 5
      vertex 5.46352 53.5734 0
      vertex 5.46352 53.5734 5
    endloop
  endfacet
  facet normal -0.809016 -0.587786 0
    outer loop
      vertex 16.5 55 0
      vertex 15.4635 56.4266 5
      vertex 15.4635 56.4266 0
    endloop
  endfacet
  facet normal -0.809016 -0.587786 0
    outer loop
      vertex 15.4635 56.4266 5
      vertex 16.5 55 0
      vertex 16.5 55 5
    endloop
  endfacet
  facet normal 1 -0 0
    outer loop
      vertex 13.7865 54.1183 5
      vertex 13.7865 55.8817 0
      vertex 13.7865 55.8817 5
    endloop
  endfacet
  facet normal 1 0 0
    outer loop
      vertex 13.7865 55.8817 0
      vertex 13.7865 54.1183 5
      vertex 13.7865 54.1183 0
    endloop
  endfacet
  facet normal 0.309017 -0.951057 0
    outer loop
      vertex 13.7865 55.8817 0
      vertex 15.4635 56.4266 5
      vertex 13.7865 55.8817 5
    endloop
  endfacet
  facet normal 0.309017 -0.951057 0
    outer loop
      vertex 15.4635 56.4266 5
      vertex 13.7865 55.8817 0
      vertex 15.4635 56.4266 0
    endloop
  endfacet
  facet normal 0.309017 0.951057 -0
    outer loop
      vertex 15.4635 53.5734 0
      vertex 13.7865 54.1183 5
      vertex 15.4635 53.5734 5
    endloop
  endfacet
  facet normal 0.309017 0.951057 0
    outer loop
      vertex 13.7865 54.1183 5
      vertex 15.4635 53.5734 0
      vertex 13.7865 54.1183 0
    endloop
  endfacet
  facet normal -0.809017 0.587785 0
    outer loop
      vertex 15.4635 53.5734 0
      vertex 16.5 55 5
      vertex 16.5 55 0
    endloop
  endfacet
  facet normal -0.809017 0.587785 0
    outer loop
      vertex 16.5 55 5
      vertex 15.4635 53.5734 0
      vertex 15.4635 53.5734 5
    endloop
  endfacet
  facet normal -0.809016 -0.587787 0
    outer loop
      vertex 26.5 55 0
      vertex 25.4635 56.4266 5
      vertex 25.4635 56.4266 0
    endloop
  endfacet
  facet normal -0.809016 -0.587787 0
    outer loop
      vertex 25.4635 56.4266 5
      vertex 26.5 55 0
      vertex 26.5 55 5
    endloop
  endfacet
  facet normal 1 -0 0
    outer loop
      vertex 23.7865 54.1183 5
      vertex 23.7865 55.8817 0
      vertex 23.7865 55.8817 5
    endloop
  endfacet
  facet normal 1 0 0
    outer loop
      vertex 23.7865 55.8817 0
      vertex 23.7865 54.1183 5
      vertex 23.7865 54.1183 0
    endloop
  endfacet
  facet normal 0.309017 -0.951056 0
    outer loop
      vertex 23.7865 55.8817 0
      vertex 25.4635 56.4266 5
      vertex 23.7865 55.8817 5
    endloop
  endfacet
  facet normal 0.309017 -0.951056 0
    outer loop
      vertex 25.4635 56.4266 5
      vertex 23.7865 55.8817 0
      vertex 25.4635 56.4266 0
    endloop
  endfacet
  facet normal -0.809017 0.587785 0
    outer loop
      vertex 25.4635 53.5734 0
      vertex 26.5 55 5
      vertex 26.5 55 0
    endloop
  endfacet
  facet normal -0.809017 0.587785 0
    outer loop
      vertex 26.5 55 5
      vertex 25.4635 53.5734 0
      vertex 25.4635 53.5734 5
    endloop
  endfacet
  facet normal 0.309017 0.951056 -0
    outer loop
      vertex 25.4635 53.5734 0
      vertex 23.7865 54.1183 5
      vertex 25.4635 53.5734 5
    endloop
  endfacet
  facet normal 0.309017 0.951056 0
    outer loop
      vertex 23.7865 54.1183 5
      vertex 25.4635 53.5734 0
      vertex 23.7865 54.1183 0
    endloop
  endfacet
  facet normal -0.809016 -0.587787 0
    outer loop
      vertex 36.5 55 0
      vertex 35.4635 56.4266 5
      vertex 35.4635 56.4266 0
    endloop
  endfacet
  facet normal -0.809016 -0.587787 0
    outer loop
      vertex 35.4635 56.4266 5
      vertex 36.5 55 0
      vertex 36.5 55 5
    endloop
  endfacet
  facet normal 1 -0 0
    outer loop
      vertex 33.7865 54.1183 5
      vertex 33.7865 55.8817 0
      vertex 33.7865 55.8817 5
    endloop
  endfacet
  facet normal 1 0 0
    outer loop
      vertex 33.7865 55.8817 0
      vertex 33.7865 54.1183 5
      vertex 33.7865 54.1183 0
    endloop
  endfacet
  facet normal 0.309017 -0.951056 0
    outer loop
      vertex 33.7865 55.8817 0
      vertex 35.4635 56.4266 5
      vertex 33.7865 55.8817 5
    endloop
  endfacet
  facet normal 0.309017 -0.951056 0
    outer loop
      vertex 35.4635 56.4266 5
      vertex 33.7865 55.8817 0
      vertex 35.4635 56.4266 0
    endloop
  endfacet
  facet normal -0.809017 0.587785 0
    outer loop
      vertex 35.4635 53.5734 0
      vertex 36.5 55 5
      vertex 36.5 55 0
    endloop
  endfacet
  facet normal -0.809017 0.587785 0
    outer loop
      vertex 36.5 55 5
      vertex 35.4635 53.5734 0
      vertex 35.4635 53.5734 5
    endloop
  endfacet
  facet normal 0.309017 0.951056 -0
    outer loop
      vertex 35.4635 53.5734 0
      vertex 33.7865 54.1183 5
      vertex 35.4635 53.5734 5
    endloop
  endfacet
  facet normal 0.309017 0.951056 0
    outer loop
      vertex 33.7865 54.1183 5
      vertex 35.4635 53.5734 0
      vertex 33.7865 54.1183 0
    endloop
  endfacet
  facet normal -1 0 0
    outer loop
      vertex 0 70 0
      vertex 0 60 5
      vertex 0 70 15
    endloop
  endfacet
  facet normal -1 0 0
    outer loop
      vertex 0 70 0
      vertex 0 10 5
      vertex 0 60 5
    endloop
  endfacet
  facet normal -1 0 0
    outer loop
      vertex 0 0 0
      vertex 0 10 5
      vertex 0 70 0
    endloop
  endfacet
  facet normal -1 0 0
    outer loop
      vertex 0 0 15
      vertex 0 10 5
      vertex 0 0 0
    endloop
  endfacet
  facet normal -1 0 0
    outer loop
      vertex 0 10 5
      vertex 0 0 15
      vertex 0 10 15
    endloop
  endfacet
  facet normal -1 -0 0
    outer loop
      vertex 0 70 15
      vertex 0 60 5
      vertex 0 60 15
    endloop
  endfacet
  facet normal 1 0 0
    outer loop
      vertex 40 10 15
      vertex 40 0 15
      vertex 40 10 5
    endloop
  endfacet
  facet normal 1 0 0
    outer loop
      vertex 40 60 5
      vertex 40 70 15
      vertex 40 60 15
    endloop
  endfacet
  facet normal 1 0 0
    outer loop
      vertex 40 70 15
      vertex 40 60 5
      vertex 40 70 0
    endloop
  endfacet
  facet normal 1 -0 0
    outer loop
      vertex 40 10 5
      vertex 40 70 0
      vertex 40 60 5
    endloop
  endfacet
  facet normal 1 0 0
    outer loop
      vertex 40 10 5
      vertex 40 0 0
      vertex 40 70 0
    endloop
  endfacet
  facet normal 1 0 0
    outer loop
      vertex 40 0 0
      vertex 40 10 5
      vertex 40 0 15
    endloop
  endfacet
  facet normal 0 1 -0
    outer loop
      vertex 40 70 0
      vertex 0 70 15
      vertex 40 70 15
    endloop
  endfacet
  facet normal 0 1 0
    outer loop
      vertex 0 70 15
      vertex 40 70 0
      vertex 0 70 0
    endloop
  endfacet
  facet normal 0 -1 0
    outer loop
      vertex 0 0 0
      vertex 40 0 15
      vertex 0 0 15
    endloop
  endfacet
  facet normal 0 -1 -0
    outer loop
      vertex 40 0 15
      vertex 0 0 0
      vertex 40 0 0
    endloop
  endfacet
  facet normal 0 0 1
    outer loop
      vertex 40 60 5
      vertex 36.5 55 5
      vertex 40 10 5
    endloop
  endfacet
  facet normal 0 0 1
    outer loop
      vertex 40 60 5
      vertex 35.4635 56.4266 5
      vertex 36.5 55 5
    endloop
  endfacet
  facet normal 0 0 1
    outer loop
      vertex 40 60 5
      vertex 33.7865 55.8817 5
      vertex 35.4635 56.4266 5
    endloop
  endfacet
  facet normal 0 0 1
    outer loop
      vertex 33.7865 55.8817 5
      vertex 26.5 55 5
      vertex 33.7865 54.1183 5
    endloop
  endfacet
  facet normal -0 0 1
    outer loop
      vertex 25.4635 56.4266 5
      vertex 33.7865 55.8817 5
      vertex 40 60 5
    endloop
  endfacet
  facet normal 0 0 1
    outer loop
      vertex 33.7865 55.8817 5
      vertex 25.4635 56.4266 5
      vertex 26.5 55 5
    endloop
  endfacet
  facet normal 0 0 1
    outer loop
      vertex 23.7865 55.8817 5
      vertex 16.5 55 5
      vertex 23.7865 54.1183 5
    endloop
  endfacet
  facet normal -0 0 1
    outer loop
      vertex 15.4635 56.4266 5
      vertex 23.7865 55.8817 5
      vertex 25.4635 56.4266 5
    endloop
  endfacet
  facet normal 0 0 1
    outer loop
      vertex 15.4635 56.4266 5
      vertex 25.4635 56.4266 5
      vertex 40 60 5
    endloop
  endfacet
  facet normal 0 0 1
    outer loop
      vertex 23.7865 55.8817 5
      vertex 15.4635 56.4266 5
      vertex 16.5 55 5
    endloop
  endfacet
  facet normal 0 0 1
    outer loop
      vertex 13.7865 55.8817 5
      vertex 6.5 55 5
      vertex 13.7865 54.1183 5
    endloop
  endfacet
  facet normal -0 0 1
    outer loop
      vertex 5.46352 56.4266 5
      vertex 13.7865 55.8817 5
      vertex 15.4635 56.4266 5
    endloop
  endfacet
  facet normal 0 0 1
    outer loop
      vertex 13.7865 55.8817 5
      vertex 5.46352 56.4266 5
      vertex 6.5 55 5
    endloop
  endfacet
  facet normal -0 0 1
    outer loop
      vertex 0 60 5
      vertex 15.4635 56.4266 5
      vertex 40 60 5
    endloop
  endfacet
  facet normal 0 0 1
    outer loop
      vertex 3.78647 55.8817 5
      vertex 0 60 5
      vertex 3.78647 54.1183 5
    endloop
  endfacet
  facet normal 0 0 1
    outer loop
      vertex 5.46352 56.4266 5
      vertex 0 60 5
      vertex 3.78647 55.8817 5
    endloop
  endfacet
  facet normal 0 0 1
    outer loop
      vertex 15.4635 56.4266 5
      vertex 0 60 5
      vertex 5.46352 56.4266 5
    endloop
  endfacet
  facet normal -0 0 1
    outer loop
      vertex 35.4635 53.5734 5
      vertex 40 10 5
      vertex 36.5 55 5
    endloop
  endfacet
  facet normal 0 0 1
    outer loop
      vertex 25.4635 53.5734 5
      vertex 35.4635 53.5734 5
      vertex 33.7865 54.1183 5
    endloop
  endfacet
  facet normal 0 0 1
    outer loop
      vertex 25.4635 53.5734 5
      vertex 33.7865 54.1183 5
      vertex 26.5 55 5
    endloop
  endfacet
  facet normal 0 0 1
    outer loop
      vertex 35.4635 53.5734 5
      vertex 25.4635 53.5734 5
      vertex 40 10 5
    endloop
  endfacet
  facet normal 0 0 1
    outer loop
      vertex 15.4635 53.5734 5
      vertex 25.4635 53.5734 5
      vertex 23.7865 54.1183 5
    endloop
  endfacet
  facet normal 0 0 1
    outer loop
      vertex 15.4635 53.5734 5
      vertex 23.7865 54.1183 5
      vertex 16.5 55 5
    endloop
  endfacet
  facet normal 0 0 1
    outer loop
      vertex 25.4635 53.5734 5
      vertex 15.4635 53.5734 5
      vertex 40 10 5
    endloop
  endfacet
  facet normal 0 0 1
    outer loop
      vertex 5.46352 53.5734 5
      vertex 15.4635 53.5734 5
      vertex 13.7865 54.1183 5
    endloop
  endfacet
  facet normal 0 0 1
    outer loop
      vertex 5.46352 53.5734 5
      vertex 13.7865 54.1183 5
      vertex 6.5 55 5
    endloop
  endfacet
  facet normal 0 0 1
    outer loop
      vertex 15.4635 53.5734 5
      vertex 5.46352 53.5734 5
      vertex 0 10 5
    endloop
  endfacet
  facet normal 0 0 1
    outer loop
      vertex 0 10 5
      vertex 5.46352 53.5734 5
      vertex 3.78647 54.1183 5
    endloop
  endfacet
  facet normal 0 0 1
    outer loop
      vertex 15.4635 53.5734 5
      vertex 0 10 5
      vertex 40 10 5
    endloop
  endfacet
  facet normal 0 0 1
    outer loop
      vertex 0 10 5
      vertex 3.78647 54.1183 5
      vertex 0 60 5
    endloop
  endfacet
  facet normal 0 1 -0
    outer loop
      vertex 40 10 5
      vertex 0 10 15
      vertex 40 10 15
    endloop
  endfacet
  facet normal 0 1 0
    outer loop
      vertex 0 10 15
      vertex 40 10 5
      vertex 0 10 5
    endloop
  endfacet
  facet normal 0 -1 0
    outer loop
      vertex 0 60 5
      vertex 40 60 15
      vertex 0 60 15
    endloop
  endfacet
  facet normal 0 -1 -0
    outer loop
      vertex 40 60 15
      vertex 0 60 5
      vertex 40 60 5
    endloop
  endfacet
endsolid OpenSCAD_Model
