solid OpenSCAD_Model
  facet normal 0.994522 0.104529 0
    outer loop
      vertex 37.5 0 20
      vertex 36.6805 7.79669 0
      vertex 36.6805 7.79669 20
    endloop
  endfacet
  facet normal 0.994522 0.104529 0
    outer loop
      vertex 36.6805 7.79669 0
      vertex 37.5 0 20
      vertex 37.5 0 0
    endloop
  endfacet
  facet normal -0.994522 0.104529 0
    outer loop
      vertex -37.5 0 0
      vertex -36.6805 7.79669 20
      vertex -36.6805 7.79669 0
    endloop
  endfacet
  facet normal -0.994522 0.104529 0
    outer loop
      vertex -36.6805 7.79669 20
      vertex -37.5 0 0
      vertex -37.5 0 20
    endloop
  endfacet
  facet normal 0 1 -0
    outer loop
      vertex 3.91982 37.2946 0
      vertex -3.91982 37.2946 20
      vertex 3.91982 37.2946 20
    endloop
  endfacet
  facet normal 0 1 0
    outer loop
      vertex -3.91982 37.2946 20
      vertex 3.91982 37.2946 0
      vertex -3.91982 37.2946 0
    endloop
  endfacet
  facet normal 0.743145 0.669131 0
    outer loop
      vertex 30.3381 22.0419 20
      vertex 25.0924 27.8679 0
      vertex 25.0924 27.8679 20
    endloop
  endfacet
  facet normal 0.743145 0.669131 0
    outer loop
      vertex 25.0924 27.8679 0
      vertex 30.3381 22.0419 20
      vertex 30.3381 22.0419 0
    endloop
  endfacet
  facet normal 0.951057 0.309017 0
    outer loop
      vertex 36.6805 7.79669 20
      vertex 34.258 15.2526 0
      vertex 34.258 15.2526 20
    endloop
  endfacet
  facet normal 0.951057 0.309017 0
    outer loop
      vertex 34.258 15.2526 0
      vertex 36.6805 7.79669 20
      vertex 36.6805 7.79669 0
    endloop
  endfacet
  facet normal -0.587785 0.809017 0
    outer loop
      vertex -18.75 32.476 0
      vertex -25.0924 27.8679 20
      vertex -18.75 32.476 20
    endloop
  endfacet
  facet normal -0.587785 0.809017 0
    outer loop
      vertex -25.0924 27.8679 20
      vertex -18.75 32.476 0
      vertex -25.0924 27.8679 0
    endloop
  endfacet
  facet normal -0.406737 0.913545 0
    outer loop
      vertex -11.5881 35.6646 0
      vertex -18.75 32.476 20
      vertex -11.5881 35.6646 20
    endloop
  endfacet
  facet normal -0.406737 0.913545 0
    outer loop
      vertex -18.75 32.476 20
      vertex -11.5881 35.6646 0
      vertex -18.75 32.476 0
    endloop
  endfacet
  facet normal 0 0 -1
    outer loop
      vertex 35.3649 -3.09403 0
      vertex 37.5 0 0
      vertex 36.6805 -7.79669 0
    endloop
  endfacet
  facet normal 0 0 -1
    outer loop
      vertex 35.3649 3.09403 0
      vertex 37.5 0 0
      vertex 35.5 0 0
    endloop
  endfacet
  facet normal -0 0 -1
    outer loop
      vertex 37.5 0 0
      vertex 35.3649 -3.09403 0
      vertex 35.5 0 0
    endloop
  endfacet
  facet normal 0 0 -1
    outer loop
      vertex 36.6805 -7.79669 0
      vertex 34.9607 -6.16451 0
      vertex 35.3649 -3.09403 0
    endloop
  endfacet
  facet normal -0 0 -1
    outer loop
      vertex 36.6805 -7.79669 0
      vertex 34.2904 -9.18808 0
      vertex 34.9607 -6.16451 0
    endloop
  endfacet
  facet normal 0 0 -1
    outer loop
      vertex 33.3591 -12.1417 0
      vertex 36.6805 -7.79669 0
      vertex 34.258 -15.2526 0
    endloop
  endfacet
  facet normal 0 0 -1
    outer loop
      vertex 36.6805 -7.79669 0
      vertex 33.3591 -12.1417 0
      vertex 34.2904 -9.18808 0
    endloop
  endfacet
  facet normal 0 0 -1
    outer loop
      vertex 34.258 -15.2526 0
      vertex 32.1739 -15.0029 0
      vertex 33.3591 -12.1417 0
    endloop
  endfacet
  facet normal -0 0 -1
    outer loop
      vertex 34.258 -15.2526 0
      vertex 30.7439 -17.75 0
      vertex 32.1739 -15.0029 0
    endloop
  endfacet
  facet normal 0 0 -1
    outer loop
      vertex 30.3381 -22.0419 0
      vertex 30.7439 -17.75 0
      vertex 34.258 -15.2526 0
    endloop
  endfacet
  facet normal 0 0 -1
    outer loop
      vertex 30.3381 -22.0419 0
      vertex 29.0799 -20.362 0
      vertex 30.7439 -17.75 0
    endloop
  endfacet
  facet normal -0 0 -1
    outer loop
      vertex 30.3381 -22.0419 0
      vertex 27.1946 -22.819 0
      vertex 29.0799 -20.362 0
    endloop
  endfacet
  facet normal 0 0 -1
    outer loop
      vertex 25.0924 -27.8679 0
      vertex 27.1946 -22.819 0
      vertex 30.3381 -22.0419 0
    endloop
  endfacet
  facet normal 0 0 -1
    outer loop
      vertex 27.1946 -22.819 0
      vertex 25.0924 -27.8679 0
      vertex 25.1023 -25.1023 0
    endloop
  endfacet
  facet normal 0 0 -1
    outer loop
      vertex 25.0924 -27.8679 0
      vertex 22.819 -27.1946 0
      vertex 25.1023 -25.1023 0
    endloop
  endfacet
  facet normal -0 0 -1
    outer loop
      vertex 25.0924 -27.8679 0
      vertex 20.362 -29.0799 0
      vertex 22.819 -27.1946 0
    endloop
  endfacet
  facet normal 0 0 -1
    outer loop
      vertex 18.75 -32.476 0
      vertex 20.362 -29.0799 0
      vertex 25.0924 -27.8679 0
    endloop
  endfacet
  facet normal 0 0 -1
    outer loop
      vertex 18.75 -32.476 0
      vertex 17.75 -30.7439 0
      vertex 20.362 -29.0799 0
    endloop
  endfacet
  facet normal 0 0 -1
    outer loop
      vertex 18.75 -32.476 0
      vertex 15.0029 -32.1739 0
      vertex 17.75 -30.7439 0
    endloop
  endfacet
  facet normal 0 0 -1
    outer loop
      vertex 11.5881 -35.6646 0
      vertex 15.0029 -32.1739 0
      vertex 18.75 -32.476 0
    endloop
  endfacet
  facet normal 0 0 -1
    outer loop
      vertex 15.0029 -32.1739 0
      vertex 11.5881 -35.6646 0
      vertex 12.1417 -33.3591 0
    endloop
  endfacet
  facet normal 0 0 -1
    outer loop
      vertex 11.5881 -35.6646 0
      vertex 9.18808 -34.2904 0
      vertex 12.1417 -33.3591 0
    endloop
  endfacet
  facet normal 0 0 -1
    outer loop
      vertex 11.5881 -35.6646 0
      vertex 6.16451 -34.9607 0
      vertex 9.18808 -34.2904 0
    endloop
  endfacet
  facet normal 0 0 -1
    outer loop
      vertex 3.91982 -37.2946 0
      vertex 6.16451 -34.9607 0
      vertex 11.5881 -35.6646 0
    endloop
  endfacet
  facet normal 0 0 -1
    outer loop
      vertex 3.91982 -37.2946 0
      vertex 3.09403 -35.3649 0
      vertex 6.16451 -34.9607 0
    endloop
  endfacet
  facet normal 0 0 -1
    outer loop
      vertex 3.91982 -37.2946 0
      vertex 0 -35.5 0
      vertex 3.09403 -35.3649 0
    endloop
  endfacet
  facet normal 0 0 -1
    outer loop
      vertex -3.91982 -37.2946 0
      vertex 0 -35.5 0
      vertex 3.91982 -37.2946 0
    endloop
  endfacet
  facet normal -0 0 -1
    outer loop
      vertex 0 -35.5 0
      vertex -3.91982 -37.2946 0
      vertex -3.09403 -35.3649 0
    endloop
  endfacet
  facet normal 0 0 -1
    outer loop
      vertex -3.91982 -37.2946 0
      vertex -6.16451 -34.9607 0
      vertex -3.09403 -35.3649 0
    endloop
  endfacet
  facet normal 0 0 -1
    outer loop
      vertex -11.5881 -35.6646 0
      vertex -6.16451 -34.9607 0
      vertex -3.91982 -37.2946 0
    endloop
  endfacet
  facet normal -0 0 -1
    outer loop
      vertex -6.16451 -34.9607 0
      vertex -11.5881 -35.6646 0
      vertex -9.18808 -34.2904 0
    endloop
  endfacet
  facet normal 0 0 -1
    outer loop
      vertex -11.5881 -35.6646 0
      vertex -12.1417 -33.3591 0
      vertex -9.18808 -34.2904 0
    endloop
  endfacet
  facet normal 0 0 -1
    outer loop
      vertex -11.5881 -35.6646 0
      vertex -15.0029 -32.1739 0
      vertex -12.1417 -33.3591 0
    endloop
  endfacet
  facet normal 0 0 -1
    outer loop
      vertex -18.75 -32.476 0
      vertex -15.0029 -32.1739 0
      vertex -11.5881 -35.6646 0
    endloop
  endfacet
  facet normal -0 0 -1
    outer loop
      vertex -15.0029 -32.1739 0
      vertex -18.75 -32.476 0
      vertex -17.75 -30.7439 0
    endloop
  endfacet
  facet normal 0 0 -1
    outer loop
      vertex -18.75 -32.476 0
      vertex -20.362 -29.0799 0
      vertex -17.75 -30.7439 0
    endloop
  endfacet
  facet normal 0 0 -1
    outer loop
      vertex -25.0924 -27.8679 0
      vertex -20.362 -29.0799 0
      vertex -18.75 -32.476 0
    endloop
  endfacet
  facet normal 0 0 -1
    outer loop
      vertex -20.362 -29.0799 0
      vertex -25.0924 -27.8679 0
      vertex -22.819 -27.1946 0
    endloop
  endfacet
  facet normal 0 0 -1
    outer loop
      vertex -25.0924 -27.8679 0
      vertex -25.1023 -25.1023 0
      vertex -22.819 -27.1946 0
    endloop
  endfacet
  facet normal 0 0 -1
    outer loop
      vertex -25.0924 -27.8679 0
      vertex -27.1946 -22.819 0
      vertex -25.1023 -25.1023 0
    endloop
  endfacet
  facet normal 0 0 -1
    outer loop
      vertex -30.3381 -22.0419 0
      vertex -27.1946 -22.819 0
      vertex -25.0924 -27.8679 0
    endloop
  endfacet
  facet normal 0 0 -1
    outer loop
      vertex -27.1946 -22.819 0
      vertex -30.3381 -22.0419 0
      vertex -29.0799 -20.362 0
    endloop
  endfacet
  facet normal 0 0 -1
    outer loop
      vertex -30.3381 -22.0419 0
      vertex -30.7439 -17.75 0
      vertex -29.0799 -20.362 0
    endloop
  endfacet
  facet normal 0 0 -1
    outer loop
      vertex -34.258 -15.2526 0
      vertex -30.7439 -17.75 0
      vertex -30.3381 -22.0419 0
    endloop
  endfacet
  facet normal 0 0 -1
    outer loop
      vertex -30.7439 -17.75 0
      vertex -34.258 -15.2526 0
      vertex -32.1739 -15.0029 0
    endloop
  endfacet
  facet normal -0 0 -1
    outer loop
      vertex -32.1739 -15.0029 0
      vertex -34.258 -15.2526 0
      vertex -33.3591 -12.1417 0
    endloop
  endfacet
  facet normal 0 0 -1
    outer loop
      vertex -36.6805 -7.79669 0
      vertex -33.3591 -12.1417 0
      vertex -34.258 -15.2526 0
    endloop
  endfacet
  facet normal 0 0 -1
    outer loop
      vertex -33.3591 -12.1417 0
      vertex -36.6805 -7.79669 0
      vertex -34.2904 -9.18808 0
    endloop
  endfacet
  facet normal 0 0 -1
    outer loop
      vertex -34.2904 -9.18808 0
      vertex -36.6805 -7.79669 0
      vertex -34.9607 -6.16451 0
    endloop
  endfacet
  facet normal 0 0 -1
    outer loop
      vertex -37.5 0 0
      vertex -35.3649 -3.09403 0
      vertex -36.6805 -7.79669 0
    endloop
  endfacet
  facet normal -0 0 -1
    outer loop
      vertex -34.9607 -6.16451 0
      vertex -36.6805 -7.79669 0
      vertex -35.3649 -3.09403 0
    endloop
  endfacet
  facet normal 0 0 -1
    outer loop
      vertex 37.5 0 0
      vertex 35.3649 3.09403 0
      vertex 36.6805 7.79669 0
    endloop
  endfacet
  facet normal 0 0 -1
    outer loop
      vertex 34.9607 6.16451 0
      vertex 36.6805 7.79669 0
      vertex 35.3649 3.09403 0
    endloop
  endfacet
  facet normal 0 0 -1
    outer loop
      vertex 34.2904 9.18808 0
      vertex 36.6805 7.79669 0
      vertex 34.9607 6.16451 0
    endloop
  endfacet
  facet normal 0 0 -1
    outer loop
      vertex 33.3591 12.1417 0
      vertex 36.6805 7.79669 0
      vertex 34.2904 9.18808 0
    endloop
  endfacet
  facet normal 0 0 -1
    outer loop
      vertex 36.6805 7.79669 0
      vertex 33.3591 12.1417 0
      vertex 34.258 15.2526 0
    endloop
  endfacet
  facet normal 0 0 -1
    outer loop
      vertex 32.1739 15.0029 0
      vertex 34.258 15.2526 0
      vertex 33.3591 12.1417 0
    endloop
  endfacet
  facet normal 0 0 -1
    outer loop
      vertex 30.7439 17.75 0
      vertex 34.258 15.2526 0
      vertex 32.1739 15.0029 0
    endloop
  endfacet
  facet normal 0 0 -1
    outer loop
      vertex 30.7439 17.75 0
      vertex 30.3381 22.0419 0
      vertex 34.258 15.2526 0
    endloop
  endfacet
  facet normal 0 0 -1
    outer loop
      vertex 29.0799 20.362 0
      vertex 30.3381 22.0419 0
      vertex 30.7439 17.75 0
    endloop
  endfacet
  facet normal 0 0 -1
    outer loop
      vertex 27.1946 22.819 0
      vertex 30.3381 22.0419 0
      vertex 29.0799 20.362 0
    endloop
  endfacet
  facet normal 0 0 -1
    outer loop
      vertex 25.0924 27.8679 0
      vertex 27.1946 22.819 0
      vertex 25.1023 25.1023 0
    endloop
  endfacet
  facet normal 0 0 -1
    outer loop
      vertex 27.1946 22.819 0
      vertex 25.0924 27.8679 0
      vertex 30.3381 22.0419 0
    endloop
  endfacet
  facet normal 0 0 -1
    outer loop
      vertex 22.819 27.1946 0
      vertex 25.0924 27.8679 0
      vertex 25.1023 25.1023 0
    endloop
  endfacet
  facet normal 0 0 -1
    outer loop
      vertex 20.362 29.0799 0
      vertex 25.0924 27.8679 0
      vertex 22.819 27.1946 0
    endloop
  endfacet
  facet normal 0 0 -1
    outer loop
      vertex 20.362 29.0799 0
      vertex 18.75 32.476 0
      vertex 25.0924 27.8679 0
    endloop
  endfacet
  facet normal 0 0 -1
    outer loop
      vertex 17.75 30.7439 0
      vertex 18.75 32.476 0
      vertex 20.362 29.0799 0
    endloop
  endfacet
  facet normal 0 0 -1
    outer loop
      vertex 15.0029 32.1739 0
      vertex 18.75 32.476 0
      vertex 17.75 30.7439 0
    endloop
  endfacet
  facet normal 0 0 -1
    outer loop
      vertex 11.5881 35.6646 0
      vertex 15.0029 32.1739 0
      vertex 12.1417 33.3591 0
    endloop
  endfacet
  facet normal 0 0 -1
    outer loop
      vertex 15.0029 32.1739 0
      vertex 11.5881 35.6646 0
      vertex 18.75 32.476 0
    endloop
  endfacet
  facet normal 0 0 -1
    outer loop
      vertex 9.18808 34.2904 0
      vertex 11.5881 35.6646 0
      vertex 12.1417 33.3591 0
    endloop
  endfacet
  facet normal 0 0 -1
    outer loop
      vertex 6.16451 34.9607 0
      vertex 11.5881 35.6646 0
      vertex 9.18808 34.2904 0
    endloop
  endfacet
  facet normal 0 0 -1
    outer loop
      vertex 6.16451 34.9607 0
      vertex 3.91982 37.2946 0
      vertex 11.5881 35.6646 0
    endloop
  endfacet
  facet normal 0 0 -1
    outer loop
      vertex 3.09403 35.3649 0
      vertex 3.91982 37.2946 0
      vertex 6.16451 34.9607 0
    endloop
  endfacet
  facet normal 0 0 -1
    outer loop
      vertex 0 35.5 0
      vertex 3.91982 37.2946 0
      vertex 3.09403 35.3649 0
    endloop
  endfacet
  facet normal 0 0 -1
    outer loop
      vertex -3.91982 37.2946 0
      vertex 0 35.5 0
      vertex -3.09403 35.3649 0
    endloop
  endfacet
  facet normal 0 0 -1
    outer loop
      vertex 0 35.5 0
      vertex -3.91982 37.2946 0
      vertex 3.91982 37.2946 0
    endloop
  endfacet
  facet normal 0 0 -1
    outer loop
      vertex -6.16451 34.9607 0
      vertex -3.91982 37.2946 0
      vertex -3.09403 35.3649 0
    endloop
  endfacet
  facet normal 0 0 -1
    outer loop
      vertex -11.5881 35.6646 0
      vertex -6.16451 34.9607 0
      vertex -9.18808 34.2904 0
    endloop
  endfacet
  facet normal 0 0 -1
    outer loop
      vertex -6.16451 34.9607 0
      vertex -11.5881 35.6646 0
      vertex -3.91982 37.2946 0
    endloop
  endfacet
  facet normal 0 0 -1
    outer loop
      vertex -12.1417 33.3591 0
      vertex -11.5881 35.6646 0
      vertex -9.18808 34.2904 0
    endloop
  endfacet
  facet normal 0 0 -1
    outer loop
      vertex -15.0029 32.1739 0
      vertex -11.5881 35.6646 0
      vertex -12.1417 33.3591 0
    endloop
  endfacet
  facet normal 0 0 -1
    outer loop
      vertex -18.75 32.476 0
      vertex -15.0029 32.1739 0
      vertex -17.75 30.7439 0
    endloop
  endfacet
  facet normal 0 0 -1
    outer loop
      vertex -15.0029 32.1739 0
      vertex -18.75 32.476 0
      vertex -11.5881 35.6646 0
    endloop
  endfacet
  facet normal 0 0 -1
    outer loop
      vertex -20.362 29.0799 0
      vertex -18.75 32.476 0
      vertex -17.75 30.7439 0
    endloop
  endfacet
  facet normal 0 0 -1
    outer loop
      vertex -25.0924 27.8679 0
      vertex -20.362 29.0799 0
      vertex -22.819 27.1946 0
    endloop
  endfacet
  facet normal -0 0 -1
    outer loop
      vertex -20.362 29.0799 0
      vertex -25.0924 27.8679 0
      vertex -18.75 32.476 0
    endloop
  endfacet
  facet normal 0 0 -1
    outer loop
      vertex -25.1023 25.1023 0
      vertex -25.0924 27.8679 0
      vertex -22.819 27.1946 0
    endloop
  endfacet
  facet normal 0 0 -1
    outer loop
      vertex -27.1946 22.819 0
      vertex -25.0924 27.8679 0
      vertex -25.1023 25.1023 0
    endloop
  endfacet
  facet normal 0 0 -1
    outer loop
      vertex -30.3381 22.0419 0
      vertex -27.1946 22.819 0
      vertex -29.0799 20.362 0
    endloop
  endfacet
  facet normal -0 0 -1
    outer loop
      vertex -27.1946 22.819 0
      vertex -30.3381 22.0419 0
      vertex -25.0924 27.8679 0
    endloop
  endfacet
  facet normal 0 0 -1
    outer loop
      vertex -30.7439 17.75 0
      vertex -30.3381 22.0419 0
      vertex -29.0799 20.362 0
    endloop
  endfacet
  facet normal 0 0 -1
    outer loop
      vertex -34.258 15.2526 0
      vertex -30.7439 17.75 0
      vertex -32.1739 15.0029 0
    endloop
  endfacet
  facet normal 0 0 -1
    outer loop
      vertex -34.258 15.2526 0
      vertex -32.1739 15.0029 0
      vertex -33.3591 12.1417 0
    endloop
  endfacet
  facet normal -0 0 -1
    outer loop
      vertex -30.7439 17.75 0
      vertex -34.258 15.2526 0
      vertex -30.3381 22.0419 0
    endloop
  endfacet
  facet normal 0 0 -1
    outer loop
      vertex -36.6805 7.79669 0
      vertex -33.3591 12.1417 0
      vertex -34.2904 9.18808 0
    endloop
  endfacet
  facet normal 0 0 -1
    outer loop
      vertex -36.6805 7.79669 0
      vertex -34.2904 9.18808 0
      vertex -34.9607 6.16451 0
    endloop
  endfacet
  facet normal 0 0 -1
    outer loop
      vertex -36.6805 7.79669 0
      vertex -34.9607 6.16451 0
      vertex -35.3649 3.09403 0
    endloop
  endfacet
  facet normal 0 0 -1
    outer loop
      vertex -35.3649 -3.09403 0
      vertex -37.5 0 0
      vertex -35.5 0 0
    endloop
  endfacet
  facet normal 0 0 -1
    outer loop
      vertex -35.5 0 0
      vertex -37.5 0 0
      vertex -35.3649 3.09403 0
    endloop
  endfacet
  facet normal -0 0 -1
    outer loop
      vertex -33.3591 12.1417 0
      vertex -36.6805 7.79669 0
      vertex -34.258 15.2526 0
    endloop
  endfacet
  facet normal -0 0 -1
    outer loop
      vertex -35.3649 3.09403 0
      vertex -37.5 0 0
      vertex -36.6805 7.79669 0
    endloop
  endfacet
  facet normal 0.866025 0.5 0
    outer loop
      vertex 34.258 15.2526 20
      vertex 30.3381 22.0419 0
      vertex 30.3381 22.0419 20
    endloop
  endfacet
  facet normal 0.866025 0.5 0
    outer loop
      vertex 30.3381 22.0419 0
      vertex 34.258 15.2526 20
      vertex 34.258 15.2526 0
    endloop
  endfacet
  facet normal 0.406737 0.913545 -0
    outer loop
      vertex 18.75 32.476 0
      vertex 11.5881 35.6646 20
      vertex 18.75 32.476 20
    endloop
  endfacet
  facet normal 0.406737 0.913545 0
    outer loop
      vertex 11.5881 35.6646 20
      vertex 18.75 32.476 0
      vertex 11.5881 35.6646 0
    endloop
  endfacet
  facet normal 0.207912 0.978148 -0
    outer loop
      vertex 11.5881 35.6646 0
      vertex 3.91982 37.2946 20
      vertex 11.5881 35.6646 20
    endloop
  endfacet
  facet normal 0.207912 0.978148 0
    outer loop
      vertex 3.91982 37.2946 20
      vertex 11.5881 35.6646 0
      vertex 3.91982 37.2946 0
    endloop
  endfacet
  facet normal 0.587785 0.809017 -0
    outer loop
      vertex 25.0924 27.8679 0
      vertex 18.75 32.476 20
      vertex 25.0924 27.8679 20
    endloop
  endfacet
  facet normal 0.587785 0.809017 0
    outer loop
      vertex 18.75 32.476 20
      vertex 25.0924 27.8679 0
      vertex 18.75 32.476 0
    endloop
  endfacet
  facet normal -0.866025 0.5 0
    outer loop
      vertex -34.258 15.2526 0
      vertex -30.3381 22.0419 20
      vertex -30.3381 22.0419 0
    endloop
  endfacet
  facet normal -0.866025 0.5 0
    outer loop
      vertex -30.3381 22.0419 20
      vertex -34.258 15.2526 0
      vertex -34.258 15.2526 20
    endloop
  endfacet
  facet normal -0.743145 0.669131 0
    outer loop
      vertex -30.3381 22.0419 0
      vertex -25.0924 27.8679 20
      vertex -25.0924 27.8679 0
    endloop
  endfacet
  facet normal -0.743145 0.669131 0
    outer loop
      vertex -25.0924 27.8679 20
      vertex -30.3381 22.0419 0
      vertex -30.3381 22.0419 20
    endloop
  endfacet
  facet normal -0.951057 0.309017 0
    outer loop
      vertex -36.6805 7.79669 0
      vertex -34.258 15.2526 20
      vertex -34.258 15.2526 0
    endloop
  endfacet
  facet normal -0.951057 0.309017 0
    outer loop
      vertex -34.258 15.2526 20
      vertex -36.6805 7.79669 0
      vertex -36.6805 7.79669 20
    endloop
  endfacet
  facet normal -0 0 1
    outer loop
      vertex 35.3649 3.09403 20
      vertex 37.5 0 20
      vertex 36.6805 7.79669 20
    endloop
  endfacet
  facet normal 0 0 1
    outer loop
      vertex 35.3649 -3.09403 20
      vertex 37.5 0 20
      vertex 35.5 0 20
    endloop
  endfacet
  facet normal 0 0 1
    outer loop
      vertex 37.5 0 20
      vertex 35.3649 3.09403 20
      vertex 35.5 0 20
    endloop
  endfacet
  facet normal 0 0 1
    outer loop
      vertex 36.6805 7.79669 20
      vertex 34.9607 6.16451 20
      vertex 35.3649 3.09403 20
    endloop
  endfacet
  facet normal 0 0 1
    outer loop
      vertex 36.6805 7.79669 20
      vertex 34.2904 9.18808 20
      vertex 34.9607 6.16451 20
    endloop
  endfacet
  facet normal -0 0 1
    outer loop
      vertex 33.3591 12.1417 20
      vertex 36.6805 7.79669 20
      vertex 34.258 15.2526 20
    endloop
  endfacet
  facet normal 0 0 1
    outer loop
      vertex 36.6805 7.79669 20
      vertex 33.3591 12.1417 20
      vertex 34.2904 9.18808 20
    endloop
  endfacet
  facet normal 0 0 1
    outer loop
      vertex 34.258 15.2526 20
      vertex 32.1739 15.0029 20
      vertex 33.3591 12.1417 20
    endloop
  endfacet
  facet normal 0 0 1
    outer loop
      vertex 34.258 15.2526 20
      vertex 30.7439 17.75 20
      vertex 32.1739 15.0029 20
    endloop
  endfacet
  facet normal 0 0 1
    outer loop
      vertex 30.3381 22.0419 20
      vertex 30.7439 17.75 20
      vertex 34.258 15.2526 20
    endloop
  endfacet
  facet normal 0 0 1
    outer loop
      vertex 30.3381 22.0419 20
      vertex 29.0799 20.362 20
      vertex 30.7439 17.75 20
    endloop
  endfacet
  facet normal 0 0 1
    outer loop
      vertex 30.3381 22.0419 20
      vertex 27.1946 22.819 20
      vertex 29.0799 20.362 20
    endloop
  endfacet
  facet normal 0 0 1
    outer loop
      vertex 25.0924 27.8679 20
      vertex 27.1946 22.819 20
      vertex 30.3381 22.0419 20
    endloop
  endfacet
  facet normal 0 0 1
    outer loop
      vertex 27.1946 22.819 20
      vertex 25.0924 27.8679 20
      vertex 25.1023 25.1023 20
    endloop
  endfacet
  facet normal 0 0 1
    outer loop
      vertex 25.0924 27.8679 20
      vertex 22.819 27.1946 20
      vertex 25.1023 25.1023 20
    endloop
  endfacet
  facet normal 0 0 1
    outer loop
      vertex 25.0924 27.8679 20
      vertex 20.362 29.0799 20
      vertex 22.819 27.1946 20
    endloop
  endfacet
  facet normal 0 0 1
    outer loop
      vertex 18.75 32.476 20
      vertex 20.362 29.0799 20
      vertex 25.0924 27.8679 20
    endloop
  endfacet
  facet normal 0 0 1
    outer loop
      vertex 18.75 32.476 20
      vertex 17.75 30.7439 20
      vertex 20.362 29.0799 20
    endloop
  endfacet
  facet normal 0 0 1
    outer loop
      vertex 18.75 32.476 20
      vertex 15.0029 32.1739 20
      vertex 17.75 30.7439 20
    endloop
  endfacet
  facet normal 0 0 1
    outer loop
      vertex 11.5881 35.6646 20
      vertex 15.0029 32.1739 20
      vertex 18.75 32.476 20
    endloop
  endfacet
  facet normal 0 0 1
    outer loop
      vertex 15.0029 32.1739 20
      vertex 11.5881 35.6646 20
      vertex 12.1417 33.3591 20
    endloop
  endfacet
  facet normal 0 0 1
    outer loop
      vertex 11.5881 35.6646 20
      vertex 9.18808 34.2904 20
      vertex 12.1417 33.3591 20
    endloop
  endfacet
  facet normal 0 0 1
    outer loop
      vertex 11.5881 35.6646 20
      vertex 6.16451 34.9607 20
      vertex 9.18808 34.2904 20
    endloop
  endfacet
  facet normal 0 0 1
    outer loop
      vertex 3.91982 37.2946 20
      vertex 6.16451 34.9607 20
      vertex 11.5881 35.6646 20
    endloop
  endfacet
  facet normal 0 0 1
    outer loop
      vertex 3.91982 37.2946 20
      vertex 3.09403 35.3649 20
      vertex 6.16451 34.9607 20
    endloop
  endfacet
  facet normal 0 0 1
    outer loop
      vertex 3.91982 37.2946 20
      vertex 0 35.5 20
      vertex 3.09403 35.3649 20
    endloop
  endfacet
  facet normal -0 0 1
    outer loop
      vertex -3.91982 37.2946 20
      vertex 0 35.5 20
      vertex 3.91982 37.2946 20
    endloop
  endfacet
  facet normal 0 0 1
    outer loop
      vertex 0 35.5 20
      vertex -3.91982 37.2946 20
      vertex -3.09403 35.3649 20
    endloop
  endfacet
  facet normal 0 0 1
    outer loop
      vertex -3.91982 37.2946 20
      vertex -6.16451 34.9607 20
      vertex -3.09403 35.3649 20
    endloop
  endfacet
  facet normal -0 0 1
    outer loop
      vertex -11.5881 35.6646 20
      vertex -6.16451 34.9607 20
      vertex -3.91982 37.2946 20
    endloop
  endfacet
  facet normal 0 0 1
    outer loop
      vertex -6.16451 34.9607 20
      vertex -11.5881 35.6646 20
      vertex -9.18808 34.2904 20
    endloop
  endfacet
  facet normal 0 0 1
    outer loop
      vertex -11.5881 35.6646 20
      vertex -12.1417 33.3591 20
      vertex -9.18808 34.2904 20
    endloop
  endfacet
  facet normal 0 0 1
    outer loop
      vertex -11.5881 35.6646 20
      vertex -15.0029 32.1739 20
      vertex -12.1417 33.3591 20
    endloop
  endfacet
  facet normal -0 0 1
    outer loop
      vertex -18.75 32.476 20
      vertex -15.0029 32.1739 20
      vertex -11.5881 35.6646 20
    endloop
  endfacet
  facet normal 0 0 1
    outer loop
      vertex -15.0029 32.1739 20
      vertex -18.75 32.476 20
      vertex -17.75 30.7439 20
    endloop
  endfacet
  facet normal 0 0 1
    outer loop
      vertex -18.75 32.476 20
      vertex -20.362 29.0799 20
      vertex -17.75 30.7439 20
    endloop
  endfacet
  facet normal 0 0 1
    outer loop
      vertex -25.0924 27.8679 20
      vertex -20.362 29.0799 20
      vertex -18.75 32.476 20
    endloop
  endfacet
  facet normal 0 0 1
    outer loop
      vertex -20.362 29.0799 20
      vertex -25.0924 27.8679 20
      vertex -22.819 27.1946 20
    endloop
  endfacet
  facet normal 0 0 1
    outer loop
      vertex -25.0924 27.8679 20
      vertex -25.1023 25.1023 20
      vertex -22.819 27.1946 20
    endloop
  endfacet
  facet normal 0 0 1
    outer loop
      vertex -25.0924 27.8679 20
      vertex -27.1946 22.819 20
      vertex -25.1023 25.1023 20
    endloop
  endfacet
  facet normal 0 0 1
    outer loop
      vertex -30.3381 22.0419 20
      vertex -27.1946 22.819 20
      vertex -25.0924 27.8679 20
    endloop
  endfacet
  facet normal 0 0 1
    outer loop
      vertex -27.1946 22.819 20
      vertex -30.3381 22.0419 20
      vertex -29.0799 20.362 20
    endloop
  endfacet
  facet normal 0 0 1
    outer loop
      vertex -30.3381 22.0419 20
      vertex -30.7439 17.75 20
      vertex -29.0799 20.362 20
    endloop
  endfacet
  facet normal 0 0 1
    outer loop
      vertex -34.258 15.2526 20
      vertex -30.7439 17.75 20
      vertex -30.3381 22.0419 20
    endloop
  endfacet
  facet normal 0 0 1
    outer loop
      vertex -30.7439 17.75 20
      vertex -34.258 15.2526 20
      vertex -32.1739 15.0029 20
    endloop
  endfacet
  facet normal 0 0 1
    outer loop
      vertex -32.1739 15.0029 20
      vertex -34.258 15.2526 20
      vertex -33.3591 12.1417 20
    endloop
  endfacet
  facet normal 0 0 1
    outer loop
      vertex -36.6805 7.79669 20
      vertex -33.3591 12.1417 20
      vertex -34.258 15.2526 20
    endloop
  endfacet
  facet normal 0 0 1
    outer loop
      vertex -33.3591 12.1417 20
      vertex -36.6805 7.79669 20
      vertex -34.2904 9.18808 20
    endloop
  endfacet
  facet normal 0 0 1
    outer loop
      vertex -34.2904 9.18808 20
      vertex -36.6805 7.79669 20
      vertex -34.9607 6.16451 20
    endloop
  endfacet
  facet normal 0 0 1
    outer loop
      vertex -37.5 0 20
      vertex -35.3649 3.09403 20
      vertex -36.6805 7.79669 20
    endloop
  endfacet
  facet normal 0 0 1
    outer loop
      vertex -34.9607 6.16451 20
      vertex -36.6805 7.79669 20
      vertex -35.3649 3.09403 20
    endloop
  endfacet
  facet normal 0 0 1
    outer loop
      vertex 37.5 0 20
      vertex 35.3649 -3.09403 20
      vertex 36.6805 -7.79669 20
    endloop
  endfacet
  facet normal -0 0 1
    outer loop
      vertex 34.9607 -6.16451 20
      vertex 36.6805 -7.79669 20
      vertex 35.3649 -3.09403 20
    endloop
  endfacet
  facet normal 0 0 1
    outer loop
      vertex 34.2904 -9.18808 20
      vertex 36.6805 -7.79669 20
      vertex 34.9607 -6.16451 20
    endloop
  endfacet
  facet normal 0 0 1
    outer loop
      vertex 33.3591 -12.1417 20
      vertex 36.6805 -7.79669 20
      vertex 34.2904 -9.18808 20
    endloop
  endfacet
  facet normal 0 0 1
    outer loop
      vertex 36.6805 -7.79669 20
      vertex 33.3591 -12.1417 20
      vertex 34.258 -15.2526 20
    endloop
  endfacet
  facet normal -0 0 1
    outer loop
      vertex 32.1739 -15.0029 20
      vertex 34.258 -15.2526 20
      vertex 33.3591 -12.1417 20
    endloop
  endfacet
  facet normal 0 0 1
    outer loop
      vertex 30.7439 -17.75 20
      vertex 34.258 -15.2526 20
      vertex 32.1739 -15.0029 20
    endloop
  endfacet
  facet normal -0 0 1
    outer loop
      vertex 30.7439 -17.75 20
      vertex 30.3381 -22.0419 20
      vertex 34.258 -15.2526 20
    endloop
  endfacet
  facet normal -0 0 1
    outer loop
      vertex 29.0799 -20.362 20
      vertex 30.3381 -22.0419 20
      vertex 30.7439 -17.75 20
    endloop
  endfacet
  facet normal 0 0 1
    outer loop
      vertex 27.1946 -22.819 20
      vertex 30.3381 -22.0419 20
      vertex 29.0799 -20.362 20
    endloop
  endfacet
  facet normal 0 0 1
    outer loop
      vertex 25.0924 -27.8679 20
      vertex 27.1946 -22.819 20
      vertex 25.1023 -25.1023 20
    endloop
  endfacet
  facet normal -0 0 1
    outer loop
      vertex 27.1946 -22.819 20
      vertex 25.0924 -27.8679 20
      vertex 30.3381 -22.0419 20
    endloop
  endfacet
  facet normal -0 0 1
    outer loop
      vertex 22.819 -27.1946 20
      vertex 25.0924 -27.8679 20
      vertex 25.1023 -25.1023 20
    endloop
  endfacet
  facet normal 0 0 1
    outer loop
      vertex 20.362 -29.0799 20
      vertex 25.0924 -27.8679 20
      vertex 22.819 -27.1946 20
    endloop
  endfacet
  facet normal -0 0 1
    outer loop
      vertex 20.362 -29.0799 20
      vertex 18.75 -32.476 20
      vertex 25.0924 -27.8679 20
    endloop
  endfacet
  facet normal -0 0 1
    outer loop
      vertex 17.75 -30.7439 20
      vertex 18.75 -32.476 20
      vertex 20.362 -29.0799 20
    endloop
  endfacet
  facet normal -0 0 1
    outer loop
      vertex 15.0029 -32.1739 20
      vertex 18.75 -32.476 20
      vertex 17.75 -30.7439 20
    endloop
  endfacet
  facet normal 0 0 1
    outer loop
      vertex 11.5881 -35.6646 20
      vertex 15.0029 -32.1739 20
      vertex 12.1417 -33.3591 20
    endloop
  endfacet
  facet normal 0 0 1
    outer loop
      vertex 15.0029 -32.1739 20
      vertex 11.5881 -35.6646 20
      vertex 18.75 -32.476 20
    endloop
  endfacet
  facet normal -0 0 1
    outer loop
      vertex 9.18808 -34.2904 20
      vertex 11.5881 -35.6646 20
      vertex 12.1417 -33.3591 20
    endloop
  endfacet
  facet normal -0 0 1
    outer loop
      vertex 6.16451 -34.9607 20
      vertex 11.5881 -35.6646 20
      vertex 9.18808 -34.2904 20
    endloop
  endfacet
  facet normal 0 0 1
    outer loop
      vertex 6.16451 -34.9607 20
      vertex 3.91982 -37.2946 20
      vertex 11.5881 -35.6646 20
    endloop
  endfacet
  facet normal -0 0 1
    outer loop
      vertex 3.09403 -35.3649 20
      vertex 3.91982 -37.2946 20
      vertex 6.16451 -34.9607 20
    endloop
  endfacet
  facet normal -0 0 1
    outer loop
      vertex 0 -35.5 20
      vertex 3.91982 -37.2946 20
      vertex 3.09403 -35.3649 20
    endloop
  endfacet
  facet normal 0 0 1
    outer loop
      vertex -3.91982 -37.2946 20
      vertex 0 -35.5 20
      vertex -3.09403 -35.3649 20
    endloop
  endfacet
  facet normal 0 0 1
    outer loop
      vertex 0 -35.5 20
      vertex -3.91982 -37.2946 20
      vertex 3.91982 -37.2946 20
    endloop
  endfacet
  facet normal 0 0 1
    outer loop
      vertex -6.16451 -34.9607 20
      vertex -3.91982 -37.2946 20
      vertex -3.09403 -35.3649 20
    endloop
  endfacet
  facet normal 0 0 1
    outer loop
      vertex -11.5881 -35.6646 20
      vertex -6.16451 -34.9607 20
      vertex -9.18808 -34.2904 20
    endloop
  endfacet
  facet normal 0 0 1
    outer loop
      vertex -6.16451 -34.9607 20
      vertex -11.5881 -35.6646 20
      vertex -3.91982 -37.2946 20
    endloop
  endfacet
  facet normal 0 0 1
    outer loop
      vertex -12.1417 -33.3591 20
      vertex -11.5881 -35.6646 20
      vertex -9.18808 -34.2904 20
    endloop
  endfacet
  facet normal 0 0 1
    outer loop
      vertex -15.0029 -32.1739 20
      vertex -11.5881 -35.6646 20
      vertex -12.1417 -33.3591 20
    endloop
  endfacet
  facet normal 0 0 1
    outer loop
      vertex -18.75 -32.476 20
      vertex -15.0029 -32.1739 20
      vertex -17.75 -30.7439 20
    endloop
  endfacet
  facet normal 0 0 1
    outer loop
      vertex -15.0029 -32.1739 20
      vertex -18.75 -32.476 20
      vertex -11.5881 -35.6646 20
    endloop
  endfacet
  facet normal 0 0 1
    outer loop
      vertex -20.362 -29.0799 20
      vertex -18.75 -32.476 20
      vertex -17.75 -30.7439 20
    endloop
  endfacet
  facet normal -0 0 1
    outer loop
      vertex -25.0924 -27.8679 20
      vertex -20.362 -29.0799 20
      vertex -22.819 -27.1946 20
    endloop
  endfacet
  facet normal 0 0 1
    outer loop
      vertex -20.362 -29.0799 20
      vertex -25.0924 -27.8679 20
      vertex -18.75 -32.476 20
    endloop
  endfacet
  facet normal 0 0 1
    outer loop
      vertex -25.1023 -25.1023 20
      vertex -25.0924 -27.8679 20
      vertex -22.819 -27.1946 20
    endloop
  endfacet
  facet normal 0 0 1
    outer loop
      vertex -27.1946 -22.819 20
      vertex -25.0924 -27.8679 20
      vertex -25.1023 -25.1023 20
    endloop
  endfacet
  facet normal -0 0 1
    outer loop
      vertex -30.3381 -22.0419 20
      vertex -27.1946 -22.819 20
      vertex -29.0799 -20.362 20
    endloop
  endfacet
  facet normal 0 0 1
    outer loop
      vertex -27.1946 -22.819 20
      vertex -30.3381 -22.0419 20
      vertex -25.0924 -27.8679 20
    endloop
  endfacet
  facet normal 0 0 1
    outer loop
      vertex -30.7439 -17.75 20
      vertex -30.3381 -22.0419 20
      vertex -29.0799 -20.362 20
    endloop
  endfacet
  facet normal -0 0 1
    outer loop
      vertex -34.258 -15.2526 20
      vertex -30.7439 -17.75 20
      vertex -32.1739 -15.0029 20
    endloop
  endfacet
  facet normal 0 0 1
    outer loop
      vertex -34.258 -15.2526 20
      vertex -32.1739 -15.0029 20
      vertex -33.3591 -12.1417 20
    endloop
  endfacet
  facet normal 0 0 1
    outer loop
      vertex -30.7439 -17.75 20
      vertex -34.258 -15.2526 20
      vertex -30.3381 -22.0419 20
    endloop
  endfacet
  facet normal 0 0 1
    outer loop
      vertex -36.6805 -7.79669 20
      vertex -33.3591 -12.1417 20
      vertex -34.2904 -9.18808 20
    endloop
  endfacet
  facet normal -0 0 1
    outer loop
      vertex -36.6805 -7.79669 20
      vertex -34.2904 -9.18808 20
      vertex -34.9607 -6.16451 20
    endloop
  endfacet
  facet normal 0 0 1
    outer loop
      vertex -36.6805 -7.79669 20
      vertex -34.9607 -6.16451 20
      vertex -35.3649 -3.09403 20
    endloop
  endfacet
  facet normal 0 0 1
    outer loop
      vertex -35.3649 3.09403 20
      vertex -37.5 0 20
      vertex -35.5 0 20
    endloop
  endfacet
  facet normal 0 0 1
    outer loop
      vertex -35.5 0 20
      vertex -37.5 0 20
      vertex -35.3649 -3.09403 20
    endloop
  endfacet
  facet normal 0 0 1
    outer loop
      vertex -33.3591 -12.1417 20
      vertex -36.6805 -7.79669 20
      vertex -34.258 -15.2526 20
    endloop
  endfacet
  facet normal 0 0 1
    outer loop
      vertex -35.3649 -3.09403 20
      vertex -37.5 0 20
      vertex -36.6805 -7.79669 20
    endloop
  endfacet
  facet normal -0.207912 0.978148 0
    outer loop
      vertex -3.91982 37.2946 0
      vertex -11.5881 35.6646 20
      vertex -3.91982 37.2946 20
    endloop
  endfacet
  facet normal -0.207912 0.978148 0
    outer loop
      vertex -11.5881 35.6646 20
      vertex -3.91982 37.2946 0
      vertex -11.5881 35.6646 0
    endloop
  endfacet
  facet normal 0.994522 -0.104529 0
    outer loop
      vertex 36.6805 -7.79669 20
      vertex 37.5 0 0
      vertex 37.5 0 20
    endloop
  endfacet
  facet normal 0.994522 -0.104529 0
    outer loop
      vertex 37.5 0 0
      vertex 36.6805 -7.79669 20
      vertex 36.6805 -7.79669 0
    endloop
  endfacet
  facet normal -0.207912 -0.978148 0
    outer loop
      vertex -11.5881 -35.6646 0
      vertex -3.91982 -37.2946 20
      vertex -11.5881 -35.6646 20
    endloop
  endfacet
  facet normal -0.207912 -0.978148 -0
    outer loop
      vertex -3.91982 -37.2946 20
      vertex -11.5881 -35.6646 0
      vertex -3.91982 -37.2946 0
    endloop
  endfacet
  facet normal 0.743145 -0.669131 0
    outer loop
      vertex 25.0924 -27.8679 20
      vertex 30.3381 -22.0419 0
      vertex 30.3381 -22.0419 20
    endloop
  endfacet
  facet normal 0.743145 -0.669131 0
    outer loop
      vertex 30.3381 -22.0419 0
      vertex 25.0924 -27.8679 20
      vertex 25.0924 -27.8679 0
    endloop
  endfacet
  facet normal 0.951057 -0.309017 0
    outer loop
      vertex 34.258 -15.2526 20
      vertex 36.6805 -7.79669 0
      vertex 36.6805 -7.79669 20
    endloop
  endfacet
  facet normal 0.951057 -0.309017 0
    outer loop
      vertex 36.6805 -7.79669 0
      vertex 34.258 -15.2526 20
      vertex 34.258 -15.2526 0
    endloop
  endfacet
  facet normal 0.866025 -0.5 0
    outer loop
      vertex 30.3381 -22.0419 20
      vertex 34.258 -15.2526 0
      vertex 34.258 -15.2526 20
    endloop
  endfacet
  facet normal 0.866025 -0.5 0
    outer loop
      vertex 34.258 -15.2526 0
      vertex 30.3381 -22.0419 20
      vertex 30.3381 -22.0419 0
    endloop
  endfacet
  facet normal -0.866025 -0.5 0
    outer loop
      vertex -30.3381 -22.0419 0
      vertex -34.258 -15.2526 20
      vertex -34.258 -15.2526 0
    endloop
  endfacet
  facet normal -0.866025 -0.5 0
    outer loop
      vertex -34.258 -15.2526 20
      vertex -30.3381 -22.0419 0
      vertex -30.3381 -22.0419 20
    endloop
  endfacet
  facet normal -0.994522 -0.104529 0
    outer loop
      vertex -36.6805 -7.79669 0
      vertex -37.5 0 20
      vertex -37.5 0 0
    endloop
  endfacet
  facet normal -0.994522 -0.104529 0
    outer loop
      vertex -37.5 0 20
      vertex -36.6805 -7.79669 0
      vertex -36.6805 -7.79669 20
    endloop
  endfacet
  facet normal -0.951057 -0.309017 0
    outer loop
      vertex -34.258 -15.2526 0
      vertex -36.6805 -7.79669 20
      vertex -36.6805 -7.79669 0
    endloop
  endfacet
  facet normal -0.951057 -0.309017 0
    outer loop
      vertex -36.6805 -7.79669 20
      vertex -34.258 -15.2526 0
      vertex -34.258 -15.2526 20
    endloop
  endfacet
  facet normal 0.207912 -0.978148 0
    outer loop
      vertex 3.91982 -37.2946 0
      vertex 11.5881 -35.6646 20
      vertex 3.91982 -37.2946 20
    endloop
  endfacet
  facet normal 0.207912 -0.978148 0
    outer loop
      vertex 11.5881 -35.6646 20
      vertex 3.91982 -37.2946 0
      vertex 11.5881 -35.6646 0
    endloop
  endfacet
  facet normal 0.587785 -0.809017 0
    outer loop
      vertex 18.75 -32.476 0
      vertex 25.0924 -27.8679 20
      vertex 18.75 -32.476 20
    endloop
  endfacet
  facet normal 0.587785 -0.809017 0
    outer loop
      vertex 25.0924 -27.8679 20
      vertex 18.75 -32.476 0
      vertex 25.0924 -27.8679 0
    endloop
  endfacet
  facet normal 0 -1 0
    outer loop
      vertex -3.91982 -37.2946 0
      vertex 3.91982 -37.2946 20
      vertex -3.91982 -37.2946 20
    endloop
  endfacet
  facet normal 0 -1 -0
    outer loop
      vertex 3.91982 -37.2946 20
      vertex -3.91982 -37.2946 0
      vertex 3.91982 -37.2946 0
    endloop
  endfacet
  facet normal -0.587785 -0.809017 0
    outer loop
      vertex -25.0924 -27.8679 0
      vertex -18.75 -32.476 20
      vertex -25.0924 -27.8679 20
    endloop
  endfacet
  facet normal -0.587785 -0.809017 -0
    outer loop
      vertex -18.75 -32.476 20
      vertex -25.0924 -27.8679 0
      vertex -18.75 -32.476 0
    endloop
  endfacet
  facet normal -0.406737 -0.913545 0
    outer loop
      vertex -18.75 -32.476 0
      vertex -11.5881 -35.6646 20
      vertex -18.75 -32.476 20
    endloop
  endfacet
  facet normal -0.406737 -0.913545 -0
    outer loop
      vertex -11.5881 -35.6646 20
      vertex -18.75 -32.476 0
      vertex -11.5881 -35.6646 0
    endloop
  endfacet
  facet normal -0.743145 -0.669131 0
    outer loop
      vertex -25.0924 -27.8679 0
      vertex -30.3381 -22.0419 20
      vertex -30.3381 -22.0419 0
    endloop
  endfacet
  facet normal -0.743145 -0.669131 0
    outer loop
      vertex -30.3381 -22.0419 20
      vertex -25.0924 -27.8679 0
      vertex -25.0924 -27.8679 20
    endloop
  endfacet
  facet normal 0.406737 -0.913545 0
    outer loop
      vertex 11.5881 -35.6646 0
      vertex 18.75 -32.476 20
      vertex 11.5881 -35.6646 20
    endloop
  endfacet
  facet normal 0.406737 -0.913545 0
    outer loop
      vertex 18.75 -32.476 20
      vertex 11.5881 -35.6646 0
      vertex 18.75 -32.476 0
    endloop
  endfacet
  facet normal -0.976296 -0.216439 0
    outer loop
      vertex 34.9607 6.16451 0
      vertex 34.2904 9.18808 20
      vertex 34.2904 9.18808 0
    endloop
  endfacet
  facet normal -0.976296 -0.216439 0
    outer loop
      vertex 34.2904 9.18808 20
      vertex 34.9607 6.16451 0
      vertex 34.9607 6.16451 20
    endloop
  endfacet
  facet normal -0.999048 -0.0436199 0
    outer loop
      vertex 35.5 0 0
      vertex 35.3649 3.09403 20
      vertex 35.3649 3.09403 0
    endloop
  endfacet
  facet normal -0.999048 -0.0436199 0
    outer loop
      vertex 35.3649 3.09403 20
      vertex 35.5 0 0
      vertex 35.5 0 20
    endloop
  endfacet
  facet normal 0.999048 -0.0436199 0
    outer loop
      vertex -35.5 0 20
      vertex -35.3649 3.09403 0
      vertex -35.3649 3.09403 20
    endloop
  endfacet
  facet normal 0.999048 -0.0436199 0
    outer loop
      vertex -35.3649 3.09403 0
      vertex -35.5 0 20
      vertex -35.5 0 0
    endloop
  endfacet
  facet normal -0.0436199 -0.999048 0
    outer loop
      vertex 0 35.5 0
      vertex 3.09403 35.3649 20
      vertex 0 35.5 20
    endloop
  endfacet
  facet normal -0.0436199 -0.999048 -0
    outer loop
      vertex 3.09403 35.3649 20
      vertex 0 35.5 0
      vertex 3.09403 35.3649 0
    endloop
  endfacet
  facet normal -0.737278 -0.67559 0
    outer loop
      vertex 27.1946 22.819 0
      vertex 25.1023 25.1023 20
      vertex 25.1023 25.1023 0
    endloop
  endfacet
  facet normal -0.737278 -0.67559 0
    outer loop
      vertex 25.1023 25.1023 20
      vertex 27.1946 22.819 0
      vertex 27.1946 22.819 20
    endloop
  endfacet
  facet normal 0.67559 -0.737278 0
    outer loop
      vertex -25.1023 25.1023 0
      vertex -22.819 27.1946 20
      vertex -25.1023 25.1023 20
    endloop
  endfacet
  facet normal 0.67559 -0.737278 0
    outer loop
      vertex -22.819 27.1946 20
      vertex -25.1023 25.1023 0
      vertex -22.819 27.1946 0
    endloop
  endfacet
  facet normal 0.300706 -0.953717 0
    outer loop
      vertex -12.1417 33.3591 0
      vertex -9.18808 34.2904 20
      vertex -12.1417 33.3591 20
    endloop
  endfacet
  facet normal 0.300706 -0.953717 0
    outer loop
      vertex -9.18808 34.2904 20
      vertex -12.1417 33.3591 0
      vertex -9.18808 34.2904 0
    endloop
  endfacet
  facet normal 0.843392 0.537299 0
    outer loop
      vertex -29.0799 -20.362 20
      vertex -30.7439 -17.75 0
      vertex -30.7439 -17.75 20
    endloop
  endfacet
  facet normal 0.843392 0.537299 0
    outer loop
      vertex -30.7439 -17.75 0
      vertex -29.0799 -20.362 20
      vertex -29.0799 -20.362 0
    endloop
  endfacet
  facet normal -0.953717 -0.300706 0
    outer loop
      vertex 34.2904 9.18808 0
      vertex 33.3591 12.1417 20
      vertex 33.3591 12.1417 0
    endloop
  endfacet
  facet normal -0.953717 -0.300706 0
    outer loop
      vertex 33.3591 12.1417 20
      vertex 34.2904 9.18808 0
      vertex 34.2904 9.18808 20
    endloop
  endfacet
  facet normal -0.382683 -0.92388 0
    outer loop
      vertex 12.1417 33.3591 0
      vertex 15.0029 32.1739 20
      vertex 12.1417 33.3591 20
    endloop
  endfacet
  facet normal -0.382683 -0.92388 -0
    outer loop
      vertex 15.0029 32.1739 20
      vertex 12.1417 33.3591 0
      vertex 15.0029 32.1739 0
    endloop
  endfacet
  facet normal 0.887011 -0.461749 0
    outer loop
      vertex -32.1739 15.0029 20
      vertex -30.7439 17.75 0
      vertex -30.7439 17.75 20
    endloop
  endfacet
  facet normal 0.887011 -0.461749 0
    outer loop
      vertex -30.7439 17.75 0
      vertex -32.1739 15.0029 20
      vertex -32.1739 15.0029 0
    endloop
  endfacet
  facet normal 0.843392 -0.537299 0
    outer loop
      vertex -30.7439 17.75 20
      vertex -29.0799 20.362 0
      vertex -29.0799 20.362 20
    endloop
  endfacet
  facet normal 0.843392 -0.537299 0
    outer loop
      vertex -29.0799 20.362 0
      vertex -30.7439 17.75 20
      vertex -30.7439 17.75 0
    endloop
  endfacet
  facet normal -0.843392 0.537299 0
    outer loop
      vertex 29.0799 -20.362 0
      vertex 30.7439 -17.75 20
      vertex 30.7439 -17.75 0
    endloop
  endfacet
  facet normal -0.843392 0.537299 0
    outer loop
      vertex 30.7439 -17.75 20
      vertex 29.0799 -20.362 0
      vertex 29.0799 -20.362 20
    endloop
  endfacet
  facet normal -0.216439 0.976296 0
    outer loop
      vertex 9.18808 -34.2904 0
      vertex 6.16451 -34.9607 20
      vertex 9.18808 -34.2904 20
    endloop
  endfacet
  facet normal -0.216439 0.976296 0
    outer loop
      vertex 6.16451 -34.9607 20
      vertex 9.18808 -34.2904 0
      vertex 6.16451 -34.9607 0
    endloop
  endfacet
  facet normal -0.67559 0.737278 0
    outer loop
      vertex 25.1023 -25.1023 0
      vertex 22.819 -27.1946 20
      vertex 25.1023 -25.1023 20
    endloop
  endfacet
  facet normal -0.67559 0.737278 0
    outer loop
      vertex 22.819 -27.1946 20
      vertex 25.1023 -25.1023 0
      vertex 22.819 -27.1946 0
    endloop
  endfacet
  facet normal -0.953717 0.300706 0
    outer loop
      vertex 33.3591 -12.1417 0
      vertex 34.2904 -9.18808 20
      vertex 34.2904 -9.18808 0
    endloop
  endfacet
  facet normal -0.953717 0.300706 0
    outer loop
      vertex 34.2904 -9.18808 20
      vertex 33.3591 -12.1417 0
      vertex 33.3591 -12.1417 20
    endloop
  endfacet
  facet normal 0.300706 0.953717 -0
    outer loop
      vertex -9.18808 -34.2904 0
      vertex -12.1417 -33.3591 20
      vertex -9.18808 -34.2904 20
    endloop
  endfacet
  facet normal 0.300706 0.953717 0
    outer loop
      vertex -12.1417 -33.3591 20
      vertex -9.18808 -34.2904 0
      vertex -12.1417 -33.3591 0
    endloop
  endfacet
  facet normal 0.461749 0.887011 -0
    outer loop
      vertex -15.0029 -32.1739 0
      vertex -17.75 -30.7439 20
      vertex -15.0029 -32.1739 20
    endloop
  endfacet
  facet normal 0.461749 0.887011 0
    outer loop
      vertex -17.75 -30.7439 20
      vertex -15.0029 -32.1739 0
      vertex -17.75 -30.7439 0
    endloop
  endfacet
  facet normal -0.991445 -0.130526 0
    outer loop
      vertex 35.3649 3.09403 0
      vertex 34.9607 6.16451 20
      vertex 34.9607 6.16451 0
    endloop
  endfacet
  facet normal -0.991445 -0.130526 0
    outer loop
      vertex 34.9607 6.16451 20
      vertex 35.3649 3.09403 0
      vertex 35.3649 3.09403 20
    endloop
  endfacet
  facet normal -0.92388 -0.382683 0
    outer loop
      vertex 33.3591 12.1417 0
      vertex 32.1739 15.0029 20
      vertex 32.1739 15.0029 0
    endloop
  endfacet
  facet normal -0.92388 -0.382683 0
    outer loop
      vertex 32.1739 15.0029 20
      vertex 33.3591 12.1417 0
      vertex 33.3591 12.1417 20
    endloop
  endfacet
  facet normal -0.887011 -0.461749 0
    outer loop
      vertex 32.1739 15.0029 0
      vertex 30.7439 17.75 20
      vertex 30.7439 17.75 0
    endloop
  endfacet
  facet normal -0.887011 -0.461749 0
    outer loop
      vertex 30.7439 17.75 20
      vertex 32.1739 15.0029 0
      vertex 32.1739 15.0029 20
    endloop
  endfacet
  facet normal -0.793353 -0.608762 0
    outer loop
      vertex 29.0799 20.362 0
      vertex 27.1946 22.819 20
      vertex 27.1946 22.819 0
    endloop
  endfacet
  facet normal -0.793353 -0.608762 0
    outer loop
      vertex 27.1946 22.819 20
      vertex 29.0799 20.362 0
      vertex 29.0799 20.362 20
    endloop
  endfacet
  facet normal -0.843392 -0.537299 0
    outer loop
      vertex 30.7439 17.75 0
      vertex 29.0799 20.362 20
      vertex 29.0799 20.362 0
    endloop
  endfacet
  facet normal -0.843392 -0.537299 0
    outer loop
      vertex 29.0799 20.362 20
      vertex 30.7439 17.75 0
      vertex 30.7439 17.75 20
    endloop
  endfacet
  facet normal -0.216439 -0.976296 0
    outer loop
      vertex 6.16451 34.9607 0
      vertex 9.18808 34.2904 20
      vertex 6.16451 34.9607 20
    endloop
  endfacet
  facet normal -0.216439 -0.976296 -0
    outer loop
      vertex 9.18808 34.2904 20
      vertex 6.16451 34.9607 0
      vertex 9.18808 34.2904 0
    endloop
  endfacet
  facet normal -0.130526 -0.991445 0
    outer loop
      vertex 3.09403 35.3649 0
      vertex 6.16451 34.9607 20
      vertex 3.09403 35.3649 20
    endloop
  endfacet
  facet normal -0.130526 -0.991445 -0
    outer loop
      vertex 6.16451 34.9607 20
      vertex 3.09403 35.3649 0
      vertex 6.16451 34.9607 0
    endloop
  endfacet
  facet normal -0.608762 -0.793353 0
    outer loop
      vertex 20.362 29.0799 0
      vertex 22.819 27.1946 20
      vertex 20.362 29.0799 20
    endloop
  endfacet
  facet normal -0.608762 -0.793353 -0
    outer loop
      vertex 22.819 27.1946 20
      vertex 20.362 29.0799 0
      vertex 22.819 27.1946 0
    endloop
  endfacet
  facet normal -0.461749 -0.887011 0
    outer loop
      vertex 15.0029 32.1739 0
      vertex 17.75 30.7439 20
      vertex 15.0029 32.1739 20
    endloop
  endfacet
  facet normal -0.461749 -0.887011 -0
    outer loop
      vertex 17.75 30.7439 20
      vertex 15.0029 32.1739 0
      vertex 17.75 30.7439 0
    endloop
  endfacet
  facet normal -0.537299 -0.843392 0
    outer loop
      vertex 17.75 30.7439 0
      vertex 20.362 29.0799 20
      vertex 17.75 30.7439 20
    endloop
  endfacet
  facet normal -0.537299 -0.843392 -0
    outer loop
      vertex 20.362 29.0799 20
      vertex 17.75 30.7439 0
      vertex 20.362 29.0799 0
    endloop
  endfacet
  facet normal 0.92388 -0.382683 0
    outer loop
      vertex -33.3591 12.1417 20
      vertex -32.1739 15.0029 0
      vertex -32.1739 15.0029 20
    endloop
  endfacet
  facet normal 0.92388 -0.382683 0
    outer loop
      vertex -32.1739 15.0029 0
      vertex -33.3591 12.1417 20
      vertex -33.3591 12.1417 0
    endloop
  endfacet
  facet normal 0.953717 -0.300706 0
    outer loop
      vertex -34.2904 9.18808 20
      vertex -33.3591 12.1417 0
      vertex -33.3591 12.1417 20
    endloop
  endfacet
  facet normal 0.953717 -0.300706 0
    outer loop
      vertex -33.3591 12.1417 0
      vertex -34.2904 9.18808 20
      vertex -34.2904 9.18808 0
    endloop
  endfacet
  facet normal 0.976296 -0.216439 0
    outer loop
      vertex -34.9607 6.16451 20
      vertex -34.2904 9.18808 0
      vertex -34.2904 9.18808 20
    endloop
  endfacet
  facet normal 0.976296 -0.216439 0
    outer loop
      vertex -34.2904 9.18808 0
      vertex -34.9607 6.16451 20
      vertex -34.9607 6.16451 0
    endloop
  endfacet
  facet normal 0.991445 -0.130526 0
    outer loop
      vertex -35.3649 3.09403 20
      vertex -34.9607 6.16451 0
      vertex -34.9607 6.16451 20
    endloop
  endfacet
  facet normal 0.991445 -0.130526 0
    outer loop
      vertex -34.9607 6.16451 0
      vertex -35.3649 3.09403 20
      vertex -35.3649 3.09403 0
    endloop
  endfacet
  facet normal 0.537299 -0.843392 0
    outer loop
      vertex -20.362 29.0799 0
      vertex -17.75 30.7439 20
      vertex -20.362 29.0799 20
    endloop
  endfacet
  facet normal 0.537299 -0.843392 0
    outer loop
      vertex -17.75 30.7439 20
      vertex -20.362 29.0799 0
      vertex -17.75 30.7439 0
    endloop
  endfacet
  facet normal 0.382683 -0.92388 0
    outer loop
      vertex -15.0029 32.1739 0
      vertex -12.1417 33.3591 20
      vertex -15.0029 32.1739 20
    endloop
  endfacet
  facet normal 0.382683 -0.92388 0
    outer loop
      vertex -12.1417 33.3591 20
      vertex -15.0029 32.1739 0
      vertex -12.1417 33.3591 0
    endloop
  endfacet
  facet normal 0.0436199 -0.999048 0
    outer loop
      vertex -3.09403 35.3649 0
      vertex 0 35.5 20
      vertex -3.09403 35.3649 20
    endloop
  endfacet
  facet normal 0.0436199 -0.999048 0
    outer loop
      vertex 0 35.5 20
      vertex -3.09403 35.3649 0
      vertex 0 35.5 0
    endloop
  endfacet
  facet normal 0.130526 -0.991445 0
    outer loop
      vertex -6.16451 34.9607 0
      vertex -3.09403 35.3649 20
      vertex -6.16451 34.9607 20
    endloop
  endfacet
  facet normal 0.130526 -0.991445 0
    outer loop
      vertex -3.09403 35.3649 20
      vertex -6.16451 34.9607 0
      vertex -3.09403 35.3649 0
    endloop
  endfacet
  facet normal -0.0436199 0.999048 0
    outer loop
      vertex 3.09403 -35.3649 0
      vertex 0 -35.5 20
      vertex 3.09403 -35.3649 20
    endloop
  endfacet
  facet normal -0.0436199 0.999048 0
    outer loop
      vertex 0 -35.5 20
      vertex 3.09403 -35.3649 0
      vertex 0 -35.5 0
    endloop
  endfacet
  facet normal -0.130526 0.991445 0
    outer loop
      vertex 6.16451 -34.9607 0
      vertex 3.09403 -35.3649 20
      vertex 6.16451 -34.9607 20
    endloop
  endfacet
  facet normal -0.130526 0.991445 0
    outer loop
      vertex 3.09403 -35.3649 20
      vertex 6.16451 -34.9607 0
      vertex 3.09403 -35.3649 0
    endloop
  endfacet
  facet normal -0.382683 0.92388 0
    outer loop
      vertex 15.0029 -32.1739 0
      vertex 12.1417 -33.3591 20
      vertex 15.0029 -32.1739 20
    endloop
  endfacet
  facet normal -0.382683 0.92388 0
    outer loop
      vertex 12.1417 -33.3591 20
      vertex 15.0029 -32.1739 0
      vertex 12.1417 -33.3591 0
    endloop
  endfacet
  facet normal -0.608762 0.793353 0
    outer loop
      vertex 22.819 -27.1946 0
      vertex 20.362 -29.0799 20
      vertex 22.819 -27.1946 20
    endloop
  endfacet
  facet normal -0.608762 0.793353 0
    outer loop
      vertex 20.362 -29.0799 20
      vertex 22.819 -27.1946 0
      vertex 20.362 -29.0799 0
    endloop
  endfacet
  facet normal -0.737278 0.67559 0
    outer loop
      vertex 25.1023 -25.1023 0
      vertex 27.1946 -22.819 20
      vertex 27.1946 -22.819 0
    endloop
  endfacet
  facet normal -0.737278 0.67559 0
    outer loop
      vertex 27.1946 -22.819 20
      vertex 25.1023 -25.1023 0
      vertex 25.1023 -25.1023 20
    endloop
  endfacet
  facet normal -0.793353 0.608762 0
    outer loop
      vertex 27.1946 -22.819 0
      vertex 29.0799 -20.362 20
      vertex 29.0799 -20.362 0
    endloop
  endfacet
  facet normal -0.793353 0.608762 0
    outer loop
      vertex 29.0799 -20.362 20
      vertex 27.1946 -22.819 0
      vertex 27.1946 -22.819 20
    endloop
  endfacet
  facet normal 0.130526 0.991445 -0
    outer loop
      vertex -3.09403 -35.3649 0
      vertex -6.16451 -34.9607 20
      vertex -3.09403 -35.3649 20
    endloop
  endfacet
  facet normal 0.130526 0.991445 0
    outer loop
      vertex -6.16451 -34.9607 20
      vertex -3.09403 -35.3649 0
      vertex -6.16451 -34.9607 0
    endloop
  endfacet
  facet normal 0.0436199 0.999048 -0
    outer loop
      vertex 0 -35.5 0
      vertex -3.09403 -35.3649 20
      vertex 0 -35.5 20
    endloop
  endfacet
  facet normal 0.0436199 0.999048 0
    outer loop
      vertex -3.09403 -35.3649 20
      vertex 0 -35.5 0
      vertex -3.09403 -35.3649 0
    endloop
  endfacet
  facet normal 0.537299 0.843392 -0
    outer loop
      vertex -17.75 -30.7439 0
      vertex -20.362 -29.0799 20
      vertex -17.75 -30.7439 20
    endloop
  endfacet
  facet normal 0.537299 0.843392 0
    outer loop
      vertex -20.362 -29.0799 20
      vertex -17.75 -30.7439 0
      vertex -20.362 -29.0799 0
    endloop
  endfacet
  facet normal 0.793353 0.608762 0
    outer loop
      vertex -27.1946 -22.819 20
      vertex -29.0799 -20.362 0
      vertex -29.0799 -20.362 20
    endloop
  endfacet
  facet normal 0.793353 0.608762 0
    outer loop
      vertex -29.0799 -20.362 0
      vertex -27.1946 -22.819 20
      vertex -27.1946 -22.819 0
    endloop
  endfacet
  facet normal 0.92388 0.382683 0
    outer loop
      vertex -32.1739 -15.0029 20
      vertex -33.3591 -12.1417 0
      vertex -33.3591 -12.1417 20
    endloop
  endfacet
  facet normal 0.92388 0.382683 0
    outer loop
      vertex -33.3591 -12.1417 0
      vertex -32.1739 -15.0029 20
      vertex -32.1739 -15.0029 0
    endloop
  endfacet
  facet normal 0.976296 0.216439 0
    outer loop
      vertex -34.2904 -9.18808 20
      vertex -34.9607 -6.16451 0
      vertex -34.9607 -6.16451 20
    endloop
  endfacet
  facet normal 0.976296 0.216439 0
    outer loop
      vertex -34.9607 -6.16451 0
      vertex -34.2904 -9.18808 20
      vertex -34.2904 -9.18808 0
    endloop
  endfacet
  facet normal 0.999048 0.0436199 0
    outer loop
      vertex -35.3649 -3.09403 20
      vertex -35.5 0 0
      vertex -35.5 0 20
    endloop
  endfacet
  facet normal 0.999048 0.0436199 0
    outer loop
      vertex -35.5 0 0
      vertex -35.3649 -3.09403 20
      vertex -35.3649 -3.09403 0
    endloop
  endfacet
  facet normal -0.300706 -0.953717 0
    outer loop
      vertex 9.18808 34.2904 0
      vertex 12.1417 33.3591 20
      vertex 9.18808 34.2904 20
    endloop
  endfacet
  facet normal -0.300706 -0.953717 -0
    outer loop
      vertex 12.1417 33.3591 20
      vertex 9.18808 34.2904 0
      vertex 12.1417 33.3591 0
    endloop
  endfacet
  facet normal -0.67559 -0.737278 0
    outer loop
      vertex 22.819 27.1946 0
      vertex 25.1023 25.1023 20
      vertex 22.819 27.1946 20
    endloop
  endfacet
  facet normal -0.67559 -0.737278 -0
    outer loop
      vertex 25.1023 25.1023 20
      vertex 22.819 27.1946 0
      vertex 25.1023 25.1023 0
    endloop
  endfacet
  facet normal 0.737278 -0.67559 0
    outer loop
      vertex -27.1946 22.819 20
      vertex -25.1023 25.1023 0
      vertex -25.1023 25.1023 20
    endloop
  endfacet
  facet normal 0.737278 -0.67559 0
    outer loop
      vertex -25.1023 25.1023 0
      vertex -27.1946 22.819 20
      vertex -27.1946 22.819 0
    endloop
  endfacet
  facet normal 0.793353 -0.608762 0
    outer loop
      vertex -29.0799 20.362 20
      vertex -27.1946 22.819 0
      vertex -27.1946 22.819 20
    endloop
  endfacet
  facet normal 0.793353 -0.608762 0
    outer loop
      vertex -27.1946 22.819 0
      vertex -29.0799 20.362 20
      vertex -29.0799 20.362 0
    endloop
  endfacet
  facet normal 0.608762 -0.793353 0
    outer loop
      vertex -22.819 27.1946 0
      vertex -20.362 29.0799 20
      vertex -22.819 27.1946 20
    endloop
  endfacet
  facet normal 0.608762 -0.793353 0
    outer loop
      vertex -20.362 29.0799 20
      vertex -22.819 27.1946 0
      vertex -20.362 29.0799 0
    endloop
  endfacet
  facet normal 0.461749 -0.887011 0
    outer loop
      vertex -17.75 30.7439 0
      vertex -15.0029 32.1739 20
      vertex -17.75 30.7439 20
    endloop
  endfacet
  facet normal 0.461749 -0.887011 0
    outer loop
      vertex -15.0029 32.1739 20
      vertex -17.75 30.7439 0
      vertex -15.0029 32.1739 0
    endloop
  endfacet
  facet normal 0.216439 -0.976296 0
    outer loop
      vertex -9.18808 34.2904 0
      vertex -6.16451 34.9607 20
      vertex -9.18808 34.2904 20
    endloop
  endfacet
  facet normal 0.216439 -0.976296 0
    outer loop
      vertex -6.16451 34.9607 20
      vertex -9.18808 34.2904 0
      vertex -6.16451 34.9607 0
    endloop
  endfacet
  facet normal -0.300706 0.953717 0
    outer loop
      vertex 12.1417 -33.3591 0
      vertex 9.18808 -34.2904 20
      vertex 12.1417 -33.3591 20
    endloop
  endfacet
  facet normal -0.300706 0.953717 0
    outer loop
      vertex 9.18808 -34.2904 20
      vertex 12.1417 -33.3591 0
      vertex 9.18808 -34.2904 0
    endloop
  endfacet
  facet normal -0.461749 0.887011 0
    outer loop
      vertex 17.75 -30.7439 0
      vertex 15.0029 -32.1739 20
      vertex 17.75 -30.7439 20
    endloop
  endfacet
  facet normal -0.461749 0.887011 0
    outer loop
      vertex 15.0029 -32.1739 20
      vertex 17.75 -30.7439 0
      vertex 15.0029 -32.1739 0
    endloop
  endfacet
  facet normal -0.537299 0.843392 0
    outer loop
      vertex 20.362 -29.0799 0
      vertex 17.75 -30.7439 20
      vertex 20.362 -29.0799 20
    endloop
  endfacet
  facet normal -0.537299 0.843392 0
    outer loop
      vertex 17.75 -30.7439 20
      vertex 20.362 -29.0799 0
      vertex 17.75 -30.7439 0
    endloop
  endfacet
  facet normal -0.92388 0.382683 0
    outer loop
      vertex 32.1739 -15.0029 0
      vertex 33.3591 -12.1417 20
      vertex 33.3591 -12.1417 0
    endloop
  endfacet
  facet normal -0.92388 0.382683 0
    outer loop
      vertex 33.3591 -12.1417 20
      vertex 32.1739 -15.0029 0
      vertex 32.1739 -15.0029 20
    endloop
  endfacet
  facet normal -0.976296 0.216439 0
    outer loop
      vertex 34.2904 -9.18808 0
      vertex 34.9607 -6.16451 20
      vertex 34.9607 -6.16451 0
    endloop
  endfacet
  facet normal -0.976296 0.216439 0
    outer loop
      vertex 34.9607 -6.16451 20
      vertex 34.2904 -9.18808 0
      vertex 34.2904 -9.18808 20
    endloop
  endfacet
  facet normal -0.999048 0.0436199 0
    outer loop
      vertex 35.3649 -3.09403 0
      vertex 35.5 0 20
      vertex 35.5 0 0
    endloop
  endfacet
  facet normal -0.999048 0.0436199 0
    outer loop
      vertex 35.5 0 20
      vertex 35.3649 -3.09403 0
      vertex 35.3649 -3.09403 20
    endloop
  endfacet
  facet normal 0.67559 0.737278 -0
    outer loop
      vertex -22.819 -27.1946 0
      vertex -25.1023 -25.1023 20
      vertex -22.819 -27.1946 20
    endloop
  endfacet
  facet normal 0.67559 0.737278 0
    outer loop
      vertex -25.1023 -25.1023 20
      vertex -22.819 -27.1946 0
      vertex -25.1023 -25.1023 0
    endloop
  endfacet
  facet normal 0.216439 0.976296 -0
    outer loop
      vertex -6.16451 -34.9607 0
      vertex -9.18808 -34.2904 20
      vertex -6.16451 -34.9607 20
    endloop
  endfacet
  facet normal 0.216439 0.976296 0
    outer loop
      vertex -9.18808 -34.2904 20
      vertex -6.16451 -34.9607 0
      vertex -9.18808 -34.2904 0
    endloop
  endfacet
  facet normal 0.382683 0.92388 -0
    outer loop
      vertex -12.1417 -33.3591 0
      vertex -15.0029 -32.1739 20
      vertex -12.1417 -33.3591 20
    endloop
  endfacet
  facet normal 0.382683 0.92388 0
    outer loop
      vertex -15.0029 -32.1739 20
      vertex -12.1417 -33.3591 0
      vertex -15.0029 -32.1739 0
    endloop
  endfacet
  facet normal 0.608762 0.793353 -0
    outer loop
      vertex -20.362 -29.0799 0
      vertex -22.819 -27.1946 20
      vertex -20.362 -29.0799 20
    endloop
  endfacet
  facet normal 0.608762 0.793353 0
    outer loop
      vertex -22.819 -27.1946 20
      vertex -20.362 -29.0799 0
      vertex -22.819 -27.1946 0
    endloop
  endfacet
  facet normal 0.737278 0.67559 0
    outer loop
      vertex -25.1023 -25.1023 20
      vertex -27.1946 -22.819 0
      vertex -27.1946 -22.819 20
    endloop
  endfacet
  facet normal 0.737278 0.67559 0
    outer loop
      vertex -27.1946 -22.819 0
      vertex -25.1023 -25.1023 20
      vertex -25.1023 -25.1023 0
    endloop
  endfacet
  facet normal 0.887011 0.461749 0
    outer loop
      vertex -30.7439 -17.75 20
      vertex -32.1739 -15.0029 0
      vertex -32.1739 -15.0029 20
    endloop
  endfacet
  facet normal 0.887011 0.461749 0
    outer loop
      vertex -32.1739 -15.0029 0
      vertex -30.7439 -17.75 20
      vertex -30.7439 -17.75 0
    endloop
  endfacet
  facet normal 0.991445 0.130526 0
    outer loop
      vertex -34.9607 -6.16451 20
      vertex -35.3649 -3.09403 0
      vertex -35.3649 -3.09403 20
    endloop
  endfacet
  facet normal 0.991445 0.130526 0
    outer loop
      vertex -35.3649 -3.09403 0
      vertex -34.9607 -6.16451 20
      vertex -34.9607 -6.16451 0
    endloop
  endfacet
  facet normal 0.953717 0.300706 0
    outer loop
      vertex -33.3591 -12.1417 20
      vertex -34.2904 -9.18808 0
      vertex -34.2904 -9.18808 20
    endloop
  endfacet
  facet normal 0.953717 0.300706 0
    outer loop
      vertex -34.2904 -9.18808 0
      vertex -33.3591 -12.1417 20
      vertex -33.3591 -12.1417 0
    endloop
  endfacet
  facet normal -0.887011 0.461749 0
    outer loop
      vertex 30.7439 -17.75 0
      vertex 32.1739 -15.0029 20
      vertex 32.1739 -15.0029 0
    endloop
  endfacet
  facet normal -0.887011 0.461749 0
    outer loop
      vertex 32.1739 -15.0029 20
      vertex 30.7439 -17.75 0
      vertex 30.7439 -17.75 20
    endloop
  endfacet
  facet normal -0.991445 0.130526 0
    outer loop
      vertex 34.9607 -6.16451 0
      vertex 35.3649 -3.09403 20
      vertex 35.3649 -3.09403 0
    endloop
  endfacet
  facet normal -0.991445 0.130526 0
    outer loop
      vertex 35.3649 -3.09403 20
      vertex 34.9607 -6.16451 0
      vertex 34.9607 -6.16451 20
    endloop
  endfacet
endsolid OpenSCAD_Model
