solid OpenSCAD_Model
  facet normal -0.951057 0.309017 0
    outer loop
      vertex -36.6805 7.79669 0
      vertex -34.258 15.2526 20
      vertex -34.258 15.2526 0
    endloop
  endfacet
  facet normal -0.951057 0.309017 0
    outer loop
      vertex -34.258 15.2526 20
      vertex -36.6805 7.79669 0
      vertex -36.6805 7.79669 20
    endloop
  endfacet
  facet normal 0.866025 0.5 0
    outer loop
      vertex 34.258 15.2526 20
      vertex 30.3381 22.0419 0
      vertex 30.3381 22.0419 20
    endloop
  endfacet
  facet normal 0.866025 0.5 0
    outer loop
      vertex 30.3381 22.0419 0
      vertex 34.258 15.2526 20
      vertex 34.258 15.2526 0
    endloop
  endfacet
  facet normal 0.951057 0.309017 0
    outer loop
      vertex 36.6805 7.79669 20
      vertex 34.258 15.2526 0
      vertex 34.258 15.2526 20
    endloop
  endfacet
  facet normal 0.951057 0.309017 0
    outer loop
      vertex 34.258 15.2526 0
      vertex 36.6805 7.79669 20
      vertex 36.6805 7.79669 0
    endloop
  endfacet
  facet normal 0.406737 0.913545 -0
    outer loop
      vertex 18.75 32.476 0
      vertex 11.5881 35.6646 20
      vertex 18.75 32.476 20
    endloop
  endfacet
  facet normal 0.406737 0.913545 0
    outer loop
      vertex 11.5881 35.6646 20
      vertex 18.75 32.476 0
      vertex 11.5881 35.6646 0
    endloop
  endfacet
  facet normal -0.406737 0.913545 0
    outer loop
      vertex -11.5881 35.6646 0
      vertex -18.75 32.476 20
      vertex -11.5881 35.6646 20
    endloop
  endfacet
  facet normal -0.406737 0.913545 0
    outer loop
      vertex -18.75 32.476 20
      vertex -11.5881 35.6646 0
      vertex -18.75 32.476 0
    endloop
  endfacet
  facet normal -0.866025 0.5 0
    outer loop
      vertex -34.258 15.2526 0
      vertex -30.3381 22.0419 20
      vertex -30.3381 22.0419 0
    endloop
  endfacet
  facet normal -0.866025 0.5 0
    outer loop
      vertex -30.3381 22.0419 20
      vertex -34.258 15.2526 0
      vertex -34.258 15.2526 20
    endloop
  endfacet
  facet normal -0.587785 0.809017 0
    outer loop
      vertex -18.75 32.476 0
      vertex -25.0924 27.8679 20
      vertex -18.75 32.476 20
    endloop
  endfacet
  facet normal -0.587785 0.809017 0
    outer loop
      vertex -25.0924 27.8679 20
      vertex -18.75 32.476 0
      vertex -25.0924 27.8679 0
    endloop
  endfacet
  facet normal 0.994522 -0.104529 0
    outer loop
      vertex 36.6805 -7.79669 20
      vertex 37.5 0 0
      vertex 37.5 0 20
    endloop
  endfacet
  facet normal 0.994522 -0.104529 0
    outer loop
      vertex 37.5 0 0
      vertex 36.6805 -7.79669 20
      vertex 36.6805 -7.79669 0
    endloop
  endfacet
  facet normal 0.207912 -0.978148 0
    outer loop
      vertex 3.91982 -37.2946 0
      vertex 11.5881 -35.6646 20
      vertex 3.91982 -37.2946 20
    endloop
  endfacet
  facet normal 0.207912 -0.978148 0
    outer loop
      vertex 11.5881 -35.6646 20
      vertex 3.91982 -37.2946 0
      vertex 11.5881 -35.6646 0
    endloop
  endfacet
  facet normal 0.743145 0.669131 0
    outer loop
      vertex 30.3381 22.0419 20
      vertex 25.0924 27.8679 0
      vertex 25.0924 27.8679 20
    endloop
  endfacet
  facet normal 0.743145 0.669131 0
    outer loop
      vertex 25.0924 27.8679 0
      vertex 30.3381 22.0419 20
      vertex 30.3381 22.0419 0
    endloop
  endfacet
  facet normal 0 1 -0
    outer loop
      vertex 3.91982 37.2946 0
      vertex -3.91982 37.2946 20
      vertex 3.91982 37.2946 20
    endloop
  endfacet
  facet normal 0 1 0
    outer loop
      vertex -3.91982 37.2946 20
      vertex 3.91982 37.2946 0
      vertex -3.91982 37.2946 0
    endloop
  endfacet
  facet normal 0.587785 0.809017 -0
    outer loop
      vertex 25.0924 27.8679 0
      vertex 18.75 32.476 20
      vertex 25.0924 27.8679 20
    endloop
  endfacet
  facet normal 0.587785 0.809017 0
    outer loop
      vertex 18.75 32.476 20
      vertex 25.0924 27.8679 0
      vertex 18.75 32.476 0
    endloop
  endfacet
  facet normal -0.994522 0.104529 0
    outer loop
      vertex -37.5 0 0
      vertex -36.6805 7.79669 20
      vertex -36.6805 7.79669 0
    endloop
  endfacet
  facet normal -0.994522 0.104529 0
    outer loop
      vertex -36.6805 7.79669 20
      vertex -37.5 0 0
      vertex -37.5 0 20
    endloop
  endfacet
  facet normal -0.743145 0.669131 0
    outer loop
      vertex -30.3381 22.0419 0
      vertex -25.0924 27.8679 20
      vertex -25.0924 27.8679 0
    endloop
  endfacet
  facet normal -0.743145 0.669131 0
    outer loop
      vertex -25.0924 27.8679 20
      vertex -30.3381 22.0419 0
      vertex -30.3381 22.0419 20
    endloop
  endfacet
  facet normal -0.207912 0.978148 0
    outer loop
      vertex -3.91982 37.2946 0
      vertex -11.5881 35.6646 20
      vertex -3.91982 37.2946 20
    endloop
  endfacet
  facet normal -0.207912 0.978148 0
    outer loop
      vertex -11.5881 35.6646 20
      vertex -3.91982 37.2946 0
      vertex -11.5881 35.6646 0
    endloop
  endfacet
  facet normal 0.994522 0.104529 0
    outer loop
      vertex 37.5 0 20
      vertex 36.6805 7.79669 0
      vertex 36.6805 7.79669 20
    endloop
  endfacet
  facet normal 0.994522 0.104529 0
    outer loop
      vertex 36.6805 7.79669 0
      vertex 37.5 0 20
      vertex 37.5 0 0
    endloop
  endfacet
  facet normal -0.207912 -0.978148 0
    outer loop
      vertex -11.5881 -35.6646 0
      vertex -3.91982 -37.2946 20
      vertex -11.5881 -35.6646 20
    endloop
  endfacet
  facet normal -0.207912 -0.978148 -0
    outer loop
      vertex -3.91982 -37.2946 20
      vertex -11.5881 -35.6646 0
      vertex -3.91982 -37.2946 0
    endloop
  endfacet
  facet normal 0.587785 -0.809017 0
    outer loop
      vertex 18.75 -32.476 0
      vertex 25.0924 -27.8679 20
      vertex 18.75 -32.476 20
    endloop
  endfacet
  facet normal 0.587785 -0.809017 0
    outer loop
      vertex 25.0924 -27.8679 20
      vertex 18.75 -32.476 0
      vertex 25.0924 -27.8679 0
    endloop
  endfacet
  facet normal 0.207912 0.978148 -0
    outer loop
      vertex 11.5881 35.6646 0
      vertex 3.91982 37.2946 20
      vertex 11.5881 35.6646 20
    endloop
  endfacet
  facet normal 0.207912 0.978148 0
    outer loop
      vertex 3.91982 37.2946 20
      vertex 11.5881 35.6646 0
      vertex 3.91982 37.2946 0
    endloop
  endfacet
  facet normal -0 0 1
    outer loop
      vertex 34.8668 3.05045 20
      vertex 37.5 0 20
      vertex 36.6805 7.79669 20
    endloop
  endfacet
  facet normal 0 0 1
    outer loop
      vertex 34.8668 -3.05045 20
      vertex 37.5 0 20
      vertex 35 0 20
    endloop
  endfacet
  facet normal 0 0 1
    outer loop
      vertex 37.5 0 20
      vertex 34.8668 3.05045 20
      vertex 35 0 20
    endloop
  endfacet
  facet normal 0 0 1
    outer loop
      vertex 36.6805 7.79669 20
      vertex 34.4683 6.07769 20
      vertex 34.8668 3.05045 20
    endloop
  endfacet
  facet normal -0 0 1
    outer loop
      vertex 32.8892 11.9707 20
      vertex 36.6805 7.79669 20
      vertex 34.258 15.2526 20
    endloop
  endfacet
  facet normal 0 0 1
    outer loop
      vertex 36.6805 7.79669 20
      vertex 33.8074 9.05867 20
      vertex 34.4683 6.07769 20
    endloop
  endfacet
  facet normal 0 0 1
    outer loop
      vertex 36.6805 7.79669 20
      vertex 32.8892 11.9707 20
      vertex 33.8074 9.05867 20
    endloop
  endfacet
  facet normal 0 0 1
    outer loop
      vertex 34.258 15.2526 20
      vertex 31.7208 14.7916 20
      vertex 32.8892 11.9707 20
    endloop
  endfacet
  facet normal -0 0 1
    outer loop
      vertex 30.3109 17.5 20
      vertex 34.258 15.2526 20
      vertex 30.3381 22.0419 20
    endloop
  endfacet
  facet normal 0 0 1
    outer loop
      vertex 34.258 15.2526 20
      vertex 30.3109 17.5 20
      vertex 31.7208 14.7916 20
    endloop
  endfacet
  facet normal 0 0 1
    outer loop
      vertex 30.3381 22.0419 20
      vertex 28.6703 20.0752 20
      vertex 30.3109 17.5 20
    endloop
  endfacet
  facet normal 0 0 1
    outer loop
      vertex 30.3381 22.0419 20
      vertex 26.8116 22.4976 20
      vertex 28.6703 20.0752 20
    endloop
  endfacet
  facet normal 0 0 1
    outer loop
      vertex 25.0924 27.8679 20
      vertex 26.8116 22.4976 20
      vertex 30.3381 22.0419 20
    endloop
  endfacet
  facet normal 0 0 1
    outer loop
      vertex 25.0924 27.8679 20
      vertex 24.7487 24.7487 20
      vertex 26.8116 22.4976 20
    endloop
  endfacet
  facet normal 0 0 1
    outer loop
      vertex 25.0924 27.8679 20
      vertex 22.4976 26.8116 20
      vertex 24.7487 24.7487 20
    endloop
  endfacet
  facet normal 0 0 1
    outer loop
      vertex 25.0924 27.8679 20
      vertex 20.0752 28.6703 20
      vertex 22.4976 26.8116 20
    endloop
  endfacet
  facet normal 0 0 1
    outer loop
      vertex 18.75 32.476 20
      vertex 20.0752 28.6703 20
      vertex 25.0924 27.8679 20
    endloop
  endfacet
  facet normal 0 0 1
    outer loop
      vertex 18.75 32.476 20
      vertex 17.5 30.3109 20
      vertex 20.0752 28.6703 20
    endloop
  endfacet
  facet normal 0 0 1
    outer loop
      vertex 18.75 32.476 20
      vertex 14.7916 31.7208 20
      vertex 17.5 30.3109 20
    endloop
  endfacet
  facet normal 0 0 1
    outer loop
      vertex 11.5881 35.6646 20
      vertex 14.7916 31.7208 20
      vertex 18.75 32.476 20
    endloop
  endfacet
  facet normal 0 0 1
    outer loop
      vertex 14.7916 31.7208 20
      vertex 11.5881 35.6646 20
      vertex 11.9707 32.8892 20
    endloop
  endfacet
  facet normal 0 0 1
    outer loop
      vertex 11.5881 35.6646 20
      vertex 9.05867 33.8074 20
      vertex 11.9707 32.8892 20
    endloop
  endfacet
  facet normal 0 0 1
    outer loop
      vertex 11.5881 35.6646 20
      vertex 6.07769 34.4683 20
      vertex 9.05867 33.8074 20
    endloop
  endfacet
  facet normal 0 0 1
    outer loop
      vertex 3.91982 37.2946 20
      vertex 6.07769 34.4683 20
      vertex 11.5881 35.6646 20
    endloop
  endfacet
  facet normal 0 0 1
    outer loop
      vertex 3.91982 37.2946 20
      vertex 3.05045 34.8668 20
      vertex 6.07769 34.4683 20
    endloop
  endfacet
  facet normal 0 0 1
    outer loop
      vertex 3.91982 37.2946 20
      vertex 0 35 20
      vertex 3.05045 34.8668 20
    endloop
  endfacet
  facet normal -0 0 1
    outer loop
      vertex -3.91982 37.2946 20
      vertex 0 35 20
      vertex 3.91982 37.2946 20
    endloop
  endfacet
  facet normal 0 0 1
    outer loop
      vertex 0 35 20
      vertex -3.91982 37.2946 20
      vertex -3.05045 34.8668 20
    endloop
  endfacet
  facet normal 0 0 1
    outer loop
      vertex -3.91982 37.2946 20
      vertex -6.07769 34.4683 20
      vertex -3.05045 34.8668 20
    endloop
  endfacet
  facet normal -0 0 1
    outer loop
      vertex -11.5881 35.6646 20
      vertex -6.07769 34.4683 20
      vertex -3.91982 37.2946 20
    endloop
  endfacet
  facet normal 0 0 1
    outer loop
      vertex -6.07769 34.4683 20
      vertex -11.5881 35.6646 20
      vertex -9.05867 33.8074 20
    endloop
  endfacet
  facet normal 0 0 1
    outer loop
      vertex -11.5881 35.6646 20
      vertex -11.9707 32.8892 20
      vertex -9.05867 33.8074 20
    endloop
  endfacet
  facet normal 0 0 1
    outer loop
      vertex -11.5881 35.6646 20
      vertex -14.7916 31.7208 20
      vertex -11.9707 32.8892 20
    endloop
  endfacet
  facet normal -0 0 1
    outer loop
      vertex -18.75 32.476 20
      vertex -14.7916 31.7208 20
      vertex -11.5881 35.6646 20
    endloop
  endfacet
  facet normal 0 0 1
    outer loop
      vertex -14.7916 31.7208 20
      vertex -18.75 32.476 20
      vertex -17.5 30.3109 20
    endloop
  endfacet
  facet normal 0 0 1
    outer loop
      vertex -18.75 32.476 20
      vertex -20.0752 28.6703 20
      vertex -17.5 30.3109 20
    endloop
  endfacet
  facet normal 0 0 1
    outer loop
      vertex -25.0924 27.8679 20
      vertex -20.0752 28.6703 20
      vertex -18.75 32.476 20
    endloop
  endfacet
  facet normal 0 0 1
    outer loop
      vertex -20.0752 28.6703 20
      vertex -25.0924 27.8679 20
      vertex -22.4976 26.8116 20
    endloop
  endfacet
  facet normal 0 0 1
    outer loop
      vertex -22.4976 26.8116 20
      vertex -25.0924 27.8679 20
      vertex -24.7487 24.7487 20
    endloop
  endfacet
  facet normal 0 0 1
    outer loop
      vertex -25.0924 27.8679 20
      vertex -26.8116 22.4976 20
      vertex -24.7487 24.7487 20
    endloop
  endfacet
  facet normal 0 0 1
    outer loop
      vertex -30.3381 22.0419 20
      vertex -26.8116 22.4976 20
      vertex -25.0924 27.8679 20
    endloop
  endfacet
  facet normal 0 0 1
    outer loop
      vertex -26.8116 22.4976 20
      vertex -30.3381 22.0419 20
      vertex -28.6703 20.0752 20
    endloop
  endfacet
  facet normal 0 0 1
    outer loop
      vertex -28.6703 20.0752 20
      vertex -30.3381 22.0419 20
      vertex -30.3109 17.5 20
    endloop
  endfacet
  facet normal 0 0 1
    outer loop
      vertex -34.258 15.2526 20
      vertex -30.3109 17.5 20
      vertex -30.3381 22.0419 20
    endloop
  endfacet
  facet normal 0 0 1
    outer loop
      vertex -30.3109 17.5 20
      vertex -34.258 15.2526 20
      vertex -31.7208 14.7916 20
    endloop
  endfacet
  facet normal 0 0 1
    outer loop
      vertex -31.7208 14.7916 20
      vertex -34.258 15.2526 20
      vertex -32.8892 11.9707 20
    endloop
  endfacet
  facet normal 0 0 1
    outer loop
      vertex -36.6805 7.79669 20
      vertex -32.8892 11.9707 20
      vertex -34.258 15.2526 20
    endloop
  endfacet
  facet normal 0 0 1
    outer loop
      vertex -32.8892 11.9707 20
      vertex -36.6805 7.79669 20
      vertex -33.8074 9.05867 20
    endloop
  endfacet
  facet normal 0 0 1
    outer loop
      vertex -33.8074 9.05867 20
      vertex -36.6805 7.79669 20
      vertex -34.4683 6.07769 20
    endloop
  endfacet
  facet normal 0 0 1
    outer loop
      vertex -37.5 0 20
      vertex -34.8668 3.05045 20
      vertex -36.6805 7.79669 20
    endloop
  endfacet
  facet normal 0 0 1
    outer loop
      vertex -34.4683 6.07769 20
      vertex -36.6805 7.79669 20
      vertex -34.8668 3.05045 20
    endloop
  endfacet
  facet normal 0 0 1
    outer loop
      vertex 37.5 0 20
      vertex 34.8668 -3.05045 20
      vertex 36.6805 -7.79669 20
    endloop
  endfacet
  facet normal -0 0 1
    outer loop
      vertex 34.4683 -6.07769 20
      vertex 36.6805 -7.79669 20
      vertex 34.8668 -3.05045 20
    endloop
  endfacet
  facet normal 0 0 1
    outer loop
      vertex 33.8074 -9.05867 20
      vertex 36.6805 -7.79669 20
      vertex 34.4683 -6.07769 20
    endloop
  endfacet
  facet normal 0 0 1
    outer loop
      vertex 32.8892 -11.9707 20
      vertex 36.6805 -7.79669 20
      vertex 33.8074 -9.05867 20
    endloop
  endfacet
  facet normal 0 0 1
    outer loop
      vertex 36.6805 -7.79669 20
      vertex 32.8892 -11.9707 20
      vertex 34.258 -15.2526 20
    endloop
  endfacet
  facet normal -0 0 1
    outer loop
      vertex 31.7208 -14.7916 20
      vertex 34.258 -15.2526 20
      vertex 32.8892 -11.9707 20
    endloop
  endfacet
  facet normal 0 0 1
    outer loop
      vertex 30.3109 -17.5 20
      vertex 34.258 -15.2526 20
      vertex 31.7208 -14.7916 20
    endloop
  endfacet
  facet normal 0 0 1
    outer loop
      vertex 34.258 -15.2526 20
      vertex 30.3109 -17.5 20
      vertex 30.3381 -22.0419 20
    endloop
  endfacet
  facet normal -0 0 1
    outer loop
      vertex 28.6703 -20.0752 20
      vertex 30.3381 -22.0419 20
      vertex 30.3109 -17.5 20
    endloop
  endfacet
  facet normal 0 0 1
    outer loop
      vertex 26.8116 -22.4976 20
      vertex 30.3381 -22.0419 20
      vertex 28.6703 -20.0752 20
    endloop
  endfacet
  facet normal -0 0 1
    outer loop
      vertex 26.8116 -22.4976 20
      vertex 25.0924 -27.8679 20
      vertex 30.3381 -22.0419 20
    endloop
  endfacet
  facet normal -0 0 1
    outer loop
      vertex 24.7487 -24.7487 20
      vertex 25.0924 -27.8679 20
      vertex 26.8116 -22.4976 20
    endloop
  endfacet
  facet normal -0 0 1
    outer loop
      vertex 22.4976 -26.8116 20
      vertex 25.0924 -27.8679 20
      vertex 24.7487 -24.7487 20
    endloop
  endfacet
  facet normal 0 0 1
    outer loop
      vertex 20.0752 -28.6703 20
      vertex 25.0924 -27.8679 20
      vertex 22.4976 -26.8116 20
    endloop
  endfacet
  facet normal -0 0 1
    outer loop
      vertex 20.0752 -28.6703 20
      vertex 18.75 -32.476 20
      vertex 25.0924 -27.8679 20
    endloop
  endfacet
  facet normal -0 0 1
    outer loop
      vertex 17.5 -30.3109 20
      vertex 18.75 -32.476 20
      vertex 20.0752 -28.6703 20
    endloop
  endfacet
  facet normal -0 0 1
    outer loop
      vertex 14.7916 -31.7208 20
      vertex 18.75 -32.476 20
      vertex 17.5 -30.3109 20
    endloop
  endfacet
  facet normal 0 0 1
    outer loop
      vertex 11.5881 -35.6646 20
      vertex 14.7916 -31.7208 20
      vertex 11.9707 -32.8892 20
    endloop
  endfacet
  facet normal 0 0 1
    outer loop
      vertex 14.7916 -31.7208 20
      vertex 11.5881 -35.6646 20
      vertex 18.75 -32.476 20
    endloop
  endfacet
  facet normal -0 0 1
    outer loop
      vertex 9.05867 -33.8074 20
      vertex 11.5881 -35.6646 20
      vertex 11.9707 -32.8892 20
    endloop
  endfacet
  facet normal -0 0 1
    outer loop
      vertex 6.07769 -34.4683 20
      vertex 11.5881 -35.6646 20
      vertex 9.05867 -33.8074 20
    endloop
  endfacet
  facet normal 0 0 1
    outer loop
      vertex 6.07769 -34.4683 20
      vertex 3.91982 -37.2946 20
      vertex 11.5881 -35.6646 20
    endloop
  endfacet
  facet normal -0 0 1
    outer loop
      vertex 3.05045 -34.8668 20
      vertex 3.91982 -37.2946 20
      vertex 6.07769 -34.4683 20
    endloop
  endfacet
  facet normal -0 0 1
    outer loop
      vertex 0 -35 20
      vertex 3.91982 -37.2946 20
      vertex 3.05045 -34.8668 20
    endloop
  endfacet
  facet normal 0 0 1
    outer loop
      vertex -3.91982 -37.2946 20
      vertex 0 -35 20
      vertex -3.05045 -34.8668 20
    endloop
  endfacet
  facet normal 0 0 1
    outer loop
      vertex 0 -35 20
      vertex -3.91982 -37.2946 20
      vertex 3.91982 -37.2946 20
    endloop
  endfacet
  facet normal 0 0 1
    outer loop
      vertex -6.07769 -34.4683 20
      vertex -3.91982 -37.2946 20
      vertex -3.05045 -34.8668 20
    endloop
  endfacet
  facet normal 0 0 1
    outer loop
      vertex -11.5881 -35.6646 20
      vertex -6.07769 -34.4683 20
      vertex -9.05867 -33.8074 20
    endloop
  endfacet
  facet normal 0 0 1
    outer loop
      vertex -6.07769 -34.4683 20
      vertex -11.5881 -35.6646 20
      vertex -3.91982 -37.2946 20
    endloop
  endfacet
  facet normal 0 0 1
    outer loop
      vertex -11.9707 -32.8892 20
      vertex -11.5881 -35.6646 20
      vertex -9.05867 -33.8074 20
    endloop
  endfacet
  facet normal 0 0 1
    outer loop
      vertex -14.7916 -31.7208 20
      vertex -11.5881 -35.6646 20
      vertex -11.9707 -32.8892 20
    endloop
  endfacet
  facet normal 0 0 1
    outer loop
      vertex -18.75 -32.476 20
      vertex -14.7916 -31.7208 20
      vertex -17.5 -30.3109 20
    endloop
  endfacet
  facet normal 0 0 1
    outer loop
      vertex -14.7916 -31.7208 20
      vertex -18.75 -32.476 20
      vertex -11.5881 -35.6646 20
    endloop
  endfacet
  facet normal 0 0 1
    outer loop
      vertex -20.0752 -28.6703 20
      vertex -18.75 -32.476 20
      vertex -17.5 -30.3109 20
    endloop
  endfacet
  facet normal -0 0 1
    outer loop
      vertex -25.0924 -27.8679 20
      vertex -20.0752 -28.6703 20
      vertex -22.4976 -26.8116 20
    endloop
  endfacet
  facet normal 0 0 1
    outer loop
      vertex -25.0924 -27.8679 20
      vertex -22.4976 -26.8116 20
      vertex -24.7487 -24.7487 20
    endloop
  endfacet
  facet normal 0 0 1
    outer loop
      vertex -20.0752 -28.6703 20
      vertex -25.0924 -27.8679 20
      vertex -18.75 -32.476 20
    endloop
  endfacet
  facet normal 0 0 1
    outer loop
      vertex -26.8116 -22.4976 20
      vertex -25.0924 -27.8679 20
      vertex -24.7487 -24.7487 20
    endloop
  endfacet
  facet normal -0 0 1
    outer loop
      vertex -30.3381 -22.0419 20
      vertex -26.8116 -22.4976 20
      vertex -28.6703 -20.0752 20
    endloop
  endfacet
  facet normal 0 0 1
    outer loop
      vertex -30.3381 -22.0419 20
      vertex -28.6703 -20.0752 20
      vertex -30.3109 -17.5 20
    endloop
  endfacet
  facet normal 0 0 1
    outer loop
      vertex -26.8116 -22.4976 20
      vertex -30.3381 -22.0419 20
      vertex -25.0924 -27.8679 20
    endloop
  endfacet
  facet normal -0 0 1
    outer loop
      vertex -34.258 -15.2526 20
      vertex -30.3109 -17.5 20
      vertex -31.7208 -14.7916 20
    endloop
  endfacet
  facet normal 0 0 1
    outer loop
      vertex -34.258 -15.2526 20
      vertex -31.7208 -14.7916 20
      vertex -32.8892 -11.9707 20
    endloop
  endfacet
  facet normal 0 0 1
    outer loop
      vertex -36.6805 -7.79669 20
      vertex -32.8892 -11.9707 20
      vertex -33.8074 -9.05867 20
    endloop
  endfacet
  facet normal 0 0 1
    outer loop
      vertex -30.3109 -17.5 20
      vertex -34.258 -15.2526 20
      vertex -30.3381 -22.0419 20
    endloop
  endfacet
  facet normal -0 0 1
    outer loop
      vertex -36.6805 -7.79669 20
      vertex -33.8074 -9.05867 20
      vertex -34.4683 -6.07769 20
    endloop
  endfacet
  facet normal 0 0 1
    outer loop
      vertex -36.6805 -7.79669 20
      vertex -34.4683 -6.07769 20
      vertex -34.8668 -3.05045 20
    endloop
  endfacet
  facet normal 0 0 1
    outer loop
      vertex -34.8668 3.05045 20
      vertex -37.5 0 20
      vertex -35 0 20
    endloop
  endfacet
  facet normal 0 0 1
    outer loop
      vertex -35 0 20
      vertex -37.5 0 20
      vertex -34.8668 -3.05045 20
    endloop
  endfacet
  facet normal 0 0 1
    outer loop
      vertex -32.8892 -11.9707 20
      vertex -36.6805 -7.79669 20
      vertex -34.258 -15.2526 20
    endloop
  endfacet
  facet normal 0 0 1
    outer loop
      vertex -34.8668 -3.05045 20
      vertex -37.5 0 20
      vertex -36.6805 -7.79669 20
    endloop
  endfacet
  facet normal 0.951057 -0.309017 0
    outer loop
      vertex 34.258 -15.2526 20
      vertex 36.6805 -7.79669 0
      vertex 36.6805 -7.79669 20
    endloop
  endfacet
  facet normal 0.951057 -0.309017 0
    outer loop
      vertex 36.6805 -7.79669 0
      vertex 34.258 -15.2526 20
      vertex 34.258 -15.2526 0
    endloop
  endfacet
  facet normal 0.866025 -0.5 0
    outer loop
      vertex 30.3381 -22.0419 20
      vertex 34.258 -15.2526 0
      vertex 34.258 -15.2526 20
    endloop
  endfacet
  facet normal 0.866025 -0.5 0
    outer loop
      vertex 34.258 -15.2526 0
      vertex 30.3381 -22.0419 20
      vertex 30.3381 -22.0419 0
    endloop
  endfacet
  facet normal -0.994522 -0.104529 0
    outer loop
      vertex -36.6805 -7.79669 0
      vertex -37.5 0 20
      vertex -37.5 0 0
    endloop
  endfacet
  facet normal -0.994522 -0.104529 0
    outer loop
      vertex -37.5 0 20
      vertex -36.6805 -7.79669 0
      vertex -36.6805 -7.79669 20
    endloop
  endfacet
  facet normal 0.743145 -0.669131 0
    outer loop
      vertex 25.0924 -27.8679 20
      vertex 30.3381 -22.0419 0
      vertex 30.3381 -22.0419 20
    endloop
  endfacet
  facet normal 0.743145 -0.669131 0
    outer loop
      vertex 30.3381 -22.0419 0
      vertex 25.0924 -27.8679 20
      vertex 25.0924 -27.8679 0
    endloop
  endfacet
  facet normal -0.587785 -0.809017 0
    outer loop
      vertex -25.0924 -27.8679 0
      vertex -18.75 -32.476 20
      vertex -25.0924 -27.8679 20
    endloop
  endfacet
  facet normal -0.587785 -0.809017 -0
    outer loop
      vertex -18.75 -32.476 20
      vertex -25.0924 -27.8679 0
      vertex -18.75 -32.476 0
    endloop
  endfacet
  facet normal 0 -1 0
    outer loop
      vertex -3.91982 -37.2946 0
      vertex 3.91982 -37.2946 20
      vertex -3.91982 -37.2946 20
    endloop
  endfacet
  facet normal 0 -1 -0
    outer loop
      vertex 3.91982 -37.2946 20
      vertex -3.91982 -37.2946 0
      vertex 3.91982 -37.2946 0
    endloop
  endfacet
  facet normal 0 0 -1
    outer loop
      vertex 34.8668 -3.05045 0
      vertex 37.5 0 0
      vertex 36.6805 -7.79669 0
    endloop
  endfacet
  facet normal 0 0 -1
    outer loop
      vertex 34.8668 3.05045 0
      vertex 37.5 0 0
      vertex 35 0 0
    endloop
  endfacet
  facet normal -0 0 -1
    outer loop
      vertex 37.5 0 0
      vertex 34.8668 -3.05045 0
      vertex 35 0 0
    endloop
  endfacet
  facet normal 0 0 -1
    outer loop
      vertex 36.6805 -7.79669 0
      vertex 34.4683 -6.07769 0
      vertex 34.8668 -3.05045 0
    endloop
  endfacet
  facet normal 0 0 -1
    outer loop
      vertex 32.8892 -11.9707 0
      vertex 36.6805 -7.79669 0
      vertex 34.258 -15.2526 0
    endloop
  endfacet
  facet normal -0 0 -1
    outer loop
      vertex 36.6805 -7.79669 0
      vertex 33.8074 -9.05867 0
      vertex 34.4683 -6.07769 0
    endloop
  endfacet
  facet normal 0 0 -1
    outer loop
      vertex 36.6805 -7.79669 0
      vertex 32.8892 -11.9707 0
      vertex 33.8074 -9.05867 0
    endloop
  endfacet
  facet normal 0 0 -1
    outer loop
      vertex 34.258 -15.2526 0
      vertex 31.7208 -14.7916 0
      vertex 32.8892 -11.9707 0
    endloop
  endfacet
  facet normal 0 0 -1
    outer loop
      vertex 30.3109 -17.5 0
      vertex 34.258 -15.2526 0
      vertex 30.3381 -22.0419 0
    endloop
  endfacet
  facet normal -0 0 -1
    outer loop
      vertex 34.258 -15.2526 0
      vertex 30.3109 -17.5 0
      vertex 31.7208 -14.7916 0
    endloop
  endfacet
  facet normal 0 0 -1
    outer loop
      vertex 30.3381 -22.0419 0
      vertex 28.6703 -20.0752 0
      vertex 30.3109 -17.5 0
    endloop
  endfacet
  facet normal -0 0 -1
    outer loop
      vertex 30.3381 -22.0419 0
      vertex 26.8116 -22.4976 0
      vertex 28.6703 -20.0752 0
    endloop
  endfacet
  facet normal 0 0 -1
    outer loop
      vertex 25.0924 -27.8679 0
      vertex 26.8116 -22.4976 0
      vertex 30.3381 -22.0419 0
    endloop
  endfacet
  facet normal 0 0 -1
    outer loop
      vertex 25.0924 -27.8679 0
      vertex 24.7487 -24.7487 0
      vertex 26.8116 -22.4976 0
    endloop
  endfacet
  facet normal 0 0 -1
    outer loop
      vertex 25.0924 -27.8679 0
      vertex 22.4976 -26.8116 0
      vertex 24.7487 -24.7487 0
    endloop
  endfacet
  facet normal -0 0 -1
    outer loop
      vertex 25.0924 -27.8679 0
      vertex 20.0752 -28.6703 0
      vertex 22.4976 -26.8116 0
    endloop
  endfacet
  facet normal 0 0 -1
    outer loop
      vertex 18.75 -32.476 0
      vertex 20.0752 -28.6703 0
      vertex 25.0924 -27.8679 0
    endloop
  endfacet
  facet normal 0 0 -1
    outer loop
      vertex 18.75 -32.476 0
      vertex 17.5 -30.3109 0
      vertex 20.0752 -28.6703 0
    endloop
  endfacet
  facet normal 0 0 -1
    outer loop
      vertex 18.75 -32.476 0
      vertex 14.7916 -31.7208 0
      vertex 17.5 -30.3109 0
    endloop
  endfacet
  facet normal 0 0 -1
    outer loop
      vertex 11.5881 -35.6646 0
      vertex 14.7916 -31.7208 0
      vertex 18.75 -32.476 0
    endloop
  endfacet
  facet normal 0 0 -1
    outer loop
      vertex 14.7916 -31.7208 0
      vertex 11.5881 -35.6646 0
      vertex 11.9707 -32.8892 0
    endloop
  endfacet
  facet normal 0 0 -1
    outer loop
      vertex 11.5881 -35.6646 0
      vertex 9.05867 -33.8074 0
      vertex 11.9707 -32.8892 0
    endloop
  endfacet
  facet normal 0 0 -1
    outer loop
      vertex 11.5881 -35.6646 0
      vertex 6.07769 -34.4683 0
      vertex 9.05867 -33.8074 0
    endloop
  endfacet
  facet normal 0 0 -1
    outer loop
      vertex 3.91982 -37.2946 0
      vertex 6.07769 -34.4683 0
      vertex 11.5881 -35.6646 0
    endloop
  endfacet
  facet normal 0 0 -1
    outer loop
      vertex 3.91982 -37.2946 0
      vertex 3.05045 -34.8668 0
      vertex 6.07769 -34.4683 0
    endloop
  endfacet
  facet normal 0 0 -1
    outer loop
      vertex 3.91982 -37.2946 0
      vertex 0 -35 0
      vertex 3.05045 -34.8668 0
    endloop
  endfacet
  facet normal 0 0 -1
    outer loop
      vertex -3.91982 -37.2946 0
      vertex 0 -35 0
      vertex 3.91982 -37.2946 0
    endloop
  endfacet
  facet normal -0 0 -1
    outer loop
      vertex 0 -35 0
      vertex -3.91982 -37.2946 0
      vertex -3.05045 -34.8668 0
    endloop
  endfacet
  facet normal 0 0 -1
    outer loop
      vertex -3.91982 -37.2946 0
      vertex -6.07769 -34.4683 0
      vertex -3.05045 -34.8668 0
    endloop
  endfacet
  facet normal 0 0 -1
    outer loop
      vertex -11.5881 -35.6646 0
      vertex -6.07769 -34.4683 0
      vertex -3.91982 -37.2946 0
    endloop
  endfacet
  facet normal -0 0 -1
    outer loop
      vertex -6.07769 -34.4683 0
      vertex -11.5881 -35.6646 0
      vertex -9.05867 -33.8074 0
    endloop
  endfacet
  facet normal 0 0 -1
    outer loop
      vertex -11.5881 -35.6646 0
      vertex -11.9707 -32.8892 0
      vertex -9.05867 -33.8074 0
    endloop
  endfacet
  facet normal 0 0 -1
    outer loop
      vertex -11.5881 -35.6646 0
      vertex -14.7916 -31.7208 0
      vertex -11.9707 -32.8892 0
    endloop
  endfacet
  facet normal 0 0 -1
    outer loop
      vertex -18.75 -32.476 0
      vertex -14.7916 -31.7208 0
      vertex -11.5881 -35.6646 0
    endloop
  endfacet
  facet normal -0 0 -1
    outer loop
      vertex -14.7916 -31.7208 0
      vertex -18.75 -32.476 0
      vertex -17.5 -30.3109 0
    endloop
  endfacet
  facet normal 0 0 -1
    outer loop
      vertex -18.75 -32.476 0
      vertex -20.0752 -28.6703 0
      vertex -17.5 -30.3109 0
    endloop
  endfacet
  facet normal 0 0 -1
    outer loop
      vertex -25.0924 -27.8679 0
      vertex -20.0752 -28.6703 0
      vertex -18.75 -32.476 0
    endloop
  endfacet
  facet normal 0 0 -1
    outer loop
      vertex -20.0752 -28.6703 0
      vertex -25.0924 -27.8679 0
      vertex -22.4976 -26.8116 0
    endloop
  endfacet
  facet normal -0 0 -1
    outer loop
      vertex -22.4976 -26.8116 0
      vertex -25.0924 -27.8679 0
      vertex -24.7487 -24.7487 0
    endloop
  endfacet
  facet normal 0 0 -1
    outer loop
      vertex -25.0924 -27.8679 0
      vertex -26.8116 -22.4976 0
      vertex -24.7487 -24.7487 0
    endloop
  endfacet
  facet normal 0 0 -1
    outer loop
      vertex -30.3381 -22.0419 0
      vertex -26.8116 -22.4976 0
      vertex -25.0924 -27.8679 0
    endloop
  endfacet
  facet normal 0 0 -1
    outer loop
      vertex -26.8116 -22.4976 0
      vertex -30.3381 -22.0419 0
      vertex -28.6703 -20.0752 0
    endloop
  endfacet
  facet normal -0 0 -1
    outer loop
      vertex -28.6703 -20.0752 0
      vertex -30.3381 -22.0419 0
      vertex -30.3109 -17.5 0
    endloop
  endfacet
  facet normal 0 0 -1
    outer loop
      vertex -34.258 -15.2526 0
      vertex -30.3109 -17.5 0
      vertex -30.3381 -22.0419 0
    endloop
  endfacet
  facet normal 0 0 -1
    outer loop
      vertex -30.3109 -17.5 0
      vertex -34.258 -15.2526 0
      vertex -31.7208 -14.7916 0
    endloop
  endfacet
  facet normal -0 0 -1
    outer loop
      vertex -31.7208 -14.7916 0
      vertex -34.258 -15.2526 0
      vertex -32.8892 -11.9707 0
    endloop
  endfacet
  facet normal 0 0 -1
    outer loop
      vertex -36.6805 -7.79669 0
      vertex -32.8892 -11.9707 0
      vertex -34.258 -15.2526 0
    endloop
  endfacet
  facet normal 0 0 -1
    outer loop
      vertex -32.8892 -11.9707 0
      vertex -36.6805 -7.79669 0
      vertex -33.8074 -9.05867 0
    endloop
  endfacet
  facet normal 0 0 -1
    outer loop
      vertex -33.8074 -9.05867 0
      vertex -36.6805 -7.79669 0
      vertex -34.4683 -6.07769 0
    endloop
  endfacet
  facet normal 0 0 -1
    outer loop
      vertex -37.5 0 0
      vertex -34.8668 -3.05045 0
      vertex -36.6805 -7.79669 0
    endloop
  endfacet
  facet normal -0 0 -1
    outer loop
      vertex -34.4683 -6.07769 0
      vertex -36.6805 -7.79669 0
      vertex -34.8668 -3.05045 0
    endloop
  endfacet
  facet normal 0 0 -1
    outer loop
      vertex 37.5 0 0
      vertex 34.8668 3.05045 0
      vertex 36.6805 7.79669 0
    endloop
  endfacet
  facet normal 0 0 -1
    outer loop
      vertex 34.4683 6.07769 0
      vertex 36.6805 7.79669 0
      vertex 34.8668 3.05045 0
    endloop
  endfacet
  facet normal 0 0 -1
    outer loop
      vertex 33.8074 9.05867 0
      vertex 36.6805 7.79669 0
      vertex 34.4683 6.07769 0
    endloop
  endfacet
  facet normal 0 0 -1
    outer loop
      vertex 32.8892 11.9707 0
      vertex 36.6805 7.79669 0
      vertex 33.8074 9.05867 0
    endloop
  endfacet
  facet normal 0 0 -1
    outer loop
      vertex 36.6805 7.79669 0
      vertex 32.8892 11.9707 0
      vertex 34.258 15.2526 0
    endloop
  endfacet
  facet normal 0 0 -1
    outer loop
      vertex 31.7208 14.7916 0
      vertex 34.258 15.2526 0
      vertex 32.8892 11.9707 0
    endloop
  endfacet
  facet normal 0 0 -1
    outer loop
      vertex 30.3109 17.5 0
      vertex 34.258 15.2526 0
      vertex 31.7208 14.7916 0
    endloop
  endfacet
  facet normal 0 0 -1
    outer loop
      vertex 34.258 15.2526 0
      vertex 30.3109 17.5 0
      vertex 30.3381 22.0419 0
    endloop
  endfacet
  facet normal 0 0 -1
    outer loop
      vertex 28.6703 20.0752 0
      vertex 30.3381 22.0419 0
      vertex 30.3109 17.5 0
    endloop
  endfacet
  facet normal 0 0 -1
    outer loop
      vertex 26.8116 22.4976 0
      vertex 30.3381 22.0419 0
      vertex 28.6703 20.0752 0
    endloop
  endfacet
  facet normal 0 0 -1
    outer loop
      vertex 26.8116 22.4976 0
      vertex 25.0924 27.8679 0
      vertex 30.3381 22.0419 0
    endloop
  endfacet
  facet normal 0 0 -1
    outer loop
      vertex 24.7487 24.7487 0
      vertex 25.0924 27.8679 0
      vertex 26.8116 22.4976 0
    endloop
  endfacet
  facet normal 0 0 -1
    outer loop
      vertex 22.4976 26.8116 0
      vertex 25.0924 27.8679 0
      vertex 24.7487 24.7487 0
    endloop
  endfacet
  facet normal 0 0 -1
    outer loop
      vertex 20.0752 28.6703 0
      vertex 25.0924 27.8679 0
      vertex 22.4976 26.8116 0
    endloop
  endfacet
  facet normal 0 0 -1
    outer loop
      vertex 20.0752 28.6703 0
      vertex 18.75 32.476 0
      vertex 25.0924 27.8679 0
    endloop
  endfacet
  facet normal 0 0 -1
    outer loop
      vertex 17.5 30.3109 0
      vertex 18.75 32.476 0
      vertex 20.0752 28.6703 0
    endloop
  endfacet
  facet normal 0 0 -1
    outer loop
      vertex 14.7916 31.7208 0
      vertex 18.75 32.476 0
      vertex 17.5 30.3109 0
    endloop
  endfacet
  facet normal 0 0 -1
    outer loop
      vertex 11.5881 35.6646 0
      vertex 14.7916 31.7208 0
      vertex 11.9707 32.8892 0
    endloop
  endfacet
  facet normal 0 0 -1
    outer loop
      vertex 14.7916 31.7208 0
      vertex 11.5881 35.6646 0
      vertex 18.75 32.476 0
    endloop
  endfacet
  facet normal 0 0 -1
    outer loop
      vertex 9.05867 33.8074 0
      vertex 11.5881 35.6646 0
      vertex 11.9707 32.8892 0
    endloop
  endfacet
  facet normal 0 0 -1
    outer loop
      vertex 6.07769 34.4683 0
      vertex 11.5881 35.6646 0
      vertex 9.05867 33.8074 0
    endloop
  endfacet
  facet normal 0 0 -1
    outer loop
      vertex 6.07769 34.4683 0
      vertex 3.91982 37.2946 0
      vertex 11.5881 35.6646 0
    endloop
  endfacet
  facet normal 0 0 -1
    outer loop
      vertex 3.05045 34.8668 0
      vertex 3.91982 37.2946 0
      vertex 6.07769 34.4683 0
    endloop
  endfacet
  facet normal 0 0 -1
    outer loop
      vertex 0 35 0
      vertex 3.91982 37.2946 0
      vertex 3.05045 34.8668 0
    endloop
  endfacet
  facet normal 0 0 -1
    outer loop
      vertex -3.91982 37.2946 0
      vertex 0 35 0
      vertex -3.05045 34.8668 0
    endloop
  endfacet
  facet normal 0 0 -1
    outer loop
      vertex 0 35 0
      vertex -3.91982 37.2946 0
      vertex 3.91982 37.2946 0
    endloop
  endfacet
  facet normal 0 0 -1
    outer loop
      vertex -6.07769 34.4683 0
      vertex -3.91982 37.2946 0
      vertex -3.05045 34.8668 0
    endloop
  endfacet
  facet normal 0 0 -1
    outer loop
      vertex -11.5881 35.6646 0
      vertex -6.07769 34.4683 0
      vertex -9.05867 33.8074 0
    endloop
  endfacet
  facet normal 0 0 -1
    outer loop
      vertex -6.07769 34.4683 0
      vertex -11.5881 35.6646 0
      vertex -3.91982 37.2946 0
    endloop
  endfacet
  facet normal 0 0 -1
    outer loop
      vertex -11.9707 32.8892 0
      vertex -11.5881 35.6646 0
      vertex -9.05867 33.8074 0
    endloop
  endfacet
  facet normal 0 0 -1
    outer loop
      vertex -14.7916 31.7208 0
      vertex -11.5881 35.6646 0
      vertex -11.9707 32.8892 0
    endloop
  endfacet
  facet normal 0 0 -1
    outer loop
      vertex -18.75 32.476 0
      vertex -14.7916 31.7208 0
      vertex -17.5 30.3109 0
    endloop
  endfacet
  facet normal 0 0 -1
    outer loop
      vertex -14.7916 31.7208 0
      vertex -18.75 32.476 0
      vertex -11.5881 35.6646 0
    endloop
  endfacet
  facet normal 0 0 -1
    outer loop
      vertex -20.0752 28.6703 0
      vertex -18.75 32.476 0
      vertex -17.5 30.3109 0
    endloop
  endfacet
  facet normal 0 0 -1
    outer loop
      vertex -25.0924 27.8679 0
      vertex -20.0752 28.6703 0
      vertex -22.4976 26.8116 0
    endloop
  endfacet
  facet normal 0 0 -1
    outer loop
      vertex -25.0924 27.8679 0
      vertex -22.4976 26.8116 0
      vertex -24.7487 24.7487 0
    endloop
  endfacet
  facet normal -0 0 -1
    outer loop
      vertex -20.0752 28.6703 0
      vertex -25.0924 27.8679 0
      vertex -18.75 32.476 0
    endloop
  endfacet
  facet normal 0 0 -1
    outer loop
      vertex -26.8116 22.4976 0
      vertex -25.0924 27.8679 0
      vertex -24.7487 24.7487 0
    endloop
  endfacet
  facet normal 0 0 -1
    outer loop
      vertex -30.3381 22.0419 0
      vertex -26.8116 22.4976 0
      vertex -28.6703 20.0752 0
    endloop
  endfacet
  facet normal 0 0 -1
    outer loop
      vertex -30.3381 22.0419 0
      vertex -28.6703 20.0752 0
      vertex -30.3109 17.5 0
    endloop
  endfacet
  facet normal -0 0 -1
    outer loop
      vertex -26.8116 22.4976 0
      vertex -30.3381 22.0419 0
      vertex -25.0924 27.8679 0
    endloop
  endfacet
  facet normal 0 0 -1
    outer loop
      vertex -34.258 15.2526 0
      vertex -30.3109 17.5 0
      vertex -31.7208 14.7916 0
    endloop
  endfacet
  facet normal 0 0 -1
    outer loop
      vertex -34.258 15.2526 0
      vertex -31.7208 14.7916 0
      vertex -32.8892 11.9707 0
    endloop
  endfacet
  facet normal 0 0 -1
    outer loop
      vertex -36.6805 7.79669 0
      vertex -32.8892 11.9707 0
      vertex -33.8074 9.05867 0
    endloop
  endfacet
  facet normal -0 0 -1
    outer loop
      vertex -30.3109 17.5 0
      vertex -34.258 15.2526 0
      vertex -30.3381 22.0419 0
    endloop
  endfacet
  facet normal 0 0 -1
    outer loop
      vertex -36.6805 7.79669 0
      vertex -33.8074 9.05867 0
      vertex -34.4683 6.07769 0
    endloop
  endfacet
  facet normal 0 0 -1
    outer loop
      vertex -36.6805 7.79669 0
      vertex -34.4683 6.07769 0
      vertex -34.8668 3.05045 0
    endloop
  endfacet
  facet normal 0 0 -1
    outer loop
      vertex -34.8668 -3.05045 0
      vertex -37.5 0 0
      vertex -35 0 0
    endloop
  endfacet
  facet normal 0 0 -1
    outer loop
      vertex -35 0 0
      vertex -37.5 0 0
      vertex -34.8668 3.05045 0
    endloop
  endfacet
  facet normal -0 0 -1
    outer loop
      vertex -32.8892 11.9707 0
      vertex -36.6805 7.79669 0
      vertex -34.258 15.2526 0
    endloop
  endfacet
  facet normal -0 0 -1
    outer loop
      vertex -34.8668 3.05045 0
      vertex -37.5 0 0
      vertex -36.6805 7.79669 0
    endloop
  endfacet
  facet normal -0.951057 -0.309017 0
    outer loop
      vertex -34.258 -15.2526 0
      vertex -36.6805 -7.79669 20
      vertex -36.6805 -7.79669 0
    endloop
  endfacet
  facet normal -0.951057 -0.309017 0
    outer loop
      vertex -36.6805 -7.79669 20
      vertex -34.258 -15.2526 0
      vertex -34.258 -15.2526 20
    endloop
  endfacet
  facet normal -0.743145 -0.669131 0
    outer loop
      vertex -25.0924 -27.8679 0
      vertex -30.3381 -22.0419 20
      vertex -30.3381 -22.0419 0
    endloop
  endfacet
  facet normal -0.743145 -0.669131 0
    outer loop
      vertex -30.3381 -22.0419 20
      vertex -25.0924 -27.8679 0
      vertex -25.0924 -27.8679 20
    endloop
  endfacet
  facet normal -0.866025 -0.5 0
    outer loop
      vertex -30.3381 -22.0419 0
      vertex -34.258 -15.2526 20
      vertex -34.258 -15.2526 0
    endloop
  endfacet
  facet normal -0.866025 -0.5 0
    outer loop
      vertex -34.258 -15.2526 20
      vertex -30.3381 -22.0419 0
      vertex -30.3381 -22.0419 20
    endloop
  endfacet
  facet normal 0.406737 -0.913545 0
    outer loop
      vertex 11.5881 -35.6646 0
      vertex 18.75 -32.476 20
      vertex 11.5881 -35.6646 20
    endloop
  endfacet
  facet normal 0.406737 -0.913545 0
    outer loop
      vertex 18.75 -32.476 20
      vertex 11.5881 -35.6646 0
      vertex 18.75 -32.476 0
    endloop
  endfacet
  facet normal -0.406737 -0.913545 0
    outer loop
      vertex -18.75 -32.476 0
      vertex -11.5881 -35.6646 20
      vertex -18.75 -32.476 20
    endloop
  endfacet
  facet normal -0.406737 -0.913545 -0
    outer loop
      vertex -11.5881 -35.6646 20
      vertex -18.75 -32.476 0
      vertex -11.5881 -35.6646 0
    endloop
  endfacet
  facet normal -0.999048 -0.0436196 0
    outer loop
      vertex 35 0 0
      vertex 34.8668 3.05045 20
      vertex 34.8668 3.05045 0
    endloop
  endfacet
  facet normal -0.999048 -0.0436196 0
    outer loop
      vertex 34.8668 3.05045 20
      vertex 35 0 0
      vertex 35 0 20
    endloop
  endfacet
  facet normal 0.999048 -0.0436196 0
    outer loop
      vertex -35 0 20
      vertex -34.8668 3.05045 0
      vertex -34.8668 3.05045 20
    endloop
  endfacet
  facet normal 0.999048 -0.0436196 0
    outer loop
      vertex -34.8668 3.05045 0
      vertex -35 0 20
      vertex -35 0 0
    endloop
  endfacet
  facet normal -0.0436196 -0.999048 0
    outer loop
      vertex 0 35 0
      vertex 3.05045 34.8668 20
      vertex 0 35 20
    endloop
  endfacet
  facet normal -0.0436196 -0.999048 -0
    outer loop
      vertex 3.05045 34.8668 20
      vertex 0 35 0
      vertex 3.05045 34.8668 0
    endloop
  endfacet
  facet normal 0.0436196 0.999048 -0
    outer loop
      vertex 0 -35 0
      vertex -3.05045 -34.8668 20
      vertex 0 -35 20
    endloop
  endfacet
  facet normal 0.0436196 0.999048 0
    outer loop
      vertex -3.05045 -34.8668 20
      vertex 0 -35 0
      vertex -3.05045 -34.8668 0
    endloop
  endfacet
  facet normal -0.737278 -0.67559 0
    outer loop
      vertex 26.8116 22.4976 0
      vertex 24.7487 24.7487 20
      vertex 24.7487 24.7487 0
    endloop
  endfacet
  facet normal -0.737278 -0.67559 0
    outer loop
      vertex 24.7487 24.7487 20
      vertex 26.8116 22.4976 0
      vertex 26.8116 22.4976 20
    endloop
  endfacet
  facet normal 0.67559 -0.737278 0
    outer loop
      vertex -24.7487 24.7487 0
      vertex -22.4976 26.8116 20
      vertex -24.7487 24.7487 20
    endloop
  endfacet
  facet normal 0.67559 -0.737278 0
    outer loop
      vertex -22.4976 26.8116 20
      vertex -24.7487 24.7487 0
      vertex -22.4976 26.8116 0
    endloop
  endfacet
  facet normal 0.300706 -0.953717 0
    outer loop
      vertex -11.9707 32.8892 0
      vertex -9.05867 33.8074 20
      vertex -11.9707 32.8892 20
    endloop
  endfacet
  facet normal 0.300706 -0.953717 0
    outer loop
      vertex -9.05867 33.8074 20
      vertex -11.9707 32.8892 0
      vertex -9.05867 33.8074 0
    endloop
  endfacet
  facet normal -0.92388 -0.382683 0
    outer loop
      vertex 32.8892 11.9707 0
      vertex 31.7208 14.7916 20
      vertex 31.7208 14.7916 0
    endloop
  endfacet
  facet normal -0.92388 -0.382683 0
    outer loop
      vertex 31.7208 14.7916 20
      vertex 32.8892 11.9707 0
      vertex 32.8892 11.9707 20
    endloop
  endfacet
  facet normal -0.382683 -0.92388 0
    outer loop
      vertex 11.9707 32.8892 0
      vertex 14.7916 31.7208 20
      vertex 11.9707 32.8892 20
    endloop
  endfacet
  facet normal -0.382683 -0.92388 -0
    outer loop
      vertex 14.7916 31.7208 20
      vertex 11.9707 32.8892 0
      vertex 14.7916 31.7208 0
    endloop
  endfacet
  facet normal -0.537299 -0.843392 0
    outer loop
      vertex 17.5 30.3109 0
      vertex 20.0752 28.6703 20
      vertex 17.5 30.3109 20
    endloop
  endfacet
  facet normal -0.537299 -0.843392 -0
    outer loop
      vertex 20.0752 28.6703 20
      vertex 17.5 30.3109 0
      vertex 20.0752 28.6703 0
    endloop
  endfacet
  facet normal 0.92388 -0.382683 0
    outer loop
      vertex -32.8892 11.9707 20
      vertex -31.7208 14.7916 0
      vertex -31.7208 14.7916 20
    endloop
  endfacet
  facet normal 0.92388 -0.382683 0
    outer loop
      vertex -31.7208 14.7916 0
      vertex -32.8892 11.9707 20
      vertex -32.8892 11.9707 0
    endloop
  endfacet
  facet normal 0.793353 -0.608762 0
    outer loop
      vertex -28.6703 20.0752 20
      vertex -26.8116 22.4976 0
      vertex -26.8116 22.4976 20
    endloop
  endfacet
  facet normal 0.793353 -0.608762 0
    outer loop
      vertex -26.8116 22.4976 0
      vertex -28.6703 20.0752 20
      vertex -28.6703 20.0752 0
    endloop
  endfacet
  facet normal 0.130527 -0.991445 0
    outer loop
      vertex -6.07769 34.4683 0
      vertex -3.05045 34.8668 20
      vertex -6.07769 34.4683 20
    endloop
  endfacet
  facet normal 0.130527 -0.991445 0
    outer loop
      vertex -3.05045 34.8668 20
      vertex -6.07769 34.4683 0
      vertex -3.05045 34.8668 0
    endloop
  endfacet
  facet normal -0.953717 0.300706 0
    outer loop
      vertex 32.8892 -11.9707 0
      vertex 33.8074 -9.05867 20
      vertex 33.8074 -9.05867 0
    endloop
  endfacet
  facet normal -0.953717 0.300706 0
    outer loop
      vertex 33.8074 -9.05867 20
      vertex 32.8892 -11.9707 0
      vertex 32.8892 -11.9707 20
    endloop
  endfacet
  facet normal 0.793353 0.608762 0
    outer loop
      vertex -26.8116 -22.4976 20
      vertex -28.6703 -20.0752 0
      vertex -28.6703 -20.0752 20
    endloop
  endfacet
  facet normal 0.793353 0.608762 0
    outer loop
      vertex -28.6703 -20.0752 0
      vertex -26.8116 -22.4976 20
      vertex -26.8116 -22.4976 0
    endloop
  endfacet
  facet normal -0.976296 -0.216439 0
    outer loop
      vertex 34.4683 6.07769 0
      vertex 33.8074 9.05867 20
      vertex 33.8074 9.05867 0
    endloop
  endfacet
  facet normal -0.976296 -0.216439 0
    outer loop
      vertex 33.8074 9.05867 20
      vertex 34.4683 6.07769 0
      vertex 34.4683 6.07769 20
    endloop
  endfacet
  facet normal -0.991445 -0.130527 0
    outer loop
      vertex 34.8668 3.05045 0
      vertex 34.4683 6.07769 20
      vertex 34.4683 6.07769 0
    endloop
  endfacet
  facet normal -0.991445 -0.130527 0
    outer loop
      vertex 34.4683 6.07769 20
      vertex 34.8668 3.05045 0
      vertex 34.8668 3.05045 20
    endloop
  endfacet
  facet normal -0.953717 -0.300706 0
    outer loop
      vertex 33.8074 9.05867 0
      vertex 32.8892 11.9707 20
      vertex 32.8892 11.9707 0
    endloop
  endfacet
  facet normal -0.953717 -0.300706 0
    outer loop
      vertex 32.8892 11.9707 20
      vertex 33.8074 9.05867 0
      vertex 33.8074 9.05867 20
    endloop
  endfacet
  facet normal -0.843392 -0.537299 0
    outer loop
      vertex 30.3109 17.5 0
      vertex 28.6703 20.0752 20
      vertex 28.6703 20.0752 0
    endloop
  endfacet
  facet normal -0.843392 -0.537299 0
    outer loop
      vertex 28.6703 20.0752 20
      vertex 30.3109 17.5 0
      vertex 30.3109 17.5 20
    endloop
  endfacet
  facet normal -0.793353 -0.608762 0
    outer loop
      vertex 28.6703 20.0752 0
      vertex 26.8116 22.4976 20
      vertex 26.8116 22.4976 0
    endloop
  endfacet
  facet normal -0.793353 -0.608762 0
    outer loop
      vertex 26.8116 22.4976 20
      vertex 28.6703 20.0752 0
      vertex 28.6703 20.0752 20
    endloop
  endfacet
  facet normal -0.887011 -0.461749 0
    outer loop
      vertex 31.7208 14.7916 0
      vertex 30.3109 17.5 20
      vertex 30.3109 17.5 0
    endloop
  endfacet
  facet normal -0.887011 -0.461749 0
    outer loop
      vertex 30.3109 17.5 20
      vertex 31.7208 14.7916 0
      vertex 31.7208 14.7916 20
    endloop
  endfacet
  facet normal -0.216439 -0.976296 0
    outer loop
      vertex 6.07769 34.4683 0
      vertex 9.05867 33.8074 20
      vertex 6.07769 34.4683 20
    endloop
  endfacet
  facet normal -0.216439 -0.976296 -0
    outer loop
      vertex 9.05867 33.8074 20
      vertex 6.07769 34.4683 0
      vertex 9.05867 33.8074 0
    endloop
  endfacet
  facet normal -0.300706 -0.953717 0
    outer loop
      vertex 9.05867 33.8074 0
      vertex 11.9707 32.8892 20
      vertex 9.05867 33.8074 20
    endloop
  endfacet
  facet normal -0.300706 -0.953717 -0
    outer loop
      vertex 11.9707 32.8892 20
      vertex 9.05867 33.8074 0
      vertex 11.9707 32.8892 0
    endloop
  endfacet
  facet normal -0.130527 -0.991445 0
    outer loop
      vertex 3.05045 34.8668 0
      vertex 6.07769 34.4683 20
      vertex 3.05045 34.8668 20
    endloop
  endfacet
  facet normal -0.130527 -0.991445 -0
    outer loop
      vertex 6.07769 34.4683 20
      vertex 3.05045 34.8668 0
      vertex 6.07769 34.4683 0
    endloop
  endfacet
  facet normal -0.461749 -0.887011 0
    outer loop
      vertex 14.7916 31.7208 0
      vertex 17.5 30.3109 20
      vertex 14.7916 31.7208 20
    endloop
  endfacet
  facet normal -0.461749 -0.887011 -0
    outer loop
      vertex 17.5 30.3109 20
      vertex 14.7916 31.7208 0
      vertex 17.5 30.3109 0
    endloop
  endfacet
  facet normal -0.608762 -0.793353 0
    outer loop
      vertex 20.0752 28.6703 0
      vertex 22.4976 26.8116 20
      vertex 20.0752 28.6703 20
    endloop
  endfacet
  facet normal -0.608762 -0.793353 -0
    outer loop
      vertex 22.4976 26.8116 20
      vertex 20.0752 28.6703 0
      vertex 22.4976 26.8116 0
    endloop
  endfacet
  facet normal 0.976296 -0.216439 0
    outer loop
      vertex -34.4683 6.07769 20
      vertex -33.8074 9.05867 0
      vertex -33.8074 9.05867 20
    endloop
  endfacet
  facet normal 0.976296 -0.216439 0
    outer loop
      vertex -33.8074 9.05867 0
      vertex -34.4683 6.07769 20
      vertex -34.4683 6.07769 0
    endloop
  endfacet
  facet normal 0.843392 -0.537299 0
    outer loop
      vertex -30.3109 17.5 20
      vertex -28.6703 20.0752 0
      vertex -28.6703 20.0752 20
    endloop
  endfacet
  facet normal 0.843392 -0.537299 0
    outer loop
      vertex -28.6703 20.0752 0
      vertex -30.3109 17.5 20
      vertex -30.3109 17.5 0
    endloop
  endfacet
  facet normal 0.887011 -0.461749 0
    outer loop
      vertex -31.7208 14.7916 20
      vertex -30.3109 17.5 0
      vertex -30.3109 17.5 20
    endloop
  endfacet
  facet normal 0.887011 -0.461749 0
    outer loop
      vertex -30.3109 17.5 0
      vertex -31.7208 14.7916 20
      vertex -31.7208 14.7916 0
    endloop
  endfacet
  facet normal 0.953717 -0.300706 0
    outer loop
      vertex -33.8074 9.05867 20
      vertex -32.8892 11.9707 0
      vertex -32.8892 11.9707 20
    endloop
  endfacet
  facet normal 0.953717 -0.300706 0
    outer loop
      vertex -32.8892 11.9707 0
      vertex -33.8074 9.05867 20
      vertex -33.8074 9.05867 0
    endloop
  endfacet
  facet normal 0.991445 -0.130527 0
    outer loop
      vertex -34.8668 3.05045 20
      vertex -34.4683 6.07769 0
      vertex -34.4683 6.07769 20
    endloop
  endfacet
  facet normal 0.991445 -0.130527 0
    outer loop
      vertex -34.4683 6.07769 0
      vertex -34.8668 3.05045 20
      vertex -34.8668 3.05045 0
    endloop
  endfacet
  facet normal 0.461749 -0.887011 0
    outer loop
      vertex -17.5 30.3109 0
      vertex -14.7916 31.7208 20
      vertex -17.5 30.3109 20
    endloop
  endfacet
  facet normal 0.461749 -0.887011 0
    outer loop
      vertex -14.7916 31.7208 20
      vertex -17.5 30.3109 0
      vertex -14.7916 31.7208 0
    endloop
  endfacet
  facet normal 0.382683 -0.92388 0
    outer loop
      vertex -14.7916 31.7208 0
      vertex -11.9707 32.8892 20
      vertex -14.7916 31.7208 20
    endloop
  endfacet
  facet normal 0.382683 -0.92388 0
    outer loop
      vertex -11.9707 32.8892 20
      vertex -14.7916 31.7208 0
      vertex -11.9707 32.8892 0
    endloop
  endfacet
  facet normal 0.608762 -0.793353 0
    outer loop
      vertex -22.4976 26.8116 0
      vertex -20.0752 28.6703 20
      vertex -22.4976 26.8116 20
    endloop
  endfacet
  facet normal 0.608762 -0.793353 0
    outer loop
      vertex -20.0752 28.6703 20
      vertex -22.4976 26.8116 0
      vertex -20.0752 28.6703 0
    endloop
  endfacet
  facet normal 0.216439 -0.976296 0
    outer loop
      vertex -9.05867 33.8074 0
      vertex -6.07769 34.4683 20
      vertex -9.05867 33.8074 20
    endloop
  endfacet
  facet normal 0.216439 -0.976296 0
    outer loop
      vertex -6.07769 34.4683 20
      vertex -9.05867 33.8074 0
      vertex -6.07769 34.4683 0
    endloop
  endfacet
  facet normal 0.0436196 -0.999048 0
    outer loop
      vertex -3.05045 34.8668 0
      vertex 0 35 20
      vertex -3.05045 34.8668 20
    endloop
  endfacet
  facet normal 0.0436196 -0.999048 0
    outer loop
      vertex 0 35 20
      vertex -3.05045 34.8668 0
      vertex 0 35 0
    endloop
  endfacet
  facet normal -0.0436196 0.999048 0
    outer loop
      vertex 3.05045 -34.8668 0
      vertex 0 -35 20
      vertex 3.05045 -34.8668 20
    endloop
  endfacet
  facet normal -0.0436196 0.999048 0
    outer loop
      vertex 0 -35 20
      vertex 3.05045 -34.8668 0
      vertex 0 -35 0
    endloop
  endfacet
  facet normal -0.216439 0.976296 0
    outer loop
      vertex 9.05867 -33.8074 0
      vertex 6.07769 -34.4683 20
      vertex 9.05867 -33.8074 20
    endloop
  endfacet
  facet normal -0.216439 0.976296 0
    outer loop
      vertex 6.07769 -34.4683 20
      vertex 9.05867 -33.8074 0
      vertex 6.07769 -34.4683 0
    endloop
  endfacet
  facet normal -0.608762 0.793353 0
    outer loop
      vertex 22.4976 -26.8116 0
      vertex 20.0752 -28.6703 20
      vertex 22.4976 -26.8116 20
    endloop
  endfacet
  facet normal -0.608762 0.793353 0
    outer loop
      vertex 20.0752 -28.6703 20
      vertex 22.4976 -26.8116 0
      vertex 20.0752 -28.6703 0
    endloop
  endfacet
  facet normal -0.537299 0.843392 0
    outer loop
      vertex 20.0752 -28.6703 0
      vertex 17.5 -30.3109 20
      vertex 20.0752 -28.6703 20
    endloop
  endfacet
  facet normal -0.537299 0.843392 0
    outer loop
      vertex 17.5 -30.3109 20
      vertex 20.0752 -28.6703 0
      vertex 17.5 -30.3109 0
    endloop
  endfacet
  facet normal -0.382683 0.92388 0
    outer loop
      vertex 14.7916 -31.7208 0
      vertex 11.9707 -32.8892 20
      vertex 14.7916 -31.7208 20
    endloop
  endfacet
  facet normal -0.382683 0.92388 0
    outer loop
      vertex 11.9707 -32.8892 20
      vertex 14.7916 -31.7208 0
      vertex 11.9707 -32.8892 0
    endloop
  endfacet
  facet normal -0.737278 0.67559 0
    outer loop
      vertex 24.7487 -24.7487 0
      vertex 26.8116 -22.4976 20
      vertex 26.8116 -22.4976 0
    endloop
  endfacet
  facet normal -0.737278 0.67559 0
    outer loop
      vertex 26.8116 -22.4976 20
      vertex 24.7487 -24.7487 0
      vertex 24.7487 -24.7487 20
    endloop
  endfacet
  facet normal 0.461749 0.887011 -0
    outer loop
      vertex -14.7916 -31.7208 0
      vertex -17.5 -30.3109 20
      vertex -14.7916 -31.7208 20
    endloop
  endfacet
  facet normal 0.461749 0.887011 0
    outer loop
      vertex -17.5 -30.3109 20
      vertex -14.7916 -31.7208 0
      vertex -17.5 -30.3109 0
    endloop
  endfacet
  facet normal 0.300706 0.953717 -0
    outer loop
      vertex -9.05867 -33.8074 0
      vertex -11.9707 -32.8892 20
      vertex -9.05867 -33.8074 20
    endloop
  endfacet
  facet normal 0.300706 0.953717 0
    outer loop
      vertex -11.9707 -32.8892 20
      vertex -9.05867 -33.8074 0
      vertex -11.9707 -32.8892 0
    endloop
  endfacet
  facet normal 0.130527 0.991445 -0
    outer loop
      vertex -3.05045 -34.8668 0
      vertex -6.07769 -34.4683 20
      vertex -3.05045 -34.8668 20
    endloop
  endfacet
  facet normal 0.130527 0.991445 0
    outer loop
      vertex -6.07769 -34.4683 20
      vertex -3.05045 -34.8668 0
      vertex -6.07769 -34.4683 0
    endloop
  endfacet
  facet normal 0.887011 0.461749 0
    outer loop
      vertex -30.3109 -17.5 20
      vertex -31.7208 -14.7916 0
      vertex -31.7208 -14.7916 20
    endloop
  endfacet
  facet normal 0.887011 0.461749 0
    outer loop
      vertex -31.7208 -14.7916 0
      vertex -30.3109 -17.5 20
      vertex -30.3109 -17.5 0
    endloop
  endfacet
  facet normal 0.92388 0.382683 0
    outer loop
      vertex -31.7208 -14.7916 20
      vertex -32.8892 -11.9707 0
      vertex -32.8892 -11.9707 20
    endloop
  endfacet
  facet normal 0.92388 0.382683 0
    outer loop
      vertex -32.8892 -11.9707 0
      vertex -31.7208 -14.7916 20
      vertex -31.7208 -14.7916 0
    endloop
  endfacet
  facet normal 0.843392 0.537299 0
    outer loop
      vertex -28.6703 -20.0752 20
      vertex -30.3109 -17.5 0
      vertex -30.3109 -17.5 20
    endloop
  endfacet
  facet normal 0.843392 0.537299 0
    outer loop
      vertex -30.3109 -17.5 0
      vertex -28.6703 -20.0752 20
      vertex -28.6703 -20.0752 0
    endloop
  endfacet
  facet normal 0.976296 0.216439 0
    outer loop
      vertex -33.8074 -9.05867 20
      vertex -34.4683 -6.07769 0
      vertex -34.4683 -6.07769 20
    endloop
  endfacet
  facet normal 0.976296 0.216439 0
    outer loop
      vertex -34.4683 -6.07769 0
      vertex -33.8074 -9.05867 20
      vertex -33.8074 -9.05867 0
    endloop
  endfacet
  facet normal 0.953717 0.300706 0
    outer loop
      vertex -32.8892 -11.9707 20
      vertex -33.8074 -9.05867 0
      vertex -33.8074 -9.05867 20
    endloop
  endfacet
  facet normal 0.953717 0.300706 0
    outer loop
      vertex -33.8074 -9.05867 0
      vertex -32.8892 -11.9707 20
      vertex -32.8892 -11.9707 0
    endloop
  endfacet
  facet normal 0.999048 0.0436196 0
    outer loop
      vertex -34.8668 -3.05045 20
      vertex -35 0 0
      vertex -35 0 20
    endloop
  endfacet
  facet normal 0.999048 0.0436196 0
    outer loop
      vertex -35 0 0
      vertex -34.8668 -3.05045 20
      vertex -34.8668 -3.05045 0
    endloop
  endfacet
  facet normal -0.67559 -0.737278 0
    outer loop
      vertex 22.4976 26.8116 0
      vertex 24.7487 24.7487 20
      vertex 22.4976 26.8116 20
    endloop
  endfacet
  facet normal -0.67559 -0.737278 -0
    outer loop
      vertex 24.7487 24.7487 20
      vertex 22.4976 26.8116 0
      vertex 24.7487 24.7487 0
    endloop
  endfacet
  facet normal 0.537299 -0.843392 0
    outer loop
      vertex -20.0752 28.6703 0
      vertex -17.5 30.3109 20
      vertex -20.0752 28.6703 20
    endloop
  endfacet
  facet normal 0.537299 -0.843392 0
    outer loop
      vertex -17.5 30.3109 20
      vertex -20.0752 28.6703 0
      vertex -17.5 30.3109 0
    endloop
  endfacet
  facet normal -0.130527 0.991445 0
    outer loop
      vertex 6.07769 -34.4683 0
      vertex 3.05045 -34.8668 20
      vertex 6.07769 -34.4683 20
    endloop
  endfacet
  facet normal -0.130527 0.991445 0
    outer loop
      vertex 3.05045 -34.8668 20
      vertex 6.07769 -34.4683 0
      vertex 3.05045 -34.8668 0
    endloop
  endfacet
  facet normal -0.300706 0.953717 0
    outer loop
      vertex 11.9707 -32.8892 0
      vertex 9.05867 -33.8074 20
      vertex 11.9707 -32.8892 20
    endloop
  endfacet
  facet normal -0.300706 0.953717 0
    outer loop
      vertex 9.05867 -33.8074 20
      vertex 11.9707 -32.8892 0
      vertex 9.05867 -33.8074 0
    endloop
  endfacet
  facet normal -0.67559 0.737278 0
    outer loop
      vertex 24.7487 -24.7487 0
      vertex 22.4976 -26.8116 20
      vertex 24.7487 -24.7487 20
    endloop
  endfacet
  facet normal -0.67559 0.737278 0
    outer loop
      vertex 22.4976 -26.8116 20
      vertex 24.7487 -24.7487 0
      vertex 22.4976 -26.8116 0
    endloop
  endfacet
  facet normal -0.461749 0.887011 0
    outer loop
      vertex 17.5 -30.3109 0
      vertex 14.7916 -31.7208 20
      vertex 17.5 -30.3109 20
    endloop
  endfacet
  facet normal -0.461749 0.887011 0
    outer loop
      vertex 14.7916 -31.7208 20
      vertex 17.5 -30.3109 0
      vertex 14.7916 -31.7208 0
    endloop
  endfacet
  facet normal -0.793353 0.608762 0
    outer loop
      vertex 26.8116 -22.4976 0
      vertex 28.6703 -20.0752 20
      vertex 28.6703 -20.0752 0
    endloop
  endfacet
  facet normal -0.793353 0.608762 0
    outer loop
      vertex 28.6703 -20.0752 20
      vertex 26.8116 -22.4976 0
      vertex 26.8116 -22.4976 20
    endloop
  endfacet
  facet normal -0.843392 0.537299 0
    outer loop
      vertex 28.6703 -20.0752 0
      vertex 30.3109 -17.5 20
      vertex 30.3109 -17.5 0
    endloop
  endfacet
  facet normal -0.843392 0.537299 0
    outer loop
      vertex 30.3109 -17.5 20
      vertex 28.6703 -20.0752 0
      vertex 28.6703 -20.0752 20
    endloop
  endfacet
  facet normal -0.92388 0.382683 0
    outer loop
      vertex 31.7208 -14.7916 0
      vertex 32.8892 -11.9707 20
      vertex 32.8892 -11.9707 0
    endloop
  endfacet
  facet normal -0.92388 0.382683 0
    outer loop
      vertex 32.8892 -11.9707 20
      vertex 31.7208 -14.7916 0
      vertex 31.7208 -14.7916 20
    endloop
  endfacet
  facet normal -0.887011 0.461749 0
    outer loop
      vertex 30.3109 -17.5 0
      vertex 31.7208 -14.7916 20
      vertex 31.7208 -14.7916 0
    endloop
  endfacet
  facet normal -0.887011 0.461749 0
    outer loop
      vertex 31.7208 -14.7916 20
      vertex 30.3109 -17.5 0
      vertex 30.3109 -17.5 20
    endloop
  endfacet
  facet normal -0.976296 0.216439 0
    outer loop
      vertex 33.8074 -9.05867 0
      vertex 34.4683 -6.07769 20
      vertex 34.4683 -6.07769 0
    endloop
  endfacet
  facet normal -0.976296 0.216439 0
    outer loop
      vertex 34.4683 -6.07769 20
      vertex 33.8074 -9.05867 0
      vertex 33.8074 -9.05867 20
    endloop
  endfacet
  facet normal -0.991445 0.130527 0
    outer loop
      vertex 34.4683 -6.07769 0
      vertex 34.8668 -3.05045 20
      vertex 34.8668 -3.05045 0
    endloop
  endfacet
  facet normal -0.991445 0.130527 0
    outer loop
      vertex 34.8668 -3.05045 20
      vertex 34.4683 -6.07769 0
      vertex 34.4683 -6.07769 20
    endloop
  endfacet
  facet normal 0.537299 0.843392 -0
    outer loop
      vertex -17.5 -30.3109 0
      vertex -20.0752 -28.6703 20
      vertex -17.5 -30.3109 20
    endloop
  endfacet
  facet normal 0.537299 0.843392 0
    outer loop
      vertex -20.0752 -28.6703 20
      vertex -17.5 -30.3109 0
      vertex -20.0752 -28.6703 0
    endloop
  endfacet
  facet normal 0.67559 0.737278 -0
    outer loop
      vertex -22.4976 -26.8116 0
      vertex -24.7487 -24.7487 20
      vertex -22.4976 -26.8116 20
    endloop
  endfacet
  facet normal 0.67559 0.737278 0
    outer loop
      vertex -24.7487 -24.7487 20
      vertex -22.4976 -26.8116 0
      vertex -24.7487 -24.7487 0
    endloop
  endfacet
  facet normal 0.608762 0.793353 -0
    outer loop
      vertex -20.0752 -28.6703 0
      vertex -22.4976 -26.8116 20
      vertex -20.0752 -28.6703 20
    endloop
  endfacet
  facet normal 0.608762 0.793353 0
    outer loop
      vertex -22.4976 -26.8116 20
      vertex -20.0752 -28.6703 0
      vertex -22.4976 -26.8116 0
    endloop
  endfacet
  facet normal 0.382683 0.92388 -0
    outer loop
      vertex -11.9707 -32.8892 0
      vertex -14.7916 -31.7208 20
      vertex -11.9707 -32.8892 20
    endloop
  endfacet
  facet normal 0.382683 0.92388 0
    outer loop
      vertex -14.7916 -31.7208 20
      vertex -11.9707 -32.8892 0
      vertex -14.7916 -31.7208 0
    endloop
  endfacet
  facet normal 0.216439 0.976296 -0
    outer loop
      vertex -6.07769 -34.4683 0
      vertex -9.05867 -33.8074 20
      vertex -6.07769 -34.4683 20
    endloop
  endfacet
  facet normal 0.216439 0.976296 0
    outer loop
      vertex -9.05867 -33.8074 20
      vertex -6.07769 -34.4683 0
      vertex -9.05867 -33.8074 0
    endloop
  endfacet
  facet normal 0.737278 0.67559 0
    outer loop
      vertex -24.7487 -24.7487 20
      vertex -26.8116 -22.4976 0
      vertex -26.8116 -22.4976 20
    endloop
  endfacet
  facet normal 0.737278 0.67559 0
    outer loop
      vertex -26.8116 -22.4976 0
      vertex -24.7487 -24.7487 20
      vertex -24.7487 -24.7487 0
    endloop
  endfacet
  facet normal 0.991445 0.130527 0
    outer loop
      vertex -34.4683 -6.07769 20
      vertex -34.8668 -3.05045 0
      vertex -34.8668 -3.05045 20
    endloop
  endfacet
  facet normal 0.991445 0.130527 0
    outer loop
      vertex -34.8668 -3.05045 0
      vertex -34.4683 -6.07769 20
      vertex -34.4683 -6.07769 0
    endloop
  endfacet
  facet normal 0.737278 -0.67559 0
    outer loop
      vertex -26.8116 22.4976 20
      vertex -24.7487 24.7487 0
      vertex -24.7487 24.7487 20
    endloop
  endfacet
  facet normal 0.737278 -0.67559 0
    outer loop
      vertex -24.7487 24.7487 0
      vertex -26.8116 22.4976 20
      vertex -26.8116 22.4976 0
    endloop
  endfacet
  facet normal -0.999048 0.0436196 0
    outer loop
      vertex 34.8668 -3.05045 0
      vertex 35 0 20
      vertex 35 0 0
    endloop
  endfacet
  facet normal -0.999048 0.0436196 0
    outer loop
      vertex 35 0 20
      vertex 34.8668 -3.05045 0
      vertex 34.8668 -3.05045 20
    endloop
  endfacet
endsolid OpenSCAD_Model
