solid OpenSCAD_Model
  facet normal -0.809017 -0.587786 0
    outer loop
      vertex 6.5 5 0
      vertex 5.46352 6.42658 5
      vertex 5.46352 6.42658 0
    endloop
  endfacet
  facet normal -0.809017 -0.587786 0
    outer loop
      vertex 5.46352 6.42658 5
      vertex 6.5 5 0
      vertex 6.5 5 5
    endloop
  endfacet
  facet normal 1 -0 0
    outer loop
      vertex 3.78647 4.11832 5
      vertex 3.78647 5.88168 0
      vertex 3.78647 5.88168 5
    endloop
  endfacet
  facet normal 1 0 0
    outer loop
      vertex 3.78647 5.88168 0
      vertex 3.78647 4.11832 5
      vertex 3.78647 4.11832 0
    endloop
  endfacet
  facet normal 0.309017 -0.951057 0
    outer loop
      vertex 3.78647 5.88168 0
      vertex 5.46352 6.42658 5
      vertex 3.78647 5.88168 5
    endloop
  endfacet
  facet normal 0.309017 -0.951057 0
    outer loop
      vertex 5.46352 6.42658 5
      vertex 3.78647 5.88168 0
      vertex 5.46352 6.42658 0
    endloop
  endfacet
  facet normal 0 0 -1
    outer loop
      vertex 5.46352 13.5734 0
      vertex 13.7865 14.1183 0
      vertex 5.46352 6.42658 0
    endloop
  endfacet
  facet normal -0 0 -1
    outer loop
      vertex 13.7865 14.1183 0
      vertex 5.46352 13.5734 0
      vertex 6.5 15 0
    endloop
  endfacet
  facet normal 0 0 -1
    outer loop
      vertex 3.78647 5.88168 0
      vertex 5.46352 13.5734 0
      vertex 5.46352 6.42658 0
    endloop
  endfacet
  facet normal -0 0 -1
    outer loop
      vertex 5.46352 13.5734 0
      vertex 3.78647 5.88168 0
      vertex 3.78647 14.1183 0
    endloop
  endfacet
  facet normal 0 0 -1
    outer loop
      vertex 15.4635 13.5734 0
      vertex 23.7865 14.1183 0
      vertex 15.4635 6.42658 0
    endloop
  endfacet
  facet normal -0 0 -1
    outer loop
      vertex 23.7865 14.1183 0
      vertex 15.4635 13.5734 0
      vertex 16.5 15 0
    endloop
  endfacet
  facet normal 0 0 -1
    outer loop
      vertex 13.7865 5.88168 0
      vertex 15.4635 13.5734 0
      vertex 15.4635 6.42658 0
    endloop
  endfacet
  facet normal -0 0 -1
    outer loop
      vertex 15.4635 13.5734 0
      vertex 13.7865 5.88168 0
      vertex 13.7865 14.1183 0
    endloop
  endfacet
  facet normal 0 0 -1
    outer loop
      vertex 25.4635 13.5734 0
      vertex 33.7865 14.1183 0
      vertex 25.4635 6.42658 0
    endloop
  endfacet
  facet normal -0 0 -1
    outer loop
      vertex 33.7865 14.1183 0
      vertex 25.4635 13.5734 0
      vertex 26.5 15 0
    endloop
  endfacet
  facet normal 0 0 -1
    outer loop
      vertex 23.7865 5.88168 0
      vertex 25.4635 13.5734 0
      vertex 25.4635 6.42658 0
    endloop
  endfacet
  facet normal -0 0 -1
    outer loop
      vertex 25.4635 13.5734 0
      vertex 23.7865 5.88168 0
      vertex 23.7865 14.1183 0
    endloop
  endfacet
  facet normal 0 0 -1
    outer loop
      vertex 35.4635 13.5734 0
      vertex 43.7865 14.1183 0
      vertex 35.4635 6.42658 0
    endloop
  endfacet
  facet normal -0 0 -1
    outer loop
      vertex 43.7865 14.1183 0
      vertex 35.4635 13.5734 0
      vertex 36.5 15 0
    endloop
  endfacet
  facet normal 0 0 -1
    outer loop
      vertex 33.7865 5.88168 0
      vertex 35.4635 13.5734 0
      vertex 35.4635 6.42658 0
    endloop
  endfacet
  facet normal -0 0 -1
    outer loop
      vertex 35.4635 13.5734 0
      vertex 33.7865 5.88168 0
      vertex 33.7865 14.1183 0
    endloop
  endfacet
  facet normal 0 0 -1
    outer loop
      vertex 45.4635 13.5734 0
      vertex 53.7865 14.1183 0
      vertex 45.4635 6.42658 0
    endloop
  endfacet
  facet normal -0 0 -1
    outer loop
      vertex 53.7865 14.1183 0
      vertex 45.4635 13.5734 0
      vertex 46.5 15 0
    endloop
  endfacet
  facet normal 0 0 -1
    outer loop
      vertex 43.7865 5.88168 0
      vertex 45.4635 13.5734 0
      vertex 45.4635 6.42658 0
    endloop
  endfacet
  facet normal -0 0 -1
    outer loop
      vertex 45.4635 13.5734 0
      vertex 43.7865 5.88168 0
      vertex 43.7865 14.1183 0
    endloop
  endfacet
  facet normal 0 0 -1
    outer loop
      vertex 55.4635 13.5734 0
      vertex 63.7865 14.1183 0
      vertex 55.4635 6.42658 0
    endloop
  endfacet
  facet normal -0 0 -1
    outer loop
      vertex 63.7865 14.1183 0
      vertex 55.4635 13.5734 0
      vertex 56.5 15 0
    endloop
  endfacet
  facet normal 0 0 -1
    outer loop
      vertex 53.7865 5.88168 0
      vertex 55.4635 13.5734 0
      vertex 55.4635 6.42658 0
    endloop
  endfacet
  facet normal -0 0 -1
    outer loop
      vertex 55.4635 13.5734 0
      vertex 53.7865 5.88168 0
      vertex 53.7865 14.1183 0
    endloop
  endfacet
  facet normal 0 0 -1
    outer loop
      vertex 65.4635 13.5734 0
      vertex 73.7865 14.1183 0
      vertex 65.4635 6.42658 0
    endloop
  endfacet
  facet normal -0 0 -1
    outer loop
      vertex 73.7865 14.1183 0
      vertex 65.4635 13.5734 0
      vertex 66.5 15 0
    endloop
  endfacet
  facet normal 0 0 -1
    outer loop
      vertex 63.7865 5.88168 0
      vertex 65.4635 13.5734 0
      vertex 65.4635 6.42658 0
    endloop
  endfacet
  facet normal -0 0 -1
    outer loop
      vertex 65.4635 13.5734 0
      vertex 63.7865 5.88168 0
      vertex 63.7865 14.1183 0
    endloop
  endfacet
  facet normal 0 0 -1
    outer loop
      vertex 75.4635 13.5734 0
      vertex 83.7865 14.1183 0
      vertex 75.4635 6.42658 0
    endloop
  endfacet
  facet normal -0 0 -1
    outer loop
      vertex 83.7865 14.1183 0
      vertex 75.4635 13.5734 0
      vertex 76.5 15 0
    endloop
  endfacet
  facet normal 0 0 -1
    outer loop
      vertex 73.7865 5.88168 0
      vertex 75.4635 13.5734 0
      vertex 75.4635 6.42658 0
    endloop
  endfacet
  facet normal -0 0 -1
    outer loop
      vertex 75.4635 13.5734 0
      vertex 73.7865 5.88168 0
      vertex 73.7865 14.1183 0
    endloop
  endfacet
  facet normal 0 0 -1
    outer loop
      vertex 85.4635 13.5734 0
      vertex 93.7865 14.1183 0
      vertex 85.4635 6.42658 0
    endloop
  endfacet
  facet normal -0 0 -1
    outer loop
      vertex 93.7865 14.1183 0
      vertex 85.4635 13.5734 0
      vertex 86.5 15 0
    endloop
  endfacet
  facet normal 0 0 -1
    outer loop
      vertex 83.7865 5.88168 0
      vertex 85.4635 13.5734 0
      vertex 85.4635 6.42658 0
    endloop
  endfacet
  facet normal -0 0 -1
    outer loop
      vertex 85.4635 13.5734 0
      vertex 83.7865 5.88168 0
      vertex 83.7865 14.1183 0
    endloop
  endfacet
  facet normal 0 0 -1
    outer loop
      vertex 95.4635 13.5734 0
      vertex 103.786 14.1183 0
      vertex 95.4635 6.42658 0
    endloop
  endfacet
  facet normal -0 0 -1
    outer loop
      vertex 103.786 14.1183 0
      vertex 95.4635 13.5734 0
      vertex 96.5 15 0
    endloop
  endfacet
  facet normal 0 0 -1
    outer loop
      vertex 93.7865 5.88168 0
      vertex 95.4635 13.5734 0
      vertex 95.4635 6.42658 0
    endloop
  endfacet
  facet normal -0 0 -1
    outer loop
      vertex 95.4635 13.5734 0
      vertex 93.7865 5.88168 0
      vertex 93.7865 14.1183 0
    endloop
  endfacet
  facet normal 0 0 -1
    outer loop
      vertex 105.464 13.5734 0
      vertex 113.786 14.1183 0
      vertex 105.464 6.42658 0
    endloop
  endfacet
  facet normal -0 0 -1
    outer loop
      vertex 113.786 14.1183 0
      vertex 105.464 13.5734 0
      vertex 106.5 15 0
    endloop
  endfacet
  facet normal 0 0 -1
    outer loop
      vertex 103.786 5.88168 0
      vertex 105.464 13.5734 0
      vertex 105.464 6.42658 0
    endloop
  endfacet
  facet normal -0 0 -1
    outer loop
      vertex 105.464 13.5734 0
      vertex 103.786 5.88168 0
      vertex 103.786 14.1183 0
    endloop
  endfacet
  facet normal 0 0 -1
    outer loop
      vertex 115.464 13.5734 0
      vertex 123.786 14.1183 0
      vertex 115.464 6.42658 0
    endloop
  endfacet
  facet normal -0 0 -1
    outer loop
      vertex 123.786 14.1183 0
      vertex 115.464 13.5734 0
      vertex 116.5 15 0
    endloop
  endfacet
  facet normal 0 0 -1
    outer loop
      vertex 113.786 5.88168 0
      vertex 115.464 13.5734 0
      vertex 115.464 6.42658 0
    endloop
  endfacet
  facet normal -0 0 -1
    outer loop
      vertex 115.464 13.5734 0
      vertex 113.786 5.88168 0
      vertex 113.786 14.1183 0
    endloop
  endfacet
  facet normal 0 0 -1
    outer loop
      vertex 125.464 6.42658 0
      vertex 126.5 15 0
      vertex 126.5 5 0
    endloop
  endfacet
  facet normal 0 0 -1
    outer loop
      vertex 125.464 6.42658 0
      vertex 125.464 13.5734 0
      vertex 126.5 15 0
    endloop
  endfacet
  facet normal 0 0 -1
    outer loop
      vertex 123.786 5.88168 0
      vertex 125.464 13.5734 0
      vertex 125.464 6.42658 0
    endloop
  endfacet
  facet normal -0 0 -1
    outer loop
      vertex 125.464 13.5734 0
      vertex 123.786 5.88168 0
      vertex 123.786 14.1183 0
    endloop
  endfacet
  facet normal 0 0 -1
    outer loop
      vertex 130 0 0
      vertex 126.5 5 0
      vertex 130 20 0
    endloop
  endfacet
  facet normal 0 0 -1
    outer loop
      vertex 130 0 0
      vertex 125.464 3.57341 0
      vertex 126.5 5 0
    endloop
  endfacet
  facet normal 0 0 -1
    outer loop
      vertex 130 0 0
      vertex 123.786 4.11832 0
      vertex 125.464 3.57341 0
    endloop
  endfacet
  facet normal 0 0 -1
    outer loop
      vertex 116.5 5 0
      vertex 123.786 5.88168 0
      vertex 123.786 4.11832 0
    endloop
  endfacet
  facet normal 0 0 -1
    outer loop
      vertex 115.464 6.42658 0
      vertex 123.786 5.88168 0
      vertex 116.5 5 0
    endloop
  endfacet
  facet normal 0 0 -1
    outer loop
      vertex 123.786 5.88168 0
      vertex 115.464 6.42658 0
      vertex 123.786 14.1183 0
    endloop
  endfacet
  facet normal 0 0 -1
    outer loop
      vertex 115.464 3.57341 0
      vertex 123.786 4.11832 0
      vertex 130 0 0
    endloop
  endfacet
  facet normal -0 0 -1
    outer loop
      vertex 123.786 4.11832 0
      vertex 115.464 3.57341 0
      vertex 116.5 5 0
    endloop
  endfacet
  facet normal 0 0 -1
    outer loop
      vertex 106.5 5 0
      vertex 113.786 5.88168 0
      vertex 113.786 4.11832 0
    endloop
  endfacet
  facet normal 0 0 -1
    outer loop
      vertex 105.464 6.42658 0
      vertex 113.786 5.88168 0
      vertex 106.5 5 0
    endloop
  endfacet
  facet normal 0 0 -1
    outer loop
      vertex 113.786 5.88168 0
      vertex 105.464 6.42658 0
      vertex 113.786 14.1183 0
    endloop
  endfacet
  facet normal 0 0 -1
    outer loop
      vertex 105.464 3.57341 0
      vertex 113.786 4.11832 0
      vertex 115.464 3.57341 0
    endloop
  endfacet
  facet normal 0 0 -1
    outer loop
      vertex 105.464 3.57341 0
      vertex 115.464 3.57341 0
      vertex 130 0 0
    endloop
  endfacet
  facet normal -0 0 -1
    outer loop
      vertex 113.786 4.11832 0
      vertex 105.464 3.57341 0
      vertex 106.5 5 0
    endloop
  endfacet
  facet normal 0 0 -1
    outer loop
      vertex 96.5 5 0
      vertex 103.786 5.88168 0
      vertex 103.786 4.11832 0
    endloop
  endfacet
  facet normal 0 0 -1
    outer loop
      vertex 95.4635 6.42658 0
      vertex 103.786 5.88168 0
      vertex 96.5 5 0
    endloop
  endfacet
  facet normal 0 0 -1
    outer loop
      vertex 103.786 5.88168 0
      vertex 95.4635 6.42658 0
      vertex 103.786 14.1183 0
    endloop
  endfacet
  facet normal 0 0 -1
    outer loop
      vertex 95.4635 3.57341 0
      vertex 103.786 4.11832 0
      vertex 105.464 3.57341 0
    endloop
  endfacet
  facet normal -0 0 -1
    outer loop
      vertex 103.786 4.11832 0
      vertex 95.4635 3.57341 0
      vertex 96.5 5 0
    endloop
  endfacet
  facet normal 0 0 -1
    outer loop
      vertex 130 0 0
      vertex 95.4635 3.57341 0
      vertex 105.464 3.57341 0
    endloop
  endfacet
  facet normal 0 0 -1
    outer loop
      vertex 86.5 5 0
      vertex 93.7865 5.88168 0
      vertex 93.7865 4.11832 0
    endloop
  endfacet
  facet normal 0 0 -1
    outer loop
      vertex 85.4635 6.42658 0
      vertex 93.7865 5.88168 0
      vertex 86.5 5 0
    endloop
  endfacet
  facet normal 0 0 -1
    outer loop
      vertex 93.7865 5.88168 0
      vertex 85.4635 6.42658 0
      vertex 93.7865 14.1183 0
    endloop
  endfacet
  facet normal 0 0 -1
    outer loop
      vertex 85.4635 3.57341 0
      vertex 93.7865 4.11832 0
      vertex 95.4635 3.57341 0
    endloop
  endfacet
  facet normal -0 0 -1
    outer loop
      vertex 93.7865 4.11832 0
      vertex 85.4635 3.57341 0
      vertex 86.5 5 0
    endloop
  endfacet
  facet normal 0 0 -1
    outer loop
      vertex 130 0 0
      vertex 85.4635 3.57341 0
      vertex 95.4635 3.57341 0
    endloop
  endfacet
  facet normal 0 0 -1
    outer loop
      vertex 76.5 5 0
      vertex 83.7865 5.88168 0
      vertex 83.7865 4.11832 0
    endloop
  endfacet
  facet normal 0 0 -1
    outer loop
      vertex 75.4635 6.42658 0
      vertex 83.7865 5.88168 0
      vertex 76.5 5 0
    endloop
  endfacet
  facet normal 0 0 -1
    outer loop
      vertex 83.7865 5.88168 0
      vertex 75.4635 6.42658 0
      vertex 83.7865 14.1183 0
    endloop
  endfacet
  facet normal 0 0 -1
    outer loop
      vertex 75.4635 3.57341 0
      vertex 83.7865 4.11832 0
      vertex 85.4635 3.57341 0
    endloop
  endfacet
  facet normal -0 0 -1
    outer loop
      vertex 83.7865 4.11832 0
      vertex 75.4635 3.57341 0
      vertex 76.5 5 0
    endloop
  endfacet
  facet normal 0 0 -1
    outer loop
      vertex 130 0 0
      vertex 75.4635 3.57341 0
      vertex 85.4635 3.57341 0
    endloop
  endfacet
  facet normal 0 0 -1
    outer loop
      vertex 66.5 5 0
      vertex 73.7865 5.88168 0
      vertex 73.7865 4.11832 0
    endloop
  endfacet
  facet normal 0 0 -1
    outer loop
      vertex 65.4635 6.42658 0
      vertex 73.7865 5.88168 0
      vertex 66.5 5 0
    endloop
  endfacet
  facet normal 0 0 -1
    outer loop
      vertex 73.7865 5.88168 0
      vertex 65.4635 6.42658 0
      vertex 73.7865 14.1183 0
    endloop
  endfacet
  facet normal 0 0 -1
    outer loop
      vertex 65.4635 3.57341 0
      vertex 73.7865 4.11832 0
      vertex 75.4635 3.57341 0
    endloop
  endfacet
  facet normal -0 0 -1
    outer loop
      vertex 73.7865 4.11832 0
      vertex 65.4635 3.57341 0
      vertex 66.5 5 0
    endloop
  endfacet
  facet normal 0 0 -1
    outer loop
      vertex 130 0 0
      vertex 65.4635 3.57341 0
      vertex 75.4635 3.57341 0
    endloop
  endfacet
  facet normal 0 0 -1
    outer loop
      vertex 56.5 5 0
      vertex 63.7865 5.88168 0
      vertex 63.7865 4.11832 0
    endloop
  endfacet
  facet normal 0 0 -1
    outer loop
      vertex 55.4635 6.42658 0
      vertex 63.7865 5.88168 0
      vertex 56.5 5 0
    endloop
  endfacet
  facet normal 0 0 -1
    outer loop
      vertex 63.7865 5.88168 0
      vertex 55.4635 6.42658 0
      vertex 63.7865 14.1183 0
    endloop
  endfacet
  facet normal 0 0 -1
    outer loop
      vertex 55.4635 3.57341 0
      vertex 63.7865 4.11832 0
      vertex 65.4635 3.57341 0
    endloop
  endfacet
  facet normal -0 0 -1
    outer loop
      vertex 63.7865 4.11832 0
      vertex 55.4635 3.57341 0
      vertex 56.5 5 0
    endloop
  endfacet
  facet normal 0 0 -1
    outer loop
      vertex 130 0 0
      vertex 55.4635 3.57341 0
      vertex 65.4635 3.57341 0
    endloop
  endfacet
  facet normal 0 0 -1
    outer loop
      vertex 46.5 5 0
      vertex 53.7865 5.88168 0
      vertex 53.7865 4.11832 0
    endloop
  endfacet
  facet normal 0 0 -1
    outer loop
      vertex 45.4635 6.42658 0
      vertex 53.7865 5.88168 0
      vertex 46.5 5 0
    endloop
  endfacet
  facet normal 0 0 -1
    outer loop
      vertex 53.7865 5.88168 0
      vertex 45.4635 6.42658 0
      vertex 53.7865 14.1183 0
    endloop
  endfacet
  facet normal 0 0 -1
    outer loop
      vertex 45.4635 3.57341 0
      vertex 53.7865 4.11832 0
      vertex 55.4635 3.57341 0
    endloop
  endfacet
  facet normal -0 0 -1
    outer loop
      vertex 53.7865 4.11832 0
      vertex 45.4635 3.57341 0
      vertex 46.5 5 0
    endloop
  endfacet
  facet normal 0 0 -1
    outer loop
      vertex 0 0 0
      vertex 55.4635 3.57341 0
      vertex 130 0 0
    endloop
  endfacet
  facet normal 0 0 -1
    outer loop
      vertex 36.5 5 0
      vertex 43.7865 5.88168 0
      vertex 43.7865 4.11832 0
    endloop
  endfacet
  facet normal 0 0 -1
    outer loop
      vertex 35.4635 6.42658 0
      vertex 43.7865 5.88168 0
      vertex 36.5 5 0
    endloop
  endfacet
  facet normal 0 0 -1
    outer loop
      vertex 43.7865 5.88168 0
      vertex 35.4635 6.42658 0
      vertex 43.7865 14.1183 0
    endloop
  endfacet
  facet normal 0 0 -1
    outer loop
      vertex 35.4635 3.57341 0
      vertex 43.7865 4.11832 0
      vertex 45.4635 3.57341 0
    endloop
  endfacet
  facet normal -0 0 -1
    outer loop
      vertex 43.7865 4.11832 0
      vertex 35.4635 3.57341 0
      vertex 36.5 5 0
    endloop
  endfacet
  facet normal -0 0 -1
    outer loop
      vertex 55.4635 3.57341 0
      vertex 0 0 0
      vertex 45.4635 3.57341 0
    endloop
  endfacet
  facet normal 0 0 -1
    outer loop
      vertex 26.5 5 0
      vertex 33.7865 5.88168 0
      vertex 33.7865 4.11832 0
    endloop
  endfacet
  facet normal 0 0 -1
    outer loop
      vertex 25.4635 6.42658 0
      vertex 33.7865 5.88168 0
      vertex 26.5 5 0
    endloop
  endfacet
  facet normal 0 0 -1
    outer loop
      vertex 33.7865 5.88168 0
      vertex 25.4635 6.42658 0
      vertex 33.7865 14.1183 0
    endloop
  endfacet
  facet normal 0 0 -1
    outer loop
      vertex 25.4635 3.57341 0
      vertex 33.7865 4.11832 0
      vertex 35.4635 3.57341 0
    endloop
  endfacet
  facet normal -0 0 -1
    outer loop
      vertex 33.7865 4.11832 0
      vertex 25.4635 3.57341 0
      vertex 26.5 5 0
    endloop
  endfacet
  facet normal -0 0 -1
    outer loop
      vertex 45.4635 3.57341 0
      vertex 0 0 0
      vertex 35.4635 3.57341 0
    endloop
  endfacet
  facet normal 0 0 -1
    outer loop
      vertex 16.5 5 0
      vertex 23.7865 5.88168 0
      vertex 23.7865 4.11832 0
    endloop
  endfacet
  facet normal 0 0 -1
    outer loop
      vertex 15.4635 6.42658 0
      vertex 23.7865 5.88168 0
      vertex 16.5 5 0
    endloop
  endfacet
  facet normal 0 0 -1
    outer loop
      vertex 23.7865 5.88168 0
      vertex 15.4635 6.42658 0
      vertex 23.7865 14.1183 0
    endloop
  endfacet
  facet normal 0 0 -1
    outer loop
      vertex 15.4635 3.57341 0
      vertex 23.7865 4.11832 0
      vertex 25.4635 3.57341 0
    endloop
  endfacet
  facet normal -0 0 -1
    outer loop
      vertex 23.7865 4.11832 0
      vertex 15.4635 3.57341 0
      vertex 16.5 5 0
    endloop
  endfacet
  facet normal -0 0 -1
    outer loop
      vertex 35.4635 3.57341 0
      vertex 0 0 0
      vertex 25.4635 3.57341 0
    endloop
  endfacet
  facet normal 0 0 -1
    outer loop
      vertex 6.5 5 0
      vertex 13.7865 5.88168 0
      vertex 13.7865 4.11832 0
    endloop
  endfacet
  facet normal 0 0 -1
    outer loop
      vertex 5.46352 6.42658 0
      vertex 13.7865 5.88168 0
      vertex 6.5 5 0
    endloop
  endfacet
  facet normal 0 0 -1
    outer loop
      vertex 13.7865 5.88168 0
      vertex 5.46352 6.42658 0
      vertex 13.7865 14.1183 0
    endloop
  endfacet
  facet normal 0 0 -1
    outer loop
      vertex 5.46352 3.57341 0
      vertex 13.7865 4.11832 0
      vertex 15.4635 3.57341 0
    endloop
  endfacet
  facet normal -0 0 -1
    outer loop
      vertex 13.7865 4.11832 0
      vertex 5.46352 3.57341 0
      vertex 6.5 5 0
    endloop
  endfacet
  facet normal -0 0 -1
    outer loop
      vertex 25.4635 3.57341 0
      vertex 0 0 0
      vertex 15.4635 3.57341 0
    endloop
  endfacet
  facet normal 0 0 -1
    outer loop
      vertex 0 0 0
      vertex 3.78647 5.88168 0
      vertex 3.78647 4.11832 0
    endloop
  endfacet
  facet normal -0 0 -1
    outer loop
      vertex 3.78647 5.88168 0
      vertex 0 0 0
      vertex 3.78647 14.1183 0
    endloop
  endfacet
  facet normal 0 0 -1
    outer loop
      vertex 0 20 0
      vertex 3.78647 14.1183 0
      vertex 0 0 0
    endloop
  endfacet
  facet normal -0 0 -1
    outer loop
      vertex 5.46352 3.57341 0
      vertex 0 0 0
      vertex 3.78647 4.11832 0
    endloop
  endfacet
  facet normal -0 0 -1
    outer loop
      vertex 15.4635 3.57341 0
      vertex 0 0 0
      vertex 5.46352 3.57341 0
    endloop
  endfacet
  facet normal 0 0 -1
    outer loop
      vertex 126.5 15 0
      vertex 130 20 0
      vertex 126.5 5 0
    endloop
  endfacet
  facet normal 0 0 -1
    outer loop
      vertex 125.464 16.4266 0
      vertex 130 20 0
      vertex 126.5 15 0
    endloop
  endfacet
  facet normal 0 0 -1
    outer loop
      vertex 123.786 15.8817 0
      vertex 130 20 0
      vertex 125.464 16.4266 0
    endloop
  endfacet
  facet normal 0 0 -1
    outer loop
      vertex 123.786 14.1183 0
      vertex 116.5 15 0
      vertex 123.786 15.8817 0
    endloop
  endfacet
  facet normal 0 0 -1
    outer loop
      vertex 115.464 16.4266 0
      vertex 123.786 15.8817 0
      vertex 116.5 15 0
    endloop
  endfacet
  facet normal 0 0 -1
    outer loop
      vertex 123.786 15.8817 0
      vertex 115.464 16.4266 0
      vertex 130 20 0
    endloop
  endfacet
  facet normal 0 0 -1
    outer loop
      vertex 113.786 14.1183 0
      vertex 106.5 15 0
      vertex 113.786 15.8817 0
    endloop
  endfacet
  facet normal 0 0 -1
    outer loop
      vertex 105.464 16.4266 0
      vertex 113.786 15.8817 0
      vertex 106.5 15 0
    endloop
  endfacet
  facet normal 0 0 -1
    outer loop
      vertex 113.786 15.8817 0
      vertex 105.464 16.4266 0
      vertex 115.464 16.4266 0
    endloop
  endfacet
  facet normal 0 0 -1
    outer loop
      vertex 115.464 16.4266 0
      vertex 105.464 16.4266 0
      vertex 130 20 0
    endloop
  endfacet
  facet normal 0 0 -1
    outer loop
      vertex 103.786 14.1183 0
      vertex 96.5 15 0
      vertex 103.786 15.8817 0
    endloop
  endfacet
  facet normal 0 0 -1
    outer loop
      vertex 95.4635 16.4266 0
      vertex 103.786 15.8817 0
      vertex 96.5 15 0
    endloop
  endfacet
  facet normal 0 0 -1
    outer loop
      vertex 103.786 15.8817 0
      vertex 95.4635 16.4266 0
      vertex 105.464 16.4266 0
    endloop
  endfacet
  facet normal 0 0 -1
    outer loop
      vertex 95.4635 16.4266 0
      vertex 130 20 0
      vertex 105.464 16.4266 0
    endloop
  endfacet
  facet normal 0 0 -1
    outer loop
      vertex 93.7865 14.1183 0
      vertex 86.5 15 0
      vertex 93.7865 15.8817 0
    endloop
  endfacet
  facet normal 0 0 -1
    outer loop
      vertex 85.4635 16.4266 0
      vertex 93.7865 15.8817 0
      vertex 86.5 15 0
    endloop
  endfacet
  facet normal 0 0 -1
    outer loop
      vertex 93.7865 15.8817 0
      vertex 85.4635 16.4266 0
      vertex 95.4635 16.4266 0
    endloop
  endfacet
  facet normal 0 0 -1
    outer loop
      vertex 85.4635 16.4266 0
      vertex 130 20 0
      vertex 95.4635 16.4266 0
    endloop
  endfacet
  facet normal 0 0 -1
    outer loop
      vertex 83.7865 14.1183 0
      vertex 76.5 15 0
      vertex 83.7865 15.8817 0
    endloop
  endfacet
  facet normal 0 0 -1
    outer loop
      vertex 75.4635 16.4266 0
      vertex 83.7865 15.8817 0
      vertex 76.5 15 0
    endloop
  endfacet
  facet normal 0 0 -1
    outer loop
      vertex 83.7865 15.8817 0
      vertex 75.4635 16.4266 0
      vertex 85.4635 16.4266 0
    endloop
  endfacet
  facet normal 0 0 -1
    outer loop
      vertex 75.4635 16.4266 0
      vertex 130 20 0
      vertex 85.4635 16.4266 0
    endloop
  endfacet
  facet normal 0 0 -1
    outer loop
      vertex 73.7865 14.1183 0
      vertex 66.5 15 0
      vertex 73.7865 15.8817 0
    endloop
  endfacet
  facet normal 0 0 -1
    outer loop
      vertex 65.4635 16.4266 0
      vertex 73.7865 15.8817 0
      vertex 66.5 15 0
    endloop
  endfacet
  facet normal 0 0 -1
    outer loop
      vertex 73.7865 15.8817 0
      vertex 65.4635 16.4266 0
      vertex 75.4635 16.4266 0
    endloop
  endfacet
  facet normal 0 0 -1
    outer loop
      vertex 65.4635 16.4266 0
      vertex 130 20 0
      vertex 75.4635 16.4266 0
    endloop
  endfacet
  facet normal 0 0 -1
    outer loop
      vertex 63.7865 14.1183 0
      vertex 56.5 15 0
      vertex 63.7865 15.8817 0
    endloop
  endfacet
  facet normal 0 0 -1
    outer loop
      vertex 55.4635 16.4266 0
      vertex 63.7865 15.8817 0
      vertex 56.5 15 0
    endloop
  endfacet
  facet normal 0 0 -1
    outer loop
      vertex 63.7865 15.8817 0
      vertex 55.4635 16.4266 0
      vertex 65.4635 16.4266 0
    endloop
  endfacet
  facet normal 0 0 -1
    outer loop
      vertex 55.4635 16.4266 0
      vertex 130 20 0
      vertex 65.4635 16.4266 0
    endloop
  endfacet
  facet normal 0 0 -1
    outer loop
      vertex 53.7865 14.1183 0
      vertex 46.5 15 0
      vertex 53.7865 15.8817 0
    endloop
  endfacet
  facet normal 0 0 -1
    outer loop
      vertex 45.4635 16.4266 0
      vertex 53.7865 15.8817 0
      vertex 46.5 15 0
    endloop
  endfacet
  facet normal 0 0 -1
    outer loop
      vertex 53.7865 15.8817 0
      vertex 45.4635 16.4266 0
      vertex 55.4635 16.4266 0
    endloop
  endfacet
  facet normal 0 0 -1
    outer loop
      vertex 0 20 0
      vertex 55.4635 16.4266 0
      vertex 45.4635 16.4266 0
    endloop
  endfacet
  facet normal 0 0 -1
    outer loop
      vertex 43.7865 14.1183 0
      vertex 36.5 15 0
      vertex 43.7865 15.8817 0
    endloop
  endfacet
  facet normal 0 0 -1
    outer loop
      vertex 35.4635 16.4266 0
      vertex 43.7865 15.8817 0
      vertex 36.5 15 0
    endloop
  endfacet
  facet normal 0 0 -1
    outer loop
      vertex 43.7865 15.8817 0
      vertex 35.4635 16.4266 0
      vertex 45.4635 16.4266 0
    endloop
  endfacet
  facet normal 0 0 -1
    outer loop
      vertex 0 20 0
      vertex 45.4635 16.4266 0
      vertex 35.4635 16.4266 0
    endloop
  endfacet
  facet normal 0 0 -1
    outer loop
      vertex 33.7865 14.1183 0
      vertex 26.5 15 0
      vertex 33.7865 15.8817 0
    endloop
  endfacet
  facet normal 0 0 -1
    outer loop
      vertex 25.4635 16.4266 0
      vertex 33.7865 15.8817 0
      vertex 26.5 15 0
    endloop
  endfacet
  facet normal 0 0 -1
    outer loop
      vertex 33.7865 15.8817 0
      vertex 25.4635 16.4266 0
      vertex 35.4635 16.4266 0
    endloop
  endfacet
  facet normal 0 0 -1
    outer loop
      vertex 0 20 0
      vertex 35.4635 16.4266 0
      vertex 25.4635 16.4266 0
    endloop
  endfacet
  facet normal 0 0 -1
    outer loop
      vertex 23.7865 14.1183 0
      vertex 16.5 15 0
      vertex 23.7865 15.8817 0
    endloop
  endfacet
  facet normal 0 0 -1
    outer loop
      vertex 15.4635 16.4266 0
      vertex 23.7865 15.8817 0
      vertex 16.5 15 0
    endloop
  endfacet
  facet normal 0 0 -1
    outer loop
      vertex 23.7865 15.8817 0
      vertex 15.4635 16.4266 0
      vertex 25.4635 16.4266 0
    endloop
  endfacet
  facet normal 0 0 -1
    outer loop
      vertex 0 20 0
      vertex 25.4635 16.4266 0
      vertex 15.4635 16.4266 0
    endloop
  endfacet
  facet normal 0 0 -1
    outer loop
      vertex 13.7865 14.1183 0
      vertex 6.5 15 0
      vertex 13.7865 15.8817 0
    endloop
  endfacet
  facet normal 0 0 -1
    outer loop
      vertex 5.46352 16.4266 0
      vertex 13.7865 15.8817 0
      vertex 6.5 15 0
    endloop
  endfacet
  facet normal 0 0 -1
    outer loop
      vertex 13.7865 15.8817 0
      vertex 5.46352 16.4266 0
      vertex 15.4635 16.4266 0
    endloop
  endfacet
  facet normal 0 0 -1
    outer loop
      vertex 0 20 0
      vertex 15.4635 16.4266 0
      vertex 5.46352 16.4266 0
    endloop
  endfacet
  facet normal 0 0 -1
    outer loop
      vertex 55.4635 16.4266 0
      vertex 0 20 0
      vertex 130 20 0
    endloop
  endfacet
  facet normal 0 0 -1
    outer loop
      vertex 3.78647 15.8817 0
      vertex 0 20 0
      vertex 5.46352 16.4266 0
    endloop
  endfacet
  facet normal 0 0 -1
    outer loop
      vertex 3.78647 14.1183 0
      vertex 0 20 0
      vertex 3.78647 15.8817 0
    endloop
  endfacet
  facet normal -0.809017 0.587785 0
    outer loop
      vertex 5.46352 3.57341 0
      vertex 6.5 5 5
      vertex 6.5 5 0
    endloop
  endfacet
  facet normal -0.809017 0.587785 0
    outer loop
      vertex 6.5 5 5
      vertex 5.46352 3.57341 0
      vertex 5.46352 3.57341 5
    endloop
  endfacet
  facet normal 0.309017 0.951057 -0
    outer loop
      vertex 5.46352 3.57341 0
      vertex 3.78647 4.11832 5
      vertex 5.46352 3.57341 5
    endloop
  endfacet
  facet normal 0.309017 0.951057 0
    outer loop
      vertex 3.78647 4.11832 5
      vertex 5.46352 3.57341 0
      vertex 3.78647 4.11832 0
    endloop
  endfacet
  facet normal -0.809017 -0.587786 0
    outer loop
      vertex 6.5 15 0
      vertex 5.46352 16.4266 5
      vertex 5.46352 16.4266 0
    endloop
  endfacet
  facet normal -0.809017 -0.587786 0
    outer loop
      vertex 5.46352 16.4266 5
      vertex 6.5 15 0
      vertex 6.5 15 5
    endloop
  endfacet
  facet normal 1 -0 0
    outer loop
      vertex 3.78647 14.1183 5
      vertex 3.78647 15.8817 0
      vertex 3.78647 15.8817 5
    endloop
  endfacet
  facet normal 1 0 0
    outer loop
      vertex 3.78647 15.8817 0
      vertex 3.78647 14.1183 5
      vertex 3.78647 14.1183 0
    endloop
  endfacet
  facet normal 0.309017 -0.951057 0
    outer loop
      vertex 3.78647 15.8817 0
      vertex 5.46352 16.4266 5
      vertex 3.78647 15.8817 5
    endloop
  endfacet
  facet normal 0.309017 -0.951057 0
    outer loop
      vertex 5.46352 16.4266 5
      vertex 3.78647 15.8817 0
      vertex 5.46352 16.4266 0
    endloop
  endfacet
  facet normal 0.309017 0.951057 -0
    outer loop
      vertex 5.46352 13.5734 0
      vertex 3.78647 14.1183 5
      vertex 5.46352 13.5734 5
    endloop
  endfacet
  facet normal 0.309017 0.951057 0
    outer loop
      vertex 3.78647 14.1183 5
      vertex 5.46352 13.5734 0
      vertex 3.78647 14.1183 0
    endloop
  endfacet
  facet normal -0.809017 0.587785 0
    outer loop
      vertex 5.46352 13.5734 0
      vertex 6.5 15 5
      vertex 6.5 15 0
    endloop
  endfacet
  facet normal -0.809017 0.587785 0
    outer loop
      vertex 6.5 15 5
      vertex 5.46352 13.5734 0
      vertex 5.46352 13.5734 5
    endloop
  endfacet
  facet normal -0.809017 -0.587786 0
    outer loop
      vertex 16.5 5 0
      vertex 15.4635 6.42658 5
      vertex 15.4635 6.42658 0
    endloop
  endfacet
  facet normal -0.809017 -0.587786 0
    outer loop
      vertex 15.4635 6.42658 5
      vertex 16.5 5 0
      vertex 16.5 5 5
    endloop
  endfacet
  facet normal 1 -0 0
    outer loop
      vertex 13.7865 4.11832 5
      vertex 13.7865 5.88168 0
      vertex 13.7865 5.88168 5
    endloop
  endfacet
  facet normal 1 0 0
    outer loop
      vertex 13.7865 5.88168 0
      vertex 13.7865 4.11832 5
      vertex 13.7865 4.11832 0
    endloop
  endfacet
  facet normal 0.309017 -0.951057 0
    outer loop
      vertex 13.7865 5.88168 0
      vertex 15.4635 6.42658 5
      vertex 13.7865 5.88168 5
    endloop
  endfacet
  facet normal 0.309017 -0.951057 0
    outer loop
      vertex 15.4635 6.42658 5
      vertex 13.7865 5.88168 0
      vertex 15.4635 6.42658 0
    endloop
  endfacet
  facet normal 0.309017 0.951057 -0
    outer loop
      vertex 15.4635 3.57341 0
      vertex 13.7865 4.11832 5
      vertex 15.4635 3.57341 5
    endloop
  endfacet
  facet normal 0.309017 0.951057 0
    outer loop
      vertex 13.7865 4.11832 5
      vertex 15.4635 3.57341 0
      vertex 13.7865 4.11832 0
    endloop
  endfacet
  facet normal -0.809017 0.587785 0
    outer loop
      vertex 15.4635 3.57341 0
      vertex 16.5 5 5
      vertex 16.5 5 0
    endloop
  endfacet
  facet normal -0.809017 0.587785 0
    outer loop
      vertex 16.5 5 5
      vertex 15.4635 3.57341 0
      vertex 15.4635 3.57341 5
    endloop
  endfacet
  facet normal -0.809017 -0.587786 0
    outer loop
      vertex 16.5 15 0
      vertex 15.4635 16.4266 5
      vertex 15.4635 16.4266 0
    endloop
  endfacet
  facet normal -0.809017 -0.587786 0
    outer loop
      vertex 15.4635 16.4266 5
      vertex 16.5 15 0
      vertex 16.5 15 5
    endloop
  endfacet
  facet normal 1 -0 0
    outer loop
      vertex 13.7865 14.1183 5
      vertex 13.7865 15.8817 0
      vertex 13.7865 15.8817 5
    endloop
  endfacet
  facet normal 1 0 0
    outer loop
      vertex 13.7865 15.8817 0
      vertex 13.7865 14.1183 5
      vertex 13.7865 14.1183 0
    endloop
  endfacet
  facet normal 0.309017 -0.951057 0
    outer loop
      vertex 13.7865 15.8817 0
      vertex 15.4635 16.4266 5
      vertex 13.7865 15.8817 5
    endloop
  endfacet
  facet normal 0.309017 -0.951057 0
    outer loop
      vertex 15.4635 16.4266 5
      vertex 13.7865 15.8817 0
      vertex 15.4635 16.4266 0
    endloop
  endfacet
  facet normal 0.309017 0.951057 -0
    outer loop
      vertex 15.4635 13.5734 0
      vertex 13.7865 14.1183 5
      vertex 15.4635 13.5734 5
    endloop
  endfacet
  facet normal 0.309017 0.951057 0
    outer loop
      vertex 13.7865 14.1183 5
      vertex 15.4635 13.5734 0
      vertex 13.7865 14.1183 0
    endloop
  endfacet
  facet normal -0.809017 0.587785 0
    outer loop
      vertex 15.4635 13.5734 0
      vertex 16.5 15 5
      vertex 16.5 15 0
    endloop
  endfacet
  facet normal -0.809017 0.587785 0
    outer loop
      vertex 16.5 15 5
      vertex 15.4635 13.5734 0
      vertex 15.4635 13.5734 5
    endloop
  endfacet
  facet normal -0.809016 -0.587786 0
    outer loop
      vertex 26.5 5 0
      vertex 25.4635 6.42658 5
      vertex 25.4635 6.42658 0
    endloop
  endfacet
  facet normal -0.809016 -0.587786 0
    outer loop
      vertex 25.4635 6.42658 5
      vertex 26.5 5 0
      vertex 26.5 5 5
    endloop
  endfacet
  facet normal 1 -0 0
    outer loop
      vertex 23.7865 4.11832 5
      vertex 23.7865 5.88168 0
      vertex 23.7865 5.88168 5
    endloop
  endfacet
  facet normal 1 0 0
    outer loop
      vertex 23.7865 5.88168 0
      vertex 23.7865 4.11832 5
      vertex 23.7865 4.11832 0
    endloop
  endfacet
  facet normal 0.309017 -0.951056 0
    outer loop
      vertex 23.7865 5.88168 0
      vertex 25.4635 6.42658 5
      vertex 23.7865 5.88168 5
    endloop
  endfacet
  facet normal 0.309017 -0.951056 0
    outer loop
      vertex 25.4635 6.42658 5
      vertex 23.7865 5.88168 0
      vertex 25.4635 6.42658 0
    endloop
  endfacet
  facet normal 0.309017 0.951056 -0
    outer loop
      vertex 25.4635 3.57341 0
      vertex 23.7865 4.11832 5
      vertex 25.4635 3.57341 5
    endloop
  endfacet
  facet normal 0.309017 0.951056 0
    outer loop
      vertex 23.7865 4.11832 5
      vertex 25.4635 3.57341 0
      vertex 23.7865 4.11832 0
    endloop
  endfacet
  facet normal -0.809017 0.587786 0
    outer loop
      vertex 25.4635 3.57341 0
      vertex 26.5 5 5
      vertex 26.5 5 0
    endloop
  endfacet
  facet normal -0.809017 0.587786 0
    outer loop
      vertex 26.5 5 5
      vertex 25.4635 3.57341 0
      vertex 25.4635 3.57341 5
    endloop
  endfacet
  facet normal -0.809016 -0.587786 0
    outer loop
      vertex 26.5 15 0
      vertex 25.4635 16.4266 5
      vertex 25.4635 16.4266 0
    endloop
  endfacet
  facet normal -0.809016 -0.587786 0
    outer loop
      vertex 25.4635 16.4266 5
      vertex 26.5 15 0
      vertex 26.5 15 5
    endloop
  endfacet
  facet normal 1 -0 0
    outer loop
      vertex 23.7865 14.1183 5
      vertex 23.7865 15.8817 0
      vertex 23.7865 15.8817 5
    endloop
  endfacet
  facet normal 1 0 0
    outer loop
      vertex 23.7865 15.8817 0
      vertex 23.7865 14.1183 5
      vertex 23.7865 14.1183 0
    endloop
  endfacet
  facet normal 0.309017 -0.951056 0
    outer loop
      vertex 23.7865 15.8817 0
      vertex 25.4635 16.4266 5
      vertex 23.7865 15.8817 5
    endloop
  endfacet
  facet normal 0.309017 -0.951056 0
    outer loop
      vertex 25.4635 16.4266 5
      vertex 23.7865 15.8817 0
      vertex 25.4635 16.4266 0
    endloop
  endfacet
  facet normal 0.309017 0.951056 -0
    outer loop
      vertex 25.4635 13.5734 0
      vertex 23.7865 14.1183 5
      vertex 25.4635 13.5734 5
    endloop
  endfacet
  facet normal 0.309017 0.951056 0
    outer loop
      vertex 23.7865 14.1183 5
      vertex 25.4635 13.5734 0
      vertex 23.7865 14.1183 0
    endloop
  endfacet
  facet normal -0.809017 0.587786 0
    outer loop
      vertex 25.4635 13.5734 0
      vertex 26.5 15 5
      vertex 26.5 15 0
    endloop
  endfacet
  facet normal -0.809017 0.587786 0
    outer loop
      vertex 26.5 15 5
      vertex 25.4635 13.5734 0
      vertex 25.4635 13.5734 5
    endloop
  endfacet
  facet normal -0.809016 -0.587786 0
    outer loop
      vertex 36.5 5 0
      vertex 35.4635 6.42658 5
      vertex 35.4635 6.42658 0
    endloop
  endfacet
  facet normal -0.809016 -0.587786 0
    outer loop
      vertex 35.4635 6.42658 5
      vertex 36.5 5 0
      vertex 36.5 5 5
    endloop
  endfacet
  facet normal 1 -0 0
    outer loop
      vertex 33.7865 4.11832 5
      vertex 33.7865 5.88168 0
      vertex 33.7865 5.88168 5
    endloop
  endfacet
  facet normal 1 0 0
    outer loop
      vertex 33.7865 5.88168 0
      vertex 33.7865 4.11832 5
      vertex 33.7865 4.11832 0
    endloop
  endfacet
  facet normal 0.309017 -0.951056 0
    outer loop
      vertex 33.7865 5.88168 0
      vertex 35.4635 6.42658 5
      vertex 33.7865 5.88168 5
    endloop
  endfacet
  facet normal 0.309017 -0.951056 0
    outer loop
      vertex 35.4635 6.42658 5
      vertex 33.7865 5.88168 0
      vertex 35.4635 6.42658 0
    endloop
  endfacet
  facet normal 0.309017 0.951056 -0
    outer loop
      vertex 35.4635 3.57341 0
      vertex 33.7865 4.11832 5
      vertex 35.4635 3.57341 5
    endloop
  endfacet
  facet normal 0.309017 0.951056 0
    outer loop
      vertex 33.7865 4.11832 5
      vertex 35.4635 3.57341 0
      vertex 33.7865 4.11832 0
    endloop
  endfacet
  facet normal -0.809017 0.587786 0
    outer loop
      vertex 35.4635 3.57341 0
      vertex 36.5 5 5
      vertex 36.5 5 0
    endloop
  endfacet
  facet normal -0.809017 0.587786 0
    outer loop
      vertex 36.5 5 5
      vertex 35.4635 3.57341 0
      vertex 35.4635 3.57341 5
    endloop
  endfacet
  facet normal -0.809016 -0.587786 0
    outer loop
      vertex 36.5 15 0
      vertex 35.4635 16.4266 5
      vertex 35.4635 16.4266 0
    endloop
  endfacet
  facet normal -0.809016 -0.587786 0
    outer loop
      vertex 35.4635 16.4266 5
      vertex 36.5 15 0
      vertex 36.5 15 5
    endloop
  endfacet
  facet normal 1 -0 0
    outer loop
      vertex 33.7865 14.1183 5
      vertex 33.7865 15.8817 0
      vertex 33.7865 15.8817 5
    endloop
  endfacet
  facet normal 1 0 0
    outer loop
      vertex 33.7865 15.8817 0
      vertex 33.7865 14.1183 5
      vertex 33.7865 14.1183 0
    endloop
  endfacet
  facet normal 0.309017 -0.951056 0
    outer loop
      vertex 33.7865 15.8817 0
      vertex 35.4635 16.4266 5
      vertex 33.7865 15.8817 5
    endloop
  endfacet
  facet normal 0.309017 -0.951056 0
    outer loop
      vertex 35.4635 16.4266 5
      vertex 33.7865 15.8817 0
      vertex 35.4635 16.4266 0
    endloop
  endfacet
  facet normal -0.809017 0.587786 0
    outer loop
      vertex 35.4635 13.5734 0
      vertex 36.5 15 5
      vertex 36.5 15 0
    endloop
  endfacet
  facet normal -0.809017 0.587786 0
    outer loop
      vertex 36.5 15 5
      vertex 35.4635 13.5734 0
      vertex 35.4635 13.5734 5
    endloop
  endfacet
  facet normal 0.309017 0.951056 -0
    outer loop
      vertex 35.4635 13.5734 0
      vertex 33.7865 14.1183 5
      vertex 35.4635 13.5734 5
    endloop
  endfacet
  facet normal 0.309017 0.951056 0
    outer loop
      vertex 33.7865 14.1183 5
      vertex 35.4635 13.5734 0
      vertex 33.7865 14.1183 0
    endloop
  endfacet
  facet normal -0.809016 -0.587786 0
    outer loop
      vertex 46.5 5 0
      vertex 45.4635 6.42658 5
      vertex 45.4635 6.42658 0
    endloop
  endfacet
  facet normal -0.809016 -0.587786 0
    outer loop
      vertex 45.4635 6.42658 5
      vertex 46.5 5 0
      vertex 46.5 5 5
    endloop
  endfacet
  facet normal 1 -0 0
    outer loop
      vertex 43.7865 4.11832 5
      vertex 43.7865 5.88168 0
      vertex 43.7865 5.88168 5
    endloop
  endfacet
  facet normal 1 0 0
    outer loop
      vertex 43.7865 5.88168 0
      vertex 43.7865 4.11832 5
      vertex 43.7865 4.11832 0
    endloop
  endfacet
  facet normal 0.309017 -0.951056 0
    outer loop
      vertex 43.7865 5.88168 0
      vertex 45.4635 6.42658 5
      vertex 43.7865 5.88168 5
    endloop
  endfacet
  facet normal 0.309017 -0.951056 0
    outer loop
      vertex 45.4635 6.42658 5
      vertex 43.7865 5.88168 0
      vertex 45.4635 6.42658 0
    endloop
  endfacet
  facet normal 0.309017 0.951056 -0
    outer loop
      vertex 45.4635 3.57341 0
      vertex 43.7865 4.11832 5
      vertex 45.4635 3.57341 5
    endloop
  endfacet
  facet normal 0.309017 0.951056 0
    outer loop
      vertex 43.7865 4.11832 5
      vertex 45.4635 3.57341 0
      vertex 43.7865 4.11832 0
    endloop
  endfacet
  facet normal -0.809017 0.587786 0
    outer loop
      vertex 45.4635 3.57341 0
      vertex 46.5 5 5
      vertex 46.5 5 0
    endloop
  endfacet
  facet normal -0.809017 0.587786 0
    outer loop
      vertex 46.5 5 5
      vertex 45.4635 3.57341 0
      vertex 45.4635 3.57341 5
    endloop
  endfacet
  facet normal -0.809016 -0.587786 0
    outer loop
      vertex 46.5 15 0
      vertex 45.4635 16.4266 5
      vertex 45.4635 16.4266 0
    endloop
  endfacet
  facet normal -0.809016 -0.587786 0
    outer loop
      vertex 45.4635 16.4266 5
      vertex 46.5 15 0
      vertex 46.5 15 5
    endloop
  endfacet
  facet normal 1 -0 0
    outer loop
      vertex 43.7865 14.1183 5
      vertex 43.7865 15.8817 0
      vertex 43.7865 15.8817 5
    endloop
  endfacet
  facet normal 1 0 0
    outer loop
      vertex 43.7865 15.8817 0
      vertex 43.7865 14.1183 5
      vertex 43.7865 14.1183 0
    endloop
  endfacet
  facet normal 0.309017 -0.951056 0
    outer loop
      vertex 43.7865 15.8817 0
      vertex 45.4635 16.4266 5
      vertex 43.7865 15.8817 5
    endloop
  endfacet
  facet normal 0.309017 -0.951056 0
    outer loop
      vertex 45.4635 16.4266 5
      vertex 43.7865 15.8817 0
      vertex 45.4635 16.4266 0
    endloop
  endfacet
  facet normal 0.309017 0.951056 -0
    outer loop
      vertex 45.4635 13.5734 0
      vertex 43.7865 14.1183 5
      vertex 45.4635 13.5734 5
    endloop
  endfacet
  facet normal 0.309017 0.951056 0
    outer loop
      vertex 43.7865 14.1183 5
      vertex 45.4635 13.5734 0
      vertex 43.7865 14.1183 0
    endloop
  endfacet
  facet normal -0.809017 0.587786 0
    outer loop
      vertex 45.4635 13.5734 0
      vertex 46.5 15 5
      vertex 46.5 15 0
    endloop
  endfacet
  facet normal -0.809017 0.587786 0
    outer loop
      vertex 46.5 15 5
      vertex 45.4635 13.5734 0
      vertex 45.4635 13.5734 5
    endloop
  endfacet
  facet normal -0.809016 -0.587786 0
    outer loop
      vertex 56.5 5 0
      vertex 55.4635 6.42658 5
      vertex 55.4635 6.42658 0
    endloop
  endfacet
  facet normal -0.809016 -0.587786 0
    outer loop
      vertex 55.4635 6.42658 5
      vertex 56.5 5 0
      vertex 56.5 5 5
    endloop
  endfacet
  facet normal 1 -0 0
    outer loop
      vertex 53.7865 4.11832 5
      vertex 53.7865 5.88168 0
      vertex 53.7865 5.88168 5
    endloop
  endfacet
  facet normal 1 0 0
    outer loop
      vertex 53.7865 5.88168 0
      vertex 53.7865 4.11832 5
      vertex 53.7865 4.11832 0
    endloop
  endfacet
  facet normal 0.309017 -0.951056 0
    outer loop
      vertex 53.7865 5.88168 0
      vertex 55.4635 6.42658 5
      vertex 53.7865 5.88168 5
    endloop
  endfacet
  facet normal 0.309017 -0.951056 0
    outer loop
      vertex 55.4635 6.42658 5
      vertex 53.7865 5.88168 0
      vertex 55.4635 6.42658 0
    endloop
  endfacet
  facet normal -0.809017 0.587786 0
    outer loop
      vertex 55.4635 3.57341 0
      vertex 56.5 5 5
      vertex 56.5 5 0
    endloop
  endfacet
  facet normal -0.809017 0.587786 0
    outer loop
      vertex 56.5 5 5
      vertex 55.4635 3.57341 0
      vertex 55.4635 3.57341 5
    endloop
  endfacet
  facet normal 0.309017 0.951056 -0
    outer loop
      vertex 55.4635 3.57341 0
      vertex 53.7865 4.11832 5
      vertex 55.4635 3.57341 5
    endloop
  endfacet
  facet normal 0.309017 0.951056 0
    outer loop
      vertex 53.7865 4.11832 5
      vertex 55.4635 3.57341 0
      vertex 53.7865 4.11832 0
    endloop
  endfacet
  facet normal -0.809016 -0.587786 0
    outer loop
      vertex 56.5 15 0
      vertex 55.4635 16.4266 5
      vertex 55.4635 16.4266 0
    endloop
  endfacet
  facet normal -0.809016 -0.587786 0
    outer loop
      vertex 55.4635 16.4266 5
      vertex 56.5 15 0
      vertex 56.5 15 5
    endloop
  endfacet
  facet normal 1 -0 0
    outer loop
      vertex 53.7865 14.1183 5
      vertex 53.7865 15.8817 0
      vertex 53.7865 15.8817 5
    endloop
  endfacet
  facet normal 1 0 0
    outer loop
      vertex 53.7865 15.8817 0
      vertex 53.7865 14.1183 5
      vertex 53.7865 14.1183 0
    endloop
  endfacet
  facet normal 0.309017 -0.951056 0
    outer loop
      vertex 53.7865 15.8817 0
      vertex 55.4635 16.4266 5
      vertex 53.7865 15.8817 5
    endloop
  endfacet
  facet normal 0.309017 -0.951056 0
    outer loop
      vertex 55.4635 16.4266 5
      vertex 53.7865 15.8817 0
      vertex 55.4635 16.4266 0
    endloop
  endfacet
  facet normal 0.309017 0.951056 -0
    outer loop
      vertex 55.4635 13.5734 0
      vertex 53.7865 14.1183 5
      vertex 55.4635 13.5734 5
    endloop
  endfacet
  facet normal 0.309017 0.951056 0
    outer loop
      vertex 53.7865 14.1183 5
      vertex 55.4635 13.5734 0
      vertex 53.7865 14.1183 0
    endloop
  endfacet
  facet normal -0.809017 0.587786 0
    outer loop
      vertex 55.4635 13.5734 0
      vertex 56.5 15 5
      vertex 56.5 15 0
    endloop
  endfacet
  facet normal -0.809017 0.587786 0
    outer loop
      vertex 56.5 15 5
      vertex 55.4635 13.5734 0
      vertex 55.4635 13.5734 5
    endloop
  endfacet
  facet normal -0.809016 -0.587786 0
    outer loop
      vertex 66.5 5 0
      vertex 65.4635 6.42658 5
      vertex 65.4635 6.42658 0
    endloop
  endfacet
  facet normal -0.809016 -0.587786 0
    outer loop
      vertex 65.4635 6.42658 5
      vertex 66.5 5 0
      vertex 66.5 5 5
    endloop
  endfacet
  facet normal 1 -0 0
    outer loop
      vertex 63.7865 4.11832 5
      vertex 63.7865 5.88168 0
      vertex 63.7865 5.88168 5
    endloop
  endfacet
  facet normal 1 0 0
    outer loop
      vertex 63.7865 5.88168 0
      vertex 63.7865 4.11832 5
      vertex 63.7865 4.11832 0
    endloop
  endfacet
  facet normal 0.309017 -0.951056 0
    outer loop
      vertex 63.7865 5.88168 0
      vertex 65.4635 6.42658 5
      vertex 63.7865 5.88168 5
    endloop
  endfacet
  facet normal 0.309017 -0.951056 0
    outer loop
      vertex 65.4635 6.42658 5
      vertex 63.7865 5.88168 0
      vertex 65.4635 6.42658 0
    endloop
  endfacet
  facet normal -0.809017 0.587786 0
    outer loop
      vertex 65.4635 3.57341 0
      vertex 66.5 5 5
      vertex 66.5 5 0
    endloop
  endfacet
  facet normal -0.809017 0.587786 0
    outer loop
      vertex 66.5 5 5
      vertex 65.4635 3.57341 0
      vertex 65.4635 3.57341 5
    endloop
  endfacet
  facet normal 0.309017 0.951056 -0
    outer loop
      vertex 65.4635 3.57341 0
      vertex 63.7865 4.11832 5
      vertex 65.4635 3.57341 5
    endloop
  endfacet
  facet normal 0.309017 0.951056 0
    outer loop
      vertex 63.7865 4.11832 5
      vertex 65.4635 3.57341 0
      vertex 63.7865 4.11832 0
    endloop
  endfacet
  facet normal -0.809016 -0.587786 0
    outer loop
      vertex 66.5 15 0
      vertex 65.4635 16.4266 5
      vertex 65.4635 16.4266 0
    endloop
  endfacet
  facet normal -0.809016 -0.587786 0
    outer loop
      vertex 65.4635 16.4266 5
      vertex 66.5 15 0
      vertex 66.5 15 5
    endloop
  endfacet
  facet normal 1 -0 0
    outer loop
      vertex 63.7865 14.1183 5
      vertex 63.7865 15.8817 0
      vertex 63.7865 15.8817 5
    endloop
  endfacet
  facet normal 1 0 0
    outer loop
      vertex 63.7865 15.8817 0
      vertex 63.7865 14.1183 5
      vertex 63.7865 14.1183 0
    endloop
  endfacet
  facet normal 0.309017 -0.951056 0
    outer loop
      vertex 63.7865 15.8817 0
      vertex 65.4635 16.4266 5
      vertex 63.7865 15.8817 5
    endloop
  endfacet
  facet normal 0.309017 -0.951056 0
    outer loop
      vertex 65.4635 16.4266 5
      vertex 63.7865 15.8817 0
      vertex 65.4635 16.4266 0
    endloop
  endfacet
  facet normal -0.809017 0.587786 0
    outer loop
      vertex 65.4635 13.5734 0
      vertex 66.5 15 5
      vertex 66.5 15 0
    endloop
  endfacet
  facet normal -0.809017 0.587786 0
    outer loop
      vertex 66.5 15 5
      vertex 65.4635 13.5734 0
      vertex 65.4635 13.5734 5
    endloop
  endfacet
  facet normal 0.309017 0.951056 -0
    outer loop
      vertex 65.4635 13.5734 0
      vertex 63.7865 14.1183 5
      vertex 65.4635 13.5734 5
    endloop
  endfacet
  facet normal 0.309017 0.951056 0
    outer loop
      vertex 63.7865 14.1183 5
      vertex 65.4635 13.5734 0
      vertex 63.7865 14.1183 0
    endloop
  endfacet
  facet normal -0.809016 -0.587786 0
    outer loop
      vertex 76.5 5 0
      vertex 75.4635 6.42658 5
      vertex 75.4635 6.42658 0
    endloop
  endfacet
  facet normal -0.809016 -0.587786 0
    outer loop
      vertex 75.4635 6.42658 5
      vertex 76.5 5 0
      vertex 76.5 5 5
    endloop
  endfacet
  facet normal 1 -0 0
    outer loop
      vertex 73.7865 4.11832 5
      vertex 73.7865 5.88168 0
      vertex 73.7865 5.88168 5
    endloop
  endfacet
  facet normal 1 0 0
    outer loop
      vertex 73.7865 5.88168 0
      vertex 73.7865 4.11832 5
      vertex 73.7865 4.11832 0
    endloop
  endfacet
  facet normal 0.309017 -0.951056 0
    outer loop
      vertex 73.7865 5.88168 0
      vertex 75.4635 6.42658 5
      vertex 73.7865 5.88168 5
    endloop
  endfacet
  facet normal 0.309017 -0.951056 0
    outer loop
      vertex 75.4635 6.42658 5
      vertex 73.7865 5.88168 0
      vertex 75.4635 6.42658 0
    endloop
  endfacet
  facet normal -0.809017 0.587786 0
    outer loop
      vertex 75.4635 3.57341 0
      vertex 76.5 5 5
      vertex 76.5 5 0
    endloop
  endfacet
  facet normal -0.809017 0.587786 0
    outer loop
      vertex 76.5 5 5
      vertex 75.4635 3.57341 0
      vertex 75.4635 3.57341 5
    endloop
  endfacet
  facet normal 0.309017 0.951056 -0
    outer loop
      vertex 75.4635 3.57341 0
      vertex 73.7865 4.11832 5
      vertex 75.4635 3.57341 5
    endloop
  endfacet
  facet normal 0.309017 0.951056 0
    outer loop
      vertex 73.7865 4.11832 5
      vertex 75.4635 3.57341 0
      vertex 73.7865 4.11832 0
    endloop
  endfacet
  facet normal -0.809016 -0.587786 0
    outer loop
      vertex 76.5 15 0
      vertex 75.4635 16.4266 5
      vertex 75.4635 16.4266 0
    endloop
  endfacet
  facet normal -0.809016 -0.587786 0
    outer loop
      vertex 75.4635 16.4266 5
      vertex 76.5 15 0
      vertex 76.5 15 5
    endloop
  endfacet
  facet normal 1 -0 0
    outer loop
      vertex 73.7865 14.1183 5
      vertex 73.7865 15.8817 0
      vertex 73.7865 15.8817 5
    endloop
  endfacet
  facet normal 1 0 0
    outer loop
      vertex 73.7865 15.8817 0
      vertex 73.7865 14.1183 5
      vertex 73.7865 14.1183 0
    endloop
  endfacet
  facet normal 0.309017 -0.951056 0
    outer loop
      vertex 73.7865 15.8817 0
      vertex 75.4635 16.4266 5
      vertex 73.7865 15.8817 5
    endloop
  endfacet
  facet normal 0.309017 -0.951056 0
    outer loop
      vertex 75.4635 16.4266 5
      vertex 73.7865 15.8817 0
      vertex 75.4635 16.4266 0
    endloop
  endfacet
  facet normal -0.809017 0.587786 0
    outer loop
      vertex 75.4635 13.5734 0
      vertex 76.5 15 5
      vertex 76.5 15 0
    endloop
  endfacet
  facet normal -0.809017 0.587786 0
    outer loop
      vertex 76.5 15 5
      vertex 75.4635 13.5734 0
      vertex 75.4635 13.5734 5
    endloop
  endfacet
  facet normal 0.309017 0.951056 -0
    outer loop
      vertex 75.4635 13.5734 0
      vertex 73.7865 14.1183 5
      vertex 75.4635 13.5734 5
    endloop
  endfacet
  facet normal 0.309017 0.951056 0
    outer loop
      vertex 73.7865 14.1183 5
      vertex 75.4635 13.5734 0
      vertex 73.7865 14.1183 0
    endloop
  endfacet
  facet normal -0.809016 -0.587786 0
    outer loop
      vertex 86.5 5 0
      vertex 85.4635 6.42658 5
      vertex 85.4635 6.42658 0
    endloop
  endfacet
  facet normal -0.809016 -0.587786 0
    outer loop
      vertex 85.4635 6.42658 5
      vertex 86.5 5 0
      vertex 86.5 5 5
    endloop
  endfacet
  facet normal 1 -0 0
    outer loop
      vertex 83.7865 4.11832 5
      vertex 83.7865 5.88168 0
      vertex 83.7865 5.88168 5
    endloop
  endfacet
  facet normal 1 0 0
    outer loop
      vertex 83.7865 5.88168 0
      vertex 83.7865 4.11832 5
      vertex 83.7865 4.11832 0
    endloop
  endfacet
  facet normal 0.309017 -0.951056 0
    outer loop
      vertex 83.7865 5.88168 0
      vertex 85.4635 6.42658 5
      vertex 83.7865 5.88168 5
    endloop
  endfacet
  facet normal 0.309017 -0.951056 0
    outer loop
      vertex 85.4635 6.42658 5
      vertex 83.7865 5.88168 0
      vertex 85.4635 6.42658 0
    endloop
  endfacet
  facet normal 0.309017 0.951056 -0
    outer loop
      vertex 85.4635 3.57341 0
      vertex 83.7865 4.11832 5
      vertex 85.4635 3.57341 5
    endloop
  endfacet
  facet normal 0.309017 0.951056 0
    outer loop
      vertex 83.7865 4.11832 5
      vertex 85.4635 3.57341 0
      vertex 83.7865 4.11832 0
    endloop
  endfacet
  facet normal -0.809017 0.587786 0
    outer loop
      vertex 85.4635 3.57341 0
      vertex 86.5 5 5
      vertex 86.5 5 0
    endloop
  endfacet
  facet normal -0.809017 0.587786 0
    outer loop
      vertex 86.5 5 5
      vertex 85.4635 3.57341 0
      vertex 85.4635 3.57341 5
    endloop
  endfacet
  facet normal -0.809016 -0.587786 0
    outer loop
      vertex 86.5 15 0
      vertex 85.4635 16.4266 5
      vertex 85.4635 16.4266 0
    endloop
  endfacet
  facet normal -0.809016 -0.587786 0
    outer loop
      vertex 85.4635 16.4266 5
      vertex 86.5 15 0
      vertex 86.5 15 5
    endloop
  endfacet
  facet normal 1 -0 0
    outer loop
      vertex 83.7865 14.1183 5
      vertex 83.7865 15.8817 0
      vertex 83.7865 15.8817 5
    endloop
  endfacet
  facet normal 1 0 0
    outer loop
      vertex 83.7865 15.8817 0
      vertex 83.7865 14.1183 5
      vertex 83.7865 14.1183 0
    endloop
  endfacet
  facet normal 0.309017 -0.951056 0
    outer loop
      vertex 83.7865 15.8817 0
      vertex 85.4635 16.4266 5
      vertex 83.7865 15.8817 5
    endloop
  endfacet
  facet normal 0.309017 -0.951056 0
    outer loop
      vertex 85.4635 16.4266 5
      vertex 83.7865 15.8817 0
      vertex 85.4635 16.4266 0
    endloop
  endfacet
  facet normal -0.809017 0.587786 0
    outer loop
      vertex 85.4635 13.5734 0
      vertex 86.5 15 5
      vertex 86.5 15 0
    endloop
  endfacet
  facet normal -0.809017 0.587786 0
    outer loop
      vertex 86.5 15 5
      vertex 85.4635 13.5734 0
      vertex 85.4635 13.5734 5
    endloop
  endfacet
  facet normal 0.309017 0.951056 -0
    outer loop
      vertex 85.4635 13.5734 0
      vertex 83.7865 14.1183 5
      vertex 85.4635 13.5734 5
    endloop
  endfacet
  facet normal 0.309017 0.951056 0
    outer loop
      vertex 83.7865 14.1183 5
      vertex 85.4635 13.5734 0
      vertex 83.7865 14.1183 0
    endloop
  endfacet
  facet normal -0.809016 -0.587786 0
    outer loop
      vertex 96.5 5 0
      vertex 95.4635 6.42658 5
      vertex 95.4635 6.42658 0
    endloop
  endfacet
  facet normal -0.809016 -0.587786 0
    outer loop
      vertex 95.4635 6.42658 5
      vertex 96.5 5 0
      vertex 96.5 5 5
    endloop
  endfacet
  facet normal 1 -0 0
    outer loop
      vertex 93.7865 4.11832 5
      vertex 93.7865 5.88168 0
      vertex 93.7865 5.88168 5
    endloop
  endfacet
  facet normal 1 0 0
    outer loop
      vertex 93.7865 5.88168 0
      vertex 93.7865 4.11832 5
      vertex 93.7865 4.11832 0
    endloop
  endfacet
  facet normal 0.309017 -0.951056 0
    outer loop
      vertex 93.7865 5.88168 0
      vertex 95.4635 6.42658 5
      vertex 93.7865 5.88168 5
    endloop
  endfacet
  facet normal 0.309017 -0.951056 0
    outer loop
      vertex 95.4635 6.42658 5
      vertex 93.7865 5.88168 0
      vertex 95.4635 6.42658 0
    endloop
  endfacet
  facet normal -0.809017 0.587786 0
    outer loop
      vertex 95.4635 3.57341 0
      vertex 96.5 5 5
      vertex 96.5 5 0
    endloop
  endfacet
  facet normal -0.809017 0.587786 0
    outer loop
      vertex 96.5 5 5
      vertex 95.4635 3.57341 0
      vertex 95.4635 3.57341 5
    endloop
  endfacet
  facet normal 0.309017 0.951056 -0
    outer loop
      vertex 95.4635 3.57341 0
      vertex 93.7865 4.11832 5
      vertex 95.4635 3.57341 5
    endloop
  endfacet
  facet normal 0.309017 0.951056 0
    outer loop
      vertex 93.7865 4.11832 5
      vertex 95.4635 3.57341 0
      vertex 93.7865 4.11832 0
    endloop
  endfacet
  facet normal -0.809016 -0.587786 0
    outer loop
      vertex 96.5 15 0
      vertex 95.4635 16.4266 5
      vertex 95.4635 16.4266 0
    endloop
  endfacet
  facet normal -0.809016 -0.587786 0
    outer loop
      vertex 95.4635 16.4266 5
      vertex 96.5 15 0
      vertex 96.5 15 5
    endloop
  endfacet
  facet normal 1 -0 0
    outer loop
      vertex 93.7865 14.1183 5
      vertex 93.7865 15.8817 0
      vertex 93.7865 15.8817 5
    endloop
  endfacet
  facet normal 1 0 0
    outer loop
      vertex 93.7865 15.8817 0
      vertex 93.7865 14.1183 5
      vertex 93.7865 14.1183 0
    endloop
  endfacet
  facet normal 0.309017 -0.951056 0
    outer loop
      vertex 93.7865 15.8817 0
      vertex 95.4635 16.4266 5
      vertex 93.7865 15.8817 5
    endloop
  endfacet
  facet normal 0.309017 -0.951056 0
    outer loop
      vertex 95.4635 16.4266 5
      vertex 93.7865 15.8817 0
      vertex 95.4635 16.4266 0
    endloop
  endfacet
  facet normal -0.809017 0.587786 0
    outer loop
      vertex 95.4635 13.5734 0
      vertex 96.5 15 5
      vertex 96.5 15 0
    endloop
  endfacet
  facet normal -0.809017 0.587786 0
    outer loop
      vertex 96.5 15 5
      vertex 95.4635 13.5734 0
      vertex 95.4635 13.5734 5
    endloop
  endfacet
  facet normal 0.309017 0.951056 -0
    outer loop
      vertex 95.4635 13.5734 0
      vertex 93.7865 14.1183 5
      vertex 95.4635 13.5734 5
    endloop
  endfacet
  facet normal 0.309017 0.951056 0
    outer loop
      vertex 93.7865 14.1183 5
      vertex 95.4635 13.5734 0
      vertex 93.7865 14.1183 0
    endloop
  endfacet
  facet normal -0.809016 -0.587786 0
    outer loop
      vertex 106.5 5 0
      vertex 105.464 6.42658 5
      vertex 105.464 6.42658 0
    endloop
  endfacet
  facet normal -0.809016 -0.587786 0
    outer loop
      vertex 105.464 6.42658 5
      vertex 106.5 5 0
      vertex 106.5 5 5
    endloop
  endfacet
  facet normal 1 -0 0
    outer loop
      vertex 103.786 4.11832 5
      vertex 103.786 5.88168 0
      vertex 103.786 5.88168 5
    endloop
  endfacet
  facet normal 1 0 0
    outer loop
      vertex 103.786 5.88168 0
      vertex 103.786 4.11832 5
      vertex 103.786 4.11832 0
    endloop
  endfacet
  facet normal 0.309017 -0.951056 0
    outer loop
      vertex 103.786 5.88168 0
      vertex 105.464 6.42658 5
      vertex 103.786 5.88168 5
    endloop
  endfacet
  facet normal 0.309017 -0.951056 0
    outer loop
      vertex 105.464 6.42658 5
      vertex 103.786 5.88168 0
      vertex 105.464 6.42658 0
    endloop
  endfacet
  facet normal 0.309017 0.951056 -0
    outer loop
      vertex 105.464 3.57341 0
      vertex 103.786 4.11832 5
      vertex 105.464 3.57341 5
    endloop
  endfacet
  facet normal 0.309017 0.951056 0
    outer loop
      vertex 103.786 4.11832 5
      vertex 105.464 3.57341 0
      vertex 103.786 4.11832 0
    endloop
  endfacet
  facet normal -0.809017 0.587786 0
    outer loop
      vertex 105.464 3.57341 0
      vertex 106.5 5 5
      vertex 106.5 5 0
    endloop
  endfacet
  facet normal -0.809017 0.587786 0
    outer loop
      vertex 106.5 5 5
      vertex 105.464 3.57341 0
      vertex 105.464 3.57341 5
    endloop
  endfacet
  facet normal -0.809016 -0.587786 0
    outer loop
      vertex 106.5 15 0
      vertex 105.464 16.4266 5
      vertex 105.464 16.4266 0
    endloop
  endfacet
  facet normal -0.809016 -0.587786 0
    outer loop
      vertex 105.464 16.4266 5
      vertex 106.5 15 0
      vertex 106.5 15 5
    endloop
  endfacet
  facet normal 1 -0 0
    outer loop
      vertex 103.786 14.1183 5
      vertex 103.786 15.8817 0
      vertex 103.786 15.8817 5
    endloop
  endfacet
  facet normal 1 0 0
    outer loop
      vertex 103.786 15.8817 0
      vertex 103.786 14.1183 5
      vertex 103.786 14.1183 0
    endloop
  endfacet
  facet normal 0.309017 -0.951056 0
    outer loop
      vertex 103.786 15.8817 0
      vertex 105.464 16.4266 5
      vertex 103.786 15.8817 5
    endloop
  endfacet
  facet normal 0.309017 -0.951056 0
    outer loop
      vertex 105.464 16.4266 5
      vertex 103.786 15.8817 0
      vertex 105.464 16.4266 0
    endloop
  endfacet
  facet normal 0.309017 0.951056 -0
    outer loop
      vertex 105.464 13.5734 0
      vertex 103.786 14.1183 5
      vertex 105.464 13.5734 5
    endloop
  endfacet
  facet normal 0.309017 0.951056 0
    outer loop
      vertex 103.786 14.1183 5
      vertex 105.464 13.5734 0
      vertex 103.786 14.1183 0
    endloop
  endfacet
  facet normal -0.809017 0.587786 0
    outer loop
      vertex 105.464 13.5734 0
      vertex 106.5 15 5
      vertex 106.5 15 0
    endloop
  endfacet
  facet normal -0.809017 0.587786 0
    outer loop
      vertex 106.5 15 5
      vertex 105.464 13.5734 0
      vertex 105.464 13.5734 5
    endloop
  endfacet
  facet normal -0.809016 -0.587786 0
    outer loop
      vertex 116.5 5 0
      vertex 115.464 6.42658 5
      vertex 115.464 6.42658 0
    endloop
  endfacet
  facet normal -0.809016 -0.587786 0
    outer loop
      vertex 115.464 6.42658 5
      vertex 116.5 5 0
      vertex 116.5 5 5
    endloop
  endfacet
  facet normal 1 -0 0
    outer loop
      vertex 113.786 4.11832 5
      vertex 113.786 5.88168 0
      vertex 113.786 5.88168 5
    endloop
  endfacet
  facet normal 1 0 0
    outer loop
      vertex 113.786 5.88168 0
      vertex 113.786 4.11832 5
      vertex 113.786 4.11832 0
    endloop
  endfacet
  facet normal 0.309017 -0.951056 0
    outer loop
      vertex 113.786 5.88168 0
      vertex 115.464 6.42658 5
      vertex 113.786 5.88168 5
    endloop
  endfacet
  facet normal 0.309017 -0.951056 0
    outer loop
      vertex 115.464 6.42658 5
      vertex 113.786 5.88168 0
      vertex 115.464 6.42658 0
    endloop
  endfacet
  facet normal 0.309017 0.951056 -0
    outer loop
      vertex 115.464 3.57341 0
      vertex 113.786 4.11832 5
      vertex 115.464 3.57341 5
    endloop
  endfacet
  facet normal 0.309017 0.951056 0
    outer loop
      vertex 113.786 4.11832 5
      vertex 115.464 3.57341 0
      vertex 113.786 4.11832 0
    endloop
  endfacet
  facet normal -0.809017 0.587786 0
    outer loop
      vertex 115.464 3.57341 0
      vertex 116.5 5 5
      vertex 116.5 5 0
    endloop
  endfacet
  facet normal -0.809017 0.587786 0
    outer loop
      vertex 116.5 5 5
      vertex 115.464 3.57341 0
      vertex 115.464 3.57341 5
    endloop
  endfacet
  facet normal -0.809016 -0.587786 0
    outer loop
      vertex 116.5 15 0
      vertex 115.464 16.4266 5
      vertex 115.464 16.4266 0
    endloop
  endfacet
  facet normal -0.809016 -0.587786 0
    outer loop
      vertex 115.464 16.4266 5
      vertex 116.5 15 0
      vertex 116.5 15 5
    endloop
  endfacet
  facet normal 1 -0 0
    outer loop
      vertex 113.786 14.1183 5
      vertex 113.786 15.8817 0
      vertex 113.786 15.8817 5
    endloop
  endfacet
  facet normal 1 0 0
    outer loop
      vertex 113.786 15.8817 0
      vertex 113.786 14.1183 5
      vertex 113.786 14.1183 0
    endloop
  endfacet
  facet normal 0.309017 -0.951056 0
    outer loop
      vertex 113.786 15.8817 0
      vertex 115.464 16.4266 5
      vertex 113.786 15.8817 5
    endloop
  endfacet
  facet normal 0.309017 -0.951056 0
    outer loop
      vertex 115.464 16.4266 5
      vertex 113.786 15.8817 0
      vertex 115.464 16.4266 0
    endloop
  endfacet
  facet normal -0.809017 0.587786 0
    outer loop
      vertex 115.464 13.5734 0
      vertex 116.5 15 5
      vertex 116.5 15 0
    endloop
  endfacet
  facet normal -0.809017 0.587786 0
    outer loop
      vertex 116.5 15 5
      vertex 115.464 13.5734 0
      vertex 115.464 13.5734 5
    endloop
  endfacet
  facet normal 0.309017 0.951056 -0
    outer loop
      vertex 115.464 13.5734 0
      vertex 113.786 14.1183 5
      vertex 115.464 13.5734 5
    endloop
  endfacet
  facet normal 0.309017 0.951056 0
    outer loop
      vertex 113.786 14.1183 5
      vertex 115.464 13.5734 0
      vertex 113.786 14.1183 0
    endloop
  endfacet
  facet normal -0.809016 -0.587786 0
    outer loop
      vertex 126.5 5 0
      vertex 125.464 6.42658 5
      vertex 125.464 6.42658 0
    endloop
  endfacet
  facet normal -0.809016 -0.587786 0
    outer loop
      vertex 125.464 6.42658 5
      vertex 126.5 5 0
      vertex 126.5 5 5
    endloop
  endfacet
  facet normal 1 -0 0
    outer loop
      vertex 123.786 4.11832 5
      vertex 123.786 5.88168 0
      vertex 123.786 5.88168 5
    endloop
  endfacet
  facet normal 1 0 0
    outer loop
      vertex 123.786 5.88168 0
      vertex 123.786 4.11832 5
      vertex 123.786 4.11832 0
    endloop
  endfacet
  facet normal 0.309017 -0.951056 0
    outer loop
      vertex 123.786 5.88168 0
      vertex 125.464 6.42658 5
      vertex 123.786 5.88168 5
    endloop
  endfacet
  facet normal 0.309017 -0.951056 0
    outer loop
      vertex 125.464 6.42658 5
      vertex 123.786 5.88168 0
      vertex 125.464 6.42658 0
    endloop
  endfacet
  facet normal 0.309017 0.951056 -0
    outer loop
      vertex 125.464 3.57341 0
      vertex 123.786 4.11832 5
      vertex 125.464 3.57341 5
    endloop
  endfacet
  facet normal 0.309017 0.951056 0
    outer loop
      vertex 123.786 4.11832 5
      vertex 125.464 3.57341 0
      vertex 123.786 4.11832 0
    endloop
  endfacet
  facet normal -0.809017 0.587786 0
    outer loop
      vertex 125.464 3.57341 0
      vertex 126.5 5 5
      vertex 126.5 5 0
    endloop
  endfacet
  facet normal -0.809017 0.587786 0
    outer loop
      vertex 126.5 5 5
      vertex 125.464 3.57341 0
      vertex 125.464 3.57341 5
    endloop
  endfacet
  facet normal -0.809016 -0.587786 0
    outer loop
      vertex 126.5 15 0
      vertex 125.464 16.4266 5
      vertex 125.464 16.4266 0
    endloop
  endfacet
  facet normal -0.809016 -0.587786 0
    outer loop
      vertex 125.464 16.4266 5
      vertex 126.5 15 0
      vertex 126.5 15 5
    endloop
  endfacet
  facet normal 1 -0 0
    outer loop
      vertex 123.786 14.1183 5
      vertex 123.786 15.8817 0
      vertex 123.786 15.8817 5
    endloop
  endfacet
  facet normal 1 0 0
    outer loop
      vertex 123.786 15.8817 0
      vertex 123.786 14.1183 5
      vertex 123.786 14.1183 0
    endloop
  endfacet
  facet normal 0.309017 -0.951056 0
    outer loop
      vertex 123.786 15.8817 0
      vertex 125.464 16.4266 5
      vertex 123.786 15.8817 5
    endloop
  endfacet
  facet normal 0.309017 -0.951056 0
    outer loop
      vertex 125.464 16.4266 5
      vertex 123.786 15.8817 0
      vertex 125.464 16.4266 0
    endloop
  endfacet
  facet normal 0.309017 0.951056 -0
    outer loop
      vertex 125.464 13.5734 0
      vertex 123.786 14.1183 5
      vertex 125.464 13.5734 5
    endloop
  endfacet
  facet normal 0.309017 0.951056 0
    outer loop
      vertex 123.786 14.1183 5
      vertex 125.464 13.5734 0
      vertex 123.786 14.1183 0
    endloop
  endfacet
  facet normal -0.809017 0.587786 0
    outer loop
      vertex 125.464 13.5734 0
      vertex 126.5 15 5
      vertex 126.5 15 0
    endloop
  endfacet
  facet normal -0.809017 0.587786 0
    outer loop
      vertex 126.5 15 5
      vertex 125.464 13.5734 0
      vertex 125.464 13.5734 5
    endloop
  endfacet
  facet normal -1 0 0
    outer loop
      vertex 0 0 0
      vertex 0 20 5
      vertex 0 20 0
    endloop
  endfacet
  facet normal -1 -0 0
    outer loop
      vertex 0 20 5
      vertex 0 0 0
      vertex 0 0 5
    endloop
  endfacet
  facet normal -0 0 1
    outer loop
      vertex 5.46352 6.42658 5
      vertex 13.7865 5.88168 5
      vertex 5.46352 13.5734 5
    endloop
  endfacet
  facet normal 0 0 1
    outer loop
      vertex 13.7865 5.88168 5
      vertex 5.46352 6.42658 5
      vertex 6.5 5 5
    endloop
  endfacet
  facet normal 0 0 1
    outer loop
      vertex 3.78647 14.1183 5
      vertex 5.46352 6.42658 5
      vertex 5.46352 13.5734 5
    endloop
  endfacet
  facet normal 0 0 1
    outer loop
      vertex 5.46352 6.42658 5
      vertex 3.78647 14.1183 5
      vertex 3.78647 5.88168 5
    endloop
  endfacet
  facet normal -0 0 1
    outer loop
      vertex 15.4635 6.42658 5
      vertex 23.7865 5.88168 5
      vertex 15.4635 13.5734 5
    endloop
  endfacet
  facet normal 0 0 1
    outer loop
      vertex 23.7865 5.88168 5
      vertex 15.4635 6.42658 5
      vertex 16.5 5 5
    endloop
  endfacet
  facet normal 0 0 1
    outer loop
      vertex 13.7865 14.1183 5
      vertex 15.4635 6.42658 5
      vertex 15.4635 13.5734 5
    endloop
  endfacet
  facet normal 0 0 1
    outer loop
      vertex 15.4635 6.42658 5
      vertex 13.7865 14.1183 5
      vertex 13.7865 5.88168 5
    endloop
  endfacet
  facet normal -0 0 1
    outer loop
      vertex 25.4635 6.42658 5
      vertex 33.7865 5.88168 5
      vertex 25.4635 13.5734 5
    endloop
  endfacet
  facet normal 0 0 1
    outer loop
      vertex 33.7865 5.88168 5
      vertex 25.4635 6.42658 5
      vertex 26.5 5 5
    endloop
  endfacet
  facet normal 0 0 1
    outer loop
      vertex 23.7865 14.1183 5
      vertex 25.4635 6.42658 5
      vertex 25.4635 13.5734 5
    endloop
  endfacet
  facet normal 0 0 1
    outer loop
      vertex 25.4635 6.42658 5
      vertex 23.7865 14.1183 5
      vertex 23.7865 5.88168 5
    endloop
  endfacet
  facet normal -0 0 1
    outer loop
      vertex 35.4635 6.42658 5
      vertex 43.7865 5.88168 5
      vertex 35.4635 13.5734 5
    endloop
  endfacet
  facet normal 0 0 1
    outer loop
      vertex 43.7865 5.88168 5
      vertex 35.4635 6.42658 5
      vertex 36.5 5 5
    endloop
  endfacet
  facet normal 0 0 1
    outer loop
      vertex 33.7865 14.1183 5
      vertex 35.4635 6.42658 5
      vertex 35.4635 13.5734 5
    endloop
  endfacet
  facet normal 0 0 1
    outer loop
      vertex 35.4635 6.42658 5
      vertex 33.7865 14.1183 5
      vertex 33.7865 5.88168 5
    endloop
  endfacet
  facet normal -0 0 1
    outer loop
      vertex 45.4635 6.42658 5
      vertex 53.7865 5.88168 5
      vertex 45.4635 13.5734 5
    endloop
  endfacet
  facet normal 0 0 1
    outer loop
      vertex 53.7865 5.88168 5
      vertex 45.4635 6.42658 5
      vertex 46.5 5 5
    endloop
  endfacet
  facet normal 0 0 1
    outer loop
      vertex 43.7865 14.1183 5
      vertex 45.4635 6.42658 5
      vertex 45.4635 13.5734 5
    endloop
  endfacet
  facet normal 0 0 1
    outer loop
      vertex 45.4635 6.42658 5
      vertex 43.7865 14.1183 5
      vertex 43.7865 5.88168 5
    endloop
  endfacet
  facet normal -0 0 1
    outer loop
      vertex 55.4635 6.42658 5
      vertex 63.7865 5.88168 5
      vertex 55.4635 13.5734 5
    endloop
  endfacet
  facet normal 0 0 1
    outer loop
      vertex 63.7865 5.88168 5
      vertex 55.4635 6.42658 5
      vertex 56.5 5 5
    endloop
  endfacet
  facet normal 0 0 1
    outer loop
      vertex 53.7865 14.1183 5
      vertex 55.4635 6.42658 5
      vertex 55.4635 13.5734 5
    endloop
  endfacet
  facet normal 0 0 1
    outer loop
      vertex 55.4635 6.42658 5
      vertex 53.7865 14.1183 5
      vertex 53.7865 5.88168 5
    endloop
  endfacet
  facet normal -0 0 1
    outer loop
      vertex 65.4635 6.42658 5
      vertex 73.7865 5.88168 5
      vertex 65.4635 13.5734 5
    endloop
  endfacet
  facet normal 0 0 1
    outer loop
      vertex 73.7865 5.88168 5
      vertex 65.4635 6.42658 5
      vertex 66.5 5 5
    endloop
  endfacet
  facet normal 0 0 1
    outer loop
      vertex 63.7865 14.1183 5
      vertex 65.4635 6.42658 5
      vertex 65.4635 13.5734 5
    endloop
  endfacet
  facet normal 0 0 1
    outer loop
      vertex 65.4635 6.42658 5
      vertex 63.7865 14.1183 5
      vertex 63.7865 5.88168 5
    endloop
  endfacet
  facet normal -0 0 1
    outer loop
      vertex 75.4635 6.42658 5
      vertex 83.7865 5.88168 5
      vertex 75.4635 13.5734 5
    endloop
  endfacet
  facet normal 0 0 1
    outer loop
      vertex 83.7865 5.88168 5
      vertex 75.4635 6.42658 5
      vertex 76.5 5 5
    endloop
  endfacet
  facet normal 0 0 1
    outer loop
      vertex 73.7865 14.1183 5
      vertex 75.4635 6.42658 5
      vertex 75.4635 13.5734 5
    endloop
  endfacet
  facet normal 0 0 1
    outer loop
      vertex 75.4635 6.42658 5
      vertex 73.7865 14.1183 5
      vertex 73.7865 5.88168 5
    endloop
  endfacet
  facet normal -0 0 1
    outer loop
      vertex 85.4635 6.42658 5
      vertex 93.7865 5.88168 5
      vertex 85.4635 13.5734 5
    endloop
  endfacet
  facet normal 0 0 1
    outer loop
      vertex 93.7865 5.88168 5
      vertex 85.4635 6.42658 5
      vertex 86.5 5 5
    endloop
  endfacet
  facet normal 0 0 1
    outer loop
      vertex 83.7865 14.1183 5
      vertex 85.4635 6.42658 5
      vertex 85.4635 13.5734 5
    endloop
  endfacet
  facet normal 0 0 1
    outer loop
      vertex 85.4635 6.42658 5
      vertex 83.7865 14.1183 5
      vertex 83.7865 5.88168 5
    endloop
  endfacet
  facet normal -0 0 1
    outer loop
      vertex 95.4635 6.42658 5
      vertex 103.786 5.88168 5
      vertex 95.4635 13.5734 5
    endloop
  endfacet
  facet normal 0 0 1
    outer loop
      vertex 103.786 5.88168 5
      vertex 95.4635 6.42658 5
      vertex 96.5 5 5
    endloop
  endfacet
  facet normal 0 0 1
    outer loop
      vertex 93.7865 14.1183 5
      vertex 95.4635 6.42658 5
      vertex 95.4635 13.5734 5
    endloop
  endfacet
  facet normal 0 0 1
    outer loop
      vertex 95.4635 6.42658 5
      vertex 93.7865 14.1183 5
      vertex 93.7865 5.88168 5
    endloop
  endfacet
  facet normal -0 0 1
    outer loop
      vertex 105.464 6.42658 5
      vertex 113.786 5.88168 5
      vertex 105.464 13.5734 5
    endloop
  endfacet
  facet normal 0 0 1
    outer loop
      vertex 113.786 5.88168 5
      vertex 105.464 6.42658 5
      vertex 106.5 5 5
    endloop
  endfacet
  facet normal 0 0 1
    outer loop
      vertex 103.786 14.1183 5
      vertex 105.464 6.42658 5
      vertex 105.464 13.5734 5
    endloop
  endfacet
  facet normal 0 0 1
    outer loop
      vertex 105.464 6.42658 5
      vertex 103.786 14.1183 5
      vertex 103.786 5.88168 5
    endloop
  endfacet
  facet normal -0 0 1
    outer loop
      vertex 115.464 6.42658 5
      vertex 123.786 5.88168 5
      vertex 115.464 13.5734 5
    endloop
  endfacet
  facet normal 0 0 1
    outer loop
      vertex 123.786 5.88168 5
      vertex 115.464 6.42658 5
      vertex 116.5 5 5
    endloop
  endfacet
  facet normal 0 0 1
    outer loop
      vertex 113.786 14.1183 5
      vertex 115.464 6.42658 5
      vertex 115.464 13.5734 5
    endloop
  endfacet
  facet normal 0 0 1
    outer loop
      vertex 115.464 6.42658 5
      vertex 113.786 14.1183 5
      vertex 113.786 5.88168 5
    endloop
  endfacet
  facet normal -0 0 1
    outer loop
      vertex 125.464 13.5734 5
      vertex 126.5 5 5
      vertex 126.5 15 5
    endloop
  endfacet
  facet normal 0 0 1
    outer loop
      vertex 125.464 13.5734 5
      vertex 125.464 6.42658 5
      vertex 126.5 5 5
    endloop
  endfacet
  facet normal 0 0 1
    outer loop
      vertex 123.786 14.1183 5
      vertex 125.464 6.42658 5
      vertex 125.464 13.5734 5
    endloop
  endfacet
  facet normal 0 0 1
    outer loop
      vertex 125.464 6.42658 5
      vertex 123.786 14.1183 5
      vertex 123.786 5.88168 5
    endloop
  endfacet
  facet normal 0 0 1
    outer loop
      vertex 130 20 5
      vertex 126.5 15 5
      vertex 130 0 5
    endloop
  endfacet
  facet normal 0 0 1
    outer loop
      vertex 130 20 5
      vertex 125.464 16.4266 5
      vertex 126.5 15 5
    endloop
  endfacet
  facet normal 0 0 1
    outer loop
      vertex 130 20 5
      vertex 123.786 15.8817 5
      vertex 125.464 16.4266 5
    endloop
  endfacet
  facet normal -0 0 1
    outer loop
      vertex 116.5 15 5
      vertex 123.786 14.1183 5
      vertex 123.786 15.8817 5
    endloop
  endfacet
  facet normal 0 0 1
    outer loop
      vertex 115.464 13.5734 5
      vertex 123.786 14.1183 5
      vertex 116.5 15 5
    endloop
  endfacet
  facet normal 0 0 1
    outer loop
      vertex 123.786 14.1183 5
      vertex 115.464 13.5734 5
      vertex 123.786 5.88168 5
    endloop
  endfacet
  facet normal -0 0 1
    outer loop
      vertex 115.464 16.4266 5
      vertex 123.786 15.8817 5
      vertex 130 20 5
    endloop
  endfacet
  facet normal 0 0 1
    outer loop
      vertex 123.786 15.8817 5
      vertex 115.464 16.4266 5
      vertex 116.5 15 5
    endloop
  endfacet
  facet normal -0 0 1
    outer loop
      vertex 106.5 15 5
      vertex 113.786 14.1183 5
      vertex 113.786 15.8817 5
    endloop
  endfacet
  facet normal 0 0 1
    outer loop
      vertex 105.464 13.5734 5
      vertex 113.786 14.1183 5
      vertex 106.5 15 5
    endloop
  endfacet
  facet normal 0 0 1
    outer loop
      vertex 113.786 14.1183 5
      vertex 105.464 13.5734 5
      vertex 113.786 5.88168 5
    endloop
  endfacet
  facet normal -0 0 1
    outer loop
      vertex 105.464 16.4266 5
      vertex 113.786 15.8817 5
      vertex 115.464 16.4266 5
    endloop
  endfacet
  facet normal 0 0 1
    outer loop
      vertex 105.464 16.4266 5
      vertex 115.464 16.4266 5
      vertex 130 20 5
    endloop
  endfacet
  facet normal 0 0 1
    outer loop
      vertex 113.786 15.8817 5
      vertex 105.464 16.4266 5
      vertex 106.5 15 5
    endloop
  endfacet
  facet normal -0 0 1
    outer loop
      vertex 96.5 15 5
      vertex 103.786 14.1183 5
      vertex 103.786 15.8817 5
    endloop
  endfacet
  facet normal 0 0 1
    outer loop
      vertex 95.4635 13.5734 5
      vertex 103.786 14.1183 5
      vertex 96.5 15 5
    endloop
  endfacet
  facet normal 0 0 1
    outer loop
      vertex 103.786 14.1183 5
      vertex 95.4635 13.5734 5
      vertex 103.786 5.88168 5
    endloop
  endfacet
  facet normal -0 0 1
    outer loop
      vertex 95.4635 16.4266 5
      vertex 103.786 15.8817 5
      vertex 105.464 16.4266 5
    endloop
  endfacet
  facet normal 0 0 1
    outer loop
      vertex 103.786 15.8817 5
      vertex 95.4635 16.4266 5
      vertex 96.5 15 5
    endloop
  endfacet
  facet normal 0 0 1
    outer loop
      vertex 130 20 5
      vertex 95.4635 16.4266 5
      vertex 105.464 16.4266 5
    endloop
  endfacet
  facet normal -0 0 1
    outer loop
      vertex 86.5 15 5
      vertex 93.7865 14.1183 5
      vertex 93.7865 15.8817 5
    endloop
  endfacet
  facet normal 0 0 1
    outer loop
      vertex 85.4635 13.5734 5
      vertex 93.7865 14.1183 5
      vertex 86.5 15 5
    endloop
  endfacet
  facet normal 0 0 1
    outer loop
      vertex 93.7865 14.1183 5
      vertex 85.4635 13.5734 5
      vertex 93.7865 5.88168 5
    endloop
  endfacet
  facet normal -0 0 1
    outer loop
      vertex 85.4635 16.4266 5
      vertex 93.7865 15.8817 5
      vertex 95.4635 16.4266 5
    endloop
  endfacet
  facet normal 0 0 1
    outer loop
      vertex 93.7865 15.8817 5
      vertex 85.4635 16.4266 5
      vertex 86.5 15 5
    endloop
  endfacet
  facet normal 0 0 1
    outer loop
      vertex 130 20 5
      vertex 85.4635 16.4266 5
      vertex 95.4635 16.4266 5
    endloop
  endfacet
  facet normal -0 0 1
    outer loop
      vertex 76.5 15 5
      vertex 83.7865 14.1183 5
      vertex 83.7865 15.8817 5
    endloop
  endfacet
  facet normal 0 0 1
    outer loop
      vertex 75.4635 13.5734 5
      vertex 83.7865 14.1183 5
      vertex 76.5 15 5
    endloop
  endfacet
  facet normal 0 0 1
    outer loop
      vertex 83.7865 14.1183 5
      vertex 75.4635 13.5734 5
      vertex 83.7865 5.88168 5
    endloop
  endfacet
  facet normal -0 0 1
    outer loop
      vertex 75.4635 16.4266 5
      vertex 83.7865 15.8817 5
      vertex 85.4635 16.4266 5
    endloop
  endfacet
  facet normal 0 0 1
    outer loop
      vertex 83.7865 15.8817 5
      vertex 75.4635 16.4266 5
      vertex 76.5 15 5
    endloop
  endfacet
  facet normal 0 0 1
    outer loop
      vertex 130 20 5
      vertex 75.4635 16.4266 5
      vertex 85.4635 16.4266 5
    endloop
  endfacet
  facet normal -0 0 1
    outer loop
      vertex 66.5 15 5
      vertex 73.7865 14.1183 5
      vertex 73.7865 15.8817 5
    endloop
  endfacet
  facet normal 0 0 1
    outer loop
      vertex 65.4635 13.5734 5
      vertex 73.7865 14.1183 5
      vertex 66.5 15 5
    endloop
  endfacet
  facet normal 0 0 1
    outer loop
      vertex 73.7865 14.1183 5
      vertex 65.4635 13.5734 5
      vertex 73.7865 5.88168 5
    endloop
  endfacet
  facet normal -0 0 1
    outer loop
      vertex 65.4635 16.4266 5
      vertex 73.7865 15.8817 5
      vertex 75.4635 16.4266 5
    endloop
  endfacet
  facet normal 0 0 1
    outer loop
      vertex 73.7865 15.8817 5
      vertex 65.4635 16.4266 5
      vertex 66.5 15 5
    endloop
  endfacet
  facet normal 0 0 1
    outer loop
      vertex 130 20 5
      vertex 65.4635 16.4266 5
      vertex 75.4635 16.4266 5
    endloop
  endfacet
  facet normal -0 0 1
    outer loop
      vertex 56.5 15 5
      vertex 63.7865 14.1183 5
      vertex 63.7865 15.8817 5
    endloop
  endfacet
  facet normal 0 0 1
    outer loop
      vertex 55.4635 13.5734 5
      vertex 63.7865 14.1183 5
      vertex 56.5 15 5
    endloop
  endfacet
  facet normal 0 0 1
    outer loop
      vertex 63.7865 14.1183 5
      vertex 55.4635 13.5734 5
      vertex 63.7865 5.88168 5
    endloop
  endfacet
  facet normal -0 0 1
    outer loop
      vertex 55.4635 16.4266 5
      vertex 63.7865 15.8817 5
      vertex 65.4635 16.4266 5
    endloop
  endfacet
  facet normal 0 0 1
    outer loop
      vertex 63.7865 15.8817 5
      vertex 55.4635 16.4266 5
      vertex 56.5 15 5
    endloop
  endfacet
  facet normal 0 0 1
    outer loop
      vertex 130 20 5
      vertex 55.4635 16.4266 5
      vertex 65.4635 16.4266 5
    endloop
  endfacet
  facet normal -0 0 1
    outer loop
      vertex 46.5 15 5
      vertex 53.7865 14.1183 5
      vertex 53.7865 15.8817 5
    endloop
  endfacet
  facet normal 0 0 1
    outer loop
      vertex 45.4635 13.5734 5
      vertex 53.7865 14.1183 5
      vertex 46.5 15 5
    endloop
  endfacet
  facet normal 0 0 1
    outer loop
      vertex 53.7865 14.1183 5
      vertex 45.4635 13.5734 5
      vertex 53.7865 5.88168 5
    endloop
  endfacet
  facet normal -0 0 1
    outer loop
      vertex 45.4635 16.4266 5
      vertex 53.7865 15.8817 5
      vertex 55.4635 16.4266 5
    endloop
  endfacet
  facet normal 0 0 1
    outer loop
      vertex 53.7865 15.8817 5
      vertex 45.4635 16.4266 5
      vertex 46.5 15 5
    endloop
  endfacet
  facet normal -0 0 1
    outer loop
      vertex 0 20 5
      vertex 55.4635 16.4266 5
      vertex 130 20 5
    endloop
  endfacet
  facet normal -0 0 1
    outer loop
      vertex 36.5 15 5
      vertex 43.7865 14.1183 5
      vertex 43.7865 15.8817 5
    endloop
  endfacet
  facet normal 0 0 1
    outer loop
      vertex 35.4635 13.5734 5
      vertex 43.7865 14.1183 5
      vertex 36.5 15 5
    endloop
  endfacet
  facet normal 0 0 1
    outer loop
      vertex 43.7865 14.1183 5
      vertex 35.4635 13.5734 5
      vertex 43.7865 5.88168 5
    endloop
  endfacet
  facet normal -0 0 1
    outer loop
      vertex 35.4635 16.4266 5
      vertex 43.7865 15.8817 5
      vertex 45.4635 16.4266 5
    endloop
  endfacet
  facet normal 0 0 1
    outer loop
      vertex 43.7865 15.8817 5
      vertex 35.4635 16.4266 5
      vertex 36.5 15 5
    endloop
  endfacet
  facet normal 0 0 1
    outer loop
      vertex 55.4635 16.4266 5
      vertex 0 20 5
      vertex 45.4635 16.4266 5
    endloop
  endfacet
  facet normal -0 0 1
    outer loop
      vertex 26.5 15 5
      vertex 33.7865 14.1183 5
      vertex 33.7865 15.8817 5
    endloop
  endfacet
  facet normal 0 0 1
    outer loop
      vertex 25.4635 13.5734 5
      vertex 33.7865 14.1183 5
      vertex 26.5 15 5
    endloop
  endfacet
  facet normal 0 0 1
    outer loop
      vertex 33.7865 14.1183 5
      vertex 25.4635 13.5734 5
      vertex 33.7865 5.88168 5
    endloop
  endfacet
  facet normal -0 0 1
    outer loop
      vertex 25.4635 16.4266 5
      vertex 33.7865 15.8817 5
      vertex 35.4635 16.4266 5
    endloop
  endfacet
  facet normal 0 0 1
    outer loop
      vertex 33.7865 15.8817 5
      vertex 25.4635 16.4266 5
      vertex 26.5 15 5
    endloop
  endfacet
  facet normal 0 0 1
    outer loop
      vertex 45.4635 16.4266 5
      vertex 0 20 5
      vertex 35.4635 16.4266 5
    endloop
  endfacet
  facet normal -0 0 1
    outer loop
      vertex 16.5 15 5
      vertex 23.7865 14.1183 5
      vertex 23.7865 15.8817 5
    endloop
  endfacet
  facet normal 0 0 1
    outer loop
      vertex 15.4635 13.5734 5
      vertex 23.7865 14.1183 5
      vertex 16.5 15 5
    endloop
  endfacet
  facet normal 0 0 1
    outer loop
      vertex 23.7865 14.1183 5
      vertex 15.4635 13.5734 5
      vertex 23.7865 5.88168 5
    endloop
  endfacet
  facet normal -0 0 1
    outer loop
      vertex 15.4635 16.4266 5
      vertex 23.7865 15.8817 5
      vertex 25.4635 16.4266 5
    endloop
  endfacet
  facet normal 0 0 1
    outer loop
      vertex 23.7865 15.8817 5
      vertex 15.4635 16.4266 5
      vertex 16.5 15 5
    endloop
  endfacet
  facet normal 0 0 1
    outer loop
      vertex 35.4635 16.4266 5
      vertex 0 20 5
      vertex 25.4635 16.4266 5
    endloop
  endfacet
  facet normal -0 0 1
    outer loop
      vertex 6.5 15 5
      vertex 13.7865 14.1183 5
      vertex 13.7865 15.8817 5
    endloop
  endfacet
  facet normal 0 0 1
    outer loop
      vertex 5.46352 13.5734 5
      vertex 13.7865 14.1183 5
      vertex 6.5 15 5
    endloop
  endfacet
  facet normal 0 0 1
    outer loop
      vertex 13.7865 14.1183 5
      vertex 5.46352 13.5734 5
      vertex 13.7865 5.88168 5
    endloop
  endfacet
  facet normal -0 0 1
    outer loop
      vertex 5.46352 16.4266 5
      vertex 13.7865 15.8817 5
      vertex 15.4635 16.4266 5
    endloop
  endfacet
  facet normal 0 0 1
    outer loop
      vertex 13.7865 15.8817 5
      vertex 5.46352 16.4266 5
      vertex 6.5 15 5
    endloop
  endfacet
  facet normal 0 0 1
    outer loop
      vertex 25.4635 16.4266 5
      vertex 0 20 5
      vertex 15.4635 16.4266 5
    endloop
  endfacet
  facet normal 0 0 1
    outer loop
      vertex 0 20 5
      vertex 3.78647 14.1183 5
      vertex 3.78647 15.8817 5
    endloop
  endfacet
  facet normal 0 0 1
    outer loop
      vertex 3.78647 14.1183 5
      vertex 0 20 5
      vertex 3.78647 5.88168 5
    endloop
  endfacet
  facet normal 0 0 1
    outer loop
      vertex 0 0 5
      vertex 3.78647 5.88168 5
      vertex 0 20 5
    endloop
  endfacet
  facet normal 0 0 1
    outer loop
      vertex 5.46352 16.4266 5
      vertex 0 20 5
      vertex 3.78647 15.8817 5
    endloop
  endfacet
  facet normal 0 0 1
    outer loop
      vertex 15.4635 16.4266 5
      vertex 0 20 5
      vertex 5.46352 16.4266 5
    endloop
  endfacet
  facet normal -0 0 1
    outer loop
      vertex 126.5 5 5
      vertex 130 0 5
      vertex 126.5 15 5
    endloop
  endfacet
  facet normal -0 0 1
    outer loop
      vertex 125.464 3.57341 5
      vertex 130 0 5
      vertex 126.5 5 5
    endloop
  endfacet
  facet normal 0 0 1
    outer loop
      vertex 123.786 4.11832 5
      vertex 130 0 5
      vertex 125.464 3.57341 5
    endloop
  endfacet
  facet normal 0 0 1
    outer loop
      vertex 123.786 5.88168 5
      vertex 116.5 5 5
      vertex 123.786 4.11832 5
    endloop
  endfacet
  facet normal 0 0 1
    outer loop
      vertex 115.464 3.57341 5
      vertex 123.786 4.11832 5
      vertex 116.5 5 5
    endloop
  endfacet
  facet normal 0 0 1
    outer loop
      vertex 123.786 4.11832 5
      vertex 115.464 3.57341 5
      vertex 130 0 5
    endloop
  endfacet
  facet normal 0 0 1
    outer loop
      vertex 113.786 5.88168 5
      vertex 106.5 5 5
      vertex 113.786 4.11832 5
    endloop
  endfacet
  facet normal 0 0 1
    outer loop
      vertex 105.464 3.57341 5
      vertex 113.786 4.11832 5
      vertex 106.5 5 5
    endloop
  endfacet
  facet normal 0 0 1
    outer loop
      vertex 113.786 4.11832 5
      vertex 105.464 3.57341 5
      vertex 115.464 3.57341 5
    endloop
  endfacet
  facet normal 0 0 1
    outer loop
      vertex 115.464 3.57341 5
      vertex 105.464 3.57341 5
      vertex 130 0 5
    endloop
  endfacet
  facet normal 0 0 1
    outer loop
      vertex 103.786 5.88168 5
      vertex 96.5 5 5
      vertex 103.786 4.11832 5
    endloop
  endfacet
  facet normal 0 0 1
    outer loop
      vertex 95.4635 3.57341 5
      vertex 103.786 4.11832 5
      vertex 96.5 5 5
    endloop
  endfacet
  facet normal 0 0 1
    outer loop
      vertex 103.786 4.11832 5
      vertex 95.4635 3.57341 5
      vertex 105.464 3.57341 5
    endloop
  endfacet
  facet normal -0 0 1
    outer loop
      vertex 95.4635 3.57341 5
      vertex 130 0 5
      vertex 105.464 3.57341 5
    endloop
  endfacet
  facet normal 0 0 1
    outer loop
      vertex 93.7865 5.88168 5
      vertex 86.5 5 5
      vertex 93.7865 4.11832 5
    endloop
  endfacet
  facet normal 0 0 1
    outer loop
      vertex 85.4635 3.57341 5
      vertex 93.7865 4.11832 5
      vertex 86.5 5 5
    endloop
  endfacet
  facet normal 0 0 1
    outer loop
      vertex 93.7865 4.11832 5
      vertex 85.4635 3.57341 5
      vertex 95.4635 3.57341 5
    endloop
  endfacet
  facet normal -0 0 1
    outer loop
      vertex 85.4635 3.57341 5
      vertex 130 0 5
      vertex 95.4635 3.57341 5
    endloop
  endfacet
  facet normal 0 0 1
    outer loop
      vertex 83.7865 5.88168 5
      vertex 76.5 5 5
      vertex 83.7865 4.11832 5
    endloop
  endfacet
  facet normal 0 0 1
    outer loop
      vertex 75.4635 3.57341 5
      vertex 83.7865 4.11832 5
      vertex 76.5 5 5
    endloop
  endfacet
  facet normal 0 0 1
    outer loop
      vertex 83.7865 4.11832 5
      vertex 75.4635 3.57341 5
      vertex 85.4635 3.57341 5
    endloop
  endfacet
  facet normal -0 0 1
    outer loop
      vertex 75.4635 3.57341 5
      vertex 130 0 5
      vertex 85.4635 3.57341 5
    endloop
  endfacet
  facet normal 0 0 1
    outer loop
      vertex 73.7865 5.88168 5
      vertex 66.5 5 5
      vertex 73.7865 4.11832 5
    endloop
  endfacet
  facet normal 0 0 1
    outer loop
      vertex 65.4635 3.57341 5
      vertex 73.7865 4.11832 5
      vertex 66.5 5 5
    endloop
  endfacet
  facet normal 0 0 1
    outer loop
      vertex 73.7865 4.11832 5
      vertex 65.4635 3.57341 5
      vertex 75.4635 3.57341 5
    endloop
  endfacet
  facet normal -0 0 1
    outer loop
      vertex 65.4635 3.57341 5
      vertex 130 0 5
      vertex 75.4635 3.57341 5
    endloop
  endfacet
  facet normal 0 0 1
    outer loop
      vertex 63.7865 5.88168 5
      vertex 56.5 5 5
      vertex 63.7865 4.11832 5
    endloop
  endfacet
  facet normal 0 0 1
    outer loop
      vertex 55.4635 3.57341 5
      vertex 63.7865 4.11832 5
      vertex 56.5 5 5
    endloop
  endfacet
  facet normal 0 0 1
    outer loop
      vertex 63.7865 4.11832 5
      vertex 55.4635 3.57341 5
      vertex 65.4635 3.57341 5
    endloop
  endfacet
  facet normal -0 0 1
    outer loop
      vertex 55.4635 3.57341 5
      vertex 130 0 5
      vertex 65.4635 3.57341 5
    endloop
  endfacet
  facet normal 0 0 1
    outer loop
      vertex 53.7865 5.88168 5
      vertex 46.5 5 5
      vertex 53.7865 4.11832 5
    endloop
  endfacet
  facet normal 0 0 1
    outer loop
      vertex 45.4635 3.57341 5
      vertex 53.7865 4.11832 5
      vertex 46.5 5 5
    endloop
  endfacet
  facet normal 0 0 1
    outer loop
      vertex 53.7865 4.11832 5
      vertex 45.4635 3.57341 5
      vertex 55.4635 3.57341 5
    endloop
  endfacet
  facet normal 0 0 1
    outer loop
      vertex 0 0 5
      vertex 55.4635 3.57341 5
      vertex 45.4635 3.57341 5
    endloop
  endfacet
  facet normal 0 0 1
    outer loop
      vertex 43.7865 5.88168 5
      vertex 36.5 5 5
      vertex 43.7865 4.11832 5
    endloop
  endfacet
  facet normal 0 0 1
    outer loop
      vertex 35.4635 3.57341 5
      vertex 43.7865 4.11832 5
      vertex 36.5 5 5
    endloop
  endfacet
  facet normal 0 0 1
    outer loop
      vertex 43.7865 4.11832 5
      vertex 35.4635 3.57341 5
      vertex 45.4635 3.57341 5
    endloop
  endfacet
  facet normal 0 0 1
    outer loop
      vertex 0 0 5
      vertex 45.4635 3.57341 5
      vertex 35.4635 3.57341 5
    endloop
  endfacet
  facet normal 0 0 1
    outer loop
      vertex 33.7865 5.88168 5
      vertex 26.5 5 5
      vertex 33.7865 4.11832 5
    endloop
  endfacet
  facet normal 0 0 1
    outer loop
      vertex 25.4635 3.57341 5
      vertex 33.7865 4.11832 5
      vertex 26.5 5 5
    endloop
  endfacet
  facet normal 0 0 1
    outer loop
      vertex 33.7865 4.11832 5
      vertex 25.4635 3.57341 5
      vertex 35.4635 3.57341 5
    endloop
  endfacet
  facet normal 0 0 1
    outer loop
      vertex 0 0 5
      vertex 35.4635 3.57341 5
      vertex 25.4635 3.57341 5
    endloop
  endfacet
  facet normal 0 0 1
    outer loop
      vertex 23.7865 5.88168 5
      vertex 16.5 5 5
      vertex 23.7865 4.11832 5
    endloop
  endfacet
  facet normal 0 0 1
    outer loop
      vertex 15.4635 3.57341 5
      vertex 23.7865 4.11832 5
      vertex 16.5 5 5
    endloop
  endfacet
  facet normal 0 0 1
    outer loop
      vertex 23.7865 4.11832 5
      vertex 15.4635 3.57341 5
      vertex 25.4635 3.57341 5
    endloop
  endfacet
  facet normal 0 0 1
    outer loop
      vertex 0 0 5
      vertex 25.4635 3.57341 5
      vertex 15.4635 3.57341 5
    endloop
  endfacet
  facet normal 0 0 1
    outer loop
      vertex 13.7865 5.88168 5
      vertex 6.5 5 5
      vertex 13.7865 4.11832 5
    endloop
  endfacet
  facet normal 0 0 1
    outer loop
      vertex 5.46352 3.57341 5
      vertex 13.7865 4.11832 5
      vertex 6.5 5 5
    endloop
  endfacet
  facet normal 0 0 1
    outer loop
      vertex 13.7865 4.11832 5
      vertex 5.46352 3.57341 5
      vertex 15.4635 3.57341 5
    endloop
  endfacet
  facet normal 0 0 1
    outer loop
      vertex 0 0 5
      vertex 15.4635 3.57341 5
      vertex 5.46352 3.57341 5
    endloop
  endfacet
  facet normal 0 0 1
    outer loop
      vertex 55.4635 3.57341 5
      vertex 0 0 5
      vertex 130 0 5
    endloop
  endfacet
  facet normal 0 0 1
    outer loop
      vertex 3.78647 4.11832 5
      vertex 0 0 5
      vertex 5.46352 3.57341 5
    endloop
  endfacet
  facet normal 0 0 1
    outer loop
      vertex 3.78647 5.88168 5
      vertex 0 0 5
      vertex 3.78647 4.11832 5
    endloop
  endfacet
  facet normal 1 -0 0
    outer loop
      vertex 130 0 5
      vertex 130 20 0
      vertex 130 20 5
    endloop
  endfacet
  facet normal 1 0 0
    outer loop
      vertex 130 20 0
      vertex 130 0 5
      vertex 130 0 0
    endloop
  endfacet
  facet normal 0 -1 0
    outer loop
      vertex 0 0 0
      vertex 130 0 5
      vertex 0 0 5
    endloop
  endfacet
  facet normal 0 -1 -0
    outer loop
      vertex 130 0 5
      vertex 0 0 0
      vertex 130 0 0
    endloop
  endfacet
  facet normal 0 1 -0
    outer loop
      vertex 130 20 0
      vertex 0 20 5
      vertex 130 20 5
    endloop
  endfacet
  facet normal 0 1 0
    outer loop
      vertex 0 20 5
      vertex 130 20 0
      vertex 0 20 0
    endloop
  endfacet
endsolid OpenSCAD_Model
