solid OpenSCAD_Model
  facet normal -1 0 0
    outer loop
      vertex 0 -15 0
      vertex 0 15 5
      vertex 0 15 0
    endloop
  endfacet
  facet normal -1 -0 0
    outer loop
      vertex 0 15 5
      vertex 0 -15 0
      vertex 0 -15 5
    endloop
  endfacet
  facet normal -0 0 1
    outer loop
      vertex 35.4635 -7.32341 5
      vertex 42.5 -7.5 5
      vertex 35.4635 7.32341 5
    endloop
  endfacet
  facet normal 0 0 1
    outer loop
      vertex 42.5 -7.5 5
      vertex 35.4635 -7.32341 5
      vertex 36.5 -8.75 5
    endloop
  endfacet
  facet normal 0 0 1
    outer loop
      vertex 33.7865 7.86832 5
      vertex 35.4635 -7.32341 5
      vertex 35.4635 7.32341 5
    endloop
  endfacet
  facet normal 0 0 1
    outer loop
      vertex 35.4635 -7.32341 5
      vertex 33.7865 7.86832 5
      vertex 33.7865 -7.86832 5
    endloop
  endfacet
  facet normal 0 0 1
    outer loop
      vertex 70 15 5
      vertex 67.5 7.5 5
      vertex 70 -15 5
    endloop
  endfacet
  facet normal 0 0 1
    outer loop
      vertex 70 15 5
      vertex 42.5 7.5 5
      vertex 67.5 7.5 5
    endloop
  endfacet
  facet normal 0 0 1
    outer loop
      vertex 35.4635 7.32341 5
      vertex 42.5 7.5 5
      vertex 36.5 8.75 5
    endloop
  endfacet
  facet normal -0 0 1
    outer loop
      vertex 35.4635 10.1766 5
      vertex 42.5 7.5 5
      vertex 70 15 5
    endloop
  endfacet
  facet normal 0 0 1
    outer loop
      vertex 42.5 7.5 5
      vertex 35.4635 10.1766 5
      vertex 36.5 8.75 5
    endloop
  endfacet
  facet normal 0 0 1
    outer loop
      vertex 19.7348 3.68528 5
      vertex 33.7865 7.86832 5
      vertex 33.7865 9.63168 5
    endloop
  endfacet
  facet normal 0 0 1
    outer loop
      vertex 33.7865 7.86832 5
      vertex 21 0 5
      vertex 33.7865 -7.86832 5
    endloop
  endfacet
  facet normal -0 0 1
    outer loop
      vertex 20.6749 -1.9482 5
      vertex 33.7865 -7.86832 5
      vertex 21 0 5
    endloop
  endfacet
  facet normal 0 0 1
    outer loop
      vertex 33.7865 7.86832 5
      vertex 20.6749 1.9482 5
      vertex 21 0 5
    endloop
  endfacet
  facet normal 0 0 1
    outer loop
      vertex 33.7865 7.86832 5
      vertex 19.7348 3.68528 5
      vertex 20.6749 1.9482 5
    endloop
  endfacet
  facet normal 0 0 1
    outer loop
      vertex 33.7865 9.63168 5
      vertex 18.2817 5.023 5
      vertex 19.7348 3.68528 5
    endloop
  endfacet
  facet normal 0 0 1
    outer loop
      vertex 0 15 5
      vertex 33.7865 9.63168 5
      vertex 35.4635 10.1766 5
    endloop
  endfacet
  facet normal 0 0 1
    outer loop
      vertex 33.7865 9.63168 5
      vertex 16.4729 5.8164 5
      vertex 18.2817 5.023 5
    endloop
  endfacet
  facet normal 0 0 1
    outer loop
      vertex 33.7865 9.63168 5
      vertex 0 15 5
      vertex 16.4729 5.8164 5
    endloop
  endfacet
  facet normal 0 0 1
    outer loop
      vertex 9.08183 0.987567 5
      vertex 0 15 5
      vertex 9.08183 -0.987567 5
    endloop
  endfacet
  facet normal 0 0 1
    outer loop
      vertex 9.72316 2.85568 5
      vertex 0 15 5
      vertex 9.08183 0.987567 5
    endloop
  endfacet
  facet normal 0 0 1
    outer loop
      vertex 10.9363 4.41434 5
      vertex 0 15 5
      vertex 9.72316 2.85568 5
    endloop
  endfacet
  facet normal 0 0 1
    outer loop
      vertex 12.5898 5.49464 5
      vertex 0 15 5
      vertex 10.9363 4.41434 5
    endloop
  endfacet
  facet normal 0 0 1
    outer loop
      vertex 14.5045 5.97951 5
      vertex 0 15 5
      vertex 12.5898 5.49464 5
    endloop
  endfacet
  facet normal 0 0 1
    outer loop
      vertex 16.4729 5.8164 5
      vertex 0 15 5
      vertex 14.5045 5.97951 5
    endloop
  endfacet
  facet normal -0 0 1
    outer loop
      vertex 0 15 5
      vertex 35.4635 10.1766 5
      vertex 70 15 5
    endloop
  endfacet
  facet normal -0 0 1
    outer loop
      vertex 67.5 -7.5 5
      vertex 70 -15 5
      vertex 67.5 7.5 5
    endloop
  endfacet
  facet normal -0 0 1
    outer loop
      vertex 42.5 -7.5 5
      vertex 70 -15 5
      vertex 67.5 -7.5 5
    endloop
  endfacet
  facet normal 0 0 1
    outer loop
      vertex 42.5 7.5 5
      vertex 35.4635 7.32341 5
      vertex 42.5 -7.5 5
    endloop
  endfacet
  facet normal 0 0 1
    outer loop
      vertex 35.4635 -10.1766 5
      vertex 42.5 -7.5 5
      vertex 36.5 -8.75 5
    endloop
  endfacet
  facet normal 0 0 1
    outer loop
      vertex 42.5 -7.5 5
      vertex 35.4635 -10.1766 5
      vertex 70 -15 5
    endloop
  endfacet
  facet normal -0 0 1
    outer loop
      vertex 19.7348 -3.68528 5
      vertex 33.7865 -7.86832 5
      vertex 20.6749 -1.9482 5
    endloop
  endfacet
  facet normal 0 0 1
    outer loop
      vertex 33.7865 -7.86832 5
      vertex 19.7348 -3.68528 5
      vertex 33.7865 -9.63168 5
    endloop
  endfacet
  facet normal -0 0 1
    outer loop
      vertex 18.2817 -5.023 5
      vertex 33.7865 -9.63168 5
      vertex 19.7348 -3.68528 5
    endloop
  endfacet
  facet normal -0 0 1
    outer loop
      vertex 16.4729 -5.8164 5
      vertex 33.7865 -9.63168 5
      vertex 18.2817 -5.023 5
    endloop
  endfacet
  facet normal 0 0 1
    outer loop
      vertex 0 -15 5
      vertex 33.7865 -9.63168 5
      vertex 16.4729 -5.8164 5
    endloop
  endfacet
  facet normal 0 0 1
    outer loop
      vertex 0 -15 5
      vertex 16.4729 -5.8164 5
      vertex 14.5045 -5.97951 5
    endloop
  endfacet
  facet normal 0 0 1
    outer loop
      vertex 0 -15 5
      vertex 9.08183 -0.987567 5
      vertex 0 15 5
    endloop
  endfacet
  facet normal 0 0 1
    outer loop
      vertex 35.4635 -10.1766 5
      vertex 0 -15 5
      vertex 70 -15 5
    endloop
  endfacet
  facet normal 0 0 1
    outer loop
      vertex 33.7865 -9.63168 5
      vertex 0 -15 5
      vertex 35.4635 -10.1766 5
    endloop
  endfacet
  facet normal 0 0 1
    outer loop
      vertex 12.5898 -5.49464 5
      vertex 0 -15 5
      vertex 14.5045 -5.97951 5
    endloop
  endfacet
  facet normal 0 0 1
    outer loop
      vertex 10.9363 -4.41434 5
      vertex 0 -15 5
      vertex 12.5898 -5.49464 5
    endloop
  endfacet
  facet normal 0 0 1
    outer loop
      vertex 9.72316 -2.85568 5
      vertex 0 -15 5
      vertex 10.9363 -4.41434 5
    endloop
  endfacet
  facet normal 0 0 1
    outer loop
      vertex 9.08183 -0.987567 5
      vertex 0 -15 5
      vertex 9.72316 -2.85568 5
    endloop
  endfacet
  facet normal 1 -0 0
    outer loop
      vertex 70 -15 5
      vertex 70 15 0
      vertex 70 15 5
    endloop
  endfacet
  facet normal 1 0 0
    outer loop
      vertex 70 15 0
      vertex 70 -15 5
      vertex 70 -15 0
    endloop
  endfacet
  facet normal 0 0 -1
    outer loop
      vertex 35.4635 7.32341 0
      vertex 42.5 7.5 0
      vertex 35.4635 -7.32341 0
    endloop
  endfacet
  facet normal -0 0 -1
    outer loop
      vertex 42.5 7.5 0
      vertex 35.4635 7.32341 0
      vertex 36.5 8.75 0
    endloop
  endfacet
  facet normal 0 0 -1
    outer loop
      vertex 33.7865 -7.86832 0
      vertex 35.4635 7.32341 0
      vertex 35.4635 -7.32341 0
    endloop
  endfacet
  facet normal -0 0 -1
    outer loop
      vertex 35.4635 7.32341 0
      vertex 33.7865 -7.86832 0
      vertex 33.7865 7.86832 0
    endloop
  endfacet
  facet normal 0 0 -1
    outer loop
      vertex 70 -15 0
      vertex 67.5 -7.5 0
      vertex 70 15 0
    endloop
  endfacet
  facet normal 0 0 -1
    outer loop
      vertex 70 -15 0
      vertex 42.5 -7.5 0
      vertex 67.5 -7.5 0
    endloop
  endfacet
  facet normal 0 0 -1
    outer loop
      vertex 35.4635 -7.32341 0
      vertex 42.5 -7.5 0
      vertex 36.5 -8.75 0
    endloop
  endfacet
  facet normal 0 0 -1
    outer loop
      vertex 35.4635 -10.1766 0
      vertex 42.5 -7.5 0
      vertex 70 -15 0
    endloop
  endfacet
  facet normal 0 0 -1
    outer loop
      vertex 42.5 -7.5 0
      vertex 35.4635 -10.1766 0
      vertex 36.5 -8.75 0
    endloop
  endfacet
  facet normal 0 0 -1
    outer loop
      vertex 19.7348 -3.68528 0
      vertex 33.7865 -7.86832 0
      vertex 33.7865 -9.63168 0
    endloop
  endfacet
  facet normal 0 0 -1
    outer loop
      vertex 33.7865 -7.86832 0
      vertex 21 0 0
      vertex 33.7865 7.86832 0
    endloop
  endfacet
  facet normal 0 0 -1
    outer loop
      vertex 20.6749 1.9482 0
      vertex 33.7865 7.86832 0
      vertex 21 0 0
    endloop
  endfacet
  facet normal 0 0 -1
    outer loop
      vertex 33.7865 -7.86832 0
      vertex 20.6749 -1.9482 0
      vertex 21 0 0
    endloop
  endfacet
  facet normal 0 0 -1
    outer loop
      vertex 33.7865 -7.86832 0
      vertex 19.7348 -3.68528 0
      vertex 20.6749 -1.9482 0
    endloop
  endfacet
  facet normal 0 0 -1
    outer loop
      vertex 33.7865 -9.63168 0
      vertex 18.2817 -5.023 0
      vertex 19.7348 -3.68528 0
    endloop
  endfacet
  facet normal 0 0 -1
    outer loop
      vertex 0 -15 0
      vertex 33.7865 -9.63168 0
      vertex 35.4635 -10.1766 0
    endloop
  endfacet
  facet normal 0 0 -1
    outer loop
      vertex 33.7865 -9.63168 0
      vertex 16.4729 -5.8164 0
      vertex 18.2817 -5.023 0
    endloop
  endfacet
  facet normal -0 0 -1
    outer loop
      vertex 33.7865 -9.63168 0
      vertex 0 -15 0
      vertex 16.4729 -5.8164 0
    endloop
  endfacet
  facet normal -0 0 -1
    outer loop
      vertex 9.08183 -0.987567 0
      vertex 0 -15 0
      vertex 9.08183 0.987567 0
    endloop
  endfacet
  facet normal -0 0 -1
    outer loop
      vertex 9.72316 -2.85568 0
      vertex 0 -15 0
      vertex 9.08183 -0.987567 0
    endloop
  endfacet
  facet normal -0 0 -1
    outer loop
      vertex 10.9363 -4.41434 0
      vertex 0 -15 0
      vertex 9.72316 -2.85568 0
    endloop
  endfacet
  facet normal -0 0 -1
    outer loop
      vertex 12.5898 -5.49464 0
      vertex 0 -15 0
      vertex 10.9363 -4.41434 0
    endloop
  endfacet
  facet normal -0 0 -1
    outer loop
      vertex 14.5045 -5.97951 0
      vertex 0 -15 0
      vertex 12.5898 -5.49464 0
    endloop
  endfacet
  facet normal 0 0 -1
    outer loop
      vertex 16.4729 -5.8164 0
      vertex 0 -15 0
      vertex 14.5045 -5.97951 0
    endloop
  endfacet
  facet normal 0 0 -1
    outer loop
      vertex 0 -15 0
      vertex 35.4635 -10.1766 0
      vertex 70 -15 0
    endloop
  endfacet
  facet normal 0 0 -1
    outer loop
      vertex 67.5 7.5 0
      vertex 70 15 0
      vertex 67.5 -7.5 0
    endloop
  endfacet
  facet normal 0 0 -1
    outer loop
      vertex 42.5 7.5 0
      vertex 70 15 0
      vertex 67.5 7.5 0
    endloop
  endfacet
  facet normal 0 0 -1
    outer loop
      vertex 42.5 -7.5 0
      vertex 35.4635 -7.32341 0
      vertex 42.5 7.5 0
    endloop
  endfacet
  facet normal 0 0 -1
    outer loop
      vertex 35.4635 10.1766 0
      vertex 42.5 7.5 0
      vertex 36.5 8.75 0
    endloop
  endfacet
  facet normal 0 0 -1
    outer loop
      vertex 42.5 7.5 0
      vertex 35.4635 10.1766 0
      vertex 70 15 0
    endloop
  endfacet
  facet normal 0 0 -1
    outer loop
      vertex 19.7348 3.68528 0
      vertex 33.7865 7.86832 0
      vertex 20.6749 1.9482 0
    endloop
  endfacet
  facet normal -0 0 -1
    outer loop
      vertex 33.7865 7.86832 0
      vertex 19.7348 3.68528 0
      vertex 33.7865 9.63168 0
    endloop
  endfacet
  facet normal 0 0 -1
    outer loop
      vertex 18.2817 5.023 0
      vertex 33.7865 9.63168 0
      vertex 19.7348 3.68528 0
    endloop
  endfacet
  facet normal 0 0 -1
    outer loop
      vertex 16.4729 5.8164 0
      vertex 33.7865 9.63168 0
      vertex 18.2817 5.023 0
    endloop
  endfacet
  facet normal 0 0 -1
    outer loop
      vertex 0 15 0
      vertex 33.7865 9.63168 0
      vertex 16.4729 5.8164 0
    endloop
  endfacet
  facet normal 0 0 -1
    outer loop
      vertex 0 15 0
      vertex 16.4729 5.8164 0
      vertex 14.5045 5.97951 0
    endloop
  endfacet
  facet normal 0 0 -1
    outer loop
      vertex 0 15 0
      vertex 9.08183 0.987567 0
      vertex 0 -15 0
    endloop
  endfacet
  facet normal 0 0 -1
    outer loop
      vertex 35.4635 10.1766 0
      vertex 0 15 0
      vertex 70 15 0
    endloop
  endfacet
  facet normal 0 0 -1
    outer loop
      vertex 33.7865 9.63168 0
      vertex 0 15 0
      vertex 35.4635 10.1766 0
    endloop
  endfacet
  facet normal 0 0 -1
    outer loop
      vertex 12.5898 5.49464 0
      vertex 0 15 0
      vertex 14.5045 5.97951 0
    endloop
  endfacet
  facet normal 0 0 -1
    outer loop
      vertex 10.9363 4.41434 0
      vertex 0 15 0
      vertex 12.5898 5.49464 0
    endloop
  endfacet
  facet normal 0 0 -1
    outer loop
      vertex 9.72316 2.85568 0
      vertex 0 15 0
      vertex 10.9363 4.41434 0
    endloop
  endfacet
  facet normal 0 0 -1
    outer loop
      vertex 9.08183 0.987567 0
      vertex 0 15 0
      vertex 9.72316 2.85568 0
    endloop
  endfacet
  facet normal 0 -1 0
    outer loop
      vertex 0 -15 0
      vertex 70 -15 5
      vertex 0 -15 5
    endloop
  endfacet
  facet normal 0 -1 -0
    outer loop
      vertex 70 -15 5
      vertex 0 -15 0
      vertex 70 -15 0
    endloop
  endfacet
  facet normal 0 1 -0
    outer loop
      vertex 70 15 0
      vertex 0 15 5
      vertex 70 15 5
    endloop
  endfacet
  facet normal 0 1 0
    outer loop
      vertex 0 15 5
      vertex 70 15 0
      vertex 0 15 0
    endloop
  endfacet
  facet normal -0.986361 -0.164594 0
    outer loop
      vertex 21 0 0
      vertex 20.6749 1.9482 5
      vertex 20.6749 1.9482 0
    endloop
  endfacet
  facet normal -0.986361 -0.164594 0
    outer loop
      vertex 20.6749 1.9482 5
      vertex 21 0 0
      vertex 21 0 5
    endloop
  endfacet
  facet normal 1 -0 0
    outer loop
      vertex 9.08183 -0.987567 5
      vertex 9.08183 0.987567 0
      vertex 9.08183 0.987567 5
    endloop
  endfacet
  facet normal 1 0 0
    outer loop
      vertex 9.08183 0.987567 0
      vertex 9.08183 -0.987567 5
      vertex 9.08183 -0.987567 0
    endloop
  endfacet
  facet normal -0.401695 -0.915773 0
    outer loop
      vertex 16.4729 5.8164 0
      vertex 18.2817 5.023 5
      vertex 16.4729 5.8164 5
    endloop
  endfacet
  facet normal -0.401695 -0.915773 -0
    outer loop
      vertex 18.2817 5.023 5
      vertex 16.4729 5.8164 0
      vertex 18.2817 5.023 0
    endloop
  endfacet
  facet normal -0.401695 0.915773 0
    outer loop
      vertex 18.2817 -5.023 0
      vertex 16.4729 -5.8164 5
      vertex 18.2817 -5.023 5
    endloop
  endfacet
  facet normal -0.401695 0.915773 0
    outer loop
      vertex 16.4729 -5.8164 5
      vertex 18.2817 -5.023 0
      vertex 16.4729 -5.8164 0
    endloop
  endfacet
  facet normal -0.0825792 0.996585 0
    outer loop
      vertex 16.4729 -5.8164 0
      vertex 14.5045 -5.97951 5
      vertex 16.4729 -5.8164 5
    endloop
  endfacet
  facet normal -0.0825792 0.996585 0
    outer loop
      vertex 14.5045 -5.97951 5
      vertex 16.4729 -5.8164 0
      vertex 14.5045 -5.97951 0
    endloop
  endfacet
  facet normal -0.677282 -0.735724 0
    outer loop
      vertex 18.2817 5.023 0
      vertex 19.7348 3.68528 5
      vertex 18.2817 5.023 5
    endloop
  endfacet
  facet normal -0.677282 -0.735724 -0
    outer loop
      vertex 19.7348 3.68528 5
      vertex 18.2817 5.023 0
      vertex 19.7348 3.68528 0
    endloop
  endfacet
  facet normal -0.879474 -0.475948 0
    outer loop
      vertex 20.6749 1.9482 0
      vertex 19.7348 3.68528 5
      vertex 19.7348 3.68528 0
    endloop
  endfacet
  facet normal -0.879474 -0.475948 0
    outer loop
      vertex 19.7348 3.68528 5
      vertex 20.6749 1.9482 0
      vertex 20.6749 1.9482 5
    endloop
  endfacet
  facet normal -0.0825792 -0.996585 0
    outer loop
      vertex 14.5045 5.97951 0
      vertex 16.4729 5.8164 5
      vertex 14.5045 5.97951 5
    endloop
  endfacet
  facet normal -0.0825792 -0.996585 -0
    outer loop
      vertex 16.4729 5.8164 5
      vertex 14.5045 5.97951 0
      vertex 16.4729 5.8164 0
    endloop
  endfacet
  facet normal 0.245486 -0.9694 0
    outer loop
      vertex 12.5898 5.49464 0
      vertex 14.5045 5.97951 5
      vertex 12.5898 5.49464 5
    endloop
  endfacet
  facet normal 0.245486 -0.9694 0
    outer loop
      vertex 14.5045 5.97951 5
      vertex 12.5898 5.49464 0
      vertex 14.5045 5.97951 0
    endloop
  endfacet
  facet normal 0.945817 0.324699 0
    outer loop
      vertex 9.72316 -2.85568 5
      vertex 9.08183 -0.987567 0
      vertex 9.08183 -0.987567 5
    endloop
  endfacet
  facet normal 0.945817 0.324699 0
    outer loop
      vertex 9.08183 -0.987567 0
      vertex 9.72316 -2.85568 5
      vertex 9.72316 -2.85568 0
    endloop
  endfacet
  facet normal 0.245486 0.9694 -0
    outer loop
      vertex 14.5045 -5.97951 0
      vertex 12.5898 -5.49464 5
      vertex 14.5045 -5.97951 5
    endloop
  endfacet
  facet normal 0.245486 0.9694 0
    outer loop
      vertex 12.5898 -5.49464 5
      vertex 14.5045 -5.97951 0
      vertex 12.5898 -5.49464 0
    endloop
  endfacet
  facet normal 0.945817 -0.324699 0
    outer loop
      vertex 9.08183 0.987567 5
      vertex 9.72316 2.85568 0
      vertex 9.72316 2.85568 5
    endloop
  endfacet
  facet normal 0.945817 -0.324699 0
    outer loop
      vertex 9.72316 2.85568 0
      vertex 9.08183 0.987567 5
      vertex 9.08183 0.987567 0
    endloop
  endfacet
  facet normal 0.546948 -0.837166 0
    outer loop
      vertex 10.9363 4.41434 0
      vertex 12.5898 5.49464 5
      vertex 10.9363 4.41434 5
    endloop
  endfacet
  facet normal 0.546948 -0.837166 0
    outer loop
      vertex 12.5898 5.49464 5
      vertex 10.9363 4.41434 0
      vertex 12.5898 5.49464 0
    endloop
  endfacet
  facet normal 0.78914 -0.614213 0
    outer loop
      vertex 9.72316 2.85568 5
      vertex 10.9363 4.41434 0
      vertex 10.9363 4.41434 5
    endloop
  endfacet
  facet normal 0.78914 -0.614213 0
    outer loop
      vertex 10.9363 4.41434 0
      vertex 9.72316 2.85568 5
      vertex 9.72316 2.85568 0
    endloop
  endfacet
  facet normal -0.677282 0.735724 0
    outer loop
      vertex 19.7348 -3.68528 0
      vertex 18.2817 -5.023 5
      vertex 19.7348 -3.68528 5
    endloop
  endfacet
  facet normal -0.677282 0.735724 0
    outer loop
      vertex 18.2817 -5.023 5
      vertex 19.7348 -3.68528 0
      vertex 18.2817 -5.023 0
    endloop
  endfacet
  facet normal -0.986361 0.164594 0
    outer loop
      vertex 20.6749 -1.9482 0
      vertex 21 0 5
      vertex 21 0 0
    endloop
  endfacet
  facet normal -0.986361 0.164594 0
    outer loop
      vertex 21 0 5
      vertex 20.6749 -1.9482 0
      vertex 20.6749 -1.9482 5
    endloop
  endfacet
  facet normal 0.78914 0.614213 0
    outer loop
      vertex 10.9363 -4.41434 5
      vertex 9.72316 -2.85568 0
      vertex 9.72316 -2.85568 5
    endloop
  endfacet
  facet normal 0.78914 0.614213 0
    outer loop
      vertex 9.72316 -2.85568 0
      vertex 10.9363 -4.41434 5
      vertex 10.9363 -4.41434 0
    endloop
  endfacet
  facet normal 0.546948 0.837166 -0
    outer loop
      vertex 12.5898 -5.49464 0
      vertex 10.9363 -4.41434 5
      vertex 12.5898 -5.49464 5
    endloop
  endfacet
  facet normal 0.546948 0.837166 0
    outer loop
      vertex 10.9363 -4.41434 5
      vertex 12.5898 -5.49464 0
      vertex 10.9363 -4.41434 0
    endloop
  endfacet
  facet normal -0.879474 0.475948 0
    outer loop
      vertex 19.7348 -3.68528 0
      vertex 20.6749 -1.9482 5
      vertex 20.6749 -1.9482 0
    endloop
  endfacet
  facet normal -0.879474 0.475948 0
    outer loop
      vertex 20.6749 -1.9482 5
      vertex 19.7348 -3.68528 0
      vertex 19.7348 -3.68528 5
    endloop
  endfacet
  facet normal -0.809016 -0.587786 0
    outer loop
      vertex 36.5 8.75 0
      vertex 35.4635 10.1766 5
      vertex 35.4635 10.1766 0
    endloop
  endfacet
  facet normal -0.809016 -0.587786 0
    outer loop
      vertex 35.4635 10.1766 5
      vertex 36.5 8.75 0
      vertex 36.5 8.75 5
    endloop
  endfacet
  facet normal 1 -0 0
    outer loop
      vertex 33.7865 7.86832 5
      vertex 33.7865 9.63168 0
      vertex 33.7865 9.63168 5
    endloop
  endfacet
  facet normal 1 0 0
    outer loop
      vertex 33.7865 9.63168 0
      vertex 33.7865 7.86832 5
      vertex 33.7865 7.86832 0
    endloop
  endfacet
  facet normal 0.309017 -0.951056 0
    outer loop
      vertex 33.7865 9.63168 0
      vertex 35.4635 10.1766 5
      vertex 33.7865 9.63168 5
    endloop
  endfacet
  facet normal 0.309017 -0.951056 0
    outer loop
      vertex 35.4635 10.1766 5
      vertex 33.7865 9.63168 0
      vertex 35.4635 10.1766 0
    endloop
  endfacet
  facet normal 0.309017 0.951056 -0
    outer loop
      vertex 35.4635 7.32341 0
      vertex 33.7865 7.86832 5
      vertex 35.4635 7.32341 5
    endloop
  endfacet
  facet normal 0.309017 0.951056 0
    outer loop
      vertex 33.7865 7.86832 5
      vertex 35.4635 7.32341 0
      vertex 33.7865 7.86832 0
    endloop
  endfacet
  facet normal -0.809017 0.587786 0
    outer loop
      vertex 35.4635 7.32341 0
      vertex 36.5 8.75 5
      vertex 36.5 8.75 0
    endloop
  endfacet
  facet normal -0.809017 0.587786 0
    outer loop
      vertex 36.5 8.75 5
      vertex 35.4635 7.32341 0
      vertex 35.4635 7.32341 5
    endloop
  endfacet
  facet normal -0.809017 -0.587786 0
    outer loop
      vertex 36.5 -8.75 0
      vertex 35.4635 -7.32341 5
      vertex 35.4635 -7.32341 0
    endloop
  endfacet
  facet normal -0.809017 -0.587786 0
    outer loop
      vertex 35.4635 -7.32341 5
      vertex 36.5 -8.75 0
      vertex 36.5 -8.75 5
    endloop
  endfacet
  facet normal 1 -0 0
    outer loop
      vertex 33.7865 -9.63168 5
      vertex 33.7865 -7.86832 0
      vertex 33.7865 -7.86832 5
    endloop
  endfacet
  facet normal 1 0 0
    outer loop
      vertex 33.7865 -7.86832 0
      vertex 33.7865 -9.63168 5
      vertex 33.7865 -9.63168 0
    endloop
  endfacet
  facet normal 0.309017 -0.951056 0
    outer loop
      vertex 33.7865 -7.86832 0
      vertex 35.4635 -7.32341 5
      vertex 33.7865 -7.86832 5
    endloop
  endfacet
  facet normal 0.309017 -0.951056 0
    outer loop
      vertex 35.4635 -7.32341 5
      vertex 33.7865 -7.86832 0
      vertex 35.4635 -7.32341 0
    endloop
  endfacet
  facet normal 0.309017 0.951056 -0
    outer loop
      vertex 35.4635 -10.1766 0
      vertex 33.7865 -9.63168 5
      vertex 35.4635 -10.1766 5
    endloop
  endfacet
  facet normal 0.309017 0.951056 0
    outer loop
      vertex 33.7865 -9.63168 5
      vertex 35.4635 -10.1766 0
      vertex 33.7865 -9.63168 0
    endloop
  endfacet
  facet normal -0.809016 0.587786 0
    outer loop
      vertex 35.4635 -10.1766 0
      vertex 36.5 -8.75 5
      vertex 36.5 -8.75 0
    endloop
  endfacet
  facet normal -0.809016 0.587786 0
    outer loop
      vertex 36.5 -8.75 5
      vertex 35.4635 -10.1766 0
      vertex 35.4635 -10.1766 5
    endloop
  endfacet
  facet normal 1 -0 0
    outer loop
      vertex 42.5 -7.5 5
      vertex 42.5 7.5 0
      vertex 42.5 7.5 5
    endloop
  endfacet
  facet normal 1 0 0
    outer loop
      vertex 42.5 7.5 0
      vertex 42.5 -7.5 5
      vertex 42.5 -7.5 0
    endloop
  endfacet
  facet normal -1 0 0
    outer loop
      vertex 67.5 -7.5 0
      vertex 67.5 7.5 5
      vertex 67.5 7.5 0
    endloop
  endfacet
  facet normal -1 -0 0
    outer loop
      vertex 67.5 7.5 5
      vertex 67.5 -7.5 0
      vertex 67.5 -7.5 5
    endloop
  endfacet
  facet normal 0 -1 0
    outer loop
      vertex 42.5 7.5 0
      vertex 67.5 7.5 5
      vertex 42.5 7.5 5
    endloop
  endfacet
  facet normal 0 -1 -0
    outer loop
      vertex 67.5 7.5 5
      vertex 42.5 7.5 0
      vertex 67.5 7.5 0
    endloop
  endfacet
  facet normal 0 1 -0
    outer loop
      vertex 67.5 -7.5 0
      vertex 42.5 -7.5 5
      vertex 67.5 -7.5 5
    endloop
  endfacet
  facet normal 0 1 0
    outer loop
      vertex 42.5 -7.5 5
      vertex 67.5 -7.5 0
      vertex 42.5 -7.5 0
    endloop
  endfacet
endsolid OpenSCAD_Model
