solid OpenSCAD_Model
  facet normal -1 0 0
    outer loop
      vertex 0 30 0
      vertex 0 26.4266 4.53647
      vertex 0 30 10
    endloop
  endfacet
  facet normal -1 0 0
    outer loop
      vertex 0 30 0
      vertex 0 25 3.5
      vertex 0 26.4266 4.53647
    endloop
  endfacet
  facet normal -1 0 0
    outer loop
      vertex 0 25 3.5
      vertex 0 6.42658 4.53647
      vertex 0 23.5734 4.53647
    endloop
  endfacet
  facet normal -1 0 0
    outer loop
      vertex 0 5 3.5
      vertex 0 25 3.5
      vertex 0 30 0
    endloop
  endfacet
  facet normal -1 0 0
    outer loop
      vertex 0 25 3.5
      vertex 0 5 3.5
      vertex 0 6.42658 4.53647
    endloop
  endfacet
  facet normal -1 -0 0
    outer loop
      vertex 0 5 3.5
      vertex 0 0 0
      vertex 0 3.57341 4.53647
    endloop
  endfacet
  facet normal -1 0 0
    outer loop
      vertex 0 0 0
      vertex 0 5 3.5
      vertex 0 30 0
    endloop
  endfacet
  facet normal -1 0 0
    outer loop
      vertex 0 25.8817 6.21352
      vertex 0 30 10
      vertex 0 26.4266 4.53647
    endloop
  endfacet
  facet normal -1 0 0
    outer loop
      vertex 0 24.1183 6.21352
      vertex 0 30 10
      vertex 0 25.8817 6.21352
    endloop
  endfacet
  facet normal -1 0 0
    outer loop
      vertex 0 6.42658 4.53647
      vertex 0 24.1183 6.21352
      vertex 0 23.5734 4.53647
    endloop
  endfacet
  facet normal -1 0 0
    outer loop
      vertex 0 5.88168 6.21352
      vertex 0 24.1183 6.21352
      vertex 0 6.42658 4.53647
    endloop
  endfacet
  facet normal -1 0 0
    outer loop
      vertex 0 24.1183 6.21352
      vertex 0 5.88168 6.21352
      vertex 0 30 10
    endloop
  endfacet
  facet normal -1 0 0
    outer loop
      vertex 0 0 10
      vertex 0 5.88168 6.21352
      vertex 0 4.11832 6.21352
    endloop
  endfacet
  facet normal -1 0 0
    outer loop
      vertex 0 0 10
      vertex 0 3.57341 4.53647
      vertex 0 0 0
    endloop
  endfacet
  facet normal -1 0 0
    outer loop
      vertex 0 5.88168 6.21352
      vertex 0 0 10
      vertex 0 30 10
    endloop
  endfacet
  facet normal -1 0 0
    outer loop
      vertex 0 3.57341 4.53647
      vertex 0 0 10
      vertex 0 4.11832 6.21352
    endloop
  endfacet
  facet normal -0 0 1
    outer loop
      vertex 0 30 10
      vertex 5 20 10
      vertex 5 30 10
    endloop
  endfacet
  facet normal 0 0 1
    outer loop
      vertex 5 20 10
      vertex 0 30 10
      vertex 5 10 10
    endloop
  endfacet
  facet normal 0 0 1
    outer loop
      vertex 0 0 10
      vertex 5 10 10
      vertex 0 30 10
    endloop
  endfacet
  facet normal 0 0 1
    outer loop
      vertex 5 10 10
      vertex 0 0 10
      vertex 5 0 10
    endloop
  endfacet
  facet normal -0 0 1
    outer loop
      vertex 5 20 10
      vertex 55 10 10
      vertex 55 20 10
    endloop
  endfacet
  facet normal 0 0 1
    outer loop
      vertex 55 10 10
      vertex 5 20 10
      vertex 5 10 10
    endloop
  endfacet
  facet normal 0 0 1
    outer loop
      vertex 55 20 10
      vertex 60 30 10
      vertex 55 30 10
    endloop
  endfacet
  facet normal 0 0 1
    outer loop
      vertex 60 30 10
      vertex 55 20 10
      vertex 60 0 10
    endloop
  endfacet
  facet normal -0 0 1
    outer loop
      vertex 55 10 10
      vertex 60 0 10
      vertex 55 20 10
    endloop
  endfacet
  facet normal 0 0 1
    outer loop
      vertex 60 0 10
      vertex 55 10 10
      vertex 55 0 10
    endloop
  endfacet
  facet normal 1 0 0
    outer loop
      vertex 5 10 10
      vertex 5 6.42658 4.53647
      vertex 5 10 0
    endloop
  endfacet
  facet normal 1 0 0
    outer loop
      vertex 5 10 10
      vertex 5 5.88168 6.21352
      vertex 5 6.42658 4.53647
    endloop
  endfacet
  facet normal 1 0 0
    outer loop
      vertex 5 10 10
      vertex 5 4.11832 6.21352
      vertex 5 5.88168 6.21352
    endloop
  endfacet
  facet normal 1 0 0
    outer loop
      vertex 5 4.11832 6.21352
      vertex 5 0 10
      vertex 5 3.57341 4.53647
    endloop
  endfacet
  facet normal 1 -0 0
    outer loop
      vertex 5 0 10
      vertex 5 4.11832 6.21352
      vertex 5 10 10
    endloop
  endfacet
  facet normal 1 -0 0
    outer loop
      vertex 5 5 3.5
      vertex 5 10 0
      vertex 5 6.42658 4.53647
    endloop
  endfacet
  facet normal 1 0 0
    outer loop
      vertex 5 5 3.5
      vertex 5 0 0
      vertex 5 10 0
    endloop
  endfacet
  facet normal 1 0 0
    outer loop
      vertex 5 3.57341 4.53647
      vertex 5 0 0
      vertex 5 5 3.5
    endloop
  endfacet
  facet normal 1 0 0
    outer loop
      vertex 5 0 0
      vertex 5 3.57341 4.53647
      vertex 5 0 10
    endloop
  endfacet
  facet normal 1 0 0
    outer loop
      vertex 5 30 10
      vertex 5 26.4266 4.53647
      vertex 5 30 0
    endloop
  endfacet
  facet normal 1 0 0
    outer loop
      vertex 5 30 10
      vertex 5 25.8817 6.21352
      vertex 5 26.4266 4.53647
    endloop
  endfacet
  facet normal 1 0 0
    outer loop
      vertex 5 30 10
      vertex 5 24.1183 6.21352
      vertex 5 25.8817 6.21352
    endloop
  endfacet
  facet normal 1 0 0
    outer loop
      vertex 5 24.1183 6.21352
      vertex 5 20 10
      vertex 5 23.5734 4.53647
    endloop
  endfacet
  facet normal 1 -0 0
    outer loop
      vertex 5 20 10
      vertex 5 24.1183 6.21352
      vertex 5 30 10
    endloop
  endfacet
  facet normal 1 -0 0
    outer loop
      vertex 5 25 3.5
      vertex 5 30 0
      vertex 5 26.4266 4.53647
    endloop
  endfacet
  facet normal 1 0 0
    outer loop
      vertex 5 25 3.5
      vertex 5 20 0
      vertex 5 30 0
    endloop
  endfacet
  facet normal 1 0 0
    outer loop
      vertex 5 23.5734 4.53647
      vertex 5 20 0
      vertex 5 25 3.5
    endloop
  endfacet
  facet normal 1 0 0
    outer loop
      vertex 5 20 0
      vertex 5 23.5734 4.53647
      vertex 5 20 10
    endloop
  endfacet
  facet normal 0 0 -1
    outer loop
      vertex 0 0 0
      vertex 5 10 0
      vertex 5 0 0
    endloop
  endfacet
  facet normal -0 0 -1
    outer loop
      vertex 5 10 0
      vertex 0 0 0
      vertex 5 20 0
    endloop
  endfacet
  facet normal 0 0 -1
    outer loop
      vertex 0 30 0
      vertex 5 20 0
      vertex 0 0 0
    endloop
  endfacet
  facet normal 0 0 -1
    outer loop
      vertex 5 20 0
      vertex 0 30 0
      vertex 5 30 0
    endloop
  endfacet
  facet normal 0 0 -1
    outer loop
      vertex 5 10 0
      vertex 55 20 0
      vertex 55 10 0
    endloop
  endfacet
  facet normal -0 0 -1
    outer loop
      vertex 55 20 0
      vertex 5 10 0
      vertex 5 20 0
    endloop
  endfacet
  facet normal 0 0 -1
    outer loop
      vertex 55 10 0
      vertex 60 0 0
      vertex 55 0 0
    endloop
  endfacet
  facet normal 0 0 -1
    outer loop
      vertex 60 0 0
      vertex 55 10 0
      vertex 60 30 0
    endloop
  endfacet
  facet normal 0 0 -1
    outer loop
      vertex 55 20 0
      vertex 60 30 0
      vertex 55 10 0
    endloop
  endfacet
  facet normal -0 0 -1
    outer loop
      vertex 60 30 0
      vertex 55 20 0
      vertex 55 30 0
    endloop
  endfacet
  facet normal 0 -1 0
    outer loop
      vertex 0 0 0
      vertex 5 0 10
      vertex 0 0 10
    endloop
  endfacet
  facet normal 0 -1 -0
    outer loop
      vertex 5 0 10
      vertex 0 0 0
      vertex 5 0 0
    endloop
  endfacet
  facet normal 0 1 -0
    outer loop
      vertex 5 30 0
      vertex 0 30 10
      vertex 5 30 10
    endloop
  endfacet
  facet normal 0 1 0
    outer loop
      vertex 0 30 10
      vertex 5 30 0
      vertex 0 30 0
    endloop
  endfacet
  facet normal -1 0 0
    outer loop
      vertex 55 10 0
      vertex 55 6.42658 4.53647
      vertex 55 10 10
    endloop
  endfacet
  facet normal -1 0 0
    outer loop
      vertex 55 10 0
      vertex 55 5 3.5
      vertex 55 6.42658 4.53647
    endloop
  endfacet
  facet normal -1 -0 0
    outer loop
      vertex 55 5 3.5
      vertex 55 0 0
      vertex 55 3.57341 4.53647
    endloop
  endfacet
  facet normal -1 0 0
    outer loop
      vertex 55 0 0
      vertex 55 5 3.5
      vertex 55 10 0
    endloop
  endfacet
  facet normal -1 0 0
    outer loop
      vertex 55 5.88168 6.21352
      vertex 55 10 10
      vertex 55 6.42658 4.53647
    endloop
  endfacet
  facet normal -1 0 0
    outer loop
      vertex 55 4.11832 6.21352
      vertex 55 10 10
      vertex 55 5.88168 6.21352
    endloop
  endfacet
  facet normal -1 0 0
    outer loop
      vertex 55 0 10
      vertex 55 3.57341 4.53647
      vertex 55 0 0
    endloop
  endfacet
  facet normal -1 0 0
    outer loop
      vertex 55 4.11832 6.21352
      vertex 55 0 10
      vertex 55 10 10
    endloop
  endfacet
  facet normal -1 0 0
    outer loop
      vertex 55 3.57341 4.53647
      vertex 55 0 10
      vertex 55 4.11832 6.21352
    endloop
  endfacet
  facet normal -1 0 0
    outer loop
      vertex 55 30 0
      vertex 55 26.4266 4.53647
      vertex 55 30 10
    endloop
  endfacet
  facet normal -1 0 0
    outer loop
      vertex 55 30 0
      vertex 55 25 3.5
      vertex 55 26.4266 4.53647
    endloop
  endfacet
  facet normal -1 -0 0
    outer loop
      vertex 55 25 3.5
      vertex 55 20 0
      vertex 55 23.5734 4.53647
    endloop
  endfacet
  facet normal -1 0 0
    outer loop
      vertex 55 20 0
      vertex 55 25 3.5
      vertex 55 30 0
    endloop
  endfacet
  facet normal -1 0 0
    outer loop
      vertex 55 25.8817 6.21352
      vertex 55 30 10
      vertex 55 26.4266 4.53647
    endloop
  endfacet
  facet normal -1 0 0
    outer loop
      vertex 55 24.1183 6.21352
      vertex 55 30 10
      vertex 55 25.8817 6.21352
    endloop
  endfacet
  facet normal -1 0 0
    outer loop
      vertex 55 20 10
      vertex 55 23.5734 4.53647
      vertex 55 20 0
    endloop
  endfacet
  facet normal -1 0 0
    outer loop
      vertex 55 24.1183 6.21352
      vertex 55 20 10
      vertex 55 30 10
    endloop
  endfacet
  facet normal -1 0 0
    outer loop
      vertex 55 23.5734 4.53647
      vertex 55 20 10
      vertex 55 24.1183 6.21352
    endloop
  endfacet
  facet normal 0 1 -0
    outer loop
      vertex 55 20 0
      vertex 5 20 10
      vertex 55 20 10
    endloop
  endfacet
  facet normal 0 1 0
    outer loop
      vertex 5 20 10
      vertex 55 20 0
      vertex 5 20 0
    endloop
  endfacet
  facet normal 0 -1 0
    outer loop
      vertex 5 10 0
      vertex 55 10 10
      vertex 5 10 10
    endloop
  endfacet
  facet normal 0 -1 -0
    outer loop
      vertex 55 10 10
      vertex 5 10 0
      vertex 55 10 0
    endloop
  endfacet
  facet normal 1 0 0
    outer loop
      vertex 60 30 10
      vertex 60 26.4266 4.53647
      vertex 60 30 0
    endloop
  endfacet
  facet normal 1 0 0
    outer loop
      vertex 60 30 10
      vertex 60 25.8817 6.21352
      vertex 60 26.4266 4.53647
    endloop
  endfacet
  facet normal 1 0 0
    outer loop
      vertex 60 30 10
      vertex 60 24.1183 6.21352
      vertex 60 25.8817 6.21352
    endloop
  endfacet
  facet normal 1 0 0
    outer loop
      vertex 60 24.1183 6.21352
      vertex 60 6.42658 4.53647
      vertex 60 23.5734 4.53647
    endloop
  endfacet
  facet normal 1 0 0
    outer loop
      vertex 60 5.88168 6.21352
      vertex 60 24.1183 6.21352
      vertex 60 30 10
    endloop
  endfacet
  facet normal 1 0 0
    outer loop
      vertex 60 24.1183 6.21352
      vertex 60 5.88168 6.21352
      vertex 60 6.42658 4.53647
    endloop
  endfacet
  facet normal 1 -0 0
    outer loop
      vertex 60 0 10
      vertex 60 5.88168 6.21352
      vertex 60 30 10
    endloop
  endfacet
  facet normal 1 0 0
    outer loop
      vertex 60 4.11832 6.21352
      vertex 60 0 10
      vertex 60 3.57341 4.53647
    endloop
  endfacet
  facet normal 1 0 0
    outer loop
      vertex 60 5.88168 6.21352
      vertex 60 0 10
      vertex 60 4.11832 6.21352
    endloop
  endfacet
  facet normal 1 -0 0
    outer loop
      vertex 60 25 3.5
      vertex 60 30 0
      vertex 60 26.4266 4.53647
    endloop
  endfacet
  facet normal 1 -0 0
    outer loop
      vertex 60 6.42658 4.53647
      vertex 60 25 3.5
      vertex 60 23.5734 4.53647
    endloop
  endfacet
  facet normal 1 0 0
    outer loop
      vertex 60 5 3.5
      vertex 60 25 3.5
      vertex 60 6.42658 4.53647
    endloop
  endfacet
  facet normal 1 0 0
    outer loop
      vertex 60 25 3.5
      vertex 60 5 3.5
      vertex 60 30 0
    endloop
  endfacet
  facet normal 1 0 0
    outer loop
      vertex 60 5 3.5
      vertex 60 0 0
      vertex 60 30 0
    endloop
  endfacet
  facet normal 1 0 0
    outer loop
      vertex 60 3.57341 4.53647
      vertex 60 0 0
      vertex 60 5 3.5
    endloop
  endfacet
  facet normal 1 0 0
    outer loop
      vertex 60 0 0
      vertex 60 3.57341 4.53647
      vertex 60 0 10
    endloop
  endfacet
  facet normal 0 -1 0
    outer loop
      vertex 55 0 0
      vertex 60 0 10
      vertex 55 0 10
    endloop
  endfacet
  facet normal 0 -1 -0
    outer loop
      vertex 60 0 10
      vertex 55 0 0
      vertex 60 0 0
    endloop
  endfacet
  facet normal 0 1 -0
    outer loop
      vertex 60 30 0
      vertex 55 30 10
      vertex 60 30 10
    endloop
  endfacet
  facet normal 0 1 0
    outer loop
      vertex 55 30 10
      vertex 60 30 0
      vertex 55 30 0
    endloop
  endfacet
  facet normal 0 -0.587785 0.809017
    outer loop
      vertex 0 6.42658 4.53647
      vertex 5 5 3.5
      vertex 5 6.42658 4.53647
    endloop
  endfacet
  facet normal 0 -0.587785 0.809017
    outer loop
      vertex 5 5 3.5
      vertex 0 6.42658 4.53647
      vertex 0 5 3.5
    endloop
  endfacet
  facet normal 0 -0.587785 0.809017
    outer loop
      vertex 55 6.42658 4.53647
      vertex 60 5 3.5
      vertex 60 6.42658 4.53647
    endloop
  endfacet
  facet normal 0 -0.587785 0.809017
    outer loop
      vertex 60 5 3.5
      vertex 55 6.42658 4.53647
      vertex 55 5 3.5
    endloop
  endfacet
  facet normal 0 0 -1
    outer loop
      vertex 0 4.11832 6.21352
      vertex 5 5.88168 6.21352
      vertex 5 4.11832 6.21352
    endloop
  endfacet
  facet normal -0 0 -1
    outer loop
      vertex 5 5.88168 6.21352
      vertex 0 4.11832 6.21352
      vertex 0 5.88168 6.21352
    endloop
  endfacet
  facet normal 0 0 -1
    outer loop
      vertex 55 4.11832 6.21352
      vertex 60 5.88168 6.21352
      vertex 60 4.11832 6.21352
    endloop
  endfacet
  facet normal -0 0 -1
    outer loop
      vertex 60 5.88168 6.21352
      vertex 55 4.11832 6.21352
      vertex 55 5.88168 6.21352
    endloop
  endfacet
  facet normal 0 -0.951057 -0.309017
    outer loop
      vertex 0 6.42658 4.53647
      vertex 5 5.88168 6.21352
      vertex 0 5.88168 6.21352
    endloop
  endfacet
  facet normal 0 -0.951057 -0.309017
    outer loop
      vertex 5 5.88168 6.21352
      vertex 0 6.42658 4.53647
      vertex 5 6.42658 4.53647
    endloop
  endfacet
  facet normal 0 -0.951057 -0.309017
    outer loop
      vertex 55 6.42658 4.53647
      vertex 60 5.88168 6.21352
      vertex 55 5.88168 6.21352
    endloop
  endfacet
  facet normal 0 -0.951057 -0.309017
    outer loop
      vertex 60 5.88168 6.21352
      vertex 55 6.42658 4.53647
      vertex 60 6.42658 4.53647
    endloop
  endfacet
  facet normal 0 0.951057 -0.309017
    outer loop
      vertex 5 3.57341 4.53647
      vertex 0 4.11832 6.21352
      vertex 5 4.11832 6.21352
    endloop
  endfacet
  facet normal 0 0.951057 -0.309017
    outer loop
      vertex 0 4.11832 6.21352
      vertex 5 3.57341 4.53647
      vertex 0 3.57341 4.53647
    endloop
  endfacet
  facet normal 0 0.951057 -0.309017
    outer loop
      vertex 60 3.57341 4.53647
      vertex 55 4.11832 6.21352
      vertex 60 4.11832 6.21352
    endloop
  endfacet
  facet normal 0 0.951057 -0.309017
    outer loop
      vertex 55 4.11832 6.21352
      vertex 60 3.57341 4.53647
      vertex 55 3.57341 4.53647
    endloop
  endfacet
  facet normal -0 0.587785 0.809017
    outer loop
      vertex 55 5 3.5
      vertex 60 3.57341 4.53647
      vertex 60 5 3.5
    endloop
  endfacet
  facet normal 0 0.587785 0.809017
    outer loop
      vertex 60 3.57341 4.53647
      vertex 55 5 3.5
      vertex 55 3.57341 4.53647
    endloop
  endfacet
  facet normal -0 0.587785 0.809017
    outer loop
      vertex 0 5 3.5
      vertex 5 3.57341 4.53647
      vertex 5 5 3.5
    endloop
  endfacet
  facet normal 0 0.587785 0.809017
    outer loop
      vertex 5 3.57341 4.53647
      vertex 0 5 3.5
      vertex 0 3.57341 4.53647
    endloop
  endfacet
  facet normal 0 -0.587785 0.809017
    outer loop
      vertex 0 26.4266 4.53647
      vertex 5 25 3.5
      vertex 5 26.4266 4.53647
    endloop
  endfacet
  facet normal 0 -0.587785 0.809017
    outer loop
      vertex 5 25 3.5
      vertex 0 26.4266 4.53647
      vertex 0 25 3.5
    endloop
  endfacet
  facet normal 0 -0.587785 0.809017
    outer loop
      vertex 55 26.4266 4.53647
      vertex 60 25 3.5
      vertex 60 26.4266 4.53647
    endloop
  endfacet
  facet normal 0 -0.587785 0.809017
    outer loop
      vertex 60 25 3.5
      vertex 55 26.4266 4.53647
      vertex 55 25 3.5
    endloop
  endfacet
  facet normal 0 0 -1
    outer loop
      vertex 0 24.1183 6.21352
      vertex 5 25.8817 6.21352
      vertex 5 24.1183 6.21352
    endloop
  endfacet
  facet normal -0 0 -1
    outer loop
      vertex 5 25.8817 6.21352
      vertex 0 24.1183 6.21352
      vertex 0 25.8817 6.21352
    endloop
  endfacet
  facet normal 0 0 -1
    outer loop
      vertex 55 24.1183 6.21352
      vertex 60 25.8817 6.21352
      vertex 60 24.1183 6.21352
    endloop
  endfacet
  facet normal -0 0 -1
    outer loop
      vertex 60 25.8817 6.21352
      vertex 55 24.1183 6.21352
      vertex 55 25.8817 6.21352
    endloop
  endfacet
  facet normal 0 -0.951057 -0.309017
    outer loop
      vertex 0 26.4266 4.53647
      vertex 5 25.8817 6.21352
      vertex 0 25.8817 6.21352
    endloop
  endfacet
  facet normal 0 -0.951057 -0.309017
    outer loop
      vertex 5 25.8817 6.21352
      vertex 0 26.4266 4.53647
      vertex 5 26.4266 4.53647
    endloop
  endfacet
  facet normal 0 -0.951057 -0.309017
    outer loop
      vertex 55 26.4266 4.53647
      vertex 60 25.8817 6.21352
      vertex 55 25.8817 6.21352
    endloop
  endfacet
  facet normal 0 -0.951057 -0.309017
    outer loop
      vertex 60 25.8817 6.21352
      vertex 55 26.4266 4.53647
      vertex 60 26.4266 4.53647
    endloop
  endfacet
  facet normal 0 0.951057 -0.309017
    outer loop
      vertex 5 23.5734 4.53647
      vertex 0 24.1183 6.21352
      vertex 5 24.1183 6.21352
    endloop
  endfacet
  facet normal 0 0.951057 -0.309017
    outer loop
      vertex 0 24.1183 6.21352
      vertex 5 23.5734 4.53647
      vertex 0 23.5734 4.53647
    endloop
  endfacet
  facet normal 0 0.951057 -0.309017
    outer loop
      vertex 60 23.5734 4.53647
      vertex 55 24.1183 6.21352
      vertex 60 24.1183 6.21352
    endloop
  endfacet
  facet normal 0 0.951057 -0.309017
    outer loop
      vertex 55 24.1183 6.21352
      vertex 60 23.5734 4.53647
      vertex 55 23.5734 4.53647
    endloop
  endfacet
  facet normal -0 0.587785 0.809017
    outer loop
      vertex 55 25 3.5
      vertex 60 23.5734 4.53647
      vertex 60 25 3.5
    endloop
  endfacet
  facet normal 0 0.587785 0.809017
    outer loop
      vertex 60 23.5734 4.53647
      vertex 55 25 3.5
      vertex 55 23.5734 4.53647
    endloop
  endfacet
  facet normal -0 0.587785 0.809017
    outer loop
      vertex 0 25 3.5
      vertex 5 23.5734 4.53647
      vertex 5 25 3.5
    endloop
  endfacet
  facet normal 0 0.587785 0.809017
    outer loop
      vertex 5 23.5734 4.53647
      vertex 0 25 3.5
      vertex 0 23.5734 4.53647
    endloop
  endfacet
endsolid OpenSCAD_Model
